<svg width="1219" height="102" viewBox="0 0 1219 102" fill="none" xmlns="http://www.w3.org/2000/svg">
<rect width="1219" height="102" rx="10" fill="#FD96C9" fill-opacity="0.2"/>
<rect x="24" y="24" width="182" height="54" rx="10" fill="white"/>
<path d="M42.75 65C41.9937 65 41.3464 64.7258 40.8078 64.1775C40.2693 63.6292 40 62.97 40 62.2V59.435C40 58.9683 40.1031 58.5367 40.3094 58.14C40.5156 57.7433 40.7906 57.405 41.1344 57.125C42.7156 55.8183 43.9016 54.5 44.6922 53.17C45.4828 51.84 46.0385 50.65 46.3594 49.6H44.125C43.7354 49.6 43.4089 49.4658 43.1453 49.1975C42.8818 48.9292 42.75 48.5967 42.75 48.2C42.75 47.8033 42.8818 47.4708 43.1453 47.2025C43.4089 46.9342 43.7354 46.8 44.125 46.8H45.8438C45.5229 46.2867 45.2708 45.7383 45.0875 45.155C44.9042 44.5717 44.8125 43.9533 44.8125 43.3C44.8125 41.55 45.4141 40.0625 46.6172 38.8375C47.8203 37.6125 49.2812 37 51 37C52.7188 37 54.1797 37.6125 55.3828 38.8375C56.5859 40.0625 57.1875 41.55 57.1875 43.3C57.1875 43.9533 57.0958 44.5717 56.9125 45.155C56.7292 45.7383 56.4771 46.2867 56.1562 46.8H57.875C58.2646 46.8 58.5911 46.9342 58.8547 47.2025C59.1182 47.4708 59.25 47.8033 59.25 48.2C59.25 48.5967 59.1182 48.9292 58.8547 49.1975C58.5911 49.4658 58.2646 49.6 57.875 49.6H55.6406C55.9615 50.65 56.5172 51.84 57.3078 53.17C58.0984 54.5 59.2844 55.8183 60.8656 57.125C61.2094 57.405 61.4844 57.7433 61.6906 58.14C61.8969 58.5367 62 58.9683 62 59.435V62.2C62 62.97 61.7307 63.6292 61.1922 64.1775C60.6536 64.7258 60.0063 65 59.25 65H42.75ZM42.75 62.2H59.25V59.4C57.1417 57.72 55.6177 55.9875 54.6781 54.2025C53.7385 52.4175 53.1083 50.8833 52.7875 49.6H49.2125C48.8917 50.8833 48.2615 52.4175 47.3219 54.2025C46.3823 55.9875 44.8583 57.72 42.75 59.4V62.2ZM51 46.8C51.9625 46.8 52.776 46.4617 53.4406 45.785C54.1052 45.1083 54.4375 44.28 54.4375 43.3C54.4375 42.32 54.1052 41.4917 53.4406 40.815C52.776 40.1383 51.9625 39.8 51 39.8C50.0375 39.8 49.224 40.1383 48.5594 40.815C47.8948 41.4917 47.5625 42.32 47.5625 43.3C47.5625 44.28 47.8948 45.1083 48.5594 45.785C49.224 46.4617 50.0375 46.8 51 46.8Z" fill="#EA6900"/>
<path d="M76.2406 63C75.4806 63 74.7906 62.81 74.1706 62.43C73.5506 62.05 73.0506 61.55 72.6706 60.93C72.2906 60.31 72.1006 59.62 72.1006 58.86V45.54C72.1006 44.76 72.2906 44.06 72.6706 43.44C73.0506 42.82 73.5506 42.33 74.1706 41.97C74.7906 41.59 75.4806 41.4 76.2406 41.4H90.0706V45.33H76.3906C76.2906 45.33 76.2006 45.37 76.1206 45.45C76.0606 45.51 76.0306 45.59 76.0306 45.69V49.62C76.0306 49.72 76.0606 49.81 76.1206 49.89C76.2006 49.95 76.2906 49.98 76.3906 49.98H89.3506C90.1106 49.98 90.8006 50.17 91.4206 50.55C92.0606 50.91 92.5606 51.41 92.9206 52.05C93.3006 52.67 93.4906 53.36 93.4906 54.12V58.86C93.4906 59.62 93.3006 60.31 92.9206 60.93C92.5406 61.55 92.0406 62.05 91.4206 62.43C90.8006 62.81 90.1106 63 89.3506 63H76.2406ZM76.3906 59.07H89.2006C89.3006 59.07 89.3806 59.04 89.4406 58.98C89.5206 58.9 89.5606 58.81 89.5606 58.71V54.3C89.5606 54.2 89.5206 54.12 89.4406 54.06C89.3806 53.98 89.3006 53.94 89.2006 53.94H76.0306V58.71C76.0306 58.81 76.0606 58.9 76.1206 58.98C76.2006 59.04 76.2906 59.07 76.3906 59.07Z" fill="#EA6900"/>
<path d="M137.75 65C136.994 65 136.346 64.7258 135.808 64.1775C135.269 63.6292 135 62.97 135 62.2V59.435C135 58.9683 135.103 58.5367 135.309 58.14C135.516 57.7433 135.791 57.405 136.134 57.125C137.716 55.8183 138.902 54.5 139.692 53.17C140.483 51.84 141.039 50.65 141.359 49.6H139.125C138.735 49.6 138.409 49.4658 138.145 49.1975C137.882 48.9292 137.75 48.5967 137.75 48.2C137.75 47.8033 137.882 47.4708 138.145 47.2025C138.409 46.9342 138.735 46.8 139.125 46.8H140.844C140.523 46.2867 140.271 45.7383 140.088 45.155C139.904 44.5717 139.812 43.9533 139.812 43.3C139.812 41.55 140.414 40.0625 141.617 38.8375C142.82 37.6125 144.281 37 146 37C147.719 37 149.18 37.6125 150.383 38.8375C151.586 40.0625 152.188 41.55 152.188 43.3C152.188 43.9533 152.096 44.5717 151.913 45.155C151.729 45.7383 151.477 46.2867 151.156 46.8H152.875C153.265 46.8 153.591 46.9342 153.855 47.2025C154.118 47.4708 154.25 47.8033 154.25 48.2C154.25 48.5967 154.118 48.9292 153.855 49.1975C153.591 49.4658 153.265 49.6 152.875 49.6H150.641C150.961 50.65 151.517 51.84 152.308 53.17C153.098 54.5 154.284 55.8183 155.866 57.125C156.209 57.405 156.484 57.7433 156.691 58.14C156.897 58.5367 157 58.9683 157 59.435V62.2C157 62.97 156.731 63.6292 156.192 64.1775C155.654 64.7258 155.006 65 154.25 65H137.75ZM137.75 62.2H154.25V59.4C152.142 57.72 150.618 55.9875 149.678 54.2025C148.739 52.4175 148.108 50.8833 147.788 49.6H144.213C143.892 50.8833 143.261 52.4175 142.322 54.2025C141.382 55.9875 139.858 57.72 137.75 59.4V62.2ZM146 46.8C146.962 46.8 147.776 46.4617 148.441 45.785C149.105 45.1083 149.438 44.28 149.438 43.3C149.438 42.32 149.105 41.4917 148.441 40.815C147.776 40.1383 146.962 39.8 146 39.8C145.038 39.8 144.224 40.1383 143.559 40.815C142.895 41.4917 142.562 42.32 142.562 43.3C142.562 44.28 142.895 45.1083 143.559 45.785C144.224 46.4617 145.038 46.8 146 46.8Z" fill="#097FC5"/>
<path d="M166.808 63V54.72C166.808 53.94 166.998 53.24 167.378 52.62C167.758 52 168.258 51.51 168.878 51.15C169.498 50.77 170.188 50.58 170.948 50.58H183.908C184.008 50.58 184.088 50.55 184.148 50.49C184.228 50.41 184.268 50.32 184.268 50.22V45.69C184.268 45.59 184.228 45.51 184.148 45.45C184.088 45.37 184.008 45.33 183.908 45.33H171.098C170.998 45.33 170.908 45.37 170.828 45.45C170.768 45.51 170.738 45.59 170.738 45.69V47.16H166.808V45.54C166.808 44.76 166.998 44.06 167.378 43.44C167.758 42.82 168.258 42.33 168.878 41.97C169.498 41.59 170.188 41.4 170.948 41.4H184.058C184.818 41.4 185.508 41.59 186.128 41.97C186.768 42.33 187.268 42.82 187.628 43.44C188.008 44.06 188.198 44.76 188.198 45.54V50.4C188.198 51.14 188.008 51.83 187.628 52.47C187.268 53.09 186.768 53.59 186.128 53.97C185.508 54.35 184.818 54.54 184.058 54.54H171.098C170.998 54.54 170.908 54.58 170.828 54.66C170.768 54.72 170.738 54.8 170.738 54.9V58.71C170.738 58.81 170.768 58.9 170.828 58.98C170.908 59.04 170.998 59.07 171.098 59.07H188.198V63H166.808Z" fill="#097FC5"/>
<path d="M426.74 63C425.929 63 425.183 62.7973 424.5 62.392C423.839 61.9867 423.305 61.4533 422.9 60.792C422.495 60.1093 422.292 59.3627 422.292 58.552V44.408C422.292 43.5973 422.495 42.8613 422.9 42.2C423.305 41.5173 423.839 40.9733 424.5 40.568C425.183 40.1627 425.929 39.96 426.74 39.96H445.268V44.216H427.636C427.295 44.216 427.017 44.312 426.804 44.504C426.612 44.696 426.516 44.9733 426.516 45.336V57.624C426.516 57.9653 426.612 58.2427 426.804 58.456C427.017 58.648 427.295 58.744 427.636 58.744H445.268V63H426.74ZM455.165 63C454.354 63 453.607 62.7973 452.924 62.392C452.263 61.9867 451.73 61.4533 451.324 60.792C450.94 60.1307 450.748 59.3947 450.748 58.584V44.44H454.941V58.424C454.941 58.5307 454.973 58.6267 455.036 58.712C455.122 58.776 455.218 58.808 455.325 58.808H465.021C465.127 58.808 465.213 58.776 465.277 58.712C465.362 58.6267 465.405 58.5307 465.405 58.424V44.44H469.597V58.584C469.597 59.3947 469.394 60.1307 468.989 60.792C468.605 61.4533 468.082 61.9867 467.42 62.392C466.759 62.7973 466.013 63 465.181 63H455.165ZM475.206 63V48.856C475.206 48.0453 475.409 47.3093 475.814 46.648C476.22 45.9867 476.753 45.4533 477.414 45.048C478.097 44.6427 478.833 44.44 479.622 44.44H489.927V48.632H479.782C479.676 48.632 479.58 48.6747 479.494 48.76C479.43 48.824 479.398 48.9093 479.398 49.016V63H475.206ZM494.165 63V48.856C494.165 48.0453 494.368 47.3093 494.773 46.648C495.179 45.9867 495.712 45.4533 496.373 45.048C497.056 44.6427 497.792 44.44 498.581 44.44H508.885V48.632H498.741C498.635 48.632 498.539 48.6747 498.453 48.76C498.389 48.824 498.357 48.9093 498.357 49.016V63H494.165ZM517.727 63C516.916 63 516.18 62.7973 515.519 62.392C514.857 61.9867 514.324 61.4533 513.919 60.792C513.513 60.1307 513.311 59.3947 513.311 58.584V48.856C513.311 48.0453 513.513 47.3093 513.919 46.648C514.324 45.9867 514.857 45.4533 515.519 45.048C516.18 44.6427 516.916 44.44 517.727 44.44H527.743C528.553 44.44 529.289 44.6427 529.951 45.048C530.633 45.4533 531.167 45.9867 531.551 46.648C531.956 47.3093 532.159 48.0453 532.159 48.856V55.832H517.503V58.424C517.503 58.5307 517.535 58.6267 517.599 58.712C517.684 58.776 517.78 58.808 517.887 58.808H532.159V63H517.727ZM517.503 52.056H527.967V49.016C527.967 48.9093 527.924 48.824 527.839 48.76C527.775 48.6747 527.689 48.632 527.583 48.632H517.887C517.78 48.632 517.684 48.6747 517.599 48.76C517.535 48.824 517.503 48.9093 517.503 49.016V52.056ZM537.803 63V44.44H552.235C553.046 44.44 553.782 44.6427 554.443 45.048C555.126 45.4533 555.659 45.9867 556.043 46.648C556.448 47.3093 556.651 48.0453 556.651 48.856V63H552.459V49.016C552.459 48.9093 552.416 48.824 552.331 48.76C552.267 48.6747 552.182 48.632 552.075 48.632H542.379C542.272 48.632 542.176 48.6747 542.091 48.76C542.027 48.824 541.995 48.9093 541.995 49.016V63H537.803ZM566.708 63C565.898 63 565.162 62.7973 564.5 62.392C563.839 61.9867 563.306 61.4533 562.9 60.792C562.495 60.1307 562.292 59.3947 562.292 58.584V38.744H566.484V44.44H573.716V48.632H566.484V58.424C566.484 58.5307 566.516 58.6267 566.58 58.712C566.666 58.776 566.762 58.808 566.868 58.808H573.716V63H566.708ZM590.617 70.36V44.44H605.049C605.859 44.44 606.595 44.6427 607.257 45.048C607.939 45.4533 608.473 45.9867 608.857 46.648C609.262 47.3093 609.465 48.0453 609.465 48.856V58.584C609.465 59.3947 609.262 60.1307 608.857 60.792C608.473 61.4533 607.939 61.9867 607.257 62.392C606.595 62.7973 605.859 63 605.049 63H594.809V70.36H590.617ZM595.193 58.808H604.889C604.995 58.808 605.081 58.776 605.145 58.712C605.23 58.6267 605.273 58.5307 605.273 58.424V49.016C605.273 48.9093 605.23 48.824 605.145 48.76C605.081 48.6747 604.995 48.632 604.889 48.632H595.193C595.086 48.632 594.99 48.6747 594.905 48.76C594.841 48.824 594.809 48.9093 594.809 49.016V58.424C594.809 58.5307 594.841 58.6267 594.905 58.712C594.99 58.776 595.086 58.808 595.193 58.808ZM618.459 63C617.648 63 616.912 62.7973 616.251 62.392C615.589 61.9867 615.056 61.4533 614.651 60.792C614.245 60.1307 614.043 59.3947 614.043 58.584V38.328H618.267V58.424C618.267 58.5307 618.299 58.6267 618.363 58.712C618.448 58.776 618.544 58.808 618.651 58.808H622.203V63H618.459ZM631.292 63C630.482 63 629.735 62.7973 629.052 62.392C628.391 61.9867 627.858 61.4533 627.452 60.792C627.068 60.1307 626.876 59.3947 626.876 58.584V51.608H641.532V49.016C641.532 48.9093 641.49 48.824 641.404 48.76C641.34 48.6747 641.255 48.632 641.148 48.632H626.876V44.44H641.308C642.119 44.44 642.855 44.6427 643.516 45.048C644.199 45.4533 644.732 45.9867 645.116 46.648C645.522 47.3093 645.724 48.0453 645.724 48.856V63H631.292ZM631.452 58.808H641.532V55.384H631.068V58.424C631.068 58.5307 631.1 58.6267 631.164 58.712C631.25 58.776 631.346 58.808 631.452 58.808ZM654.119 69.88V65.656H665.287C665.394 65.656 665.479 65.6133 665.543 65.528C665.629 65.464 665.671 65.3787 665.671 65.272V63H655.431C654.642 63 653.906 62.7973 653.223 62.392C652.562 61.9867 652.029 61.4533 651.623 60.792C651.218 60.1307 651.015 59.3947 651.015 58.584V44.504H655.207V58.424C655.207 58.5307 655.239 58.6267 655.303 58.712C655.389 58.776 655.485 58.808 655.591 58.808H665.287C665.394 58.808 665.479 58.776 665.543 58.712C665.629 58.6267 665.671 58.5307 665.671 58.424V44.504H669.863V65.464C669.863 66.2747 669.671 67.0107 669.287 67.672C668.903 68.3547 668.37 68.888 667.687 69.272C667.026 69.6773 666.29 69.88 665.479 69.88H654.119ZM679.116 63C678.305 63 677.569 62.7973 676.908 62.392C676.246 61.9867 675.713 61.4533 675.308 60.792C674.902 60.1307 674.7 59.3947 674.7 58.584V48.856C674.7 48.0453 674.902 47.3093 675.308 46.648C675.713 45.9867 676.246 45.4533 676.908 45.048C677.569 44.6427 678.305 44.44 679.116 44.44H689.132C689.942 44.44 690.678 44.6427 691.34 45.048C692.022 45.4533 692.556 45.9867 692.94 46.648C693.345 47.3093 693.548 48.0453 693.548 48.856V55.832H678.892V58.424C678.892 58.5307 678.924 58.6267 678.988 58.712C679.073 58.776 679.169 58.808 679.276 58.808H693.548V63H679.116ZM678.892 52.056H689.356V49.016C689.356 48.9093 689.313 48.824 689.228 48.76C689.164 48.6747 689.078 48.632 688.972 48.632H679.276C679.169 48.632 679.073 48.6747 678.988 48.76C678.924 48.824 678.892 48.9093 678.892 49.016V52.056ZM698.94 63V48.856C698.94 48.0453 699.143 47.3093 699.548 46.648C699.954 45.9867 700.487 45.4533 701.148 45.048C701.831 44.6427 702.567 44.44 703.356 44.44H713.66V48.632H703.516C703.41 48.632 703.314 48.6747 703.228 48.76C703.164 48.824 703.132 48.9093 703.132 49.016V63H698.94ZM717.963 48.568V44.376H722.155V48.568H717.963ZM717.963 63V58.808H722.155V63H717.963Z" fill="white"/>
<rect x="744.5" y="31" width="41" height="40" rx="3" fill="#1FAAFC"/>
<path d="M755.625 67C754.766 67 754.03 66.6867 753.418 66.06C752.806 65.4333 752.5 64.68 752.5 63.8V60.64C752.5 60.1067 752.617 59.6133 752.852 59.16C753.086 58.7067 753.398 58.32 753.789 58C755.586 56.5067 756.934 55 757.832 53.48C758.73 51.96 759.362 50.6 759.727 49.4H757.188C756.745 49.4 756.374 49.2467 756.074 48.94C755.775 48.6333 755.625 48.2533 755.625 47.8C755.625 47.3467 755.775 46.9667 756.074 46.66C756.374 46.3533 756.745 46.2 757.188 46.2H759.141C758.776 45.6133 758.49 44.9867 758.281 44.32C758.073 43.6533 757.969 42.9467 757.969 42.2C757.969 40.2 758.652 38.5 760.02 37.1C761.387 35.7 763.047 35 765 35C766.953 35 768.613 35.7 769.98 37.1C771.348 38.5 772.031 40.2 772.031 42.2C772.031 42.9467 771.927 43.6533 771.719 44.32C771.51 44.9867 771.224 45.6133 770.859 46.2H772.812C773.255 46.2 773.626 46.3533 773.926 46.66C774.225 46.9667 774.375 47.3467 774.375 47.8C774.375 48.2533 774.225 48.6333 773.926 48.94C773.626 49.2467 773.255 49.4 772.812 49.4H770.273C770.638 50.6 771.27 51.96 772.168 53.48C773.066 55 774.414 56.5067 776.211 58C776.602 58.32 776.914 58.7067 777.148 59.16C777.383 59.6133 777.5 60.1067 777.5 60.64V63.8C777.5 64.68 777.194 65.4333 776.582 66.06C775.97 66.6867 775.234 67 774.375 67H755.625ZM755.625 63.8H774.375V60.6C771.979 58.68 770.247 56.7 769.18 54.66C768.112 52.62 767.396 50.8667 767.031 49.4H762.969C762.604 50.8667 761.888 52.62 760.82 54.66C759.753 56.7 758.021 58.68 755.625 60.6V63.8ZM765 46.2C766.094 46.2 767.018 45.8133 767.773 45.04C768.529 44.2667 768.906 43.32 768.906 42.2C768.906 41.08 768.529 40.1333 767.773 39.36C767.018 38.5867 766.094 38.2 765 38.2C763.906 38.2 762.982 38.5867 762.227 39.36C761.471 40.1333 761.094 41.08 761.094 42.2C761.094 43.32 761.471 44.2667 762.227 45.04C762.982 45.8133 763.906 46.2 765 46.2Z" fill="white"/>
<rect x="1001" y="25" width="193" height="52" rx="9" fill="#ED1B76" fill-opacity="0.08"/>
<rect x="1001" y="25" width="193" height="52" rx="9" stroke="#E71C4F" stroke-width="2"/>
<mask id="mask0_2062_3984" style="mask-type:alpha" maskUnits="userSpaceOnUse" x="1020" y="36" width="30" height="30">
<rect x="1020" y="36" width="30" height="30" fill="#D9D9D9"/>
</mask>
<g mask="url(#mask0_2062_3984)">
<path d="M1045.19 52.25H1031.25C1030.9 52.25 1030.6 52.1302 1030.36 51.8906C1030.12 51.651 1030 51.3542 1030 51C1030 50.6458 1030.12 50.349 1030.36 50.1094C1030.6 49.8698 1030.9 49.75 1031.25 49.75H1045.19L1044.13 48.6875C1043.88 48.4375 1043.76 48.1458 1043.77 47.8125C1043.78 47.4792 1043.9 47.1875 1044.13 46.9375C1044.38 46.6875 1044.67 46.5573 1045.02 46.5469C1045.36 46.5365 1045.66 46.6562 1045.91 46.9062L1049.13 50.125C1049.38 50.375 1049.5 50.6667 1049.5 51C1049.5 51.3333 1049.38 51.625 1049.13 51.875L1045.91 55.0938C1045.66 55.3438 1045.36 55.4635 1045.02 55.4531C1044.67 55.4427 1044.38 55.3125 1044.13 55.0625C1043.9 54.8125 1043.78 54.5208 1043.77 54.1875C1043.76 53.8542 1043.88 53.5625 1044.13 53.3125L1045.19 52.25ZM1038.75 46V42.25H1026.25V59.75H1038.75V56C1038.75 55.6458 1038.87 55.349 1039.11 55.1094C1039.35 54.8698 1039.65 54.75 1040 54.75C1040.35 54.75 1040.65 54.8698 1040.89 55.1094C1041.13 55.349 1041.25 55.6458 1041.25 56V59.75C1041.25 60.4375 1041.01 61.026 1040.52 61.5156C1040.03 62.0052 1039.44 62.25 1038.75 62.25H1026.25C1025.56 62.25 1024.97 62.0052 1024.48 61.5156C1023.99 61.026 1023.75 60.4375 1023.75 59.75V42.25C1023.75 41.5625 1023.99 40.974 1024.48 40.4844C1024.97 39.9948 1025.56 39.75 1026.25 39.75H1038.75C1039.44 39.75 1040.03 39.9948 1040.52 40.4844C1041.01 40.974 1041.25 41.5625 1041.25 42.25V46C1041.25 46.3542 1041.13 46.651 1040.89 46.8906C1040.65 47.1302 1040.35 47.25 1040 47.25C1039.65 47.25 1039.35 47.1302 1039.11 46.8906C1038.87 46.651 1038.75 46.3542 1038.75 46Z" fill="white"/>
</g>
<path d="M1061.16 58.5V44.1H1074.42V46.76H1063.82V49.96H1072.34V52.64H1063.82V55.84H1074.42V58.5H1061.16ZM1077.03 58.5V57.8L1081.29 52.6L1077.03 47.6V46.9H1079.87L1082.99 50.58L1086.11 46.9H1088.95V47.6L1084.69 52.6L1088.95 57.8V58.5H1086.13L1082.99 54.66L1079.87 58.5H1077.03ZM1091.8 58.5V46.9H1094.42V58.5H1091.8ZM1091.8 45.74V43.1H1094.42V45.74H1091.8ZM1100.09 58.5C1099.58 58.5 1099.12 58.3733 1098.71 58.12C1098.29 57.8667 1097.96 57.5333 1097.71 57.12C1097.45 56.7067 1097.33 56.2467 1097.33 55.74V43.34H1099.95V46.9H1104.47V49.52H1099.95V55.64C1099.95 55.7067 1099.97 55.7667 1100.01 55.82C1100.06 55.86 1100.12 55.88 1100.19 55.88H1104.47V58.5H1100.09ZM1115.51 63.08V60.44H1122.49C1122.56 60.44 1122.61 60.4133 1122.65 60.36C1122.7 60.32 1122.73 60.2667 1122.73 60.2V58.5H1116.33C1115.84 58.5 1115.38 58.3733 1114.95 58.12C1114.54 57.8667 1114.2 57.5333 1113.95 57.12C1113.7 56.7067 1113.57 56.2467 1113.57 55.74V49.66C1113.57 49.1533 1113.7 48.6933 1113.95 48.28C1114.2 47.8667 1114.54 47.5333 1114.95 47.28C1115.38 47.0267 1115.84 46.9 1116.33 46.9H1122.61C1123.12 46.9 1123.58 47.0267 1123.99 47.28C1124.4 47.5333 1124.73 47.8667 1124.97 48.28C1125.22 48.6933 1125.35 49.1533 1125.35 49.66V60.32C1125.35 60.84 1125.23 61.3067 1124.99 61.72C1124.75 62.1333 1124.42 62.46 1123.99 62.7C1123.58 62.9533 1123.12 63.08 1122.61 63.08H1115.51ZM1116.43 55.88H1122.49C1122.56 55.88 1122.61 55.86 1122.65 55.82C1122.7 55.7667 1122.73 55.7067 1122.73 55.64V49.76C1122.73 49.6933 1122.7 49.64 1122.65 49.6C1122.61 49.5467 1122.56 49.52 1122.49 49.52H1116.43C1116.36 49.52 1116.3 49.5467 1116.25 49.6C1116.21 49.64 1116.19 49.6933 1116.19 49.76V55.64C1116.19 55.7067 1116.21 55.7667 1116.25 55.82C1116.3 55.86 1116.36 55.88 1116.43 55.88ZM1130.57 58.5C1130.07 58.5 1129.6 58.3733 1129.17 58.12C1128.76 57.8667 1128.43 57.5333 1128.17 57.12C1127.93 56.7067 1127.81 56.2467 1127.81 55.74V51.38H1136.97V49.76C1136.97 49.6933 1136.95 49.64 1136.89 49.6C1136.85 49.5467 1136.8 49.52 1136.73 49.52H1127.81V46.9H1136.83C1137.34 46.9 1137.8 47.0267 1138.21 47.28C1138.64 47.5333 1138.97 47.8667 1139.21 48.28C1139.47 48.6933 1139.59 49.1533 1139.59 49.66V58.5H1130.57ZM1130.67 55.88H1136.97V53.74H1130.43V55.64C1130.43 55.7067 1130.45 55.7667 1130.49 55.82C1130.55 55.86 1130.61 55.88 1130.67 55.88ZM1142.03 58.5V46.9H1156.41C1156.93 46.9 1157.4 47.0267 1157.81 47.28C1158.22 47.5333 1158.55 47.8667 1158.79 48.28C1159.04 48.6933 1159.17 49.1533 1159.17 49.66V58.5H1156.57V49.76C1156.57 49.6933 1156.54 49.64 1156.49 49.6C1156.44 49.5467 1156.38 49.52 1156.31 49.52H1152.17C1152.1 49.52 1152.04 49.5467 1151.99 49.6C1151.95 49.64 1151.93 49.6933 1151.93 49.76V58.5H1149.29V49.76C1149.29 49.6933 1149.26 49.64 1149.21 49.6C1149.17 49.5467 1149.12 49.52 1149.05 49.52H1144.89C1144.82 49.52 1144.76 49.5467 1144.71 49.6C1144.67 49.64 1144.65 49.6933 1144.65 49.76V58.5H1142.03ZM1164.54 58.5C1164.03 58.5 1163.57 58.3733 1163.16 58.12C1162.74 57.8667 1162.41 57.5333 1162.16 57.12C1161.9 56.7067 1161.78 56.2467 1161.78 55.74V49.66C1161.78 49.1533 1161.9 48.6933 1162.16 48.28C1162.41 47.8667 1162.74 47.5333 1163.16 47.28C1163.57 47.0267 1164.03 46.9 1164.54 46.9H1170.8C1171.3 46.9 1171.76 47.0267 1172.18 47.28C1172.6 47.5333 1172.94 47.8667 1173.18 48.28C1173.43 48.6933 1173.56 49.1533 1173.56 49.66V54.02H1164.4V55.64C1164.4 55.7067 1164.42 55.7667 1164.46 55.82C1164.51 55.86 1164.57 55.88 1164.64 55.88H1173.56V58.5H1164.54ZM1164.4 51.66H1170.94V49.76C1170.94 49.6933 1170.91 49.64 1170.86 49.6C1170.82 49.5467 1170.76 49.52 1170.7 49.52H1164.64C1164.57 49.52 1164.51 49.5467 1164.46 49.6C1164.42 49.64 1164.4 49.6933 1164.4 49.76V51.66Z" fill="white"/>
</svg>
