<svg width="70" height="70" viewBox="0 0 70 70" fill="none" xmlns="http://www.w3.org/2000/svg">
<path d="M9.75576 63.0026L4.13867 0H65.8612L60.2381 62.9926L34.9622 70L9.75576 63.0026Z" fill="#264DE4"/>
<path d="M55.4241 58.9816L60.2295 5.15137H35V64.644L55.4241 58.9816Z" fill="#2965F1"/>
<path d="M17.0162 28.5181L17.7087 36.245H35.0002V28.5181H17.0162ZM16.327 20.6055H35.0002V12.8784H15.6245L16.327 20.6055ZM35.0002 48.5859L34.9663 48.595L26.3606 46.2713L25.8106 40.1086H18.0537L19.1364 52.2411L34.9646 56.6353L35.0002 56.6253V48.5859Z" fill="#EBEBEB"/>
<path d="M34.9731 28.5181V36.245H44.4881L43.5912 46.2664L34.9731 48.5924V56.6314L50.8139 52.2411L50.9301 50.9356L52.7458 30.5929L52.9344 28.5181L54.3294 12.8784H34.9731V20.6055H45.8613L45.158 28.5181H34.9731Z" fill="white"/>
</svg>
