<svg width="55" height="70" viewBox="0 0 55 70" fill="none" xmlns="http://www.w3.org/2000/svg">
<g clip-path="url(#clip0_8807_2569)">
<path d="M24.6606 0H36.1071V52.4286C30.244 53.5369 25.9278 53.9729 21.2577 53.9729C7.2774 53.9583 0 47.7167 0 35.7292C0 24.1792 7.71934 16.6833 19.6814 16.6833C21.5377 16.6833 22.9518 16.8293 24.6606 17.2666V0ZM25.0617 26.7149C23.7211 26.2773 22.6164 26.1315 21.2021 26.1315C15.4127 26.1315 12.0686 29.6606 12.0686 35.8453C12.0686 41.8669 15.2655 45.1918 21.1286 45.1918C22.3953 45.1918 23.4266 45.1205 25.0617 44.9017V26.7149Z" fill="#2BA977"/>
<path d="M54.8255 18.0909V44.3411C54.8255 53.3812 54.1479 57.7285 52.1591 61.4766C50.3028 65.08 47.8575 67.3522 42.8046 69.8618L32.1831 64.8599C37.236 62.5132 39.6814 60.4396 41.2431 57.2751C42.878 54.0391 43.3937 50.291 43.3937 40.4327V18.0911L54.8255 18.0909ZM42.2402 0H53.6866V11.623H42.2402V0Z" fill="#2BA977"/>
</g>
<defs>
<clipPath id="clip0_8807_2569">
<rect width="55" height="70" fill="white"/>
</clipPath>
</defs>
</svg>
