<svg width="53" height="70" viewBox="0 0 53 70" fill="none" xmlns="http://www.w3.org/2000/svg">
<g clip-path="url(#clip0_8807_3766)">
<path d="M0.0273438 56.4789L8.72537 1.34634C8.8317 0.670184 9.36256 0.137167 10.0437 0.0225526C10.7247 -0.0920623 11.4034 0.237682 11.7291 0.841145L20.7244 17.4605L24.3099 10.6981C24.5876 10.1753 25.135 9.84785 25.7315 9.84785C26.328 9.84785 26.8754 10.1753 27.1531 10.6981L51.428 56.4789H0.0273438Z" fill="#FFA000"/>
<path d="M30.0768 35.0023L20.7202 17.4521L0.0273438 56.4786L30.0768 35.0023Z" fill="#F57C00"/>
<path d="M51.4284 56.4789L44.7663 15.6425C44.6657 15.0561 44.2432 14.5744 43.6711 14.3928C43.0988 14.2112 42.4726 14.3623 42.0477 14.7828L0.0273438 56.4783L23.2782 69.3943C24.7384 70.2018 26.5165 70.2018 27.9766 69.3943L51.4284 56.4789Z" fill="#FFCA28"/>
</g>
<defs>
<clipPath id="clip0_8807_3766">
<rect width="53" height="70" fill="white"/>
</clipPath>
</defs>
</svg>
