<svg width="70" height="70" viewBox="0 0 70 70" fill="none" xmlns="http://www.w3.org/2000/svg">
<g clip-path="url(#clip0_8807_57)">
<path d="M65.951 0.233643L60.3644 62.8188L35.252 69.7806L10.2088 62.8284L4.62793 0.233643H65.951Z" fill="#E44D26"/>
<path d="M35.2891 64.4591L55.5811 58.8335L60.3551 5.35156H35.2891V64.4591Z" fill="#F16529"/>
<path d="M24.429 20.706H35.2893V13.0291H16.0391L16.2227 15.0886L18.1097 36.2444H35.2893V28.5674H25.1307L24.429 20.706ZM26.1593 40.083H18.4527L19.5282 52.1371L35.254 56.5023L35.2893 56.4927V48.5054L35.2557 48.5143L26.7059 46.2057L26.1593 40.083Z" fill="#EBEBEB"/>
<path d="M35.2629 36.2444H44.7163L43.825 46.2009L35.2627 48.5119V56.4987L51.001 52.1371L51.1164 50.84L52.9207 30.6289L53.108 28.5674H35.2629V36.2444ZM35.2629 20.6873V20.706H53.8065L53.9603 18.9806L54.3103 15.0886L54.4937 13.0291H35.2629V20.6873Z" fill="white"/>
</g>
<defs>
<clipPath id="clip0_8807_57">
<rect width="70" height="70" fill="white"/>
</clipPath>
</defs>
</svg>
