<svg width="451" height="57" viewBox="0 0 451 57" fill="none" xmlns="http://www.w3.org/2000/svg">
<g filter="url(#filter0_d_8374_2828)">
<rect width="430" height="36" transform="translate(7.1001 8.09998)" fill="#4DD5BC" fill-opacity="0.2"/>
<rect width="117" height="18" transform="translate(27.1001 17.1)" fill="#86E9D6" fill-opacity="0.3"/>
<path d="M36.1257 30.1C35.8437 30.1 35.6022 30.0021 35.4014 29.8062C35.2005 29.6104 35.1001 29.375 35.1001 29.1V23.1C35.1001 22.825 35.2005 22.5896 35.4014 22.3937C35.6022 22.1979 35.8437 22.1 36.1257 22.1H41.7668C41.9292 22.1 42.083 22.1354 42.2283 22.2062C42.3736 22.2771 42.4933 22.375 42.5873 22.5L44.895 25.5C45.0317 25.675 45.1001 25.875 45.1001 26.1C45.1001 26.325 45.0317 26.525 44.895 26.7L42.5873 29.7C42.4933 29.825 42.3736 29.9229 42.2283 29.9937C42.083 30.0646 41.9292 30.1 41.7668 30.1H36.1257Z" fill="#2BB1FF"/>
<path d="M47.5001 29.1C47.5374 29.1 47.5748 29.0626 47.6121 28.988C47.6494 28.9133 47.6681 28.7906 47.6681 28.62V24.78C47.6681 24.6093 47.6494 24.4893 47.6121 24.42C47.5748 24.3453 47.5374 24.3053 47.5001 24.3H50.4921C50.9081 24.3 51.2334 24.348 51.4681 24.444C51.7028 24.54 51.8681 24.6786 51.9641 24.86C52.0601 25.036 52.1081 25.244 52.1081 25.484C52.1081 25.676 52.0734 25.8386 52.0041 25.972C51.9401 26.1 51.8574 26.2013 51.7561 26.276C51.6548 26.3506 51.5534 26.4066 51.4521 26.444V26.46C51.7988 26.54 52.0601 26.684 52.2361 26.892C52.4121 27.0946 52.5001 27.3666 52.5001 27.708C52.5001 27.9373 52.4548 28.1586 52.3641 28.372C52.2734 28.5853 52.1054 28.7613 51.8601 28.9C51.6201 29.0333 51.2708 29.1 50.8121 29.1H47.5001ZM49.2201 28.212H50.4201C50.7241 28.212 50.9401 28.1693 51.0681 28.084C51.2014 27.9933 51.2681 27.8493 51.2681 27.652C51.2681 27.4653 51.1961 27.3213 51.0521 27.22C50.9081 27.1133 50.6708 27.06 50.3401 27.06H49.2281C49.0681 27.06 48.9721 27.0706 48.9401 27.092C48.9134 27.1133 48.9001 27.1853 48.9001 27.308V27.972C48.9001 28.0893 48.9134 28.1586 48.9401 28.18C48.9721 28.2013 49.0654 28.212 49.2201 28.212ZM49.2281 26.244H50.1721C50.4281 26.244 50.6094 26.2013 50.7161 26.116C50.8281 26.0253 50.8841 25.892 50.8841 25.716C50.8841 25.54 50.8308 25.4093 50.7241 25.324C50.6228 25.2386 50.4414 25.196 50.1801 25.196H49.2201C49.0601 25.196 48.9668 25.2066 48.9401 25.228C48.9134 25.244 48.9001 25.3133 48.9001 25.436V26.004C48.9001 26.1213 48.9134 26.1906 48.9401 26.212C48.9721 26.2333 49.0681 26.244 49.2281 26.244ZM53.1407 29.1C53.1781 29.1 53.2154 29.0626 53.2527 28.988C53.2901 28.9133 53.3087 28.7906 53.3087 28.62V24.06C53.3087 23.8893 53.2901 23.7666 53.2527 23.692C53.2207 23.6173 53.1861 23.58 53.1487 23.58C53.5007 23.58 53.7861 23.564 54.0047 23.532C54.2287 23.4946 54.3754 23.4573 54.4447 23.42V28.62C54.4447 28.7906 54.4607 28.9133 54.4927 28.988C54.5301 29.0626 54.5674 29.1 54.6047 29.1H53.1407ZM56.9743 29.18C56.665 29.18 56.401 29.1266 56.1823 29.02C55.9637 28.908 55.7983 28.7186 55.6863 28.452C55.5743 28.18 55.5183 27.804 55.5183 27.324V25.836C55.5183 25.6653 55.4997 25.5426 55.4623 25.468C55.4303 25.3933 55.3957 25.356 55.3583 25.356H56.8303C56.793 25.356 56.753 25.3933 56.7103 25.468C56.673 25.5426 56.6543 25.6653 56.6543 25.836V27.436C56.6543 27.772 56.7157 28.012 56.8383 28.156C56.9663 28.3 57.113 28.372 57.2783 28.372C57.513 28.372 57.6943 28.3186 57.8223 28.212C57.9503 28.1 58.041 27.956 58.0943 27.78C58.1477 27.5986 58.1743 27.4093 58.1743 27.212V25.836C58.1743 25.6653 58.1557 25.5453 58.1183 25.476C58.0863 25.4013 58.0517 25.3613 58.0143 25.356H59.3103V28.62C59.3103 28.7906 59.3263 28.9133 59.3583 28.988C59.3957 29.0626 59.433 29.1 59.4703 29.1H58.1743V28.788L58.1903 28.628L58.1743 28.612C58.121 28.692 58.0543 28.7666 57.9743 28.836C57.8943 28.9053 57.8037 28.9666 57.7023 29.02C57.601 29.068 57.489 29.1053 57.3663 29.132C57.2437 29.164 57.113 29.18 56.9743 29.18ZM62.188 29.18C61.7666 29.18 61.4146 29.1373 61.132 29.052C60.8546 28.9613 60.6333 28.8333 60.468 28.668C60.3026 28.4973 60.1853 28.292 60.116 28.052C60.0466 27.812 60.012 27.54 60.012 27.236C60.012 26.6333 60.18 26.156 60.516 25.804C60.852 25.452 61.3666 25.276 62.06 25.276C62.4653 25.276 62.7933 25.332 63.044 25.444C63.3 25.556 63.4946 25.7053 63.628 25.892C63.7613 26.0786 63.852 26.2866 63.9 26.516C63.9533 26.74 63.98 26.9666 63.98 27.196V27.572C63.98 27.556 63.9053 27.54 63.756 27.524C63.612 27.5026 63.3666 27.492 63.02 27.492H61.164C61.164 27.7853 61.252 28.0066 61.428 28.156C61.6093 28.3 61.9026 28.372 62.308 28.372C62.6493 28.372 62.9533 28.332 63.22 28.252C63.492 28.1666 63.6893 28.0866 63.812 28.012V28.252L63.892 28.86C63.7906 28.9293 63.596 29.0013 63.308 29.076C63.02 29.1453 62.6466 29.18 62.188 29.18ZM61.46 26.804H62.844C62.844 26.6866 62.8173 26.572 62.764 26.46C62.716 26.348 62.636 26.2573 62.524 26.188C62.412 26.1133 62.2573 26.076 62.06 26.076C61.8626 26.076 61.7026 26.1053 61.58 26.164C61.4626 26.2226 61.3746 26.2946 61.316 26.38C61.2626 26.4653 61.236 26.5533 61.236 26.644C61.236 26.6973 61.252 26.7373 61.284 26.764C61.316 26.7906 61.3746 26.804 61.46 26.804Z" fill="#2BB1FF"/>
<path d="M69.5881 27.988V26.196C69.5881 24.724 70.2921 23.948 71.6521 23.948C73.0281 23.948 73.6521 24.74 73.6521 26.196V27.988C73.6521 29.444 72.9481 30.22 71.6121 30.22C70.2681 30.22 69.5881 29.484 69.5881 27.988ZM70.7241 26.14V28.044C70.7241 28.82 70.9161 29.22 71.6201 29.22C72.3081 29.22 72.5161 28.836 72.5161 28.044V26.14C72.5161 25.324 72.2841 24.948 71.6041 24.948C70.9801 24.948 70.7241 25.268 70.7241 26.14Z" fill="#2BB1FF"/>
<path d="M86.1257 30.1C85.8437 30.1 85.6022 30.0021 85.4014 29.8062C85.2005 29.6104 85.1001 29.375 85.1001 29.1V23.1C85.1001 22.825 85.2005 22.5896 85.4014 22.3937C85.6022 22.1979 85.8437 22.1 86.1257 22.1H91.7668C91.9292 22.1 92.083 22.1354 92.2283 22.2062C92.3736 22.2771 92.4933 22.375 92.5873 22.5L94.895 25.5C95.0317 25.675 95.1001 25.875 95.1001 26.1C95.1001 26.325 95.0317 26.525 94.895 26.7L92.5873 29.7C92.4933 29.825 92.3736 29.9229 92.2283 29.9937C92.083 30.0646 91.9292 30.1 91.7668 30.1H86.1257Z" fill="#F58E39"/>
<path d="M100.02 29.18C99.1028 29.18 98.4388 28.9613 98.0281 28.524C97.6228 28.0813 97.4201 27.4653 97.4201 26.676C97.4201 26.1693 97.5081 25.7346 97.6841 25.372C97.8654 25.004 98.1454 24.7213 98.5241 24.524C98.9081 24.3213 99.4068 24.22 100.02 24.22H100.268C100.871 24.22 101.359 24.3186 101.732 24.516C102.111 24.7133 102.388 24.996 102.564 25.364C102.74 25.732 102.828 26.1693 102.828 26.676C102.828 27.4653 102.625 28.0813 102.22 28.524C101.815 28.9613 101.164 29.18 100.268 29.18H100.02ZM100.1 28.292H100.188C100.513 28.292 100.78 28.2386 100.988 28.132C101.201 28.0253 101.359 27.8546 101.46 27.62C101.561 27.38 101.612 27.0653 101.612 26.676C101.612 26.2973 101.559 25.9933 101.452 25.764C101.351 25.5293 101.193 25.3613 100.98 25.26C100.772 25.1533 100.508 25.1 100.188 25.1H100.1C99.7694 25.1 99.4948 25.156 99.2761 25.268C99.0574 25.3746 98.8948 25.5426 98.7881 25.772C98.6868 26.0013 98.6361 26.3026 98.6361 26.676C98.6361 27.0653 98.6894 27.38 98.7961 27.62C98.9081 27.8546 99.0708 28.0253 99.2841 28.132C99.5028 28.2386 99.7748 28.292 100.1 28.292ZM103.499 29.1C103.536 29.1 103.571 29.0626 103.603 28.988C103.64 28.9133 103.659 28.7906 103.659 28.62V25.916C103.659 25.7453 103.64 25.6253 103.603 25.556C103.571 25.4813 103.536 25.4413 103.499 25.436C103.734 25.436 103.974 25.42 104.219 25.388C104.464 25.3506 104.656 25.3133 104.795 25.276V25.596L104.779 25.732L104.795 25.748C104.832 25.6893 104.891 25.6253 104.971 25.556C105.056 25.4813 105.163 25.4173 105.291 25.364C105.424 25.3053 105.579 25.276 105.755 25.276C106.016 25.276 106.248 25.3133 106.451 25.388C106.654 25.4573 106.798 25.5293 106.883 25.604L106.643 26.676V26.916C106.563 26.804 106.454 26.6893 106.315 26.572C106.182 26.4546 106.032 26.356 105.867 26.276C105.707 26.196 105.542 26.156 105.371 26.156C105.179 26.156 105.035 26.2253 104.939 26.364C104.843 26.5026 104.795 26.7213 104.795 27.02V28.62C104.795 28.7906 104.811 28.9133 104.843 28.988C104.88 29.0626 104.918 29.1 104.955 29.1H103.499ZM108.699 29.18C108.219 29.18 107.835 29.0866 107.547 28.9C107.265 28.708 107.123 28.4013 107.123 27.98C107.123 27.6866 107.198 27.4493 107.347 27.268C107.497 27.0866 107.699 26.9533 107.955 26.868C108.217 26.7773 108.513 26.732 108.843 26.732C109.089 26.732 109.297 26.7533 109.467 26.796C109.643 26.8386 109.785 26.884 109.891 26.932C109.998 26.98 110.067 27.0146 110.099 27.036C110.099 26.812 110.075 26.6306 110.027 26.492C109.979 26.348 109.891 26.244 109.763 26.18C109.641 26.1106 109.467 26.076 109.243 26.076C108.918 26.076 108.63 26.108 108.379 26.172C108.129 26.236 107.923 26.3106 107.763 26.396C107.609 26.4813 107.502 26.5533 107.443 26.612V26.372L107.363 25.588C107.401 25.5666 107.499 25.532 107.659 25.484C107.819 25.436 108.038 25.3906 108.315 25.348C108.593 25.3 108.923 25.276 109.307 25.276C109.835 25.276 110.238 25.3533 110.515 25.508C110.793 25.6573 110.982 25.8733 111.083 26.156C111.19 26.4386 111.243 26.78 111.243 27.18V28.62C111.243 28.7693 111.259 28.8786 111.291 28.948C111.329 29.012 111.366 29.0626 111.403 29.1H110.107V28.932L110.123 28.78L110.107 28.764C110.065 28.812 110.003 28.86 109.923 28.908C109.843 28.956 109.745 29.0013 109.627 29.044C109.51 29.0813 109.374 29.1133 109.219 29.14C109.065 29.1666 108.891 29.18 108.699 29.18ZM109.075 28.372C109.299 28.372 109.486 28.356 109.635 28.324C109.79 28.2866 109.907 28.2386 109.987 28.18C110.067 28.116 110.107 28.0413 110.107 27.956C110.107 27.8333 110.014 27.732 109.827 27.652C109.646 27.572 109.398 27.532 109.083 27.532C108.779 27.532 108.563 27.5746 108.435 27.66C108.313 27.7453 108.251 27.852 108.251 27.98C108.251 28.14 108.323 28.2466 108.467 28.3C108.611 28.348 108.814 28.372 109.075 28.372ZM112.061 29.1C112.099 29.1 112.133 29.0626 112.165 28.988C112.203 28.9133 112.221 28.7906 112.221 28.62V25.916C112.221 25.7453 112.203 25.6253 112.165 25.556C112.133 25.4813 112.099 25.4413 112.061 25.436C112.296 25.436 112.536 25.42 112.781 25.388C113.027 25.3506 113.219 25.3133 113.357 25.276V25.764L113.341 25.868L113.357 25.884C113.373 25.8466 113.424 25.78 113.509 25.684C113.595 25.588 113.717 25.4973 113.877 25.412C114.037 25.3213 114.235 25.276 114.469 25.276C114.965 25.276 115.344 25.4173 115.605 25.7C115.872 25.9826 116.005 26.4253 116.005 27.028V28.62C116.005 28.7906 116.021 28.9133 116.053 28.988C116.091 29.0626 116.128 29.1 116.165 29.1H114.709C114.747 29.1 114.781 29.0626 114.813 28.988C114.851 28.9133 114.869 28.7906 114.869 28.62V27.052C114.869 26.8013 114.843 26.6066 114.789 26.468C114.736 26.324 114.661 26.2226 114.565 26.164C114.475 26.1053 114.368 26.076 114.245 26.076C114.096 26.076 113.952 26.1133 113.813 26.188C113.68 26.2573 113.571 26.3693 113.485 26.524C113.4 26.6733 113.357 26.8733 113.357 27.124V28.62C113.357 28.7906 113.373 28.9133 113.405 28.988C113.443 29.0626 113.48 29.1 113.517 29.1H112.061ZM118.747 31.052C118.438 31.052 118.153 31.0306 117.891 30.988C117.635 30.9453 117.411 30.892 117.219 30.828C117.033 30.7693 116.889 30.7106 116.787 30.652L116.947 29.452V29.22C117.022 29.364 117.139 29.516 117.299 29.676C117.459 29.836 117.659 29.972 117.899 30.084C118.139 30.196 118.411 30.252 118.715 30.252C118.913 30.252 119.078 30.2093 119.211 30.124C119.345 30.044 119.446 29.9186 119.515 29.748C119.585 29.5773 119.619 29.3666 119.619 29.116V28.988L119.635 28.844L119.619 28.828C119.545 28.908 119.443 28.9746 119.315 29.028C119.193 29.076 119.057 29.1133 118.907 29.14C118.763 29.1666 118.619 29.18 118.475 29.18C118.043 29.18 117.697 29.0946 117.435 28.924C117.179 28.7533 116.993 28.5213 116.875 28.228C116.763 27.9346 116.707 27.604 116.707 27.236C116.707 26.8626 116.763 26.5293 116.875 26.236C116.987 25.9426 117.171 25.7106 117.427 25.54C117.689 25.364 118.038 25.276 118.475 25.276C118.625 25.276 118.771 25.2866 118.915 25.308C119.059 25.3293 119.193 25.3613 119.315 25.404C119.438 25.4413 119.539 25.4946 119.619 25.564L119.635 25.556L119.619 25.404V25.356H120.915C120.878 25.3613 120.841 25.4013 120.803 25.476C120.771 25.5506 120.755 25.676 120.755 25.852V28.916C120.755 29.6893 120.59 30.2386 120.259 30.564C119.934 30.8893 119.43 31.052 118.747 31.052ZM118.691 28.372C118.878 28.372 119.041 28.34 119.179 28.276C119.318 28.212 119.425 28.0973 119.499 27.932C119.579 27.7666 119.619 27.5346 119.619 27.236C119.619 26.9426 119.579 26.7133 119.499 26.548C119.425 26.3773 119.318 26.2573 119.179 26.188C119.041 26.1133 118.878 26.076 118.691 26.076C118.515 26.076 118.363 26.1133 118.235 26.188C118.107 26.2626 118.009 26.3853 117.939 26.556C117.87 26.7266 117.835 26.956 117.835 27.244C117.835 27.5266 117.867 27.7506 117.931 27.916C118.001 28.0813 118.099 28.1986 118.227 28.268C118.355 28.3373 118.51 28.372 118.691 28.372ZM123.735 29.18C123.314 29.18 122.962 29.1373 122.679 29.052C122.402 28.9613 122.18 28.8333 122.015 28.668C121.85 28.4973 121.732 28.292 121.663 28.052C121.594 27.812 121.559 27.54 121.559 27.236C121.559 26.6333 121.727 26.156 122.063 25.804C122.399 25.452 122.914 25.276 123.607 25.276C124.012 25.276 124.34 25.332 124.591 25.444C124.847 25.556 125.042 25.7053 125.175 25.892C125.308 26.0786 125.399 26.2866 125.447 26.516C125.5 26.74 125.527 26.9666 125.527 27.196V27.572C125.527 27.556 125.452 27.54 125.303 27.524C125.159 27.5026 124.914 27.492 124.567 27.492H122.711C122.711 27.7853 122.799 28.0066 122.975 28.156C123.156 28.3 123.45 28.372 123.855 28.372C124.196 28.372 124.5 28.332 124.767 28.252C125.039 28.1666 125.236 28.0866 125.359 28.012V28.252L125.439 28.86C125.338 28.9293 125.143 29.0013 124.855 29.076C124.567 29.1453 124.194 29.18 123.735 29.18ZM123.007 26.804H124.391C124.391 26.6866 124.364 26.572 124.311 26.46C124.263 26.348 124.183 26.2573 124.071 26.188C123.959 26.1133 123.804 26.076 123.607 26.076C123.41 26.076 123.25 26.1053 123.127 26.164C123.01 26.2226 122.922 26.2946 122.863 26.38C122.81 26.4653 122.783 26.5533 122.783 26.644C122.783 26.6973 122.799 26.7373 122.831 26.764C122.863 26.7906 122.922 26.804 123.007 26.804Z" fill="#F58E39"/>
<path d="M134.58 28.276C134.58 29.38 133.756 30.22 132.476 30.22C131.18 30.22 130.388 29.356 130.388 28.292C130.388 27.66 130.764 27.012 131.012 26.516L132.076 24.316C132.18 24.116 132.356 23.948 132.604 23.948C132.908 23.948 133.148 24.156 133.148 24.46C133.148 24.556 133.116 24.676 133.076 24.748L132.268 26.38C132.348 26.356 132.556 26.348 132.644 26.348C133.812 26.372 134.58 27.172 134.58 28.276ZM133.42 28.26C133.42 27.724 133.092 27.26 132.476 27.26C131.844 27.26 131.524 27.724 131.524 28.268C131.524 28.86 131.908 29.252 132.476 29.252C133.1 29.252 133.42 28.772 133.42 28.26Z" fill="#F58E39"/>
<path d="M198.98 29.2C197.833 29.2 196.973 28.9533 196.4 28.46C195.833 27.96 195.55 27.1733 195.55 26.1C195.55 25.48 195.667 24.94 195.9 24.48C196.133 24.0133 196.503 23.65 197.01 23.39C197.517 23.13 198.173 23 198.98 23C199.613 23 200.14 23.0333 200.56 23.1C200.98 23.1666 201.263 23.2333 201.41 23.3V23.5L201.61 24.4C201.483 24.3133 201.293 24.2233 201.04 24.13C200.793 24.0366 200.497 23.96 200.15 23.9C199.803 23.8333 199.42 23.8 199 23.8C198.407 23.8 197.94 23.9 197.6 24.1C197.26 24.2933 197.02 24.5633 196.88 24.91C196.74 25.2566 196.67 25.6533 196.67 26.1C196.67 26.5466 196.74 26.9433 196.88 27.29C197.027 27.63 197.287 27.9 197.66 28.1C198.04 28.2933 198.583 28.39 199.29 28.39C199.863 28.39 200.34 28.3233 200.72 28.19C201.107 28.05 201.37 27.9166 201.51 27.79V28.09L201.61 28.7C201.497 28.8066 201.22 28.9166 200.78 29.03C200.347 29.1433 199.747 29.2 198.98 29.2ZM204.594 29.2C204.207 29.2 203.867 29.1333 203.574 29C203.287 28.86 203.064 28.6233 202.904 28.29C202.751 27.95 202.674 27.48 202.674 26.88V25.02C202.674 24.8066 202.651 24.6533 202.604 24.56C202.564 24.4666 202.521 24.42 202.474 24.42H203.904C203.857 24.42 203.807 24.4666 203.754 24.56C203.707 24.6533 203.684 24.8066 203.684 25.02V27.02C203.684 27.5866 203.784 27.9733 203.984 28.18C204.184 28.3866 204.447 28.49 204.774 28.49C205.101 28.49 205.384 28.41 205.624 28.25C205.864 28.09 206.051 27.87 206.184 27.59C206.324 27.31 206.394 26.9933 206.394 26.64V25.02C206.394 24.8066 206.371 24.6566 206.324 24.57C206.284 24.4766 206.241 24.4266 206.194 24.42H207.414V28.5C207.414 28.7133 207.434 28.8666 207.474 28.96C207.521 29.0533 207.567 29.1 207.614 29.1H206.394V28.5L206.414 28.3L206.394 28.28C206.354 28.36 206.287 28.4533 206.194 28.56C206.101 28.66 205.977 28.76 205.824 28.86C205.677 28.96 205.501 29.04 205.294 29.1C205.087 29.1666 204.854 29.2 204.594 29.2ZM208.47 29.1C208.517 29.1 208.56 29.0533 208.6 28.96C208.647 28.8666 208.67 28.7133 208.67 28.5V25.12C208.67 24.9066 208.647 24.7566 208.6 24.67C208.56 24.5766 208.517 24.5266 208.47 24.52C208.764 24.52 209.017 24.5 209.23 24.46C209.45 24.4133 209.604 24.3666 209.69 24.32V24.82L209.67 24.99L209.69 25.01C209.79 24.8766 209.91 24.76 210.05 24.66C210.197 24.5533 210.364 24.47 210.55 24.41C210.737 24.35 210.95 24.32 211.19 24.32C211.504 24.32 211.774 24.3666 212 24.46C212.234 24.5466 212.4 24.6366 212.5 24.73L212.3 25.57V25.87C212.214 25.7633 212.087 25.6533 211.92 25.54C211.76 25.42 211.577 25.32 211.37 25.24C211.164 25.16 210.944 25.12 210.71 25.12C210.444 25.12 210.207 25.2266 210 25.44C209.794 25.6533 209.69 26.0066 209.69 26.5V28.5C209.69 28.7133 209.71 28.8666 209.75 28.96C209.797 29.0533 209.844 29.1 209.89 29.1H208.47ZM213.158 29.1C213.204 29.1 213.248 29.0533 213.288 28.96C213.334 28.8666 213.358 28.7133 213.358 28.5V25.12C213.358 24.9066 213.334 24.7566 213.288 24.67C213.248 24.5766 213.204 24.5266 213.158 24.52C213.451 24.52 213.704 24.5 213.918 24.46C214.138 24.4133 214.291 24.3666 214.378 24.32V24.82L214.358 24.99L214.378 25.01C214.478 24.8766 214.598 24.76 214.738 24.66C214.884 24.5533 215.051 24.47 215.238 24.41C215.424 24.35 215.638 24.32 215.878 24.32C216.191 24.32 216.461 24.3666 216.688 24.46C216.921 24.5466 217.088 24.6366 217.188 24.73L216.988 25.57V25.87C216.901 25.7633 216.774 25.6533 216.608 25.54C216.448 25.42 216.264 25.32 216.058 25.24C215.851 25.16 215.631 25.12 215.398 25.12C215.131 25.12 214.894 25.2266 214.688 25.44C214.481 25.6533 214.378 26.0066 214.378 26.5V28.5C214.378 28.7133 214.398 28.8666 214.438 28.96C214.484 29.0533 214.531 29.1 214.578 29.1H213.158ZM220.053 29.2C219.526 29.2 219.093 29.14 218.753 29.02C218.413 28.8933 218.146 28.72 217.953 28.5C217.759 28.28 217.623 28.0233 217.543 27.73C217.469 27.4366 217.433 27.1166 217.433 26.77C217.433 26.0166 217.646 25.42 218.073 24.98C218.506 24.54 219.146 24.32 219.993 24.32C220.486 24.32 220.883 24.3866 221.183 24.52C221.489 24.6533 221.719 24.83 221.873 25.05C222.033 25.27 222.139 25.51 222.193 25.77C222.253 26.0233 222.283 26.2733 222.283 26.52V26.99C222.283 26.97 222.189 26.95 222.003 26.93C221.823 26.9033 221.516 26.89 221.083 26.89H218.453C218.453 27.3833 218.599 27.7733 218.893 28.06C219.186 28.3466 219.623 28.49 220.203 28.49C220.703 28.49 221.113 28.43 221.433 28.31C221.759 28.1833 221.976 28.06 222.083 27.94V28.14L222.183 28.8C222.036 28.8866 221.776 28.9766 221.403 29.07C221.036 29.1566 220.586 29.2 220.053 29.2ZM218.853 26.23H221.283C221.283 26.0566 221.246 25.8766 221.173 25.69C221.099 25.5033 220.969 25.3466 220.783 25.22C220.596 25.0866 220.333 25.02 219.993 25.02C219.706 25.02 219.456 25.07 219.243 25.17C219.029 25.2633 218.863 25.3866 218.743 25.54C218.629 25.6933 218.573 25.8566 218.573 26.03C218.573 26.0966 218.593 26.1466 218.633 26.18C218.673 26.2133 218.746 26.23 218.853 26.23ZM223.138 29.1C223.185 29.1 223.228 29.0533 223.268 28.96C223.315 28.8666 223.338 28.7133 223.338 28.5V25.12C223.338 24.9066 223.315 24.7566 223.268 24.67C223.228 24.5766 223.185 24.5266 223.138 24.52C223.432 24.52 223.685 24.5 223.898 24.46C224.118 24.4133 224.272 24.3666 224.358 24.32V24.93L224.338 25.06L224.358 25.08C224.458 24.9533 224.585 24.8333 224.738 24.72C224.898 24.6066 225.095 24.5133 225.328 24.44C225.562 24.36 225.835 24.32 226.148 24.32C226.768 24.32 227.242 24.4966 227.568 24.85C227.902 25.2033 228.068 25.7566 228.068 26.51V28.5C228.068 28.7133 228.088 28.8666 228.128 28.96C228.175 29.0533 228.222 29.1 228.268 29.1H226.848C226.895 29.1 226.938 29.0533 226.978 28.96C227.025 28.8666 227.048 28.7133 227.048 28.5V26.54C227.048 26.1466 226.998 25.84 226.898 25.62C226.798 25.4 226.658 25.2466 226.478 25.16C226.305 25.0666 226.102 25.02 225.868 25.02C225.622 25.02 225.382 25.0733 225.148 25.18C224.915 25.2866 224.725 25.4566 224.578 25.69C224.432 25.9233 224.358 26.2366 224.358 26.63V28.5C224.358 28.7133 224.378 28.8666 224.418 28.96C224.465 29.0533 224.512 29.1 224.558 29.1H223.138ZM231.075 29.2C230.615 29.2 230.281 29.1033 230.075 28.91C229.868 28.71 229.765 28.3866 229.765 27.94V25.12H228.865V24.42C229.171 24.42 229.411 24.3833 229.585 24.31C229.758 24.23 229.881 24.0933 229.955 23.9C230.028 23.7066 230.065 23.4366 230.065 23.09H230.785V24.42H232.695C232.648 24.4866 232.601 24.5866 232.555 24.72C232.515 24.8466 232.495 24.98 232.495 25.12H230.785V27.79C230.785 28.0966 230.841 28.29 230.955 28.37C231.068 28.45 231.211 28.49 231.385 28.49C231.551 28.49 231.705 28.4566 231.845 28.39C231.991 28.3166 232.118 28.23 232.225 28.13C232.338 28.03 232.425 27.9333 232.485 27.84V28.15L232.585 28.72C232.518 28.7866 232.415 28.86 232.275 28.94C232.135 29.0133 231.965 29.0733 231.765 29.12C231.565 29.1733 231.335 29.2 231.075 29.2ZM235.658 31.32C235.704 31.32 235.748 31.2733 235.788 31.18C235.834 31.0866 235.858 30.9333 235.858 30.72V25.02C235.858 24.8066 235.834 24.6566 235.788 24.57C235.748 24.4766 235.704 24.4266 235.658 24.42H236.878V24.62L236.858 24.81L236.878 24.83C236.964 24.7433 237.081 24.6633 237.228 24.59C237.381 24.51 237.561 24.4466 237.768 24.4C237.974 24.3466 238.198 24.32 238.438 24.32C239.058 24.32 239.548 24.43 239.908 24.65C240.268 24.8633 240.524 25.1533 240.678 25.52C240.838 25.8866 240.918 26.3033 240.918 26.77C240.918 27.23 240.841 27.6433 240.688 28.01C240.534 28.3766 240.278 28.6666 239.918 28.88C239.558 29.0933 239.064 29.2 238.438 29.2C238.071 29.2 237.761 29.1566 237.508 29.07C237.261 28.9833 237.051 28.8633 236.878 28.71L236.858 28.72L236.878 28.91V30.72C236.878 30.9333 236.898 31.0866 236.938 31.18C236.984 31.2733 237.031 31.32 237.078 31.32H235.658ZM238.338 28.49C238.751 28.49 239.071 28.4233 239.298 28.29C239.524 28.1566 239.681 27.9633 239.768 27.71C239.854 27.45 239.898 27.1366 239.898 26.77C239.898 26.4033 239.851 26.09 239.758 25.83C239.671 25.57 239.514 25.37 239.288 25.23C239.068 25.09 238.751 25.02 238.338 25.02C237.938 25.02 237.631 25.1 237.418 25.26C237.211 25.42 237.068 25.6333 236.988 25.9C236.914 26.1666 236.878 26.46 236.878 26.78C236.878 27.1066 236.918 27.4 236.998 27.66C237.084 27.92 237.231 28.1233 237.438 28.27C237.651 28.4166 237.951 28.49 238.338 28.49ZM241.772 29.1C241.819 29.1 241.862 29.0533 241.902 28.96C241.949 28.8666 241.972 28.7133 241.972 28.5V22.8C241.972 22.5866 241.949 22.4366 241.902 22.35C241.862 22.2566 241.819 22.2066 241.772 22.2C242.065 22.2 242.319 22.18 242.532 22.14C242.752 22.0933 242.905 22.0466 242.992 22V28.5C242.992 28.7133 243.012 28.8666 243.052 28.96C243.099 29.0533 243.145 29.1 243.192 29.1H241.772ZM246.064 29.2C245.337 29.2 244.827 29.07 244.534 28.81C244.241 28.5433 244.094 28.1866 244.094 27.74C244.094 27.4266 244.171 27.16 244.324 26.94C244.484 26.7133 244.721 26.54 245.034 26.42C245.354 26.3 245.757 26.24 246.244 26.24C246.591 26.24 246.891 26.2666 247.144 26.32C247.404 26.3666 247.614 26.4233 247.774 26.49C247.941 26.5566 248.057 26.6133 248.124 26.66C248.124 26.2666 248.074 25.95 247.974 25.71C247.881 25.47 247.727 25.2966 247.514 25.19C247.301 25.0766 247.011 25.02 246.644 25.02C246.251 25.02 245.897 25.0666 245.584 25.16C245.277 25.2466 245.031 25.3433 244.844 25.45C244.657 25.55 244.541 25.6233 244.494 25.67V25.47L244.394 24.72C244.454 24.6933 244.584 24.65 244.784 24.59C244.984 24.5233 245.247 24.4633 245.574 24.41C245.901 24.35 246.284 24.32 246.724 24.32C247.284 24.32 247.741 24.4 248.094 24.56C248.454 24.7133 248.717 24.9533 248.884 25.28C249.057 25.6 249.144 26.0066 249.144 26.5V28.5C249.144 28.6866 249.164 28.8233 249.204 28.91C249.251 28.99 249.297 29.0533 249.344 29.1H248.124V28.8L248.144 28.61L248.124 28.6C248.017 28.7 247.891 28.7866 247.744 28.86C247.597 28.9333 247.437 28.9966 247.264 29.05C247.091 29.0966 246.901 29.1333 246.694 29.16C246.494 29.1866 246.284 29.2 246.064 29.2ZM246.394 28.49C246.754 28.49 247.064 28.4533 247.324 28.38C247.584 28.3066 247.781 28.21 247.914 28.09C248.054 27.9633 248.124 27.82 248.124 27.66C248.124 27.46 247.991 27.29 247.724 27.15C247.464 27.01 247.057 26.94 246.504 26.94C245.991 26.94 245.627 27.0066 245.414 27.14C245.207 27.2733 245.104 27.4733 245.104 27.74C245.104 28 245.204 28.19 245.404 28.31C245.611 28.43 245.941 28.49 246.394 28.49ZM250.269 31.54C249.869 31.54 249.552 31.5 249.319 31.42C249.085 31.34 248.935 31.2633 248.869 31.19L249.069 30.14V29.84C249.115 29.98 249.192 30.1266 249.299 30.28C249.399 30.44 249.529 30.5733 249.689 30.68C249.849 30.7866 250.029 30.84 250.229 30.84C250.455 30.84 250.649 30.7933 250.809 30.7C250.969 30.6133 251.109 30.4866 251.229 30.32C251.355 30.1533 251.475 29.96 251.589 29.74C251.722 29.4733 251.805 29.29 251.839 29.19C251.799 29.1366 251.735 29.0133 251.649 28.82C251.562 28.6266 251.459 28.3933 251.339 28.12C251.219 27.84 251.092 27.5433 250.959 27.23C250.832 26.9166 250.705 26.6133 250.579 26.32C250.452 26.0266 250.339 25.7666 250.239 25.54C250.139 25.3133 250.062 25.15 250.009 25.05C249.895 24.8366 249.792 24.68 249.699 24.58C249.605 24.48 249.539 24.4266 249.499 24.42H251.129C251.075 24.42 251.039 24.47 251.019 24.57C251.005 24.6633 251.042 24.8233 251.129 25.05C251.182 25.1766 251.255 25.36 251.349 25.6C251.442 25.8333 251.545 26.1 251.659 26.4C251.772 26.6933 251.889 26.9933 252.009 27.3C252.129 27.6 252.239 27.88 252.339 28.14H252.349C252.455 27.8666 252.572 27.5733 252.699 27.26C252.825 26.9466 252.949 26.64 253.069 26.34C253.195 26.04 253.305 25.7733 253.399 25.54C253.499 25.3066 253.572 25.1366 253.619 25.03C253.712 24.8166 253.749 24.6633 253.729 24.57C253.709 24.4766 253.672 24.4266 253.619 24.42H255.189C255.149 24.4266 255.085 24.4766 254.999 24.57C254.919 24.6566 254.825 24.8066 254.719 25.02C254.659 25.1333 254.565 25.3266 254.439 25.6C254.319 25.8733 254.179 26.1866 254.019 26.54C253.859 26.8933 253.695 27.26 253.529 27.64C253.362 28.0133 253.205 28.3666 253.059 28.7C252.912 29.0266 252.789 29.2966 252.689 29.51C252.482 29.9566 252.262 30.33 252.029 30.63C251.802 30.9366 251.545 31.1633 251.259 31.31C250.972 31.4633 250.642 31.54 250.269 31.54ZM257.855 29.2C257.329 29.2 256.895 29.14 256.555 29.02C256.215 28.8933 255.949 28.72 255.755 28.5C255.562 28.28 255.425 28.0233 255.345 27.73C255.272 27.4366 255.235 27.1166 255.235 26.77C255.235 26.0166 255.449 25.42 255.875 24.98C256.309 24.54 256.949 24.32 257.795 24.32C258.289 24.32 258.685 24.3866 258.985 24.52C259.292 24.6533 259.522 24.83 259.675 25.05C259.835 25.27 259.942 25.51 259.995 25.77C260.055 26.0233 260.085 26.2733 260.085 26.52V26.99C260.085 26.97 259.992 26.95 259.805 26.93C259.625 26.9033 259.319 26.89 258.885 26.89H256.255C256.255 27.3833 256.402 27.7733 256.695 28.06C256.989 28.3466 257.425 28.49 258.005 28.49C258.505 28.49 258.915 28.43 259.235 28.31C259.562 28.1833 259.779 28.06 259.885 27.94V28.14L259.985 28.8C259.839 28.8866 259.579 28.9766 259.205 29.07C258.839 29.1566 258.389 29.2 257.855 29.2ZM256.655 26.23H259.085C259.085 26.0566 259.049 25.8766 258.975 25.69C258.902 25.5033 258.772 25.3466 258.585 25.22C258.399 25.0866 258.135 25.02 257.795 25.02C257.509 25.02 257.259 25.07 257.045 25.17C256.832 25.2633 256.665 25.3866 256.545 25.54C256.432 25.6933 256.375 25.8566 256.375 26.03C256.375 26.0966 256.395 26.1466 256.435 26.18C256.475 26.2133 256.549 26.23 256.655 26.23ZM260.941 29.1C260.988 29.1 261.031 29.0533 261.071 28.96C261.118 28.8666 261.141 28.7133 261.141 28.5V25.12C261.141 24.9066 261.118 24.7566 261.071 24.67C261.031 24.5766 260.988 24.5266 260.941 24.52C261.234 24.52 261.488 24.5 261.701 24.46C261.921 24.4133 262.074 24.3666 262.161 24.32V24.82L262.141 24.99L262.161 25.01C262.261 24.8766 262.381 24.76 262.521 24.66C262.668 24.5533 262.834 24.47 263.021 24.41C263.208 24.35 263.421 24.32 263.661 24.32C263.974 24.32 264.244 24.3666 264.471 24.46C264.704 24.5466 264.871 24.6366 264.971 24.73L264.771 25.57V25.87C264.684 25.7633 264.558 25.6533 264.391 25.54C264.231 25.42 264.048 25.32 263.841 25.24C263.634 25.16 263.414 25.12 263.181 25.12C262.914 25.12 262.678 25.2266 262.471 25.44C262.264 25.6533 262.161 26.0066 262.161 26.5V28.5C262.161 28.7133 262.181 28.8666 262.221 28.96C262.268 29.0533 262.314 29.1 262.361 29.1H260.941ZM266.478 26.2C266.285 26.2 266.135 26.1466 266.028 26.04C265.922 25.9266 265.868 25.7966 265.868 25.65C265.868 25.4966 265.918 25.3666 266.018 25.26C266.125 25.1533 266.278 25.1 266.478 25.1C266.678 25.1 266.828 25.1533 266.928 25.26C267.035 25.3666 267.088 25.4966 267.088 25.65C267.088 25.7966 267.035 25.9266 266.928 26.04C266.822 26.1466 266.672 26.2 266.478 26.2ZM266.478 29.2C266.285 29.2 266.135 29.1466 266.028 29.04C265.922 28.9266 265.868 28.7966 265.868 28.65C265.868 28.4966 265.918 28.3666 266.018 28.26C266.125 28.1533 266.278 28.1 266.478 28.1C266.678 28.1 266.828 28.1533 266.928 28.26C267.035 28.3666 267.088 28.4966 267.088 28.65C267.088 28.7966 267.035 28.9266 266.928 29.04C266.822 29.1466 266.672 29.2 266.478 29.2Z" fill="white"/>
<path d="M273.126 30.1C272.844 30.1 272.602 30.0021 272.401 29.8062C272.201 29.6104 272.1 29.375 272.1 29.1V23.1C272.1 22.825 272.201 22.5896 272.401 22.3937C272.602 22.1979 272.844 22.1 273.126 22.1H278.767C278.929 22.1 279.083 22.1354 279.228 22.2062C279.374 22.2771 279.493 22.375 279.587 22.5L281.895 25.5C282.032 25.675 282.1 25.875 282.1 26.1C282.1 26.325 282.032 26.525 281.895 26.7L279.587 29.7C279.493 29.825 279.374 29.9229 279.228 29.9937C279.083 30.0646 278.929 30.1 278.767 30.1H273.126Z" fill="#2BB1FF"/>
<rect x="333.6" y="16.6" width="83" height="19" fill="#4DD5BC" fill-opacity="0.2"/>
<rect x="333.6" y="16.6" width="83" height="19" stroke="#4DD5BC"/>
<mask id="mask0_8374_2828" style="mask-type:alpha" maskUnits="userSpaceOnUse" x="341" y="20" width="13" height="13">
<rect x="341.1" y="20.1" width="12" height="12" fill="#D9D9D9"/>
</mask>
<g mask="url(#mask0_8374_2828)">
<path d="M351.175 26.6H345.6C345.458 26.6 345.34 26.5521 345.244 26.4562C345.148 26.3604 345.1 26.2416 345.1 26.1C345.1 25.9583 345.148 25.8396 345.244 25.7437C345.34 25.6479 345.458 25.6 345.6 25.6H351.175L350.75 25.175C350.65 25.075 350.602 24.9583 350.606 24.825C350.611 24.6916 350.658 24.575 350.75 24.475C350.85 24.375 350.969 24.3229 351.106 24.3187C351.244 24.3146 351.363 24.3625 351.463 24.4625L352.75 25.75C352.85 25.85 352.9 25.9666 352.9 26.1C352.9 26.2333 352.85 26.35 352.75 26.45L351.463 27.7375C351.363 27.8375 351.244 27.8854 351.106 27.8812C350.969 27.8771 350.85 27.825 350.75 27.725C350.658 27.625 350.611 27.5083 350.606 27.375C350.602 27.2416 350.65 27.125 350.75 27.025L351.175 26.6ZM348.6 24.1V22.6H343.6V29.6H348.6V28.1C348.6 27.9583 348.648 27.8396 348.744 27.7437C348.84 27.6479 348.958 27.6 349.1 27.6C349.242 27.6 349.361 27.6479 349.456 27.7437C349.552 27.8396 349.6 27.9583 349.6 28.1V29.6C349.6 29.875 349.502 30.1104 349.306 30.3062C349.111 30.5021 348.875 30.6 348.6 30.6H343.6C343.325 30.6 343.09 30.5021 342.894 30.3062C342.698 30.1104 342.6 29.875 342.6 29.6V22.6C342.6 22.325 342.698 22.0896 342.894 21.8937C343.09 21.6979 343.325 21.6 343.6 21.6H348.6C348.875 21.6 349.111 21.6979 349.306 21.8937C349.502 22.0896 349.6 22.325 349.6 22.6V24.1C349.6 24.2416 349.552 24.3604 349.456 24.4562C349.361 24.5521 349.242 24.6 349.1 24.6C348.958 24.6 348.84 24.5521 348.744 24.4562C348.648 24.3604 348.6 24.2416 348.6 24.1Z" fill="white"/>
</g>
<path d="M359.6 29.1C359.647 29.1 359.693 29.0533 359.74 28.96C359.787 28.8666 359.81 28.7133 359.81 28.5V23.7C359.81 23.4866 359.787 23.3366 359.74 23.25C359.693 23.1566 359.647 23.1066 359.6 23.1H365.44V23.4L365.64 24.56C365.473 24.4866 365.18 24.41 364.76 24.33C364.34 24.2433 363.833 24.2 363.24 24.2H361.76C361.56 24.2 361.44 24.2166 361.4 24.25C361.367 24.2766 361.35 24.36 361.35 24.5V25.24C361.35 25.3866 361.367 25.4733 361.4 25.5C361.44 25.5266 361.557 25.54 361.75 25.54H363.19C363.577 25.54 363.887 25.52 364.12 25.48C364.36 25.4333 364.517 25.3866 364.59 25.34C364.563 25.4666 364.533 25.6133 364.5 25.78C364.467 25.9466 364.44 26.1066 364.42 26.26C364.4 26.4133 364.39 26.54 364.39 26.64H361.75C361.557 26.64 361.44 26.6533 361.4 26.68C361.367 26.7 361.35 26.7866 361.35 26.94V27.68C361.35 27.8333 361.367 27.9233 361.4 27.95C361.433 27.9766 361.55 27.99 361.75 27.99H364.45C364.837 27.99 365.147 27.9466 365.38 27.86C365.62 27.7666 365.777 27.6766 365.85 27.59L365.65 28.79V29.1H359.6ZM365.973 29.1C366.033 29.1 366.133 29.0533 366.273 28.96C366.413 28.8666 366.573 28.7166 366.753 28.51C366.88 28.3566 367.03 28.1766 367.203 27.97C367.377 27.7566 367.55 27.54 367.723 27.32C367.903 27.1 368.057 26.91 368.183 26.75C368.077 26.63 367.957 26.4933 367.823 26.34C367.69 26.1866 367.553 26.03 367.413 25.87C367.28 25.71 367.147 25.56 367.013 25.42C366.887 25.2733 366.777 25.1466 366.683 25.04C366.483 24.8133 366.323 24.6533 366.203 24.56C366.083 24.4666 366.007 24.42 365.973 24.42H368.133C368.087 24.4266 368.07 24.4766 368.083 24.57C368.103 24.6633 368.19 24.82 368.343 25.04C368.41 25.1333 368.487 25.24 368.573 25.36C368.66 25.48 368.747 25.6 368.833 25.72C368.92 25.84 368.993 25.9433 369.053 26.03H369.073C369.127 25.95 369.19 25.8533 369.263 25.74C369.343 25.6266 369.427 25.5066 369.513 25.38C369.6 25.2533 369.68 25.1333 369.753 25.02C369.893 24.8 369.97 24.6466 369.983 24.56C370.003 24.4666 369.993 24.42 369.953 24.42H372.143C372.083 24.42 371.987 24.4666 371.853 24.56C371.72 24.6466 371.56 24.7966 371.373 25.01C371.247 25.1566 371.09 25.3366 370.903 25.55C370.723 25.7566 370.543 25.9666 370.363 26.18C370.183 26.3933 370.023 26.5833 369.883 26.75C370.057 26.9433 370.23 27.1366 370.403 27.33C370.577 27.5166 370.747 27.7066 370.913 27.9C371.087 28.0933 371.26 28.2866 371.433 28.48C371.633 28.7066 371.793 28.8666 371.913 28.96C372.04 29.0533 372.12 29.1 372.153 29.1H369.993C370.04 29.1 370.057 29.0533 370.043 28.96C370.03 28.8666 369.947 28.7066 369.793 28.48C369.727 28.3733 369.647 28.2566 369.553 28.13C369.46 28.0033 369.367 27.8766 369.273 27.75C369.18 27.6233 369.1 27.5166 369.033 27.43H369.013C368.96 27.5166 368.893 27.6233 368.813 27.75C368.74 27.8766 368.66 28.0066 368.573 28.14C368.493 28.2733 368.417 28.3933 368.343 28.5C368.197 28.72 368.113 28.8766 368.093 28.97C368.073 29.0566 368.087 29.1 368.133 29.1H365.973ZM372.509 29.1C372.556 29.1 372.602 29.0533 372.649 28.96C372.696 28.8666 372.719 28.7133 372.719 28.5V25.02C372.719 24.8066 372.696 24.6533 372.649 24.56C372.609 24.4666 372.566 24.42 372.519 24.42H374.139V28.5C374.139 28.7133 374.159 28.8666 374.199 28.96C374.246 29.0533 374.292 29.1 374.339 29.1H372.509ZM373.319 23.66C373.072 23.66 372.876 23.5933 372.729 23.46C372.582 23.3266 372.509 23.1433 372.509 22.91C372.509 22.6766 372.579 22.4933 372.719 22.36C372.866 22.2266 373.066 22.16 373.319 22.16C373.572 22.16 373.769 22.2266 373.909 22.36C374.056 22.4933 374.129 22.6766 374.129 22.91C374.129 23.1433 374.056 23.3266 373.909 23.46C373.769 23.5933 373.572 23.66 373.319 23.66ZM377.213 29.2C376.753 29.2 376.42 29.1033 376.213 28.91C376.007 28.71 375.903 28.3866 375.903 27.94V25.42H375.003V24.42C375.31 24.42 375.55 24.3833 375.723 24.31C375.897 24.23 376.02 24.0933 376.093 23.9C376.167 23.7066 376.203 23.4366 376.203 23.09H377.323V24.42H379.033C378.987 24.5533 378.94 24.72 378.893 24.92C378.853 25.1133 378.833 25.28 378.833 25.42H377.323V27.39C377.323 27.6966 377.347 27.9066 377.393 28.02C377.44 28.1333 377.55 28.19 377.723 28.19C377.837 28.19 377.96 28.15 378.093 28.07C378.233 27.99 378.367 27.8933 378.493 27.78C378.627 27.66 378.737 27.5466 378.823 27.44V27.75L378.923 28.72C378.843 28.7866 378.723 28.86 378.563 28.94C378.403 29.0133 378.207 29.0733 377.973 29.12C377.747 29.1733 377.493 29.2 377.213 29.2ZM384.382 31.54C383.995 31.54 383.638 31.5133 383.312 31.46C382.992 31.4066 382.712 31.34 382.472 31.26C382.238 31.1866 382.058 31.1133 381.932 31.04L382.132 29.54V29.25C382.225 29.43 382.372 29.62 382.572 29.82C382.772 30.02 383.022 30.19 383.322 30.33C383.622 30.47 383.962 30.54 384.342 30.54C384.588 30.54 384.795 30.4866 384.962 30.38C385.128 30.28 385.255 30.1233 385.342 29.91C385.428 29.6966 385.472 29.4333 385.472 29.12V28.96L385.492 28.78L385.472 28.76C385.378 28.86 385.252 28.9433 385.092 29.01C384.938 29.07 384.768 29.1166 384.582 29.15C384.402 29.1833 384.222 29.2 384.042 29.2C383.502 29.2 383.068 29.0933 382.742 28.88C382.422 28.6666 382.188 28.3766 382.042 28.01C381.902 27.6433 381.832 27.23 381.832 26.77C381.832 26.3033 381.902 25.8866 382.042 25.52C382.182 25.1533 382.412 24.8633 382.732 24.65C383.058 24.43 383.495 24.32 384.042 24.32C384.228 24.32 384.412 24.3333 384.592 24.36C384.772 24.3866 384.938 24.4266 385.092 24.48C385.245 24.5266 385.372 24.5933 385.472 24.68L385.492 24.67L385.472 24.48V24.42H387.092C387.045 24.4266 386.998 24.4766 386.952 24.57C386.912 24.6633 386.892 24.82 386.892 25.04V28.87C386.892 29.8366 386.685 30.5233 386.272 30.93C385.865 31.3366 385.235 31.54 384.382 31.54ZM384.312 28.19C384.545 28.19 384.748 28.15 384.922 28.07C385.095 27.99 385.228 27.8466 385.322 27.64C385.422 27.4333 385.472 27.1433 385.472 26.77C385.472 26.4033 385.422 26.1166 385.322 25.91C385.228 25.6966 385.095 25.5466 384.922 25.46C384.748 25.3666 384.545 25.32 384.312 25.32C384.092 25.32 383.902 25.3666 383.742 25.46C383.582 25.5533 383.458 25.7066 383.372 25.92C383.285 26.1333 383.242 26.42 383.242 26.78C383.242 27.1333 383.282 27.4133 383.362 27.62C383.448 27.8266 383.572 27.9733 383.732 28.06C383.892 28.1466 384.085 28.19 384.312 28.19ZM389.966 29.2C389.366 29.2 388.886 29.0833 388.526 28.85C388.173 28.61 387.996 28.2266 387.996 27.7C387.996 27.3333 388.09 27.0366 388.276 26.81C388.463 26.5833 388.716 26.4166 389.036 26.31C389.363 26.1966 389.733 26.14 390.146 26.14C390.453 26.14 390.713 26.1666 390.926 26.22C391.146 26.2733 391.323 26.33 391.456 26.39C391.59 26.45 391.676 26.4933 391.716 26.52C391.716 26.24 391.686 26.0133 391.626 25.84C391.566 25.66 391.456 25.53 391.296 25.45C391.143 25.3633 390.926 25.32 390.646 25.32C390.24 25.32 389.88 25.36 389.566 25.44C389.253 25.52 388.996 25.6133 388.796 25.72C388.603 25.8266 388.47 25.9166 388.396 25.99V25.69L388.296 24.71C388.343 24.6833 388.466 24.64 388.666 24.58C388.866 24.52 389.14 24.4633 389.486 24.41C389.833 24.35 390.246 24.32 390.726 24.32C391.386 24.32 391.89 24.4166 392.236 24.61C392.583 24.7966 392.82 25.0666 392.946 25.42C393.08 25.7733 393.146 26.2 393.146 26.7V28.5C393.146 28.6866 393.166 28.8233 393.206 28.91C393.253 28.99 393.3 29.0533 393.346 29.1H391.726V28.89L391.746 28.7L391.726 28.68C391.673 28.74 391.596 28.8 391.496 28.86C391.396 28.92 391.273 28.9766 391.126 29.03C390.98 29.0766 390.81 29.1166 390.616 29.15C390.423 29.1833 390.206 29.2 389.966 29.2ZM390.436 28.19C390.716 28.19 390.95 28.17 391.136 28.13C391.33 28.0833 391.476 28.0233 391.576 27.95C391.676 27.87 391.726 27.7766 391.726 27.67C391.726 27.5166 391.61 27.39 391.376 27.29C391.15 27.19 390.84 27.14 390.446 27.14C390.066 27.14 389.796 27.1933 389.636 27.3C389.483 27.4066 389.406 27.54 389.406 27.7C389.406 27.9 389.496 28.0333 389.676 28.1C389.856 28.16 390.11 28.19 390.436 28.19ZM394.169 29.1C394.216 29.1 394.259 29.0533 394.299 28.96C394.346 28.8666 394.369 28.7133 394.369 28.5V25.12C394.369 24.9066 394.346 24.7566 394.299 24.67C394.259 24.5766 394.216 24.5266 394.169 24.52C394.462 24.52 394.762 24.5 395.069 24.46C395.376 24.4133 395.616 24.3666 395.789 24.32V24.93L395.769 25.06L395.789 25.08C395.809 25.0333 395.872 24.95 395.979 24.83C396.086 24.71 396.239 24.5966 396.439 24.49C396.639 24.3766 396.886 24.32 397.179 24.32C397.799 24.32 398.272 24.4966 398.599 24.85C398.932 25.2033 399.099 25.7566 399.099 26.51V28.5C399.099 28.7133 399.119 28.8666 399.159 28.96C399.206 29.0533 399.252 29.1 399.299 29.1H397.479C397.526 29.1 397.569 29.0533 397.609 28.96C397.656 28.8666 397.679 28.7133 397.679 28.5V26.54C397.679 26.2266 397.646 25.9833 397.579 25.81C397.512 25.63 397.419 25.5033 397.299 25.43C397.186 25.3566 397.052 25.32 396.899 25.32C396.712 25.32 396.532 25.3666 396.359 25.46C396.192 25.5466 396.056 25.6866 395.949 25.88C395.842 26.0666 395.789 26.3166 395.789 26.63V28.5C395.789 28.7133 395.809 28.8666 395.849 28.96C395.896 29.0533 395.942 29.1 395.989 29.1H394.169ZM400.779 29.1C400.826 29.0933 400.869 29.0433 400.909 28.95C400.956 28.8566 400.979 28.7066 400.979 28.5V26.63C400.979 26.3633 400.952 26.1333 400.899 25.94C400.852 25.74 400.772 25.5866 400.659 25.48C400.546 25.3733 400.392 25.32 400.199 25.32C399.872 25.32 399.606 25.4366 399.399 25.67C399.199 25.9033 399.099 26.2566 399.099 26.73H398.369C398.369 26.41 398.419 26.1066 398.519 25.82C398.619 25.5266 398.762 25.27 398.949 25.05C399.136 24.8233 399.359 24.6466 399.619 24.52C399.879 24.3866 400.166 24.32 400.479 24.32C400.879 24.32 401.222 24.3933 401.509 24.54C401.796 24.68 402.016 24.9166 402.169 25.25C402.322 25.5833 402.399 26.0366 402.399 26.61V28.5C402.399 28.7066 402.419 28.8566 402.459 28.95C402.506 29.0433 402.552 29.0933 402.599 29.1H400.779ZM405.997 29.2C405.47 29.2 405.03 29.1466 404.677 29.04C404.33 28.9266 404.054 28.7666 403.847 28.56C403.64 28.3466 403.494 28.09 403.407 27.79C403.32 27.49 403.277 27.15 403.277 26.77C403.277 26.0166 403.487 25.42 403.907 24.98C404.327 24.54 404.97 24.32 405.837 24.32C406.344 24.32 406.754 24.39 407.067 24.53C407.387 24.67 407.63 24.8566 407.797 25.09C407.964 25.3233 408.077 25.5833 408.137 25.87C408.204 26.15 408.237 26.4333 408.237 26.72V27.19C408.237 27.17 408.144 27.15 407.957 27.13C407.777 27.1033 407.47 27.09 407.037 27.09H404.717C404.717 27.4566 404.827 27.7333 405.047 27.92C405.274 28.1 405.64 28.19 406.147 28.19C406.574 28.19 406.954 28.14 407.287 28.04C407.627 27.9333 407.874 27.8333 408.027 27.74V28.04L408.127 28.8C408 28.8866 407.757 28.9766 407.397 29.07C407.037 29.1566 406.57 29.2 405.997 29.2ZM405.087 26.23H406.817C406.817 26.0833 406.784 25.94 406.717 25.8C406.657 25.66 406.557 25.5466 406.417 25.46C406.277 25.3666 406.084 25.32 405.837 25.32C405.59 25.32 405.39 25.3566 405.237 25.43C405.09 25.5033 404.98 25.5933 404.907 25.7C404.84 25.8066 404.807 25.9166 404.807 26.03C404.807 26.0966 404.827 26.1466 404.867 26.18C404.907 26.2133 404.98 26.23 405.087 26.23Z" fill="white"/>
</g>
<defs>
<filter id="filter0_d_8374_2828" x="9.72748e-05" y="-2.47955e-05" width="450.2" height="56.2" filterUnits="userSpaceOnUse" color-interpolation-filters="sRGB">
<feFlood flood-opacity="0" result="BackgroundImageFix"/>
<feColorMatrix in="SourceAlpha" type="matrix" values="0 0 0 0 0 0 0 0 0 0 0 0 0 0 0 0 0 0 127 0" result="hardAlpha"/>
<feOffset dx="3" dy="2"/>
<feGaussianBlur stdDeviation="5.05"/>
<feComposite in2="hardAlpha" operator="out"/>
<feColorMatrix type="matrix" values="0 0 0 0 0 0 0 0 0 0 0 0 0 0 0 0 0 0 0.2 0"/>
<feBlend mode="normal" in2="BackgroundImageFix" result="effect1_dropShadow_8374_2828"/>
<feBlend mode="normal" in="SourceGraphic" in2="effect1_dropShadow_8374_2828" result="shape"/>
</filter>
</defs>
</svg>
