<svg width="446" height="52" viewBox="0 0 446 52" fill="none" xmlns="http://www.w3.org/2000/svg">
<g filter="url(#filter0_d_8374_1130)">
<rect x="6" y="6" width="430" height="36" rx="10" fill="white" shape-rendering="crispEdges"/>
<rect x="26" y="14" width="69" height="20" rx="4" fill="white"/>
<path d="M35 29C34.725 29 34.4896 28.9021 34.2938 28.7063C34.0979 28.5104 34 28.275 34 28V27.0125C34 26.8458 34.0375 26.6917 34.1125 26.55C34.1875 26.4083 34.2875 26.2875 34.4125 26.1875C34.9875 25.7208 35.4188 25.25 35.7063 24.775C35.9938 24.3 36.1958 23.875 36.3125 23.5H35.5C35.3583 23.5 35.2396 23.4521 35.1438 23.3563C35.0479 23.2604 35 23.1417 35 23C35 22.8583 35.0479 22.7396 35.1438 22.6437C35.2396 22.5479 35.3583 22.5 35.5 22.5H36.125C36.0083 22.3167 35.9167 22.1208 35.85 21.9125C35.7833 21.7042 35.75 21.4833 35.75 21.25C35.75 20.625 35.9688 20.0938 36.4062 19.6562C36.8438 19.2188 37.375 19 38 19C38.625 19 39.1562 19.2188 39.5938 19.6562C40.0312 20.0938 40.25 20.625 40.25 21.25C40.25 21.4833 40.2167 21.7042 40.15 21.9125C40.0833 22.1208 39.9917 22.3167 39.875 22.5H40.5C40.6417 22.5 40.7604 22.5479 40.8563 22.6437C40.9521 22.7396 41 22.8583 41 23C41 23.1417 40.9521 23.2604 40.8563 23.3563C40.7604 23.4521 40.6417 23.5 40.5 23.5H39.6875C39.8042 23.875 40.0063 24.3 40.2938 24.775C40.5813 25.25 41.0125 25.7208 41.5875 26.1875C41.7125 26.2875 41.8125 26.4083 41.8875 26.55C41.9625 26.6917 42 26.8458 42 27.0125V28C42 28.275 41.9021 28.5104 41.7063 28.7063C41.5104 28.9021 41.275 29 41 29H35ZM35 28H41V27C40.2333 26.4 39.6792 25.7812 39.3375 25.1438C38.9958 24.5063 38.7667 23.9583 38.65 23.5H37.35C37.2333 23.9583 37.0042 24.5063 36.6625 25.1438C36.3208 25.7812 35.7667 26.4 35 27V28ZM38 22.5C38.35 22.5 38.6458 22.3792 38.8875 22.1375C39.1292 21.8958 39.25 21.6 39.25 21.25C39.25 20.9 39.1292 20.6042 38.8875 20.3625C38.6458 20.1208 38.35 20 38 20C37.65 20 37.3542 20.1208 37.1125 20.3625C36.8708 20.6042 36.75 20.9 36.75 21.25C36.75 21.6 36.8708 21.8958 37.1125 22.1375C37.3542 22.3792 37.65 22.5 38 22.5Z" fill="#EA6900"/>
<path d="M49.6271 28.144C49.0591 28.144 48.5751 28.044 48.1751 27.844C47.7831 27.636 47.4591 27.352 47.2031 26.992C46.9551 26.632 46.7711 26.216 46.6511 25.744C46.5391 25.264 46.4831 24.748 46.4831 24.196C46.4831 23.556 46.5511 22.952 46.6871 22.384C46.8231 21.808 47.0271 21.3 47.2991 20.86C47.5791 20.42 47.9351 20.076 48.3671 19.828C48.7991 19.58 49.3191 19.456 49.9271 19.456C50.3671 19.456 50.7951 19.52 51.2111 19.648C51.6351 19.776 52.0151 19.96 52.3511 20.2L51.5351 21.4C51.2871 21.224 51.0191 21.096 50.7311 21.016C50.4511 20.936 50.1911 20.896 49.9511 20.896C49.3351 20.896 48.8511 21.168 48.4991 21.712C48.1471 22.256 47.9791 23.116 47.9951 24.292L47.6711 24.064C47.8551 23.624 48.1391 23.272 48.5231 23.008C48.9071 22.744 49.3631 22.612 49.8911 22.612C50.4271 22.612 50.8991 22.736 51.3071 22.984C51.7231 23.232 52.0471 23.572 52.2791 24.004C52.5191 24.428 52.6391 24.904 52.6391 25.432C52.6391 25.952 52.5151 26.42 52.2671 26.836C52.0191 27.244 51.6671 27.564 51.2111 27.796C50.7631 28.028 50.2351 28.144 49.6271 28.144ZM49.6271 26.752C49.8911 26.752 50.1271 26.692 50.3351 26.572C50.5431 26.452 50.7071 26.288 50.8271 26.08C50.9471 25.872 51.0071 25.632 51.0071 25.36C51.0071 25.088 50.9471 24.848 50.8271 24.64C50.7071 24.424 50.5431 24.256 50.3351 24.136C50.1271 24.008 49.8911 23.944 49.6271 23.944C49.3631 23.944 49.1231 24.008 48.9071 24.136C48.6991 24.256 48.5351 24.424 48.4151 24.64C48.2951 24.848 48.2351 25.088 48.2351 25.36C48.2351 25.632 48.2951 25.872 48.4151 26.08C48.5351 26.288 48.6991 26.452 48.9071 26.572C49.1231 26.692 49.3631 26.752 49.6271 26.752Z" fill="#EA6900"/>
<path d="M70 29C69.725 29 69.4896 28.9021 69.2938 28.7063C69.0979 28.5104 69 28.275 69 28V27.0125C69 26.8458 69.0375 26.6917 69.1125 26.55C69.1875 26.4083 69.2875 26.2875 69.4125 26.1875C69.9875 25.7208 70.4188 25.25 70.7063 24.775C70.9938 24.3 71.1958 23.875 71.3125 23.5H70.5C70.3583 23.5 70.2396 23.4521 70.1438 23.3563C70.0479 23.2604 70 23.1417 70 23C70 22.8583 70.0479 22.7396 70.1438 22.6437C70.2396 22.5479 70.3583 22.5 70.5 22.5H71.125C71.0083 22.3167 70.9167 22.1208 70.85 21.9125C70.7833 21.7042 70.75 21.4833 70.75 21.25C70.75 20.625 70.9688 20.0938 71.4062 19.6562C71.8438 19.2188 72.375 19 73 19C73.625 19 74.1562 19.2188 74.5938 19.6562C75.0312 20.0938 75.25 20.625 75.25 21.25C75.25 21.4833 75.2167 21.7042 75.15 21.9125C75.0833 22.1208 74.9917 22.3167 74.875 22.5H75.5C75.6417 22.5 75.7604 22.5479 75.8563 22.6437C75.9521 22.7396 76 22.8583 76 23C76 23.1417 75.9521 23.2604 75.8563 23.3563C75.7604 23.4521 75.6417 23.5 75.5 23.5H74.6875C74.8042 23.875 75.0063 24.3 75.2938 24.775C75.5813 25.25 76.0125 25.7208 76.5875 26.1875C76.7125 26.2875 76.8125 26.4083 76.8875 26.55C76.9625 26.6917 77 26.8458 77 27.0125V28C77 28.275 76.9021 28.5104 76.7063 28.7063C76.5104 28.9021 76.275 29 76 29H70ZM70 28H76V27C75.2333 26.4 74.6792 25.7812 74.3375 25.1438C73.9958 24.5063 73.7667 23.9583 73.65 23.5H72.35C72.2333 23.9583 72.0042 24.5063 71.6625 25.1438C71.3208 25.7812 70.7667 26.4 70 27V28ZM73 22.5C73.35 22.5 73.6458 22.3792 73.8875 22.1375C74.1292 21.8958 74.25 21.6 74.25 21.25C74.25 20.9 74.1292 20.6042 73.8875 20.3625C73.6458 20.1208 73.35 20 73 20C72.65 20 72.3542 20.1208 72.1125 20.3625C71.8708 20.6042 71.75 20.9 71.75 21.25C71.75 21.6 71.8708 21.8958 72.1125 22.1375C72.3542 22.3792 72.65 22.5 73 22.5Z" fill="#097FC5"/>
<path d="M81.719 28V26.99C81.719 26.7967 81.779 26.5833 81.899 26.35C82.019 26.1167 82.1857 25.8833 82.399 25.65C82.6123 25.4167 82.8623 25.2 83.149 25L84.209 24.24C84.3557 24.14 84.4923 24.0267 84.619 23.9C84.7523 23.7733 84.859 23.6367 84.939 23.49C85.0257 23.3367 85.069 23.19 85.069 23.05C85.069 22.8767 85.0257 22.72 84.939 22.58C84.859 22.44 84.739 22.33 84.579 22.25C84.419 22.17 84.2223 22.13 83.989 22.13C83.789 22.13 83.609 22.17 83.449 22.25C83.2957 22.33 83.169 22.4367 83.069 22.57C82.969 22.7033 82.899 22.8467 82.859 23L81.449 22.76C81.5157 22.4267 81.659 22.1167 81.879 21.83C82.099 21.5433 82.3857 21.3133 82.739 21.14C83.099 20.96 83.5057 20.87 83.959 20.87C84.479 20.87 84.9257 20.9633 85.299 21.15C85.6723 21.3367 85.959 21.5933 86.159 21.92C86.3657 22.24 86.469 22.6133 86.469 23.04C86.469 23.4733 86.349 23.86 86.109 24.2C85.8757 24.5333 85.5523 24.8467 85.139 25.14L84.189 25.83C83.9957 25.9633 83.829 26.11 83.689 26.27C83.549 26.43 83.4423 26.6067 83.369 26.8H86.559V28H81.719Z" fill="#097FC5"/>
<path d="M178.58 27.096C178.036 27.096 177.553 26.9733 177.132 26.728C176.711 26.4773 176.38 26.136 176.14 25.704C175.9 25.2667 175.78 24.7653 175.78 24.2C175.78 23.6347 175.9 23.136 176.14 22.704C176.38 22.2667 176.708 21.9253 177.124 21.68C177.545 21.4293 178.028 21.304 178.572 21.304C178.956 21.304 179.313 21.3733 179.644 21.512C179.975 21.6453 180.263 21.8347 180.508 22.08C180.759 22.32 180.951 22.5973 181.084 22.912L180.068 23.288C179.977 23.0907 179.857 22.92 179.708 22.776C179.559 22.6267 179.388 22.512 179.196 22.432C179.004 22.3467 178.796 22.304 178.572 22.304C178.247 22.304 177.956 22.3867 177.7 22.552C177.449 22.712 177.252 22.9333 177.108 23.216C176.969 23.4987 176.9 23.8267 176.9 24.2C176.9 24.5733 176.972 24.904 177.116 25.192C177.26 25.4747 177.46 25.6987 177.716 25.864C177.972 26.024 178.265 26.104 178.596 26.104C178.825 26.104 179.033 26.0613 179.22 25.976C179.412 25.8853 179.58 25.7627 179.724 25.608C179.873 25.4533 179.993 25.2747 180.084 25.072L181.1 25.44C180.967 25.7653 180.775 26.0533 180.524 26.304C180.279 26.5547 179.991 26.7493 179.66 26.888C179.329 27.0267 178.969 27.096 178.58 27.096ZM184.393 27L184.329 26.264V23H185.385V27H184.393ZM181.681 25.048V23H182.737V25.048H181.681ZM182.737 25.048C182.737 25.3147 182.766 25.5253 182.825 25.68C182.889 25.8293 182.977 25.9387 183.089 26.008C183.206 26.072 183.337 26.104 183.481 26.104C183.758 26.1093 183.969 26.0267 184.113 25.856C184.257 25.68 184.329 25.4267 184.329 25.096H184.689C184.689 25.5227 184.625 25.8853 184.497 26.184C184.369 26.4773 184.193 26.704 183.969 26.864C183.745 27.0187 183.481 27.096 183.177 27.096C182.857 27.096 182.585 27.032 182.361 26.904C182.137 26.776 181.966 26.5787 181.849 26.312C181.737 26.04 181.681 25.6907 181.681 25.264V25.048H182.737ZM187.044 24.896C187.044 24.464 187.126 24.1067 187.292 23.824C187.462 23.5413 187.678 23.3307 187.94 23.192C188.206 23.0533 188.484 22.984 188.772 22.984V24.008C188.526 24.008 188.294 24.0373 188.076 24.096C187.862 24.1547 187.689 24.2507 187.556 24.384C187.422 24.5173 187.356 24.688 187.356 24.896H187.044ZM186.3 27V23H187.356V27H186.3ZM190.075 24.896C190.075 24.464 190.158 24.1067 190.323 23.824C190.494 23.5413 190.71 23.3307 190.971 23.192C191.238 23.0533 191.515 22.984 191.803 22.984V24.008C191.558 24.008 191.326 24.0373 191.107 24.096C190.894 24.1547 190.72 24.2507 190.587 24.384C190.454 24.5173 190.387 24.688 190.387 24.896H190.075ZM189.331 27V23H190.387V27H189.331ZM194.17 27.096C193.776 27.096 193.426 27.008 193.122 26.832C192.818 26.6507 192.578 26.4027 192.402 26.088C192.232 25.7733 192.146 25.4107 192.146 25C192.146 24.5893 192.234 24.2267 192.41 23.912C192.592 23.5973 192.837 23.352 193.146 23.176C193.461 22.9947 193.821 22.904 194.226 22.904C194.578 22.904 194.901 22.9973 195.194 23.184C195.493 23.3653 195.73 23.6347 195.906 23.992C196.088 24.344 196.178 24.7733 196.178 25.28H193.146L193.242 25.184C193.242 25.3813 193.29 25.5547 193.386 25.704C193.488 25.848 193.616 25.96 193.77 26.04C193.93 26.1147 194.101 26.152 194.282 26.152C194.501 26.152 194.68 26.1067 194.818 26.016C194.957 25.92 195.064 25.7973 195.138 25.648L196.082 26.016C195.97 26.24 195.824 26.4347 195.642 26.6C195.466 26.76 195.256 26.8827 195.01 26.968C194.765 27.0533 194.485 27.096 194.17 27.096ZM193.298 24.592L193.202 24.496H195.13L195.042 24.592C195.042 24.4 194.997 24.248 194.906 24.136C194.816 24.0187 194.704 23.9333 194.57 23.88C194.442 23.8267 194.317 23.8 194.194 23.8C194.072 23.8 193.941 23.8267 193.802 23.88C193.664 23.9333 193.544 24.0187 193.442 24.136C193.346 24.248 193.298 24.4 193.298 24.592ZM196.792 27V23H197.784L197.848 23.736V27H196.792ZM199.44 27V24.952H200.496V27H199.44ZM199.44 24.952C199.44 24.68 199.408 24.4693 199.344 24.32C199.285 24.1707 199.2 24.064 199.088 24C198.976 23.9307 198.845 23.896 198.696 23.896C198.424 23.8907 198.213 23.9733 198.064 24.144C197.92 24.3147 197.848 24.568 197.848 24.904H197.496C197.496 24.4773 197.557 24.1173 197.68 23.824C197.808 23.5253 197.984 23.2987 198.208 23.144C198.437 22.984 198.704 22.904 199.008 22.904C199.323 22.904 199.592 22.968 199.816 23.096C200.04 23.224 200.211 23.424 200.328 23.696C200.445 23.9627 200.501 24.3093 200.496 24.736V24.952H199.44ZM202.987 27.096C202.544 27.096 202.208 26.9867 201.979 26.768C201.755 26.5493 201.643 26.2373 201.643 25.832V21.752H202.699V25.6C202.699 25.7707 202.736 25.9013 202.811 25.992C202.885 26.0773 202.995 26.12 203.139 26.12C203.192 26.12 203.251 26.1093 203.315 26.088C203.379 26.0613 203.445 26.024 203.515 25.976L203.883 26.768C203.755 26.864 203.611 26.9413 203.451 27C203.296 27.064 203.141 27.096 202.987 27.096ZM200.995 23.896V23H203.699V23.896H200.995ZM206.504 28.6V23H207.496L207.56 23.736V28.6H206.504ZM208.768 27.096C208.432 27.096 208.146 27.0107 207.912 26.84C207.682 26.6693 207.506 26.4267 207.384 26.112C207.261 25.7973 207.2 25.4267 207.2 25C207.2 24.568 207.261 24.1973 207.384 23.888C207.506 23.5733 207.682 23.3307 207.912 23.16C208.146 22.9893 208.432 22.904 208.768 22.904C209.136 22.904 209.453 22.9893 209.72 23.16C209.992 23.3307 210.202 23.5733 210.352 23.888C210.501 24.1973 210.576 24.568 210.576 25C210.576 25.4267 210.501 25.7973 210.352 26.112C210.202 26.4267 209.992 26.6693 209.72 26.84C209.453 27.0107 209.136 27.096 208.768 27.096ZM208.496 26.128C208.688 26.128 208.856 26.08 209 25.984C209.149 25.888 209.266 25.7547 209.352 25.584C209.437 25.4133 209.48 25.2187 209.48 25C209.48 24.7813 209.437 24.5867 209.352 24.416C209.272 24.2453 209.157 24.1147 209.008 24.024C208.864 23.928 208.696 23.88 208.504 23.88C208.322 23.88 208.16 23.928 208.016 24.024C207.872 24.12 207.76 24.2533 207.68 24.424C207.6 24.5893 207.56 24.7813 207.56 25C207.56 25.2187 207.6 25.4133 207.68 25.584C207.76 25.7547 207.869 25.888 208.008 25.984C208.152 26.08 208.314 26.128 208.496 26.128ZM211.269 27V21.4H212.325V27H211.269ZM215.653 27L215.621 26.192V24.976C215.621 24.736 215.595 24.5307 215.541 24.36C215.493 24.1893 215.413 24.0587 215.301 23.968C215.195 23.872 215.048 23.824 214.861 23.824C214.691 23.824 214.536 23.8613 214.397 23.936C214.259 24.0107 214.141 24.1253 214.045 24.28L213.117 23.96C213.192 23.7893 213.301 23.624 213.445 23.464C213.589 23.2987 213.776 23.1653 214.005 23.064C214.24 22.9573 214.525 22.904 214.861 22.904C215.267 22.904 215.603 22.9813 215.869 23.136C216.141 23.2907 216.341 23.5093 216.469 23.792C216.603 24.0693 216.667 24.4 216.661 24.784L216.637 27H215.653ZM214.533 27.096C214.053 27.096 213.68 26.9893 213.413 26.776C213.152 26.5627 213.021 26.2613 213.021 25.872C213.021 25.4453 213.163 25.1253 213.445 24.912C213.733 24.6933 214.136 24.584 214.653 24.584H215.669V25.368H215.021C214.675 25.368 214.435 25.4107 214.301 25.496C214.168 25.576 214.101 25.6907 214.101 25.84C214.101 25.9573 214.155 26.0507 214.261 26.12C214.368 26.184 214.517 26.216 214.709 26.216C214.885 26.216 215.04 26.176 215.173 26.096C215.312 26.0107 215.421 25.904 215.501 25.776C215.581 25.6427 215.621 25.5067 215.621 25.368H215.877C215.877 25.912 215.773 26.336 215.565 26.64C215.363 26.944 215.019 27.096 214.533 27.096ZM218.194 28.696C218.05 28.696 217.89 28.6667 217.714 28.608C217.543 28.5547 217.391 28.4907 217.258 28.416L217.65 27.56C217.74 27.608 217.823 27.6453 217.898 27.672C217.978 27.704 218.047 27.72 218.106 27.72C218.218 27.72 218.316 27.688 218.402 27.624C218.487 27.5653 218.556 27.4773 218.61 27.36L219.082 26.248L220.354 23H221.514L219.698 27.344C219.586 27.6107 219.468 27.8453 219.346 28.048C219.223 28.256 219.071 28.416 218.89 28.528C218.714 28.64 218.482 28.696 218.194 28.696ZM218.802 27L216.97 23H218.13L219.466 26.248L219.81 27H218.802ZM223.686 27.096C223.291 27.096 222.942 27.008 222.638 26.832C222.334 26.6507 222.094 26.4027 221.918 26.088C221.747 25.7733 221.662 25.4107 221.662 25C221.662 24.5893 221.75 24.2267 221.926 23.912C222.107 23.5973 222.353 23.352 222.662 23.176C222.977 22.9947 223.337 22.904 223.742 22.904C224.094 22.904 224.417 22.9973 224.71 23.184C225.009 23.3653 225.246 23.6347 225.422 23.992C225.603 24.344 225.694 24.7733 225.694 25.28H222.662L222.758 25.184C222.758 25.3813 222.806 25.5547 222.902 25.704C223.003 25.848 223.131 25.96 223.286 26.04C223.446 26.1147 223.617 26.152 223.798 26.152C224.017 26.152 224.195 26.1067 224.334 26.016C224.473 25.92 224.579 25.7973 224.654 25.648L225.598 26.016C225.486 26.24 225.339 26.4347 225.158 26.6C224.982 26.76 224.771 26.8827 224.526 26.968C224.281 27.0533 224.001 27.096 223.686 27.096ZM222.814 24.592L222.718 24.496H224.646L224.558 24.592C224.558 24.4 224.513 24.248 224.422 24.136C224.331 24.0187 224.219 23.9333 224.086 23.88C223.958 23.8267 223.833 23.8 223.71 23.8C223.587 23.8 223.457 23.8267 223.318 23.88C223.179 23.9333 223.059 24.0187 222.958 24.136C222.862 24.248 222.814 24.4 222.814 24.592ZM227.052 24.896C227.052 24.464 227.134 24.1067 227.3 23.824C227.47 23.5413 227.686 23.3307 227.948 23.192C228.214 23.0533 228.492 22.984 228.78 22.984V24.008C228.534 24.008 228.302 24.0373 228.084 24.096C227.87 24.1547 227.697 24.2507 227.564 24.384C227.43 24.5173 227.364 24.688 227.364 24.896H227.052ZM226.308 27V23H227.364V27H226.308ZM230.083 24.28C229.907 24.28 229.755 24.216 229.627 24.088C229.504 23.96 229.443 23.808 229.443 23.632C229.443 23.4613 229.504 23.312 229.627 23.184C229.755 23.056 229.907 22.992 230.083 22.992C230.259 22.992 230.408 23.056 230.531 23.184C230.659 23.312 230.723 23.4613 230.723 23.632C230.723 23.808 230.659 23.96 230.531 24.088C230.408 24.216 230.259 24.28 230.083 24.28ZM230.091 27.008C229.915 27.008 229.763 26.9467 229.635 26.824C229.512 26.696 229.451 26.544 229.451 26.368C229.451 26.192 229.512 26.0427 229.635 25.92C229.763 25.792 229.915 25.728 230.091 25.728C230.267 25.728 230.416 25.792 230.539 25.92C230.667 26.0427 230.731 26.192 230.731 26.368C230.731 26.544 230.667 26.696 230.539 26.824C230.416 26.9467 230.267 27.008 230.091 27.008Z" fill="#1E7594"/>
<rect x="235.5" y="16" width="16" height="16" rx="4" fill="#097FC5"/>
<path d="M240.125 30C239.816 30 239.551 29.8825 239.33 29.6475C239.11 29.4125 239 29.13 239 28.8V27.615C239 27.415 239.042 27.23 239.127 27.06C239.211 26.89 239.323 26.745 239.464 26.625C240.111 26.065 240.596 25.5 240.92 24.93C241.243 24.36 241.47 23.85 241.602 23.4H240.688C240.528 23.4 240.395 23.3425 240.287 23.2275C240.179 23.1125 240.125 22.97 240.125 22.8C240.125 22.63 240.179 22.4875 240.287 22.3725C240.395 22.2575 240.528 22.2 240.688 22.2H241.391C241.259 21.98 241.156 21.745 241.081 21.495C241.006 21.245 240.969 20.98 240.969 20.7C240.969 19.95 241.215 19.3125 241.707 18.7875C242.199 18.2625 242.797 18 243.5 18C244.203 18 244.801 18.2625 245.293 18.7875C245.785 19.3125 246.031 19.95 246.031 20.7C246.031 20.98 245.994 21.245 245.919 21.495C245.844 21.745 245.741 21.98 245.609 22.2H246.312C246.472 22.2 246.605 22.2575 246.713 22.3725C246.821 22.4875 246.875 22.63 246.875 22.8C246.875 22.97 246.821 23.1125 246.713 23.2275C246.605 23.3425 246.472 23.4 246.312 23.4H245.398C245.53 23.85 245.757 24.36 246.08 24.93C246.404 25.5 246.889 26.065 247.536 26.625C247.677 26.745 247.789 26.89 247.873 27.06C247.958 27.23 248 27.415 248 27.615V28.8C248 29.13 247.89 29.4125 247.67 29.6475C247.449 29.8825 247.184 30 246.875 30H240.125ZM240.125 28.8H246.875V27.6C246.012 26.88 245.389 26.1375 245.005 25.3725C244.62 24.6075 244.363 23.95 244.231 23.4H242.769C242.638 23.95 242.38 24.6075 241.995 25.3725C241.611 26.1375 240.987 26.88 240.125 27.6V28.8ZM243.5 22.2C243.894 22.2 244.227 22.055 244.498 21.765C244.77 21.475 244.906 21.12 244.906 20.7C244.906 20.28 244.77 19.925 244.498 19.635C244.227 19.345 243.894 19.2 243.5 19.2C243.106 19.2 242.773 19.345 242.502 19.635C242.23 19.925 242.094 20.28 242.094 20.7C242.094 21.12 242.23 21.475 242.502 21.765C242.773 22.055 243.106 22.2 243.5 22.2Z" fill="white"/>
<rect x="332" y="14" width="84" height="20" rx="5" fill="#BFE5F2"/>
<mask id="mask0_8374_1130" style="mask-type:alpha" maskUnits="userSpaceOnUse" x="340" y="18" width="12" height="12">
<rect x="340" y="18" width="12" height="12" fill="#D9D9D9"/>
</mask>
<g mask="url(#mask0_8374_1130)">
<path d="M350.075 24.5H344.5C344.358 24.5 344.24 24.4521 344.144 24.3563C344.048 24.2604 344 24.1417 344 24C344 23.8583 344.048 23.7396 344.144 23.6438C344.24 23.5479 344.358 23.5 344.5 23.5H350.075L349.65 23.075C349.55 22.975 349.502 22.8583 349.506 22.725C349.51 22.5917 349.558 22.475 349.65 22.375C349.75 22.275 349.869 22.2229 350.006 22.2188C350.144 22.2146 350.262 22.2625 350.362 22.3625L351.65 23.65C351.75 23.75 351.8 23.8667 351.8 24C351.8 24.1333 351.75 24.25 351.65 24.35L350.362 25.6375C350.262 25.7375 350.144 25.7854 350.006 25.7812C349.869 25.7771 349.75 25.725 349.65 25.625C349.558 25.525 349.51 25.4083 349.506 25.275C349.502 25.1417 349.55 25.025 349.65 24.925L350.075 24.5ZM347.5 22V20.5H342.5V27.5H347.5V26C347.5 25.8583 347.548 25.7396 347.644 25.6438C347.74 25.5479 347.858 25.5 348 25.5C348.142 25.5 348.26 25.5479 348.356 25.6438C348.452 25.7396 348.5 25.8583 348.5 26V27.5C348.5 27.775 348.402 28.0104 348.206 28.2063C348.01 28.4021 347.775 28.5 347.5 28.5H342.5C342.225 28.5 341.99 28.4021 341.794 28.2063C341.598 28.0104 341.5 27.775 341.5 27.5V20.5C341.5 20.225 341.598 19.9896 341.794 19.7938C341.99 19.5979 342.225 19.5 342.5 19.5H347.5C347.775 19.5 348.01 19.5979 348.206 19.7938C348.402 19.9896 348.5 20.225 348.5 20.5V22C348.5 22.1417 348.452 22.2604 348.356 22.3563C348.26 22.4521 348.142 22.5 348 22.5C347.858 22.5 347.74 22.4521 347.644 22.3563C347.548 22.2604 347.5 22.1417 347.5 22Z" fill="#1E7594"/>
</g>
<path d="M362.76 28V21H367.19V22.25H364.13V23.84H366.77V25.06H364.13V26.75H367.23V28H362.76ZM367.989 28L370.039 25.14L371.469 23H373.029L371.039 25.79L369.569 28H367.989ZM371.579 28L370.129 25.79L368.119 23H369.679L371.109 25.14L373.149 28H371.579ZM373.9 28V23H375.22V28H373.9ZM374.56 22.19C374.36 22.19 374.183 22.1167 374.03 21.97C373.877 21.8167 373.8 21.6367 373.8 21.43C373.8 21.2233 373.877 21.0467 374.03 20.9C374.183 20.7467 374.36 20.67 374.56 20.67C374.767 20.67 374.943 20.7467 375.09 20.9C375.243 21.0467 375.32 21.2233 375.32 21.43C375.32 21.6367 375.243 21.8167 375.09 21.97C374.943 22.1167 374.767 22.19 374.56 22.19ZM378.497 28.12C377.944 28.12 377.524 27.9833 377.237 27.71C376.957 27.4367 376.817 27.0467 376.817 26.54V21.44H378.137V26.25C378.137 26.4633 378.184 26.6267 378.277 26.74C378.371 26.8467 378.507 26.9 378.687 26.9C378.754 26.9 378.827 26.8867 378.907 26.86C378.987 26.8267 379.071 26.78 379.157 26.72L379.617 27.71C379.457 27.83 379.277 27.9267 379.077 28C378.884 28.08 378.691 28.12 378.497 28.12ZM376.007 24.12V23H379.387V24.12H376.007ZM385.093 30.13C384.713 30.13 384.377 30.1033 384.083 30.05C383.79 29.9967 383.543 29.9267 383.343 29.84C383.143 29.7533 382.98 29.6667 382.853 29.58L383.373 28.52C383.467 28.5733 383.59 28.6333 383.743 28.7C383.897 28.7733 384.08 28.8333 384.293 28.88C384.507 28.9333 384.753 28.96 385.033 28.96C385.3 28.96 385.533 28.9067 385.733 28.8C385.94 28.7 386.1 28.54 386.213 28.32C386.333 28.1067 386.393 27.8333 386.393 27.5V23H387.713V27.46C387.713 28.02 387.607 28.5 387.393 28.9C387.18 29.3067 386.877 29.6133 386.483 29.82C386.097 30.0267 385.633 30.13 385.093 30.13ZM384.833 27.86C384.373 27.86 383.973 27.76 383.633 27.56C383.3 27.36 383.04 27.08 382.853 26.72C382.667 26.36 382.573 25.9333 382.573 25.44C382.573 24.92 382.667 24.47 382.853 24.09C383.04 23.7033 383.3 23.4067 383.633 23.2C383.973 22.9867 384.373 22.88 384.833 22.88C385.233 22.88 385.58 22.9867 385.873 23.2C386.167 23.4067 386.393 23.7033 386.553 24.09C386.713 24.4767 386.793 24.9367 386.793 25.47C386.793 25.95 386.713 26.37 386.553 26.73C386.393 27.09 386.167 27.37 385.873 27.57C385.58 27.7633 385.233 27.86 384.833 27.86ZM385.213 26.75C385.44 26.75 385.637 26.6933 385.803 26.58C385.977 26.46 386.11 26.3 386.203 26.1C386.297 25.8933 386.343 25.66 386.343 25.4C386.343 25.1333 386.293 24.9 386.193 24.7C386.1 24.5 385.967 24.3433 385.793 24.23C385.627 24.1167 385.43 24.06 385.203 24.06C384.97 24.06 384.763 24.1167 384.583 24.23C384.403 24.3433 384.263 24.5 384.163 24.7C384.063 24.9 384.01 25.1333 384.003 25.4C384.01 25.66 384.063 25.8933 384.163 26.1C384.263 26.3 384.403 26.46 384.583 26.58C384.77 26.6933 384.98 26.75 385.213 26.75ZM391.869 28L391.829 26.99V25.47C391.829 25.17 391.796 24.9133 391.729 24.7C391.669 24.4867 391.569 24.3233 391.429 24.21C391.296 24.09 391.113 24.03 390.879 24.03C390.666 24.03 390.473 24.0767 390.299 24.17C390.126 24.2633 389.979 24.4067 389.859 24.6L388.699 24.2C388.793 23.9867 388.929 23.78 389.109 23.58C389.289 23.3733 389.523 23.2067 389.809 23.08C390.103 22.9467 390.459 22.88 390.879 22.88C391.386 22.88 391.806 22.9767 392.139 23.17C392.479 23.3633 392.729 23.6367 392.889 23.99C393.056 24.3367 393.136 24.75 393.129 25.23L393.099 28H391.869ZM390.469 28.12C389.869 28.12 389.403 27.9867 389.069 27.72C388.743 27.4533 388.579 27.0767 388.579 26.59C388.579 26.0567 388.756 25.6567 389.109 25.39C389.469 25.1167 389.973 24.98 390.619 24.98H391.889V25.96H391.079C390.646 25.96 390.346 26.0133 390.179 26.12C390.013 26.22 389.929 26.3633 389.929 26.55C389.929 26.6967 389.996 26.8133 390.129 26.9C390.263 26.98 390.449 27.02 390.689 27.02C390.909 27.02 391.103 26.97 391.269 26.87C391.443 26.7633 391.579 26.63 391.679 26.47C391.779 26.3033 391.829 26.1333 391.829 25.96H392.149C392.149 26.64 392.019 27.17 391.759 27.55C391.506 27.93 391.076 28.12 390.469 28.12ZM394.181 28V23H395.421L395.481 23.65C395.635 23.3967 395.831 23.2067 396.071 23.08C396.311 22.9467 396.578 22.88 396.871 22.88C397.278 22.88 397.618 22.9667 397.891 23.14C398.171 23.3133 398.375 23.58 398.501 23.94C398.648 23.6 398.855 23.34 399.121 23.16C399.388 22.9733 399.698 22.88 400.051 22.88C400.638 22.88 401.085 23.0667 401.391 23.44C401.698 23.8067 401.851 24.3733 401.851 25.14V28H400.531V25.44C400.531 25.1 400.495 24.8367 400.421 24.65C400.348 24.4633 400.248 24.33 400.121 24.25C399.995 24.1633 399.845 24.12 399.671 24.12C399.351 24.1133 399.105 24.2167 398.931 24.43C398.758 24.6433 398.671 24.96 398.671 25.38V28H397.351V25.44C397.351 25.1 397.315 24.8367 397.241 24.65C397.175 24.4633 397.075 24.33 396.941 24.25C396.815 24.1633 396.665 24.12 396.491 24.12C396.171 24.1133 395.925 24.2167 395.751 24.43C395.585 24.6433 395.501 24.96 395.501 25.38V28H394.181ZM405.162 28.12C404.669 28.12 404.232 28.01 403.852 27.79C403.472 27.5633 403.172 27.2533 402.952 26.86C402.739 26.4667 402.632 26.0133 402.632 25.5C402.632 24.9867 402.742 24.5333 402.962 24.14C403.189 23.7467 403.495 23.44 403.882 23.22C404.275 22.9933 404.725 22.88 405.232 22.88C405.672 22.88 406.075 22.9967 406.442 23.23C406.815 23.4567 407.112 23.7933 407.332 24.24C407.559 24.68 407.672 25.2167 407.672 25.85H403.882L404.002 25.73C404.002 25.9767 404.062 26.1933 404.182 26.38C404.309 26.56 404.469 26.7 404.662 26.8C404.862 26.8933 405.075 26.94 405.302 26.94C405.575 26.94 405.799 26.8833 405.972 26.77C406.145 26.65 406.279 26.4967 406.372 26.31L407.552 26.77C407.412 27.05 407.229 27.2933 407.002 27.5C406.782 27.7 406.519 27.8533 406.212 27.96C405.905 28.0667 405.555 28.12 405.162 28.12ZM404.072 24.99L403.952 24.87H406.362L406.252 24.99C406.252 24.75 406.195 24.56 406.082 24.42C405.969 24.2733 405.829 24.1667 405.662 24.1C405.502 24.0333 405.345 24 405.192 24C405.039 24 404.875 24.0333 404.702 24.1C404.529 24.1667 404.379 24.2733 404.252 24.42C404.132 24.56 404.072 24.75 404.072 24.99Z" fill="#1E7594"/>
</g>
<defs>
<filter id="filter0_d_8374_1130" x="0" y="0" width="446" height="52" filterUnits="userSpaceOnUse" color-interpolation-filters="sRGB">
<feFlood flood-opacity="0" result="BackgroundImageFix"/>
<feColorMatrix in="SourceAlpha" type="matrix" values="0 0 0 0 0 0 0 0 0 0 0 0 0 0 0 0 0 0 127 0" result="hardAlpha"/>
<feOffset dx="2" dy="2"/>
<feGaussianBlur stdDeviation="4"/>
<feComposite in2="hardAlpha" operator="out"/>
<feColorMatrix type="matrix" values="0 0 0 0 0 0 0 0 0 0 0 0 0 0 0 0 0 0 0.2 0"/>
<feBlend mode="normal" in2="BackgroundImageFix" result="effect1_dropShadow_8374_1130"/>
<feBlend mode="normal" in="SourceGraphic" in2="effect1_dropShadow_8374_1130" result="shape"/>
</filter>
</defs>
</svg>
