<svg width="470" height="125" viewBox="0 0 470 125" fill="none" xmlns="http://www.w3.org/2000/svg">
<path d="M125.54 28V11.564H117.308V7.84H137.468V11.564H129.264V28H125.54ZM141.466 28V6.44H145.134V11.76H154.094C154.803 11.76 155.447 11.9373 156.026 12.292C156.605 12.6467 157.071 13.1133 157.426 13.692C157.781 14.2707 157.958 14.9147 157.958 15.624V28H154.29V15.764C154.29 15.6707 154.253 15.596 154.178 15.54C154.122 15.4653 154.047 15.428 153.954 15.428H145.47C145.377 15.428 145.293 15.4653 145.218 15.54C145.162 15.596 145.134 15.6707 145.134 15.764V28H141.466ZM165.882 28C165.172 28 164.528 27.8227 163.95 27.468C163.371 27.1133 162.904 26.6467 162.55 26.068C162.195 25.4893 162.018 24.8453 162.018 24.136V15.624C162.018 14.9147 162.195 14.2707 162.55 13.692C162.904 13.1133 163.371 12.6467 163.95 12.292C164.528 11.9373 165.172 11.76 165.882 11.76H174.646C175.355 11.76 175.999 11.9373 176.578 12.292C177.175 12.6467 177.642 13.1133 177.978 13.692C178.332 14.2707 178.51 14.9147 178.51 15.624V21.728H165.686V23.996C165.686 24.0893 165.714 24.1733 165.77 24.248C165.844 24.304 165.928 24.332 166.022 24.332H178.51V28H165.882ZM165.686 18.424H174.842V15.764C174.842 15.6707 174.804 15.596 174.73 15.54C174.674 15.4653 174.599 15.428 174.506 15.428H166.022C165.928 15.428 165.844 15.4653 165.77 15.54C165.714 15.596 165.686 15.6707 165.686 15.764V18.424ZM199.819 28L193.435 11.76H197.327L201.275 21.336L205.419 11.76H209.227L213.651 21.392L217.319 11.76H221.211L215.107 28H212.251L207.351 17.164L202.675 28H199.819ZM225.129 28V11.76H228.797V28H225.129ZM225.129 10.136V6.44H228.797V10.136H225.129ZM234.008 28V11.76H246.636C247.345 11.76 247.989 11.9373 248.568 12.292C249.165 12.6467 249.632 13.1133 249.968 13.692C250.323 14.2707 250.5 14.9147 250.5 15.624V28H246.832V15.764C246.832 15.6707 246.795 15.596 246.72 15.54C246.664 15.4653 246.589 15.428 246.496 15.428H238.012C237.919 15.428 237.835 15.4653 237.76 15.54C237.704 15.596 237.676 15.6707 237.676 15.764V28H234.008ZM255.464 28V11.76H268.092C268.802 11.76 269.446 11.9373 270.024 12.292C270.622 12.6467 271.088 13.1133 271.424 13.692C271.779 14.2707 271.956 14.9147 271.956 15.624V28H268.288V15.764C268.288 15.6707 268.251 15.596 268.176 15.54C268.12 15.4653 268.046 15.428 267.952 15.428H259.468C259.375 15.428 259.291 15.4653 259.216 15.54C259.16 15.596 259.132 15.6707 259.132 15.764V28H255.464ZM280.126 28C279.417 28 278.773 27.8227 278.194 27.468C277.615 27.1133 277.149 26.6467 276.794 26.068C276.439 25.4893 276.262 24.8453 276.262 24.136V15.624C276.262 14.9147 276.439 14.2707 276.794 13.692C277.149 13.1133 277.615 12.6467 278.194 12.292C278.773 11.9373 279.417 11.76 280.126 11.76H288.89C289.599 11.76 290.243 11.9373 290.822 12.292C291.419 12.6467 291.886 13.1133 292.222 13.692C292.577 14.2707 292.754 14.9147 292.754 15.624V21.728H279.93V23.996C279.93 24.0893 279.958 24.1733 280.014 24.248C280.089 24.304 280.173 24.332 280.266 24.332H292.754V28H280.126ZM279.93 18.424H289.086V15.764C289.086 15.6707 289.049 15.596 288.974 15.54C288.918 15.4653 288.843 15.428 288.75 15.428H280.266C280.173 15.428 280.089 15.4653 280.014 15.54C279.958 15.596 279.93 15.6707 279.93 15.764V18.424ZM297.473 28V15.624C297.473 14.9147 297.65 14.2707 298.005 13.692C298.359 13.1133 298.826 12.6467 299.405 12.292C300.002 11.9373 300.646 11.76 301.337 11.76H310.353V15.428H301.477C301.383 15.428 301.299 15.4653 301.225 15.54C301.169 15.596 301.141 15.6707 301.141 15.764V28H297.473ZM324.58 28V11.76H328.248V28H324.58ZM324.58 10.136V6.44H328.248V10.136H324.58ZM337.265 28C336.556 28 335.912 27.8227 335.333 27.468C334.754 27.1133 334.288 26.6467 333.933 26.068C333.578 25.4893 333.401 24.8453 333.401 24.136V23.52H337.069V23.996C337.069 24.0893 337.097 24.1733 337.153 24.248C337.228 24.304 337.312 24.332 337.405 24.332H345.889C345.982 24.332 346.057 24.304 346.113 24.248C346.188 24.1733 346.225 24.0893 346.225 23.996V22.064C346.225 21.9707 346.188 21.896 346.113 21.84C346.057 21.7653 345.982 21.728 345.889 21.728H337.265C336.556 21.728 335.912 21.5507 335.333 21.196C334.754 20.8413 334.288 20.3747 333.933 19.796C333.578 19.2173 333.401 18.5733 333.401 17.864V15.624C333.401 14.9147 333.578 14.2707 333.933 13.692C334.288 13.1133 334.754 12.6467 335.333 12.292C335.912 11.9373 336.556 11.76 337.265 11.76H346.029C346.757 11.76 347.41 11.9373 347.989 12.292C348.568 12.6467 349.034 13.1133 349.389 13.692C349.744 14.2707 349.921 14.9147 349.921 15.624V16.24H346.225V15.764C346.225 15.6707 346.188 15.596 346.113 15.54C346.057 15.4653 345.982 15.428 345.889 15.428H337.405C337.312 15.428 337.228 15.4653 337.153 15.54C337.097 15.596 337.069 15.6707 337.069 15.764V17.696C337.069 17.7893 337.097 17.8733 337.153 17.948C337.228 18.004 337.312 18.032 337.405 18.032H346.029C346.757 18.032 347.41 18.2093 347.989 18.564C348.568 18.9187 349.034 19.3853 349.389 19.964C349.744 20.5427 349.921 21.1867 349.921 21.896V24.136C349.921 24.8453 349.744 25.4893 349.389 26.068C349.034 26.6467 348.568 27.1133 347.989 27.468C347.41 27.8227 346.757 28 346.029 28H337.265Z" fill="white"/>
<g filter="url(#filter0_d_2123_1720)">
<path d="M3.776 103V56.92H39.104C40.7253 56.92 42.1973 57.3253 43.52 58.136C44.8853 58.9467 45.9733 60.0347 46.784 61.4C47.5947 62.7227 48 64.1947 48 65.816V74.84C48 75.3947 47.9573 75.928 47.872 76.44C47.7867 76.952 47.6373 77.4427 47.424 77.912C48.1493 78.8933 48.7253 79.9173 49.152 80.984C49.6213 82.0507 49.856 83.1173 49.856 84.184V94.104C49.856 95.7253 49.4507 97.2187 48.64 98.584C47.8293 99.9067 46.7413 100.973 45.376 101.784C44.0107 102.595 42.5173 103 40.896 103H3.776ZM12.992 94.488H40.512C40.7253 94.488 40.9173 94.424 41.088 94.296C41.2587 94.1253 41.344 93.9333 41.344 93.72V84.568C41.344 84.3547 41.2587 84.184 41.088 84.056C40.9173 83.8853 40.7253 83.8 40.512 83.8H12.992C12.7787 83.8 12.5867 83.8853 12.416 84.056C12.288 84.184 12.224 84.3547 12.224 84.568V93.72C12.224 93.9333 12.288 94.1253 12.416 94.296C12.5867 94.424 12.7787 94.488 12.992 94.488ZM12.992 75.288H38.72C38.9333 75.288 39.104 75.224 39.232 75.096C39.36 74.9253 39.424 74.7333 39.424 74.52V66.2C39.424 65.9867 39.36 65.816 39.232 65.688C39.104 65.5173 38.9333 65.432 38.72 65.432H12.992C12.7787 65.432 12.5867 65.5173 12.416 65.688C12.288 65.816 12.224 65.9867 12.224 66.2V74.52C12.224 74.7333 12.288 74.9253 12.416 75.096C12.5867 75.224 12.7787 75.288 12.992 75.288ZM69.89 103C68.2687 103 66.7967 102.595 65.474 101.784C64.1513 100.973 63.0847 99.9067 62.274 98.584C61.4633 97.2613 61.058 95.7893 61.058 94.168V53.656H69.506V93.848C69.506 94.0613 69.57 94.2533 69.698 94.424C69.8687 94.552 70.0607 94.616 70.274 94.616H77.378V103H69.89ZM95.809 103C94.1877 103 92.6943 102.595 91.329 101.784C90.0063 100.973 88.9397 99.9067 88.129 98.584C87.361 97.2613 86.977 95.7893 86.977 94.168V65.88H95.361V93.848C95.361 94.0613 95.425 94.2533 95.553 94.424C95.7237 94.552 95.9157 94.616 96.129 94.616H115.521C115.734 94.616 115.905 94.552 116.033 94.424C116.204 94.2533 116.289 94.0613 116.289 93.848V65.88H124.673V94.168C124.673 95.7893 124.268 97.2613 123.457 98.584C122.689 99.9067 121.644 100.973 120.321 101.784C118.998 102.595 117.505 103 115.841 103H95.809ZM143.286 103C141.665 103 140.193 102.595 138.87 101.784C137.547 100.973 136.481 99.9067 135.67 98.584C134.859 97.2613 134.454 95.7893 134.454 94.168V74.712C134.454 73.0907 134.859 71.6187 135.67 70.296C136.481 68.9733 137.547 67.9067 138.87 67.096C140.193 66.2853 141.665 65.88 143.286 65.88H163.318C164.939 65.88 166.411 66.2853 167.734 67.096C169.099 67.9067 170.166 68.9733 170.934 70.296C171.745 71.6187 172.15 73.0907 172.15 74.712V88.664H142.838V93.848C142.838 94.0613 142.902 94.2533 143.03 94.424C143.201 94.552 143.393 94.616 143.606 94.616H172.15V103H143.286ZM142.838 81.112H163.766V75.032C163.766 74.8187 163.681 74.648 163.51 74.52C163.382 74.3493 163.211 74.264 162.998 74.264H143.606C143.393 74.264 143.201 74.3493 143.03 74.52C142.902 74.648 142.838 74.8187 142.838 75.032V81.112ZM207.609 103V56.984H244.729C246.35 56.984 247.844 57.3893 249.209 58.2C250.574 59.0107 251.662 60.0987 252.473 61.464C253.284 62.7867 253.689 64.2587 253.689 65.88V78.296C253.689 79.9173 253.284 81.4107 252.473 82.776C251.662 84.1413 250.574 85.2293 249.209 86.04C247.844 86.808 246.35 87.192 244.729 87.192L216.057 87.256V103H207.609ZM216.825 78.68H244.345C244.558 78.68 244.75 78.616 244.921 78.488C245.092 78.36 245.177 78.1893 245.177 77.976V66.2C245.177 65.9867 245.092 65.816 244.921 65.688C244.75 65.5173 244.558 65.432 244.345 65.432H216.825C216.612 65.432 216.42 65.5173 216.249 65.688C216.121 65.816 216.057 65.9867 216.057 66.2V77.976C216.057 78.1893 216.121 78.36 216.249 78.488C216.42 78.616 216.612 78.68 216.825 78.68ZM271.29 103C269.669 103 268.197 102.595 266.874 101.784C265.551 100.973 264.485 99.9067 263.674 98.584C262.863 97.2613 262.458 95.7893 262.458 94.168V53.656H270.906V93.848C270.906 94.0613 270.97 94.2533 271.098 94.424C271.269 94.552 271.461 94.616 271.674 94.616H278.778V103H271.29ZM296.957 103C295.336 103 293.843 102.595 292.477 101.784C291.155 100.973 290.088 99.9067 289.277 98.584C288.509 97.2613 288.125 95.7893 288.125 94.168V80.216H317.437V75.032C317.437 74.8187 317.352 74.648 317.181 74.52C317.053 74.3493 316.883 74.264 316.669 74.264H288.125V65.88H316.989C318.611 65.88 320.083 66.2853 321.405 67.096C322.771 67.9067 323.837 68.9733 324.605 70.296C325.416 71.6187 325.821 73.0907 325.821 74.712V103H296.957ZM297.277 94.616H317.437V87.768H296.509V93.848C296.509 94.0613 296.573 94.2533 296.701 94.424C296.872 94.552 297.064 94.616 297.277 94.616ZM342.611 116.76V108.312H364.947C365.16 108.312 365.331 108.227 365.459 108.056C365.63 107.928 365.715 107.757 365.715 107.544V103H345.235C343.656 103 342.184 102.595 340.819 101.784C339.496 100.973 338.43 99.9067 337.619 98.584C336.808 97.2613 336.403 95.7893 336.403 94.168V66.008H344.787V93.848C344.787 94.0613 344.851 94.2533 344.979 94.424C345.15 94.552 345.342 94.616 345.555 94.616H364.947C365.16 94.616 365.331 94.552 365.459 94.424C365.63 94.2533 365.715 94.0613 365.715 93.848V66.008H374.099V107.928C374.099 109.549 373.715 111.021 372.947 112.344C372.179 113.709 371.112 114.776 369.747 115.544C368.424 116.355 366.952 116.76 365.331 116.76H342.611ZM392.604 103C390.982 103 389.51 102.595 388.188 101.784C386.865 100.973 385.798 99.9067 384.988 98.584C384.177 97.2613 383.772 95.7893 383.772 94.168V74.712C383.772 73.0907 384.177 71.6187 384.988 70.296C385.798 68.9733 386.865 67.9067 388.188 67.096C389.51 66.2853 390.982 65.88 392.604 65.88H412.636C414.257 65.88 415.729 66.2853 417.052 67.096C418.417 67.9067 419.484 68.9733 420.252 70.296C421.062 71.6187 421.468 73.0907 421.468 74.712V88.664H392.156V93.848C392.156 94.0613 392.22 94.2533 392.348 94.424C392.518 94.552 392.71 94.616 392.924 94.616H421.468V103H392.604ZM392.156 81.112H413.084V75.032C413.084 74.8187 412.998 74.648 412.828 74.52C412.7 74.3493 412.529 74.264 412.316 74.264H392.924C392.71 74.264 392.518 74.3493 392.348 74.52C392.22 74.648 392.156 74.8187 392.156 75.032V81.112ZM432.253 103V74.712C432.253 73.0907 432.658 71.6187 433.469 70.296C434.28 68.9733 435.346 67.9067 436.669 67.096C438.034 66.2853 439.506 65.88 441.085 65.88H461.693V74.264H441.405C441.192 74.264 441 74.3493 440.829 74.52C440.701 74.648 440.637 74.8187 440.637 75.032V103H432.253Z" fill="#2298DB"/>
</g>
<defs>
<filter id="filter0_d_2123_1720" x="3.77637" y="53.6558" width="465.917" height="71.104" filterUnits="userSpaceOnUse" color-interpolation-filters="sRGB">
<feFlood flood-opacity="0" result="BackgroundImageFix"/>
<feColorMatrix in="SourceAlpha" type="matrix" values="0 0 0 0 0 0 0 0 0 0 0 0 0 0 0 0 0 0 127 0" result="hardAlpha"/>
<feOffset dx="4" dy="4"/>
<feGaussianBlur stdDeviation="2"/>
<feComposite in2="hardAlpha" operator="out"/>
<feColorMatrix type="matrix" values="0 0 0 0 0 0 0 0 0 0 0 0 0 0 0 0 0 0 0.25 0"/>
<feBlend mode="normal" in2="BackgroundImageFix" result="effect1_dropShadow_2123_1720"/>
<feBlend mode="normal" in="SourceGraphic" in2="effect1_dropShadow_2123_1720" result="shape"/>
</filter>
</defs>
</svg>
