<svg width="579" height="126" viewBox="0 0 579 126" fill="none" xmlns="http://www.w3.org/2000/svg">
<path d="M180.54 28V11.564H172.308V7.84H192.468V11.564H184.264V28H180.54ZM196.466 28V6.44H200.134V11.76H209.094C209.803 11.76 210.447 11.9373 211.026 12.292C211.605 12.6467 212.071 13.1133 212.426 13.692C212.781 14.2707 212.958 14.9147 212.958 15.624V28H209.29V15.764C209.29 15.6707 209.253 15.596 209.178 15.54C209.122 15.4653 209.047 15.428 208.954 15.428H200.47C200.377 15.428 200.293 15.4653 200.218 15.54C200.162 15.596 200.134 15.6707 200.134 15.764V28H196.466ZM220.882 28C220.172 28 219.528 27.8227 218.95 27.468C218.371 27.1133 217.904 26.6467 217.55 26.068C217.195 25.4893 217.018 24.8453 217.018 24.136V15.624C217.018 14.9147 217.195 14.2707 217.55 13.692C217.904 13.1133 218.371 12.6467 218.95 12.292C219.528 11.9373 220.172 11.76 220.882 11.76H229.646C230.355 11.76 230.999 11.9373 231.578 12.292C232.175 12.6467 232.642 13.1133 232.978 13.692C233.332 14.2707 233.51 14.9147 233.51 15.624V21.728H220.686V23.996C220.686 24.0893 220.714 24.1733 220.77 24.248C220.844 24.304 220.928 24.332 221.022 24.332H233.51V28H220.882ZM220.686 18.424H229.842V15.764C229.842 15.6707 229.804 15.596 229.73 15.54C229.674 15.4653 229.599 15.428 229.506 15.428H221.022C220.928 15.428 220.844 15.4653 220.77 15.54C220.714 15.596 220.686 15.6707 220.686 15.764V18.424ZM254.819 28L248.435 11.76H252.327L256.275 21.336L260.419 11.76H264.227L268.651 21.392L272.319 11.76H276.211L270.107 28H267.251L262.351 17.164L257.675 28H254.819ZM280.129 28V11.76H283.797V28H280.129ZM280.129 10.136V6.44H283.797V10.136H280.129ZM289.008 28V11.76H301.636C302.345 11.76 302.989 11.9373 303.568 12.292C304.165 12.6467 304.632 13.1133 304.968 13.692C305.323 14.2707 305.5 14.9147 305.5 15.624V28H301.832V15.764C301.832 15.6707 301.795 15.596 301.72 15.54C301.664 15.4653 301.589 15.428 301.496 15.428H293.012C292.919 15.428 292.835 15.4653 292.76 15.54C292.704 15.596 292.676 15.6707 292.676 15.764V28H289.008ZM310.464 28V11.76H323.092C323.802 11.76 324.446 11.9373 325.024 12.292C325.622 12.6467 326.088 13.1133 326.424 13.692C326.779 14.2707 326.956 14.9147 326.956 15.624V28H323.288V15.764C323.288 15.6707 323.251 15.596 323.176 15.54C323.12 15.4653 323.046 15.428 322.952 15.428H314.468C314.375 15.428 314.291 15.4653 314.216 15.54C314.16 15.596 314.132 15.6707 314.132 15.764V28H310.464ZM335.126 28C334.417 28 333.773 27.8227 333.194 27.468C332.615 27.1133 332.149 26.6467 331.794 26.068C331.439 25.4893 331.262 24.8453 331.262 24.136V15.624C331.262 14.9147 331.439 14.2707 331.794 13.692C332.149 13.1133 332.615 12.6467 333.194 12.292C333.773 11.9373 334.417 11.76 335.126 11.76H343.89C344.599 11.76 345.243 11.9373 345.822 12.292C346.419 12.6467 346.886 13.1133 347.222 13.692C347.577 14.2707 347.754 14.9147 347.754 15.624V21.728H334.93V23.996C334.93 24.0893 334.958 24.1733 335.014 24.248C335.089 24.304 335.173 24.332 335.266 24.332H347.754V28H335.126ZM334.93 18.424H344.086V15.764C344.086 15.6707 344.049 15.596 343.974 15.54C343.918 15.4653 343.843 15.428 343.75 15.428H335.266C335.173 15.428 335.089 15.4653 335.014 15.54C334.958 15.596 334.93 15.6707 334.93 15.764V18.424ZM352.473 28V15.624C352.473 14.9147 352.65 14.2707 353.005 13.692C353.359 13.1133 353.826 12.6467 354.405 12.292C355.002 11.9373 355.646 11.76 356.337 11.76H365.353V15.428H356.477C356.383 15.428 356.299 15.4653 356.225 15.54C356.169 15.596 356.141 15.6707 356.141 15.764V28H352.473ZM379.58 28V11.76H383.248V28H379.58ZM379.58 10.136V6.44H383.248V10.136H379.58ZM392.265 28C391.556 28 390.912 27.8227 390.333 27.468C389.754 27.1133 389.288 26.6467 388.933 26.068C388.578 25.4893 388.401 24.8453 388.401 24.136V23.52H392.069V23.996C392.069 24.0893 392.097 24.1733 392.153 24.248C392.228 24.304 392.312 24.332 392.405 24.332H400.889C400.982 24.332 401.057 24.304 401.113 24.248C401.188 24.1733 401.225 24.0893 401.225 23.996V22.064C401.225 21.9707 401.188 21.896 401.113 21.84C401.057 21.7653 400.982 21.728 400.889 21.728H392.265C391.556 21.728 390.912 21.5507 390.333 21.196C389.754 20.8413 389.288 20.3747 388.933 19.796C388.578 19.2173 388.401 18.5733 388.401 17.864V15.624C388.401 14.9147 388.578 14.2707 388.933 13.692C389.288 13.1133 389.754 12.6467 390.333 12.292C390.912 11.9373 391.556 11.76 392.265 11.76H401.029C401.757 11.76 402.41 11.9373 402.989 12.292C403.568 12.6467 404.034 13.1133 404.389 13.692C404.744 14.2707 404.921 14.9147 404.921 15.624V16.24H401.225V15.764C401.225 15.6707 401.188 15.596 401.113 15.54C401.057 15.4653 400.982 15.428 400.889 15.428H392.405C392.312 15.428 392.228 15.4653 392.153 15.54C392.097 15.596 392.069 15.6707 392.069 15.764V17.696C392.069 17.7893 392.097 17.8733 392.153 17.948C392.228 18.004 392.312 18.032 392.405 18.032H401.029C401.757 18.032 402.41 18.2093 402.989 18.564C403.568 18.9187 404.034 19.3853 404.389 19.964C404.744 20.5427 404.921 21.1867 404.921 21.896V24.136C404.921 24.8453 404.744 25.4893 404.389 26.068C404.034 26.6467 403.568 27.1133 402.989 27.468C402.41 27.8227 401.757 28 401.029 28H392.265Z" fill="white"/>
<g filter="url(#filter0_d_2258_3975)">
<path d="M12.352 103C10.7307 103 9.23733 102.595 7.872 101.784C6.54933 100.973 5.48267 99.9067 4.672 98.584C3.86133 97.2187 3.456 95.7253 3.456 94.104V65.816C3.456 64.1947 3.86133 62.7227 4.672 61.4C5.48267 60.0347 6.54933 58.9467 7.872 58.136C9.23733 57.3253 10.7307 56.92 12.352 56.92H40.64C42.2613 56.92 43.7333 57.3253 45.056 58.136C46.4213 58.9467 47.5093 60.0347 48.32 61.4C49.1307 62.7227 49.536 64.1947 49.536 65.816V94.104C49.536 95.7253 49.1307 97.2187 48.32 98.584C47.5093 99.9067 46.4213 100.973 45.056 101.784C43.7333 102.595 42.2613 103 40.64 103H12.352ZM12.672 94.488H40.192C40.4053 94.488 40.5973 94.424 40.768 94.296C40.9387 94.1253 41.024 93.9333 41.024 93.72V66.2C41.024 65.9867 40.9387 65.816 40.768 65.688C40.5973 65.5173 40.4053 65.432 40.192 65.432H12.672C12.4587 65.432 12.2667 65.5173 12.096 65.688C11.968 65.816 11.904 65.9867 11.904 66.2V93.72C11.904 93.9333 11.968 94.1253 12.096 94.296C12.2667 94.424 12.4587 94.488 12.672 94.488ZM60.808 103V74.712C60.808 73.0907 61.2133 71.6187 62.024 70.296C62.8347 68.9733 63.9013 67.9067 65.224 67.096C66.5893 66.2853 68.0613 65.88 69.64 65.88H90.248V74.264H69.96C69.7467 74.264 69.5547 74.3493 69.384 74.52C69.256 74.648 69.192 74.8187 69.192 75.032V103H60.808ZM108.432 103C106.811 103 105.318 102.595 103.952 101.784C102.63 100.973 101.563 99.9067 100.752 98.584C99.9845 97.2613 99.6005 95.7893 99.6005 94.168V80.216H128.913V75.032C128.913 74.8187 128.827 74.648 128.657 74.52C128.529 74.3493 128.358 74.264 128.145 74.264H99.6005V65.88H128.465C130.086 65.88 131.558 66.2853 132.881 67.096C134.246 67.9067 135.313 68.9733 136.081 70.296C136.891 71.6187 137.297 73.0907 137.297 74.712V103H108.432ZM108.752 94.616H128.913V87.768H107.984V93.848C107.984 94.0613 108.048 94.2533 108.176 94.424C108.347 94.552 108.539 94.616 108.752 94.616ZM147.959 103V65.88H176.823C178.444 65.88 179.916 66.2853 181.239 67.096C182.604 67.9067 183.671 68.9733 184.439 70.296C185.249 71.6187 185.655 73.0907 185.655 74.712V103H177.271V75.032C177.271 74.8187 177.185 74.648 177.015 74.52C176.887 74.3493 176.716 74.264 176.503 74.264H157.111C156.897 74.264 156.705 74.3493 156.535 74.52C156.407 74.648 156.343 74.8187 156.343 75.032V103H147.959ZM201.939 117.656V109.208H224.275C224.489 109.208 224.659 109.123 224.788 108.952C224.958 108.824 225.043 108.653 225.043 108.44V103H204.563C202.985 103 201.513 102.595 200.147 101.784C198.825 100.973 197.758 99.9067 196.947 98.584C196.137 97.2613 195.731 95.7893 195.731 94.168V74.712C195.731 73.0907 196.137 71.6187 196.947 70.296C197.758 68.9733 198.825 67.9067 200.147 67.096C201.513 66.2853 202.985 65.88 204.563 65.88H224.66C226.281 65.88 227.753 66.2853 229.076 67.096C230.398 67.9067 231.444 68.9733 232.211 70.296C233.022 71.6187 233.428 73.0907 233.428 74.712V108.824C233.428 110.488 233.044 111.981 232.276 113.304C231.508 114.627 230.441 115.672 229.076 116.44C227.753 117.251 226.281 117.656 224.66 117.656H201.939ZM204.883 94.616H224.275C224.489 94.616 224.659 94.552 224.788 94.424C224.958 94.2533 225.043 94.0613 225.043 93.848V75.032C225.043 74.8187 224.958 74.648 224.788 74.52C224.659 74.3493 224.489 74.264 224.275 74.264H204.883C204.67 74.264 204.478 74.3493 204.307 74.52C204.179 74.648 204.115 74.8187 204.115 75.032V93.848C204.115 94.0613 204.179 94.2533 204.307 94.424C204.478 94.552 204.67 94.616 204.883 94.616ZM252.058 103C250.437 103 248.965 102.595 247.642 101.784C246.32 100.973 245.253 99.9067 244.442 98.584C243.632 97.2613 243.226 95.7893 243.226 94.168V74.712C243.226 73.0907 243.632 71.6187 244.442 70.296C245.253 68.9733 246.32 67.9067 247.642 67.096C248.965 66.2853 250.437 65.88 252.058 65.88H272.09C273.712 65.88 275.184 66.2853 276.506 67.096C277.872 67.9067 278.938 68.9733 279.706 70.296C280.517 71.6187 280.922 73.0907 280.922 74.712V88.664H251.61V93.848C251.61 94.0613 251.674 94.2533 251.802 94.424C251.973 94.552 252.165 94.616 252.378 94.616H280.922V103H252.058ZM251.61 81.112H272.538V75.032C272.538 74.8187 272.453 74.648 272.282 74.52C272.154 74.3493 271.984 74.264 271.77 74.264H252.378C252.165 74.264 251.973 74.3493 251.802 74.52C251.674 74.648 251.61 74.8187 251.61 75.032V81.112ZM316.381 103V56.984H353.501C355.123 56.984 356.616 57.3893 357.981 58.2C359.347 59.0107 360.435 60.0987 361.245 61.464C362.056 62.7867 362.461 64.2587 362.461 65.88V78.296C362.461 79.9173 362.056 81.4107 361.245 82.776C360.435 84.1413 359.347 85.2293 357.981 86.04C356.616 86.808 355.123 87.192 353.501 87.192L324.829 87.256V103H316.381ZM325.597 78.68H353.117C353.331 78.68 353.523 78.616 353.693 78.488C353.864 78.36 353.949 78.1893 353.949 77.976V66.2C353.949 65.9867 353.864 65.816 353.693 65.688C353.523 65.5173 353.331 65.432 353.117 65.432H325.597C325.384 65.432 325.192 65.5173 325.021 65.688C324.893 65.816 324.829 65.9867 324.829 66.2V77.976C324.829 78.1893 324.893 78.36 325.021 78.488C325.192 78.616 325.384 78.68 325.597 78.68ZM380.062 103C378.441 103 376.969 102.595 375.646 101.784C374.324 100.973 373.257 99.9067 372.446 98.584C371.636 97.2613 371.23 95.7893 371.23 94.168V53.656H379.678V93.848C379.678 94.0613 379.742 94.2533 379.87 94.424C380.041 94.552 380.233 94.616 380.446 94.616H387.55V103H380.062ZM405.73 103C404.109 103 402.615 102.595 401.25 101.784C399.927 100.973 398.861 99.9067 398.05 98.584C397.282 97.2613 396.898 95.7893 396.898 94.168V80.216H426.21V75.032C426.21 74.8187 426.125 74.648 425.954 74.52C425.826 74.3493 425.655 74.264 425.442 74.264H396.898V65.88H425.762C427.383 65.88 428.855 66.2853 430.178 67.096C431.543 67.9067 432.61 68.9733 433.378 70.296C434.189 71.6187 434.594 73.0907 434.594 74.712V103H405.73ZM406.05 94.616H426.21V87.768H405.282V93.848C405.282 94.0613 405.346 94.2533 405.474 94.424C405.645 94.552 405.837 94.616 406.05 94.616ZM451.383 116.76V108.312H473.719C473.933 108.312 474.103 108.227 474.231 108.056C474.402 107.928 474.487 107.757 474.487 107.544V103H454.007C452.429 103 450.957 102.595 449.591 101.784C448.269 100.973 447.202 99.9067 446.391 98.584C445.581 97.2613 445.175 95.7893 445.175 94.168V66.008H453.559V93.848C453.559 94.0613 453.623 94.2533 453.751 94.424C453.922 94.552 454.114 94.616 454.327 94.616H473.719C473.933 94.616 474.103 94.552 474.231 94.424C474.402 94.2533 474.487 94.0613 474.487 93.848V66.008H482.871V107.928C482.871 109.549 482.487 111.021 481.719 112.344C480.951 113.709 479.885 114.776 478.519 115.544C477.197 116.355 475.725 116.76 474.103 116.76H451.383ZM501.376 103C499.755 103 498.283 102.595 496.96 101.784C495.637 100.973 494.571 99.9067 493.76 98.584C492.949 97.2613 492.544 95.7893 492.544 94.168V74.712C492.544 73.0907 492.949 71.6187 493.76 70.296C494.571 68.9733 495.637 67.9067 496.96 67.096C498.283 66.2853 499.755 65.88 501.376 65.88H521.408C523.029 65.88 524.501 66.2853 525.824 67.096C527.189 67.9067 528.256 68.9733 529.024 70.296C529.835 71.6187 530.24 73.0907 530.24 74.712V88.664H500.928V93.848C500.928 94.0613 500.992 94.2533 501.12 94.424C501.291 94.552 501.483 94.616 501.696 94.616H530.24V103H501.376ZM500.928 81.112H521.856V75.032C521.856 74.8187 521.771 74.648 521.6 74.52C521.472 74.3493 521.301 74.264 521.088 74.264H501.696C501.483 74.264 501.291 74.3493 501.12 74.52C500.992 74.648 500.928 74.8187 500.928 75.032V81.112ZM541.026 103V74.712C541.026 73.0907 541.431 71.6187 542.242 70.296C543.052 68.9733 544.119 67.9067 545.442 67.096C546.807 66.2853 548.279 65.88 549.858 65.88H570.466V74.264H550.178C549.964 74.264 549.772 74.3493 549.602 74.52C549.474 74.648 549.41 74.8187 549.41 75.032V103H541.026Z" fill="#EA6900"/>
</g>
<defs>
<filter id="filter0_d_2258_3975" x="3.45605" y="53.6558" width="575.01" height="72" filterUnits="userSpaceOnUse" color-interpolation-filters="sRGB">
<feFlood flood-opacity="0" result="BackgroundImageFix"/>
<feColorMatrix in="SourceAlpha" type="matrix" values="0 0 0 0 0 0 0 0 0 0 0 0 0 0 0 0 0 0 127 0" result="hardAlpha"/>
<feOffset dx="4" dy="4"/>
<feGaussianBlur stdDeviation="2"/>
<feComposite in2="hardAlpha" operator="out"/>
<feColorMatrix type="matrix" values="0 0 0 0 0 0 0 0 0 0 0 0 0 0 0 0 0 0 0.25 0"/>
<feBlend mode="normal" in2="BackgroundImageFix" result="effect1_dropShadow_2258_3975"/>
<feBlend mode="normal" in="SourceGraphic" in2="effect1_dropShadow_2258_3975" result="shape"/>
</filter>
</defs>
</svg>
