<svg width="41" height="10" viewBox="0 0 41 10" fill="none" xmlns="http://www.w3.org/2000/svg">
<path d="M1.02564 9C0.74359 9 0.502137 8.90208 0.301282 8.70625C0.100427 8.51042 0 8.275 0 8V2C0 1.725 0.100427 1.48958 0.301282 1.29375C0.502137 1.09792 0.74359 1 1.02564 1H6.66667C6.82906 1 6.98291 1.03542 7.12821 1.10625C7.2735 1.17708 7.39316 1.275 7.48718 1.4L9.79487 4.4C9.93162 4.575 10 4.775 10 5C10 5.225 9.93162 5.425 9.79487 5.6L7.48718 8.6C7.39316 8.725 7.2735 8.82292 7.12821 8.89375C6.98291 8.96458 6.82906 9 6.66667 9H1.02564Z" fill="#F58E39"/>
<path d="M14.92 8.08C14.0027 8.08 13.3387 7.86133 12.928 7.424C12.5227 6.98133 12.32 6.36533 12.32 5.576C12.32 5.06933 12.408 4.63467 12.584 4.272C12.7653 3.904 13.0453 3.62133 13.424 3.424C13.808 3.22133 14.3067 3.12 14.92 3.12H15.168C15.7707 3.12 16.2587 3.21867 16.632 3.416C17.0107 3.61333 17.288 3.896 17.464 4.264C17.64 4.632 17.728 5.06933 17.728 5.576C17.728 6.36533 17.5253 6.98133 17.12 7.424C16.7147 7.86133 16.064 8.08 15.168 8.08H14.92ZM15 7.192H15.088C15.4133 7.192 15.68 7.13867 15.888 7.032C16.1013 6.92533 16.2587 6.75467 16.36 6.52C16.4613 6.28 16.512 5.96533 16.512 5.576C16.512 5.19733 16.4587 4.89333 16.352 4.664C16.2507 4.42933 16.0933 4.26133 15.88 4.16C15.672 4.05333 15.408 4 15.088 4H15C14.6693 4 14.3947 4.056 14.176 4.168C13.9573 4.27467 13.7947 4.44267 13.688 4.672C13.5867 4.90133 13.536 5.20267 13.536 5.576C13.536 5.96533 13.5893 6.28 13.696 6.52C13.808 6.75467 13.9707 6.92533 14.184 7.032C14.4027 7.13867 14.6747 7.192 15 7.192ZM18.3989 8C18.4362 8 18.4709 7.96267 18.5029 7.888C18.5402 7.81333 18.5589 7.69067 18.5589 7.52V4.816C18.5589 4.64533 18.5402 4.52533 18.5029 4.456C18.4709 4.38133 18.4362 4.34133 18.3989 4.336C18.6335 4.336 18.8735 4.32 19.1189 4.288C19.3642 4.25067 19.5562 4.21333 19.6949 4.176V4.496L19.6789 4.632L19.6949 4.648C19.7322 4.58933 19.7909 4.52533 19.8709 4.456C19.9562 4.38133 20.0629 4.31733 20.1909 4.264C20.3242 4.20533 20.4789 4.176 20.6549 4.176C20.9162 4.176 21.1482 4.21333 21.3509 4.288C21.5535 4.35733 21.6975 4.42933 21.7829 4.504L21.5429 5.576V5.816C21.4629 5.704 21.3535 5.58933 21.2149 5.472C21.0815 5.35467 20.9322 5.256 20.7669 5.176C20.6069 5.096 20.4415 5.056 20.2709 5.056C20.0789 5.056 19.9349 5.12533 19.8389 5.264C19.7429 5.40267 19.6949 5.62133 19.6949 5.92V7.52C19.6949 7.69067 19.7109 7.81333 19.7429 7.888C19.7802 7.96267 19.8175 8 19.8549 8H18.3989ZM23.5991 8.08C23.1191 8.08 22.7351 7.98667 22.4471 7.8C22.1645 7.608 22.0231 7.30133 22.0231 6.88C22.0231 6.58667 22.0978 6.34933 22.2471 6.168C22.3965 5.98667 22.5991 5.85333 22.8551 5.768C23.1165 5.67733 23.4125 5.632 23.7431 5.632C23.9885 5.632 24.1965 5.65333 24.3671 5.696C24.5431 5.73867 24.6845 5.784 24.7911 5.832C24.8978 5.88 24.9671 5.91467 24.9991 5.936C24.9991 5.712 24.9751 5.53067 24.9271 5.392C24.8791 5.248 24.7911 5.144 24.6631 5.08C24.5405 5.01067 24.3671 4.976 24.1431 4.976C23.8178 4.976 23.5298 5.008 23.2791 5.072C23.0285 5.136 22.8231 5.21067 22.6631 5.296C22.5085 5.38133 22.4018 5.45333 22.3431 5.512V5.272L22.2631 4.488C22.3005 4.46667 22.3991 4.432 22.5591 4.384C22.7191 4.336 22.9378 4.29067 23.2151 4.248C23.4925 4.2 23.8231 4.176 24.2071 4.176C24.7351 4.176 25.1378 4.25333 25.4151 4.408C25.6925 4.55733 25.8818 4.77333 25.9831 5.056C26.0898 5.33867 26.1431 5.68 26.1431 6.08V7.52C26.1431 7.66933 26.1591 7.77867 26.1911 7.848C26.2285 7.912 26.2658 7.96267 26.3031 8H25.0071V7.832L25.0231 7.68L25.0071 7.664C24.9645 7.712 24.9031 7.76 24.8231 7.808C24.7431 7.856 24.6445 7.90133 24.5271 7.944C24.4098 7.98133 24.2738 8.01333 24.1191 8.04C23.9645 8.06667 23.7911 8.08 23.5991 8.08ZM23.9751 7.272C24.1991 7.272 24.3858 7.256 24.5351 7.224C24.6898 7.18667 24.8071 7.13867 24.8871 7.08C24.9671 7.016 25.0071 6.94133 25.0071 6.856C25.0071 6.73333 24.9138 6.632 24.7271 6.552C24.5458 6.472 24.2978 6.432 23.9831 6.432C23.6791 6.432 23.4631 6.47467 23.3351 6.56C23.2125 6.64533 23.1511 6.752 23.1511 6.88C23.1511 7.04 23.2231 7.14667 23.3671 7.2C23.5111 7.248 23.7138 7.272 23.9751 7.272ZM26.9614 8C26.9987 8 27.0334 7.96267 27.0654 7.888C27.1027 7.81333 27.1214 7.69067 27.1214 7.52V4.816C27.1214 4.64533 27.1027 4.52533 27.0654 4.456C27.0334 4.38133 26.9987 4.34133 26.9614 4.336C27.196 4.336 27.436 4.32 27.6814 4.288C27.9267 4.25067 28.1187 4.21333 28.2574 4.176V4.664L28.2414 4.768L28.2574 4.784C28.2734 4.74667 28.324 4.68 28.4094 4.584C28.4947 4.488 28.6174 4.39733 28.7774 4.312C28.9374 4.22133 29.1347 4.176 29.3694 4.176C29.8654 4.176 30.244 4.31733 30.5054 4.6C30.772 4.88267 30.9054 5.32533 30.9054 5.928V7.52C30.9054 7.69067 30.9214 7.81333 30.9534 7.888C30.9907 7.96267 31.028 8 31.0654 8H29.6094C29.6467 8 29.6814 7.96267 29.7134 7.888C29.7507 7.81333 29.7694 7.69067 29.7694 7.52V5.952C29.7694 5.70133 29.7427 5.50667 29.6894 5.368C29.636 5.224 29.5614 5.12267 29.4654 5.064C29.3747 5.00533 29.268 4.976 29.1454 4.976C28.996 4.976 28.852 5.01333 28.7134 5.088C28.58 5.15733 28.4707 5.26933 28.3854 5.424C28.3 5.57333 28.2574 5.77333 28.2574 6.024V7.52C28.2574 7.69067 28.2734 7.81333 28.3054 7.888C28.3427 7.96267 28.38 8 28.4174 8H26.9614ZM33.6472 9.952C33.3379 9.952 33.0525 9.93067 32.7912 9.888C32.5352 9.84533 32.3112 9.792 32.1192 9.728C31.9325 9.66933 31.7885 9.61067 31.6872 9.552L31.8472 8.352V8.12C31.9219 8.264 32.0392 8.416 32.1992 8.576C32.3592 8.736 32.5592 8.872 32.7992 8.984C33.0392 9.096 33.3112 9.152 33.6152 9.152C33.8125 9.152 33.9779 9.10933 34.1112 9.024C34.2445 8.944 34.3459 8.81867 34.4152 8.648C34.4845 8.47733 34.5192 8.26667 34.5192 8.016V7.888L34.5352 7.744L34.5192 7.728C34.4445 7.808 34.3432 7.87467 34.2152 7.928C34.0925 7.976 33.9565 8.01333 33.8072 8.04C33.6632 8.06667 33.5192 8.08 33.3752 8.08C32.9432 8.08 32.5965 7.99467 32.3352 7.824C32.0792 7.65333 31.8925 7.42133 31.7752 7.128C31.6632 6.83467 31.6072 6.504 31.6072 6.136C31.6072 5.76267 31.6632 5.42933 31.7752 5.136C31.8872 4.84267 32.0712 4.61067 32.3272 4.44C32.5885 4.264 32.9379 4.176 33.3752 4.176C33.5245 4.176 33.6712 4.18667 33.8152 4.208C33.9592 4.22933 34.0925 4.26133 34.2152 4.304C34.3379 4.34133 34.4392 4.39467 34.5192 4.464L34.5352 4.456L34.5192 4.304V4.256H35.8152C35.7779 4.26133 35.7405 4.30133 35.7032 4.376C35.6712 4.45067 35.6552 4.576 35.6552 4.752V7.816C35.6552 8.58933 35.4899 9.13867 35.1592 9.464C34.8339 9.78933 34.3299 9.952 33.6472 9.952ZM33.5912 7.272C33.7779 7.272 33.9405 7.24 34.0792 7.176C34.2179 7.112 34.3245 6.99733 34.3992 6.832C34.4792 6.66667 34.5192 6.43467 34.5192 6.136C34.5192 5.84267 34.4792 5.61333 34.3992 5.448C34.3245 5.27733 34.2179 5.15733 34.0792 5.088C33.9405 5.01333 33.7779 4.976 33.5912 4.976C33.4152 4.976 33.2632 5.01333 33.1352 5.088C33.0072 5.16267 32.9085 5.28533 32.8392 5.456C32.7699 5.62667 32.7352 5.856 32.7352 6.144C32.7352 6.42667 32.7672 6.65067 32.8312 6.816C32.9005 6.98133 32.9992 7.09867 33.1272 7.168C33.2552 7.23733 33.4099 7.272 33.5912 7.272ZM38.6348 8.08C38.2134 8.08 37.8614 8.03733 37.5788 7.952C37.3014 7.86133 37.0801 7.73333 36.9148 7.568C36.7494 7.39733 36.6321 7.192 36.5628 6.952C36.4934 6.712 36.4588 6.44 36.4588 6.136C36.4588 5.53333 36.6268 5.056 36.9628 4.704C37.2988 4.352 37.8134 4.176 38.5068 4.176C38.9121 4.176 39.2401 4.232 39.4908 4.344C39.7468 4.456 39.9414 4.60533 40.0748 4.792C40.2081 4.97867 40.2988 5.18667 40.3468 5.416C40.4001 5.64 40.4268 5.86667 40.4268 6.096V6.472C40.4268 6.456 40.3521 6.44 40.2028 6.424C40.0588 6.40267 39.8134 6.392 39.4668 6.392H37.6108C37.6108 6.68533 37.6988 6.90667 37.8748 7.056C38.0561 7.2 38.3494 7.272 38.7548 7.272C39.0961 7.272 39.4001 7.232 39.6668 7.152C39.9388 7.06667 40.1361 6.98667 40.2587 6.912V7.152L40.3388 7.76C40.2374 7.82933 40.0428 7.90133 39.7548 7.976C39.4668 8.04533 39.0934 8.08 38.6348 8.08ZM37.9068 5.704H39.2908C39.2908 5.58667 39.2641 5.472 39.2108 5.36C39.1628 5.248 39.0828 5.15733 38.9708 5.088C38.8588 5.01333 38.7041 4.976 38.5068 4.976C38.3094 4.976 38.1494 5.00533 38.0268 5.064C37.9094 5.12267 37.8214 5.19467 37.7628 5.28C37.7094 5.36533 37.6828 5.45333 37.6828 5.544C37.6828 5.59733 37.6988 5.63733 37.7308 5.664C37.7628 5.69067 37.8214 5.704 37.9068 5.704Z" fill="#F58E39"/>
</svg>
