<svg width="56" height="70" viewBox="0 0 56 70" fill="none" xmlns="http://www.w3.org/2000/svg">
<g clip-path="url(#clip0_8807_3713)">
<mask id="mask0_8807_3713" style="mask-type:luminance" maskUnits="userSpaceOnUse" x="0" y="0" width="56" height="70">
<path d="M56 0H0V70H56V0Z" fill="white"/>
</mask>
<g mask="url(#mask0_8807_3713)">
<path fill-rule="evenodd" clip-rule="evenodd" d="M7.33775 11.4647C6.44642 12.2984 6.29971 12.8841 6.29971 13.1927C6.29971 13.5013 6.44642 14.087 7.33775 14.9207C8.23369 15.7587 9.68211 16.6423 11.7057 17.4429C15.7364 19.0375 21.4961 20.0855 27.9998 20.0855C34.5034 20.0855 40.2631 19.0375 44.2938 17.4429C46.3174 16.6423 47.7658 15.7587 48.6617 14.9207C49.553 14.087 49.6998 13.5013 49.6998 13.1927C49.6998 12.8841 49.553 12.2984 48.6617 11.4647C47.7658 10.6267 46.3174 9.74312 44.2938 8.94255C40.2631 7.34792 34.5034 6.29995 27.9998 6.29995C21.4961 6.29995 15.7364 7.34792 11.7057 8.94255C9.68211 9.74312 8.23369 10.6267 7.33775 11.4647ZM9.64553 3.73526C14.4821 1.82179 20.9724 0.699951 27.9998 0.699951C35.0271 0.699951 41.5174 1.82179 46.3539 3.73526C48.764 4.68875 50.9035 5.89376 52.4871 7.37499C54.0753 8.86054 55.2997 10.8247 55.2997 13.1927C55.2997 15.5607 54.0753 17.5249 52.4871 19.0105C50.9035 20.4917 48.764 21.6967 46.3539 22.6502C41.5174 24.5637 35.0271 25.6855 27.9998 25.6855C20.9724 25.6855 14.4821 24.5637 9.64553 22.6502C7.23545 21.6967 5.09593 20.4917 3.51234 19.0105C1.92413 17.5249 0.699707 15.5607 0.699707 13.1927C0.699707 10.8247 1.92413 8.86054 3.51234 7.37499C5.09593 5.89376 7.23545 4.68875 9.64553 3.73526Z" fill="#DB7533"/>
<path fill-rule="evenodd" clip-rule="evenodd" d="M3.49971 10.3933C5.04611 10.3933 6.29971 11.6463 6.29971 13.1927V27.7325C6.29971 28.0413 6.44649 28.627 7.33775 29.4607C8.23365 30.2987 9.68201 31.1823 11.7056 31.9828C15.7362 33.5774 21.4959 34.6253 27.9998 34.6253C34.5036 34.6253 40.2633 33.5774 44.2939 31.9828C46.3175 31.1823 47.7658 30.2987 48.6617 29.4607C49.553 28.627 49.6998 28.0413 49.6998 27.7325V13.1927C49.6998 11.6463 50.9534 10.3933 52.4998 10.3933C54.0461 10.3933 55.2997 11.6463 55.2997 13.1927V27.7325C55.2997 30.1005 54.0754 32.0648 52.4872 33.5504C50.9036 35.0317 48.7641 36.2367 46.354 37.1901C41.5175 39.1035 35.0272 40.2253 27.9998 40.2253C20.9723 40.2253 14.482 39.1035 9.64545 37.1901C7.23537 36.2367 5.09585 35.0317 3.51226 33.5504C1.92402 32.0648 0.699707 30.1005 0.699707 27.7325V13.1927C0.699707 11.6463 1.95331 10.3933 3.49971 10.3933Z" fill="#DB7533"/>
<path fill-rule="evenodd" clip-rule="evenodd" d="M3.49971 24.9326C5.04611 24.9326 6.29971 26.1862 6.29971 27.7326V42.2717C6.29971 42.5805 6.44649 43.1663 7.33775 44C8.23365 44.838 9.68201 45.7216 11.7056 46.5221C15.7362 48.1167 21.4959 49.1645 27.9998 49.1645C34.5036 49.1645 40.2633 48.1167 44.2939 46.5221C46.3175 45.7216 47.7658 44.838 48.6617 44C49.553 43.1663 49.6998 42.5805 49.6998 42.2717V27.7326C49.6998 26.1862 50.9534 24.9326 52.4998 24.9326C54.0461 24.9326 55.2997 26.1862 55.2997 27.7326V42.2717C55.2997 44.6398 54.0754 46.604 52.4872 48.0897C50.9036 49.571 48.7641 50.776 46.354 51.7294C41.5175 53.6428 35.0272 54.7645 27.9998 54.7645C20.9723 54.7645 14.482 53.6428 9.64545 51.7294C7.23537 50.776 5.09585 49.571 3.51226 48.0897C1.92402 46.604 0.699707 44.6398 0.699707 42.2717V27.7326C0.699707 26.1862 1.95331 24.9326 3.49971 24.9326Z" fill="#DB7533"/>
<path fill-rule="evenodd" clip-rule="evenodd" d="M3.49971 39.4675C5.04611 39.4675 6.29971 40.7211 6.29971 42.2675V56.8067C6.29971 57.1154 6.44649 57.7012 7.33775 58.5349C8.23365 59.3729 9.68201 60.2565 11.7056 61.057C15.7362 62.6516 21.4959 63.6995 27.9998 63.6995C34.5036 63.6995 40.2633 62.6516 44.2939 61.057C46.3175 60.2565 47.7658 59.3729 48.6617 58.5349C49.553 57.7012 49.6998 57.1154 49.6998 56.8067V42.2675C49.6998 40.7211 50.9534 39.4675 52.4998 39.4675C54.0461 39.4675 55.2997 40.7211 55.2997 42.2675V56.8067C55.2997 59.1747 54.0754 61.1389 52.4872 62.6246C50.9036 64.1059 48.7641 65.3109 46.354 66.2643C41.5175 68.1777 35.0272 69.2995 27.9998 69.2995C20.9723 69.2995 14.482 68.1777 9.64545 66.2643C7.23537 65.3109 5.09585 64.1059 3.51226 62.6246C1.92402 61.1389 0.699707 59.1747 0.699707 56.8067V42.2675C0.699707 40.7211 1.95331 39.4675 3.49971 39.4675Z" fill="#DB7533"/>
</g>
</g>
<defs>
<clipPath id="clip0_8807_3713">
<rect width="56" height="70" fill="white"/>
</clipPath>
</defs>
</svg>
