<svg width="426" height="133" viewBox="0 0 426 133" fill="none" xmlns="http://www.w3.org/2000/svg">
<path d="M92.8558 38C93.0424 38 93.2291 37.8133 93.4158 37.44C93.6024 37.0667 93.6958 36.4533 93.6958 35.6V18.4C93.6958 17.8133 93.6291 17.4667 93.4958 17.36C93.3624 17.2533 92.8958 17.2 92.0958 17.2H89.1758C87.6291 17.2 86.3758 17.3733 85.4158 17.72C84.4824 18.04 83.8691 18.3467 83.5758 18.64L84.3758 14.8V14H107.496V14.8L108.296 18.64C108.002 18.3467 107.376 18.04 106.416 17.72C105.482 17.3733 104.242 17.2 102.696 17.2H99.8158C98.9891 17.2 98.5091 17.2533 98.3758 17.36C98.2424 17.4667 98.1758 17.8133 98.1758 18.4V35.6C98.1758 36.4533 98.2691 37.0667 98.4558 37.44C98.6424 37.8133 98.8291 38 99.0158 38H92.8558ZM110.524 38C110.71 38 110.884 37.8133 111.044 37.44C111.23 37.0667 111.324 36.4533 111.324 35.6V12.8C111.324 11.9467 111.23 11.3467 111.044 11C110.884 10.6267 110.71 10.4267 110.524 10.4H115.404V21.32L115.324 21.84L115.404 21.92C115.804 21.4133 116.31 20.9333 116.924 20.48C117.564 20.0267 118.35 19.6533 119.284 19.36C120.217 19.04 121.31 18.88 122.564 18.88C125.044 18.88 126.937 19.5867 128.244 21C129.577 22.4133 130.244 24.6267 130.244 27.64V35.6C130.244 36.4533 130.324 37.0667 130.484 37.44C130.67 37.8133 130.857 38 131.044 38H125.364C125.55 38 125.724 37.8133 125.884 37.44C126.07 37.0667 126.164 36.4533 126.164 35.6V27.76C126.164 26.1867 125.964 24.96 125.564 24.08C125.164 23.2 124.604 22.5867 123.884 22.24C123.19 21.8667 122.377 21.68 121.444 21.68C120.457 21.68 119.497 21.8933 118.564 22.32C117.63 22.7467 116.87 23.4267 116.284 24.36C115.697 25.2933 115.404 26.5467 115.404 28.12V35.6C115.404 36.4533 115.484 37.0667 115.644 37.44C115.83 37.8133 116.017 38 116.204 38H110.524ZM144.509 38.4C142.402 38.4 140.669 38.16 139.309 37.68C137.949 37.1733 136.882 36.48 136.109 35.6C135.336 34.72 134.789 33.6933 134.469 32.52C134.176 31.3467 134.029 30.0667 134.029 28.68C134.029 25.6667 134.882 23.28 136.589 21.52C138.322 19.76 140.882 18.88 144.269 18.88C146.242 18.88 147.829 19.1467 149.029 19.68C150.256 20.2133 151.176 20.92 151.789 21.8C152.429 22.68 152.856 23.64 153.069 24.68C153.309 25.6933 153.429 26.6933 153.429 27.68V29.56C153.429 29.48 153.056 29.4 152.309 29.32C151.589 29.2133 150.362 29.16 148.629 29.16H138.109C138.109 31.1333 138.696 32.6933 139.869 33.84C141.042 34.9867 142.789 35.56 145.109 35.56C147.109 35.56 148.749 35.32 150.029 34.84C151.336 34.3333 152.202 33.84 152.629 33.36V34.16L153.029 36.8C152.442 37.1467 151.402 37.5067 149.909 37.88C148.442 38.2267 146.642 38.4 144.509 38.4ZM139.709 26.52H149.429C149.429 25.8267 149.282 25.1067 148.989 24.36C148.696 23.6133 148.176 22.9867 147.429 22.48C146.682 21.9467 145.629 21.68 144.269 21.68C143.122 21.68 142.122 21.88 141.269 22.28C140.416 22.6533 139.749 23.1467 139.269 23.76C138.816 24.3733 138.589 25.0267 138.589 25.72C138.589 25.9867 138.669 26.1867 138.829 26.32C138.989 26.4533 139.282 26.52 139.709 26.52ZM172.821 38C173.008 38 173.128 37.8267 173.181 37.48C173.261 37.1067 173.141 36.48 172.821 35.6C172.688 35.2533 172.434 34.64 172.061 33.76C171.688 32.88 171.248 31.8667 170.741 30.72C170.261 29.5467 169.754 28.3733 169.221 27.2C168.688 26 168.194 24.92 167.741 23.96C167.288 22.9733 166.928 22.24 166.661 21.76C166.208 20.9067 165.794 20.2933 165.421 19.92C165.048 19.52 164.781 19.3067 164.621 19.28H171.141C170.901 19.28 170.741 19.4667 170.661 19.84C170.581 20.2133 170.741 20.8533 171.141 21.76C171.354 22.2133 171.648 22.9067 172.021 23.84C172.394 24.7467 172.808 25.8 173.261 27C173.741 28.1733 174.221 29.3733 174.701 30.6C175.181 31.8267 175.621 32.9733 176.021 34.04H176.061C176.461 32.9467 176.888 31.7867 177.341 30.56C177.794 29.3067 178.234 28.08 178.661 26.88C179.114 25.68 179.514 24.6267 179.861 23.72C180.208 22.7867 180.474 22.1067 180.661 21.68C181.034 20.8267 181.181 20.2133 181.101 19.84C181.021 19.4667 180.874 19.28 180.661 19.28H187.061C186.821 19.28 186.661 19.4667 186.581 19.84C186.501 20.2133 186.661 20.8533 187.061 21.76C187.274 22.2133 187.554 22.9067 187.901 23.84C188.274 24.7467 188.674 25.8 189.101 27C189.554 28.1733 190.008 29.3733 190.461 30.6C190.914 31.8267 191.328 32.9733 191.701 34.04H191.741C192.194 32.9467 192.674 31.7867 193.181 30.56C193.688 29.3067 194.194 28.08 194.701 26.88C195.208 25.68 195.648 24.6267 196.021 23.72C196.421 22.7867 196.714 22.1067 196.901 21.68C197.274 20.8267 197.421 20.2133 197.341 19.84C197.261 19.4667 197.114 19.28 196.901 19.28H203.181C203.021 19.28 202.768 19.4667 202.421 19.84C202.101 20.1867 201.728 20.7867 201.301 21.64C201.061 22.0933 200.714 22.7867 200.261 23.72C199.808 24.6533 199.301 25.7067 198.741 26.88C198.181 28.0267 197.634 29.1733 197.101 30.32C196.568 31.4667 196.101 32.52 195.701 33.48C195.301 34.4133 195.034 35.12 194.901 35.6C194.661 36.48 194.568 37.1067 194.621 37.48C194.674 37.8267 194.768 38 194.901 38H188.501C188.688 38 188.808 37.8267 188.861 37.48C188.941 37.1067 188.821 36.48 188.501 35.6C188.421 35.36 188.221 34.8133 187.901 33.96C187.581 33.1067 187.194 32.08 186.741 30.88C186.288 29.6533 185.821 28.3867 185.341 27.08C184.861 25.7733 184.394 24.5333 183.941 23.36H183.821C183.394 24.48 182.928 25.68 182.421 26.96C181.914 28.2133 181.434 29.44 180.981 30.64C180.528 31.8133 180.141 32.8533 179.821 33.76C179.501 34.64 179.301 35.2533 179.221 35.6C178.981 36.48 178.888 37.1067 178.941 37.48C178.994 37.8267 179.088 38 179.221 38H172.821ZM205.016 38C205.202 38 205.376 37.8133 205.536 37.44C205.722 37.0667 205.816 36.4533 205.816 35.6V21.68C205.816 20.8267 205.722 20.2267 205.536 19.88C205.376 19.5067 205.202 19.3067 205.016 19.28H209.896V35.6C209.896 36.4533 209.976 37.0667 210.136 37.44C210.322 37.8133 210.509 38 210.696 38H205.016ZM207.456 15.44C206.682 15.44 206.082 15.2267 205.656 14.8C205.229 14.3467 205.016 13.8267 205.016 13.24C205.016 12.6267 205.216 12.1067 205.616 11.68C206.042 11.2533 206.656 11.04 207.456 11.04C208.256 11.04 208.856 11.2533 209.256 11.68C209.682 12.1067 209.896 12.6267 209.896 13.24C209.896 13.8267 209.682 14.3467 209.256 14.8C208.829 15.2267 208.229 15.44 207.456 15.44ZM214.117 38C214.304 38 214.477 37.8133 214.637 37.44C214.824 37.0667 214.917 36.4533 214.917 35.6V22.08C214.917 21.2267 214.824 20.6267 214.637 20.28C214.477 19.9067 214.304 19.7067 214.117 19.68C215.291 19.68 216.304 19.6 217.157 19.44C218.037 19.2533 218.651 19.0667 218.997 18.88V21.32L218.917 21.84L218.997 21.92C219.397 21.4133 219.904 20.9333 220.517 20.48C221.157 20.0267 221.944 19.6533 222.877 19.36C223.811 19.04 224.904 18.88 226.157 18.88C228.637 18.88 230.531 19.5867 231.837 21C233.171 22.4133 233.837 24.6267 233.837 27.64V35.6C233.837 36.4533 233.917 37.0667 234.077 37.44C234.264 37.8133 234.451 38 234.637 38H228.957C229.144 38 229.317 37.8133 229.477 37.44C229.664 37.0667 229.757 36.4533 229.757 35.6V27.76C229.757 26.1867 229.557 24.96 229.157 24.08C228.757 23.2 228.197 22.5867 227.477 22.24C226.784 21.8667 225.971 21.68 225.037 21.68C224.051 21.68 223.091 21.8933 222.157 22.32C221.224 22.7467 220.464 23.4267 219.877 24.36C219.291 25.2933 218.997 26.5467 218.997 28.12V35.6C218.997 36.4533 219.077 37.0667 219.237 37.44C219.424 37.8133 219.611 38 219.797 38H214.117ZM238.063 38C238.249 38 238.423 37.8133 238.583 37.44C238.769 37.0667 238.863 36.4533 238.863 35.6V22.08C238.863 21.2267 238.769 20.6267 238.583 20.28C238.423 19.9067 238.249 19.7067 238.063 19.68C239.236 19.68 240.249 19.6 241.103 19.44C241.983 19.2533 242.596 19.0667 242.943 18.88V21.32L242.863 21.84L242.943 21.92C243.343 21.4133 243.849 20.9333 244.463 20.48C245.103 20.0267 245.889 19.6533 246.823 19.36C247.756 19.04 248.849 18.88 250.103 18.88C252.583 18.88 254.476 19.5867 255.783 21C257.116 22.4133 257.783 24.6267 257.783 27.64V35.6C257.783 36.4533 257.863 37.0667 258.023 37.44C258.209 37.8133 258.396 38 258.583 38H252.903C253.089 38 253.263 37.8133 253.423 37.44C253.609 37.0667 253.703 36.4533 253.703 35.6V27.76C253.703 26.1867 253.503 24.96 253.103 24.08C252.703 23.2 252.143 22.5867 251.423 22.24C250.729 21.8667 249.916 21.68 248.983 21.68C247.996 21.68 247.036 21.8933 246.103 22.32C245.169 22.7467 244.409 23.4267 243.823 24.36C243.236 25.2933 242.943 26.5467 242.943 28.12V35.6C242.943 36.4533 243.023 37.0667 243.183 37.44C243.369 37.8133 243.556 38 243.743 38H238.063ZM272.048 38.4C269.941 38.4 268.208 38.16 266.848 37.68C265.488 37.1733 264.421 36.48 263.648 35.6C262.875 34.72 262.328 33.6933 262.008 32.52C261.715 31.3467 261.568 30.0667 261.568 28.68C261.568 25.6667 262.421 23.28 264.128 21.52C265.861 19.76 268.421 18.88 271.808 18.88C273.781 18.88 275.368 19.1467 276.568 19.68C277.795 20.2133 278.715 20.92 279.328 21.8C279.968 22.68 280.395 23.64 280.608 24.68C280.848 25.6933 280.968 26.6933 280.968 27.68V29.56C280.968 29.48 280.595 29.4 279.848 29.32C279.128 29.2133 277.901 29.16 276.168 29.16H265.648C265.648 31.1333 266.235 32.6933 267.408 33.84C268.581 34.9867 270.328 35.56 272.648 35.56C274.648 35.56 276.288 35.32 277.568 34.84C278.875 34.3333 279.741 33.84 280.168 33.36V34.16L280.568 36.8C279.981 37.1467 278.941 37.5067 277.448 37.88C275.981 38.2267 274.181 38.4 272.048 38.4ZM267.248 26.52H276.968C276.968 25.8267 276.821 25.1067 276.528 24.36C276.235 23.6133 275.715 22.9867 274.968 22.48C274.221 21.9467 273.168 21.68 271.808 21.68C270.661 21.68 269.661 21.88 268.808 22.28C267.955 22.6533 267.288 23.1467 266.808 23.76C266.355 24.3733 266.128 25.0267 266.128 25.72C266.128 25.9867 266.208 26.1867 266.368 26.32C266.528 26.4533 266.821 26.52 267.248 26.52ZM284.391 38C284.577 38 284.751 37.8133 284.911 37.44C285.097 37.0667 285.191 36.4533 285.191 35.6V22.08C285.191 21.2267 285.097 20.6267 284.911 20.28C284.751 19.9067 284.577 19.7067 284.391 19.68C285.564 19.68 286.577 19.6 287.431 19.44C288.311 19.2533 288.924 19.0667 289.271 18.88V20.88L289.191 21.56L289.271 21.64C289.671 21.1067 290.151 20.64 290.711 20.24C291.297 19.8133 291.964 19.48 292.711 19.24C293.457 19 294.311 18.88 295.271 18.88C296.524 18.88 297.604 19.0667 298.511 19.44C299.444 19.7867 300.111 20.1467 300.511 20.52L299.711 23.88V25.08C299.364 24.6533 298.857 24.2133 298.191 23.76C297.551 23.28 296.817 22.88 295.991 22.56C295.164 22.24 294.284 22.08 293.351 22.08C292.284 22.08 291.337 22.5067 290.511 23.36C289.684 24.2133 289.271 25.6267 289.271 27.6V35.6C289.271 36.4533 289.351 37.0667 289.511 37.44C289.697 37.8133 289.884 38 290.071 38H284.391ZM312.75 38C312.937 38 313.11 37.8133 313.27 37.44C313.457 37.0667 313.55 36.4533 313.55 35.6V21.68C313.55 20.8267 313.457 20.2267 313.27 19.88C313.11 19.5067 312.937 19.3067 312.75 19.28H317.63V35.6C317.63 36.4533 317.71 37.0667 317.87 37.44C318.057 37.8133 318.243 38 318.43 38H312.75ZM315.19 15.44C314.417 15.44 313.817 15.2267 313.39 14.8C312.963 14.3467 312.75 13.8267 312.75 13.24C312.75 12.6267 312.95 12.1067 313.35 11.68C313.777 11.2533 314.39 11.04 315.19 11.04C315.99 11.04 316.59 11.2533 316.99 11.68C317.417 12.1067 317.63 12.6267 317.63 13.24C317.63 13.8267 317.417 14.3467 316.99 14.8C316.563 15.2267 315.963 15.44 315.19 15.44ZM332.212 38.4C329.705 38.4 327.598 38.2667 325.892 38C324.212 37.7333 323.065 37.4667 322.452 37.2V36.4L321.612 32.96C322.305 33.52 323.518 34.1067 325.252 34.72C327.012 35.3067 329.145 35.6 331.652 35.6C333.305 35.6 334.545 35.4933 335.372 35.28C336.198 35.04 336.745 34.7333 337.012 34.36C337.278 33.96 337.412 33.52 337.412 33.04C337.412 32.48 337.212 32.04 336.812 31.72C336.438 31.3733 335.718 31.0933 334.652 30.88C333.612 30.64 332.065 30.4 330.012 30.16C327.772 29.8933 326.038 29.5067 324.812 29C323.612 28.4933 322.785 27.8533 322.332 27.08C321.878 26.28 321.652 25.3333 321.652 24.24C321.652 23.3867 321.878 22.5467 322.332 21.72C322.785 20.8933 323.625 20.2133 324.852 19.68C326.105 19.1467 327.878 18.88 330.172 18.88C332.652 18.88 334.732 19.0133 336.412 19.28C338.118 19.5467 339.278 19.8133 339.892 20.08V20.88L340.692 23.92C340.025 23.44 338.812 22.9467 337.052 22.44C335.292 21.9333 333.172 21.68 330.692 21.68C328.718 21.68 327.398 21.9067 326.732 22.36C326.065 22.7867 325.732 23.3467 325.732 24.04C325.732 24.44 325.812 24.8 325.972 25.12C326.132 25.4133 326.452 25.68 326.932 25.92C327.438 26.16 328.185 26.3733 329.172 26.56C330.185 26.7467 331.532 26.9333 333.212 27.12C335.478 27.36 337.198 27.7333 338.372 28.24C339.545 28.7467 340.345 29.3867 340.772 30.16C341.225 30.9067 341.452 31.7867 341.452 32.8C341.452 33.8933 341.145 34.8667 340.532 35.72C339.945 36.5467 338.972 37.2 337.612 37.68C336.252 38.16 334.452 38.4 332.212 38.4Z" fill="white"/>
<path d="M3.07031 114C3.35031 114 3.63031 113.72 3.91031 113.16C4.19031 112.6 4.33031 111.68 4.33031 110.4V81.6C4.33031 80.32 4.19031 79.42 3.91031 78.9C3.63031 78.34 3.35031 78.04 3.07031 78H25.5103C28.6303 78 31.0703 78.36 32.8303 79.08C34.5903 79.8 35.8303 80.84 36.5503 82.2C37.2703 83.52 37.6303 85.08 37.6303 86.88C37.6303 88.32 37.3703 89.54 36.8503 90.54C36.3703 91.5 35.7503 92.26 34.9903 92.82C34.2303 93.38 33.4703 93.8 32.7103 94.08V94.2C35.3103 94.8 37.2703 95.88 38.5903 97.44C39.9103 98.96 40.5703 101 40.5703 103.56C40.5703 105.28 40.2303 106.94 39.5503 108.54C38.8703 110.14 37.6103 111.46 35.7703 112.5C33.9703 113.5 31.3503 114 27.9103 114H3.07031ZM15.9703 107.34H24.9703C27.2503 107.34 28.8703 107.02 29.8303 106.38C30.8303 105.7 31.3303 104.62 31.3303 103.14C31.3303 101.74 30.7903 100.66 29.7103 99.9C28.6303 99.1 26.8503 98.7 24.3703 98.7H16.0303C14.8303 98.7 14.1103 98.78 13.8703 98.94C13.6703 99.1 13.5703 99.64 13.5703 100.56V105.54C13.5703 106.42 13.6703 106.94 13.8703 107.1C14.1103 107.26 14.8103 107.34 15.9703 107.34ZM16.0303 92.58H23.1103C25.0303 92.58 26.3903 92.26 27.1903 91.62C28.0303 90.94 28.4503 89.94 28.4503 88.62C28.4503 87.3 28.0503 86.32 27.2503 85.68C26.4903 85.04 25.1303 84.72 23.1703 84.72H15.9703C14.7703 84.72 14.0703 84.8 13.8703 84.96C13.6703 85.08 13.5703 85.6 13.5703 86.52V90.78C13.5703 91.66 13.6703 92.18 13.8703 92.34C14.1103 92.5 14.8303 92.58 16.0303 92.58ZM45.375 114C45.655 114 45.935 113.72 46.215 113.16C46.495 112.6 46.635 111.68 46.635 110.4V81.6C46.635 80.32 46.495 79.42 46.215 78.9C45.935 78.34 45.655 78.04 45.375 78H57.135C56.855 78 56.575 78.28 56.295 78.84C56.015 79.4 55.875 80.34 55.875 81.66V105.48C55.875 106.36 55.975 106.9 56.175 107.1C56.415 107.26 57.135 107.34 58.335 107.34H72.795C75.115 107.34 76.975 107.08 78.375 106.56C79.815 106 80.755 105.46 81.195 104.94L79.395 112.14V114H45.375ZM103.589 114.6C99.5486 114.6 96.2286 113.96 93.6286 112.68C91.0286 111.4 89.1086 109.56 87.8686 107.16C86.6286 104.72 86.0086 101.82 86.0086 98.46V81.54C86.0086 80.26 85.8686 79.36 85.5886 78.84C85.3486 78.28 85.0886 78 84.8086 78H96.3286C96.0486 78.04 95.7686 78.32 95.4886 78.84C95.2486 79.36 95.1286 80.26 95.1286 81.54V98.34C95.1286 100.9 95.4886 102.88 96.2086 104.28C96.9286 105.68 97.9286 106.64 99.2086 107.16C100.489 107.68 101.969 107.94 103.649 107.94H104.309C105.629 107.94 106.789 107.8 107.789 107.52C108.829 107.24 109.689 106.76 110.369 106.08C111.089 105.4 111.629 104.44 111.989 103.2C112.389 101.92 112.589 100.3 112.589 98.34V81.54C112.589 80.26 112.449 79.36 112.169 78.84C111.929 78.28 111.669 78 111.389 78H122.909C122.629 78.04 122.349 78.34 122.069 78.9C121.829 79.42 121.709 80.32 121.709 81.6V98.46C121.709 101.82 121.069 104.72 119.789 107.16C118.549 109.56 116.629 111.4 114.029 112.68C111.469 113.96 108.189 114.6 104.189 114.6H103.589ZM128.93 114C129.21 114 129.49 113.72 129.77 113.16C130.05 112.6 130.19 111.68 130.19 110.4V81.6C130.19 80.32 130.05 79.42 129.77 78.9C129.49 78.34 129.21 78.04 128.93 78H163.97V79.8L165.17 86.76C164.17 86.32 162.41 85.86 159.89 85.38C157.37 84.86 154.33 84.6 150.77 84.6H141.89C140.69 84.6 139.97 84.7 139.73 84.9C139.53 85.06 139.43 85.56 139.43 86.4V90.84C139.43 91.72 139.53 92.24 139.73 92.4C139.97 92.56 140.67 92.64 141.83 92.64H150.47C152.79 92.64 154.65 92.52 156.05 92.28C157.49 92 158.43 91.72 158.87 91.44C158.71 92.2 158.53 93.08 158.33 94.08C158.13 95.08 157.97 96.04 157.85 96.96C157.73 97.88 157.67 98.64 157.67 99.24H141.83C140.67 99.24 139.97 99.32 139.73 99.48C139.53 99.6 139.43 100.12 139.43 101.04V105.48C139.43 106.4 139.53 106.94 139.73 107.1C139.93 107.26 140.63 107.34 141.83 107.34H158.03C160.35 107.34 162.21 107.08 163.61 106.56C165.05 106 165.99 105.46 166.43 104.94L165.23 112.14V114H128.93ZM185.123 114C185.403 114 185.663 113.72 185.903 113.16C186.183 112.6 186.323 111.68 186.323 110.4V81.6C186.323 80.32 186.183 79.42 185.903 78.9C185.623 78.34 185.343 78.04 185.063 78H204.743C208.143 78 210.883 78.5 212.963 79.5C215.083 80.46 216.643 81.86 217.643 83.7C218.643 85.5 219.143 87.66 219.143 90.18C219.143 92.74 218.643 94.96 217.643 96.84C216.643 98.68 215.083 100.1 212.963 101.1C210.883 102.06 208.143 102.54 204.743 102.54H195.563V110.4C195.563 111.68 195.703 112.6 195.983 113.16C196.263 113.72 196.543 114 196.823 114H185.123ZM198.023 95.94H201.023C203.383 95.94 205.203 95.74 206.483 95.34C207.803 94.94 208.723 94.32 209.243 93.48C209.763 92.64 210.023 91.54 210.023 90.18C210.023 88.86 209.743 87.8 209.183 87C208.663 86.2 207.783 85.64 206.543 85.32C205.343 84.96 203.703 84.78 201.623 84.78H198.023C196.783 84.78 196.063 84.86 195.863 85.02C195.663 85.14 195.563 85.6 195.563 86.4V94.26C195.563 95.06 195.663 95.54 195.863 95.7C196.063 95.86 196.783 95.94 198.023 95.94ZM224.262 114C224.542 114 224.822 113.72 225.102 113.16C225.382 112.6 225.522 111.68 225.522 110.4V81.6C225.522 80.32 225.382 79.42 225.102 78.9C224.822 78.34 224.542 78.04 224.262 78H236.022C235.742 78 235.462 78.28 235.182 78.84C234.902 79.4 234.762 80.34 234.762 81.66V105.48C234.762 106.36 234.862 106.9 235.062 107.1C235.302 107.26 236.022 107.34 237.222 107.34H251.682C254.002 107.34 255.862 107.08 257.262 106.56C258.702 106 259.642 105.46 260.082 104.94L258.282 112.14V114H224.262ZM260.575 114C260.775 114 261.075 113.72 261.475 113.16C261.915 112.6 262.415 111.66 262.975 110.34C263.255 109.74 263.695 108.72 264.295 107.28C264.935 105.8 265.655 104.1 266.455 102.18C267.295 100.22 268.155 98.18 269.035 96.06C269.955 93.94 270.815 91.9 271.615 89.94C272.455 87.98 273.175 86.26 273.775 84.78C274.415 83.3 274.855 82.24 275.095 81.6C275.615 80.32 275.895 79.4 275.935 78.84C275.975 78.28 275.895 78 275.695 78H288.775C288.615 78 288.555 78.28 288.595 78.84C288.635 79.36 288.915 80.28 289.435 81.6C289.675 82.24 290.095 83.3 290.695 84.78C291.295 86.22 291.995 87.92 292.795 89.88C293.595 91.8 294.435 93.82 295.315 95.94C296.195 98.06 297.035 100.1 297.835 102.06C298.635 103.98 299.355 105.68 299.995 107.16C300.635 108.64 301.095 109.7 301.375 110.34C301.975 111.66 302.555 112.6 303.115 113.16C303.675 113.72 304.095 114 304.375 114H290.755C291.075 113.96 291.335 113.66 291.535 113.1C291.775 112.5 291.775 111.58 291.535 110.34C291.495 110.06 291.455 109.84 291.415 109.68C291.375 109.48 291.295 109.2 291.175 108.84C291.015 108.24 290.835 107.82 290.635 107.58C290.435 107.3 290.095 107.14 289.615 107.1C289.175 107.06 288.435 107.04 287.395 107.04H277.075C275.995 107.04 275.195 107.08 274.675 107.16C274.155 107.2 273.795 107.34 273.595 107.58C273.395 107.82 273.235 108.22 273.115 108.78C273.075 108.98 273.015 109.24 272.935 109.56C272.895 109.88 272.855 110.14 272.815 110.34C272.535 111.62 272.455 112.54 272.575 113.1C272.735 113.66 272.935 113.96 273.175 114H260.575ZM278.635 100.44H285.655C286.815 100.44 287.455 100.34 287.575 100.14C287.695 99.94 287.635 99.5 287.395 98.82C286.875 97.54 286.355 96.24 285.835 94.92C285.315 93.56 284.815 92.24 284.335 90.96C283.895 89.68 283.495 88.5 283.135 87.42C282.815 86.3 282.535 85.36 282.295 84.6H282.175C281.615 86.08 281.035 87.64 280.435 89.28C279.835 90.92 279.275 92.44 278.755 93.84C278.235 95.24 277.815 96.4 277.495 97.32C277.175 98.2 277.015 98.64 277.015 98.64C276.735 99.28 276.635 99.74 276.715 100.02C276.795 100.3 277.435 100.44 278.635 100.44ZM312.345 114C312.665 114 313.005 113.74 313.365 113.22C313.725 112.66 313.905 111.72 313.905 110.4L313.845 98.04C312.725 96.64 311.505 95.14 310.185 93.54C308.865 91.94 307.565 90.36 306.285 88.8C305.005 87.24 303.845 85.84 302.805 84.6C301.805 83.32 301.025 82.36 300.465 81.72C299.345 80.36 298.405 79.4 297.645 78.84C296.925 78.28 296.425 78 296.145 78H310.305C310.025 78.04 309.925 78.34 310.005 78.9C310.085 79.46 310.585 80.4 311.505 81.72C311.945 82.32 312.445 83.06 313.005 83.94C313.605 84.78 314.225 85.7 314.865 86.7C315.505 87.7 316.125 88.68 316.725 89.64C317.365 90.6 317.945 91.48 318.465 92.28H318.525C319.125 91.4 319.725 90.52 320.325 89.64C320.925 88.72 321.525 87.82 322.125 86.94C322.725 86.06 323.325 85.18 323.925 84.3C324.525 83.38 325.125 82.48 325.725 81.6C326.645 80.24 327.145 79.3 327.225 78.78C327.305 78.26 327.205 78 326.925 78H340.725C340.485 78.04 340.025 78.32 339.345 78.84C338.665 79.36 337.785 80.26 336.705 81.54C336.105 82.22 335.265 83.2 334.185 84.48C333.145 85.72 331.985 87.14 330.705 88.74C329.425 90.3 328.105 91.9 326.745 93.54C325.425 95.14 324.205 96.64 323.085 98.04V110.4C323.085 111.72 323.205 112.66 323.445 113.22C323.725 113.74 324.005 114 324.285 114H312.345ZM343.734 114C344.014 114 344.294 113.72 344.574 113.16C344.854 112.6 344.994 111.68 344.994 110.4V81.6C344.994 80.32 344.854 79.42 344.574 78.9C344.294 78.34 344.014 78.04 343.734 78H378.774V79.8L379.974 86.76C378.974 86.32 377.214 85.86 374.694 85.38C372.174 84.86 369.134 84.6 365.574 84.6H356.694C355.494 84.6 354.774 84.7 354.534 84.9C354.334 85.06 354.234 85.56 354.234 86.4V90.84C354.234 91.72 354.334 92.24 354.534 92.4C354.774 92.56 355.474 92.64 356.634 92.64H365.274C367.594 92.64 369.454 92.52 370.854 92.28C372.294 92 373.234 91.72 373.674 91.44C373.514 92.2 373.334 93.08 373.134 94.08C372.934 95.08 372.774 96.04 372.654 96.96C372.534 97.88 372.474 98.64 372.474 99.24H356.634C355.474 99.24 354.774 99.32 354.534 99.48C354.334 99.6 354.234 100.12 354.234 101.04V105.48C354.234 106.4 354.334 106.94 354.534 107.1C354.734 107.26 355.434 107.34 356.634 107.34H372.834C375.154 107.34 377.014 107.08 378.414 106.56C379.854 106 380.794 105.46 381.234 104.94L380.034 112.14V114H343.734ZM385.513 114C385.793 114 386.053 113.72 386.293 113.16C386.573 112.6 386.713 111.68 386.713 110.4V81.6C386.713 80.32 386.573 79.42 386.293 78.9C386.013 78.34 385.733 78.04 385.453 78H405.133C408.653 78 411.453 78.44 413.533 79.32C415.653 80.2 417.173 81.5 418.093 83.22C419.053 84.9 419.533 87 419.533 89.52C419.533 91.32 419.193 92.92 418.513 94.32C417.873 95.72 416.973 96.86 415.813 97.74C414.653 98.62 413.353 99.26 411.913 99.66V99.84C413.513 100.48 415.193 101.74 416.953 103.62C418.713 105.46 420.293 107.52 421.693 109.8C422.613 111.28 423.453 112.34 424.213 112.98C424.973 113.62 425.553 113.96 425.953 114H410.833C411.313 113.96 411.693 113.7 411.973 113.22C412.293 112.7 412.193 111.86 411.673 110.7C410.833 108.78 409.813 107.12 408.613 105.72C407.413 104.32 406.013 103.26 404.413 102.54C402.853 101.78 401.053 101.4 399.013 101.4H398.353C397.113 101.4 396.393 101.5 396.193 101.7C395.993 101.9 395.893 102.4 395.893 103.2V110.4C395.893 111.68 396.033 112.6 396.313 113.16C396.593 113.72 396.873 114 397.153 114H385.513ZM398.353 95.34H403.273C405.793 95.34 407.613 94.9 408.733 94.02C409.853 93.1 410.413 91.6 410.413 89.52C410.413 88.6 410.213 87.78 409.813 87.06C409.413 86.34 408.733 85.78 407.773 85.38C406.853 84.98 405.553 84.78 403.873 84.78H398.353C397.113 84.78 396.393 84.84 396.193 84.96C395.993 85.08 395.893 85.54 395.893 86.34V93.72C395.893 94.52 395.993 95 396.193 95.16C396.393 95.28 397.113 95.34 398.353 95.34Z" fill="#2BB1FF"/>
</svg>
