<svg width="70" height="69" viewBox="0 0 70 69" fill="none" xmlns="http://www.w3.org/2000/svg">
<g clip-path="url(#clip0_8807_3703)">
<path d="M2.00031 24.6655C2.00031 24.6655 0.343262 23.4666 2.33172 21.8656L6.96456 17.7073C6.96456 17.7073 8.2902 16.3074 9.69179 17.5271L52.4437 50.0173V65.597C52.4437 65.597 52.423 68.0435 49.2953 67.7732L2.00031 24.6655Z" fill="#2489CA"/>
<path d="M13.0197 34.708L2.00032 44.7642C2.00032 44.7642 0.868005 45.6097 2.00032 47.1205L7.11647 51.7917C7.11647 51.7917 8.33164 53.1015 10.1268 51.6115L21.809 42.7197L13.0197 34.708Z" fill="#1070B3"/>
<path d="M32.3659 34.791L52.575 19.3014L52.4438 3.80477C52.4438 3.80477 51.5808 0.422691 48.7016 2.18304L21.8091 26.7516L32.3659 34.791Z" fill="#0877B9"/>
<path d="M49.2954 67.7941C50.4692 69 51.8915 68.6049 51.8915 68.6049L67.6404 60.8151C69.6564 59.4359 69.3734 57.7241 69.3734 57.7241V11.2066C69.3734 9.1621 67.2882 8.45519 67.2882 8.45519L53.6383 1.85043C50.6556 -1.54972e-05 48.7017 2.18309 48.7017 2.18309C48.7017 2.18309 51.2149 0.367301 52.4438 3.80483V65.313C52.4438 65.7357 52.3541 66.1516 52.1746 66.5258C51.8155 67.2535 51.0353 67.9327 49.1643 67.6485L49.2954 67.7941Z" fill="#3C99D4"/>
</g>
<defs>
<clipPath id="clip0_8807_3703">
<rect width="70" height="69" fill="white"/>
</clipPath>
</defs>
</svg>
