<svg width="522" height="133" viewBox="0 0 522 133" fill="none" xmlns="http://www.w3.org/2000/svg">
<path d="M140.856 38C141.042 38 141.229 37.8133 141.416 37.44C141.602 37.0667 141.696 36.4533 141.696 35.6V18.4C141.696 17.8133 141.629 17.4667 141.496 17.36C141.362 17.2533 140.896 17.2 140.096 17.2H137.176C135.629 17.2 134.376 17.3733 133.416 17.72C132.482 18.04 131.869 18.3467 131.576 18.64L132.376 14.8V14H155.496V14.8L156.296 18.64C156.002 18.3467 155.376 18.04 154.416 17.72C153.482 17.3733 152.242 17.2 150.696 17.2H147.816C146.989 17.2 146.509 17.2533 146.376 17.36C146.242 17.4667 146.176 17.8133 146.176 18.4V35.6C146.176 36.4533 146.269 37.0667 146.456 37.44C146.642 37.8133 146.829 38 147.016 38H140.856ZM158.524 38C158.71 38 158.884 37.8133 159.044 37.44C159.23 37.0667 159.324 36.4533 159.324 35.6V12.8C159.324 11.9467 159.23 11.3467 159.044 11C158.884 10.6267 158.71 10.4267 158.524 10.4H163.404V21.32L163.324 21.84L163.404 21.92C163.804 21.4133 164.31 20.9333 164.924 20.48C165.564 20.0267 166.35 19.6533 167.284 19.36C168.217 19.04 169.31 18.88 170.564 18.88C173.044 18.88 174.937 19.5867 176.244 21C177.577 22.4133 178.244 24.6267 178.244 27.64V35.6C178.244 36.4533 178.324 37.0667 178.484 37.44C178.67 37.8133 178.857 38 179.044 38H173.364C173.55 38 173.724 37.8133 173.884 37.44C174.07 37.0667 174.164 36.4533 174.164 35.6V27.76C174.164 26.1867 173.964 24.96 173.564 24.08C173.164 23.2 172.604 22.5867 171.884 22.24C171.19 21.8667 170.377 21.68 169.444 21.68C168.457 21.68 167.497 21.8933 166.564 22.32C165.63 22.7467 164.87 23.4267 164.284 24.36C163.697 25.2933 163.404 26.5467 163.404 28.12V35.6C163.404 36.4533 163.484 37.0667 163.644 37.44C163.83 37.8133 164.017 38 164.204 38H158.524ZM192.509 38.4C190.402 38.4 188.669 38.16 187.309 37.68C185.949 37.1733 184.882 36.48 184.109 35.6C183.336 34.72 182.789 33.6933 182.469 32.52C182.176 31.3467 182.029 30.0667 182.029 28.68C182.029 25.6667 182.882 23.28 184.589 21.52C186.322 19.76 188.882 18.88 192.269 18.88C194.242 18.88 195.829 19.1467 197.029 19.68C198.256 20.2133 199.176 20.92 199.789 21.8C200.429 22.68 200.856 23.64 201.069 24.68C201.309 25.6933 201.429 26.6933 201.429 27.68V29.56C201.429 29.48 201.056 29.4 200.309 29.32C199.589 29.2133 198.362 29.16 196.629 29.16H186.109C186.109 31.1333 186.696 32.6933 187.869 33.84C189.042 34.9867 190.789 35.56 193.109 35.56C195.109 35.56 196.749 35.32 198.029 34.84C199.336 34.3333 200.202 33.84 200.629 33.36V34.16L201.029 36.8C200.442 37.1467 199.402 37.5067 197.909 37.88C196.442 38.2267 194.642 38.4 192.509 38.4ZM187.709 26.52H197.429C197.429 25.8267 197.282 25.1067 196.989 24.36C196.696 23.6133 196.176 22.9867 195.429 22.48C194.682 21.9467 193.629 21.68 192.269 21.68C191.122 21.68 190.122 21.88 189.269 22.28C188.416 22.6533 187.749 23.1467 187.269 23.76C186.816 24.3733 186.589 25.0267 186.589 25.72C186.589 25.9867 186.669 26.1867 186.829 26.32C186.989 26.4533 187.282 26.52 187.709 26.52ZM220.821 38C221.008 38 221.128 37.8267 221.181 37.48C221.261 37.1067 221.141 36.48 220.821 35.6C220.688 35.2533 220.434 34.64 220.061 33.76C219.688 32.88 219.248 31.8667 218.741 30.72C218.261 29.5467 217.754 28.3733 217.221 27.2C216.688 26 216.194 24.92 215.741 23.96C215.288 22.9733 214.928 22.24 214.661 21.76C214.208 20.9067 213.794 20.2933 213.421 19.92C213.048 19.52 212.781 19.3067 212.621 19.28H219.141C218.901 19.28 218.741 19.4667 218.661 19.84C218.581 20.2133 218.741 20.8533 219.141 21.76C219.354 22.2133 219.648 22.9067 220.021 23.84C220.394 24.7467 220.808 25.8 221.261 27C221.741 28.1733 222.221 29.3733 222.701 30.6C223.181 31.8267 223.621 32.9733 224.021 34.04H224.061C224.461 32.9467 224.888 31.7867 225.341 30.56C225.794 29.3067 226.234 28.08 226.661 26.88C227.114 25.68 227.514 24.6267 227.861 23.72C228.208 22.7867 228.474 22.1067 228.661 21.68C229.034 20.8267 229.181 20.2133 229.101 19.84C229.021 19.4667 228.874 19.28 228.661 19.28H235.061C234.821 19.28 234.661 19.4667 234.581 19.84C234.501 20.2133 234.661 20.8533 235.061 21.76C235.274 22.2133 235.554 22.9067 235.901 23.84C236.274 24.7467 236.674 25.8 237.101 27C237.554 28.1733 238.008 29.3733 238.461 30.6C238.914 31.8267 239.328 32.9733 239.701 34.04H239.741C240.194 32.9467 240.674 31.7867 241.181 30.56C241.688 29.3067 242.194 28.08 242.701 26.88C243.208 25.68 243.648 24.6267 244.021 23.72C244.421 22.7867 244.714 22.1067 244.901 21.68C245.274 20.8267 245.421 20.2133 245.341 19.84C245.261 19.4667 245.114 19.28 244.901 19.28H251.181C251.021 19.28 250.768 19.4667 250.421 19.84C250.101 20.1867 249.728 20.7867 249.301 21.64C249.061 22.0933 248.714 22.7867 248.261 23.72C247.808 24.6533 247.301 25.7067 246.741 26.88C246.181 28.0267 245.634 29.1733 245.101 30.32C244.568 31.4667 244.101 32.52 243.701 33.48C243.301 34.4133 243.034 35.12 242.901 35.6C242.661 36.48 242.568 37.1067 242.621 37.48C242.674 37.8267 242.768 38 242.901 38H236.501C236.688 38 236.808 37.8267 236.861 37.48C236.941 37.1067 236.821 36.48 236.501 35.6C236.421 35.36 236.221 34.8133 235.901 33.96C235.581 33.1067 235.194 32.08 234.741 30.88C234.288 29.6533 233.821 28.3867 233.341 27.08C232.861 25.7733 232.394 24.5333 231.941 23.36H231.821C231.394 24.48 230.928 25.68 230.421 26.96C229.914 28.2133 229.434 29.44 228.981 30.64C228.528 31.8133 228.141 32.8533 227.821 33.76C227.501 34.64 227.301 35.2533 227.221 35.6C226.981 36.48 226.888 37.1067 226.941 37.48C226.994 37.8267 227.088 38 227.221 38H220.821ZM253.016 38C253.202 38 253.376 37.8133 253.536 37.44C253.722 37.0667 253.816 36.4533 253.816 35.6V21.68C253.816 20.8267 253.722 20.2267 253.536 19.88C253.376 19.5067 253.202 19.3067 253.016 19.28H257.896V35.6C257.896 36.4533 257.976 37.0667 258.136 37.44C258.322 37.8133 258.509 38 258.696 38H253.016ZM255.456 15.44C254.682 15.44 254.082 15.2267 253.656 14.8C253.229 14.3467 253.016 13.8267 253.016 13.24C253.016 12.6267 253.216 12.1067 253.616 11.68C254.042 11.2533 254.656 11.04 255.456 11.04C256.256 11.04 256.856 11.2533 257.256 11.68C257.682 12.1067 257.896 12.6267 257.896 13.24C257.896 13.8267 257.682 14.3467 257.256 14.8C256.829 15.2267 256.229 15.44 255.456 15.44ZM262.117 38C262.304 38 262.477 37.8133 262.637 37.44C262.824 37.0667 262.917 36.4533 262.917 35.6V22.08C262.917 21.2267 262.824 20.6267 262.637 20.28C262.477 19.9067 262.304 19.7067 262.117 19.68C263.291 19.68 264.304 19.6 265.157 19.44C266.037 19.2533 266.651 19.0667 266.997 18.88V21.32L266.917 21.84L266.997 21.92C267.397 21.4133 267.904 20.9333 268.517 20.48C269.157 20.0267 269.944 19.6533 270.877 19.36C271.811 19.04 272.904 18.88 274.157 18.88C276.637 18.88 278.531 19.5867 279.837 21C281.171 22.4133 281.837 24.6267 281.837 27.64V35.6C281.837 36.4533 281.917 37.0667 282.077 37.44C282.264 37.8133 282.451 38 282.637 38H276.957C277.144 38 277.317 37.8133 277.477 37.44C277.664 37.0667 277.757 36.4533 277.757 35.6V27.76C277.757 26.1867 277.557 24.96 277.157 24.08C276.757 23.2 276.197 22.5867 275.477 22.24C274.784 21.8667 273.971 21.68 273.037 21.68C272.051 21.68 271.091 21.8933 270.157 22.32C269.224 22.7467 268.464 23.4267 267.877 24.36C267.291 25.2933 266.997 26.5467 266.997 28.12V35.6C266.997 36.4533 267.077 37.0667 267.237 37.44C267.424 37.8133 267.611 38 267.797 38H262.117ZM286.063 38C286.249 38 286.423 37.8133 286.583 37.44C286.769 37.0667 286.863 36.4533 286.863 35.6V22.08C286.863 21.2267 286.769 20.6267 286.583 20.28C286.423 19.9067 286.249 19.7067 286.063 19.68C287.236 19.68 288.249 19.6 289.103 19.44C289.983 19.2533 290.596 19.0667 290.943 18.88V21.32L290.863 21.84L290.943 21.92C291.343 21.4133 291.849 20.9333 292.463 20.48C293.103 20.0267 293.889 19.6533 294.823 19.36C295.756 19.04 296.849 18.88 298.103 18.88C300.583 18.88 302.476 19.5867 303.783 21C305.116 22.4133 305.783 24.6267 305.783 27.64V35.6C305.783 36.4533 305.863 37.0667 306.023 37.44C306.209 37.8133 306.396 38 306.583 38H300.903C301.089 38 301.263 37.8133 301.423 37.44C301.609 37.0667 301.703 36.4533 301.703 35.6V27.76C301.703 26.1867 301.503 24.96 301.103 24.08C300.703 23.2 300.143 22.5867 299.423 22.24C298.729 21.8667 297.916 21.68 296.983 21.68C295.996 21.68 295.036 21.8933 294.103 22.32C293.169 22.7467 292.409 23.4267 291.823 24.36C291.236 25.2933 290.943 26.5467 290.943 28.12V35.6C290.943 36.4533 291.023 37.0667 291.183 37.44C291.369 37.8133 291.556 38 291.743 38H286.063ZM320.048 38.4C317.941 38.4 316.208 38.16 314.848 37.68C313.488 37.1733 312.421 36.48 311.648 35.6C310.875 34.72 310.328 33.6933 310.008 32.52C309.715 31.3467 309.568 30.0667 309.568 28.68C309.568 25.6667 310.421 23.28 312.128 21.52C313.861 19.76 316.421 18.88 319.808 18.88C321.781 18.88 323.368 19.1467 324.568 19.68C325.795 20.2133 326.715 20.92 327.328 21.8C327.968 22.68 328.395 23.64 328.608 24.68C328.848 25.6933 328.968 26.6933 328.968 27.68V29.56C328.968 29.48 328.595 29.4 327.848 29.32C327.128 29.2133 325.901 29.16 324.168 29.16H313.648C313.648 31.1333 314.235 32.6933 315.408 33.84C316.581 34.9867 318.328 35.56 320.648 35.56C322.648 35.56 324.288 35.32 325.568 34.84C326.875 34.3333 327.741 33.84 328.168 33.36V34.16L328.568 36.8C327.981 37.1467 326.941 37.5067 325.448 37.88C323.981 38.2267 322.181 38.4 320.048 38.4ZM315.248 26.52H324.968C324.968 25.8267 324.821 25.1067 324.528 24.36C324.235 23.6133 323.715 22.9867 322.968 22.48C322.221 21.9467 321.168 21.68 319.808 21.68C318.661 21.68 317.661 21.88 316.808 22.28C315.955 22.6533 315.288 23.1467 314.808 23.76C314.355 24.3733 314.128 25.0267 314.128 25.72C314.128 25.9867 314.208 26.1867 314.368 26.32C314.528 26.4533 314.821 26.52 315.248 26.52ZM332.391 38C332.577 38 332.751 37.8133 332.911 37.44C333.097 37.0667 333.191 36.4533 333.191 35.6V22.08C333.191 21.2267 333.097 20.6267 332.911 20.28C332.751 19.9067 332.577 19.7067 332.391 19.68C333.564 19.68 334.577 19.6 335.431 19.44C336.311 19.2533 336.924 19.0667 337.271 18.88V20.88L337.191 21.56L337.271 21.64C337.671 21.1067 338.151 20.64 338.711 20.24C339.297 19.8133 339.964 19.48 340.711 19.24C341.457 19 342.311 18.88 343.271 18.88C344.524 18.88 345.604 19.0667 346.511 19.44C347.444 19.7867 348.111 20.1467 348.511 20.52L347.711 23.88V25.08C347.364 24.6533 346.857 24.2133 346.191 23.76C345.551 23.28 344.817 22.88 343.991 22.56C343.164 22.24 342.284 22.08 341.351 22.08C340.284 22.08 339.337 22.5067 338.511 23.36C337.684 24.2133 337.271 25.6267 337.271 27.6V35.6C337.271 36.4533 337.351 37.0667 337.511 37.44C337.697 37.8133 337.884 38 338.071 38H332.391ZM360.75 38C360.937 38 361.11 37.8133 361.27 37.44C361.457 37.0667 361.55 36.4533 361.55 35.6V21.68C361.55 20.8267 361.457 20.2267 361.27 19.88C361.11 19.5067 360.937 19.3067 360.75 19.28H365.63V35.6C365.63 36.4533 365.71 37.0667 365.87 37.44C366.057 37.8133 366.243 38 366.43 38H360.75ZM363.19 15.44C362.417 15.44 361.817 15.2267 361.39 14.8C360.963 14.3467 360.75 13.8267 360.75 13.24C360.75 12.6267 360.95 12.1067 361.35 11.68C361.777 11.2533 362.39 11.04 363.19 11.04C363.99 11.04 364.59 11.2533 364.99 11.68C365.417 12.1067 365.63 12.6267 365.63 13.24C365.63 13.8267 365.417 14.3467 364.99 14.8C364.563 15.2267 363.963 15.44 363.19 15.44ZM380.212 38.4C377.705 38.4 375.598 38.2667 373.892 38C372.212 37.7333 371.065 37.4667 370.452 37.2V36.4L369.612 32.96C370.305 33.52 371.518 34.1067 373.252 34.72C375.012 35.3067 377.145 35.6 379.652 35.6C381.305 35.6 382.545 35.4933 383.372 35.28C384.198 35.04 384.745 34.7333 385.012 34.36C385.278 33.96 385.412 33.52 385.412 33.04C385.412 32.48 385.212 32.04 384.812 31.72C384.438 31.3733 383.718 31.0933 382.652 30.88C381.612 30.64 380.065 30.4 378.012 30.16C375.772 29.8933 374.038 29.5067 372.812 29C371.612 28.4933 370.785 27.8533 370.332 27.08C369.878 26.28 369.652 25.3333 369.652 24.24C369.652 23.3867 369.878 22.5467 370.332 21.72C370.785 20.8933 371.625 20.2133 372.852 19.68C374.105 19.1467 375.878 18.88 378.172 18.88C380.652 18.88 382.732 19.0133 384.412 19.28C386.118 19.5467 387.278 19.8133 387.892 20.08V20.88L388.692 23.92C388.025 23.44 386.812 22.9467 385.052 22.44C383.292 21.9333 381.172 21.68 378.692 21.68C376.718 21.68 375.398 21.9067 374.732 22.36C374.065 22.7867 373.732 23.3467 373.732 24.04C373.732 24.44 373.812 24.8 373.972 25.12C374.132 25.4133 374.452 25.68 374.932 25.92C375.438 26.16 376.185 26.3733 377.172 26.56C378.185 26.7467 379.532 26.9333 381.212 27.12C383.478 27.36 385.198 27.7333 386.372 28.24C387.545 28.7467 388.345 29.3867 388.772 30.16C389.225 30.9067 389.452 31.7867 389.452 32.8C389.452 33.8933 389.145 34.8667 388.532 35.72C387.945 36.5467 386.972 37.2 385.612 37.68C384.252 38.16 382.452 38.4 380.212 38.4Z" fill="white"/>
<path d="M22.0699 114.6C15.1899 114.6 10.2099 112.96 7.12992 109.68C4.08992 106.36 2.56992 101.74 2.56992 95.82C2.56992 92.02 3.22992 88.76 4.54992 86.04C5.90992 83.28 8.00992 81.16 10.8499 79.68C13.7299 78.16 17.4699 77.4 22.0699 77.4H23.9299C28.4499 77.4 32.1099 78.14 34.9099 79.62C37.7499 81.1 39.8299 83.22 41.1499 85.98C42.4699 88.74 43.1299 92.02 43.1299 95.82C43.1299 101.74 41.6099 106.36 38.5699 109.68C35.5299 112.96 30.6499 114.6 23.9299 114.6H22.0699ZM22.6699 107.94H23.3299C25.7699 107.94 27.7699 107.54 29.3299 106.74C30.9299 105.94 32.1099 104.66 32.8699 102.9C33.6299 101.1 34.0099 98.74 34.0099 95.82C34.0099 92.98 33.6099 90.7 32.8099 88.98C32.0499 87.22 30.8699 85.96 29.2699 85.2C27.7099 84.4 25.7299 84 23.3299 84H22.6699C20.1899 84 18.1299 84.42 16.4899 85.26C14.8499 86.06 13.6299 87.32 12.8299 89.04C12.0699 90.76 11.6899 93.02 11.6899 95.82C11.6899 98.74 12.0899 101.1 12.8899 102.9C13.7299 104.66 14.9499 105.94 16.5499 106.74C18.1899 107.54 20.2299 107.94 22.6699 107.94ZM48.5815 114C48.8615 114 49.1215 113.72 49.3615 113.16C49.6415 112.6 49.7815 111.68 49.7815 110.4V81.6C49.7815 80.32 49.6415 79.42 49.3615 78.9C49.0815 78.34 48.8015 78.04 48.5215 78H68.2015C71.7215 78 74.5215 78.44 76.6015 79.32C78.7215 80.2 80.2415 81.5 81.1615 83.22C82.1215 84.9 82.6015 87 82.6015 89.52C82.6015 91.32 82.2615 92.92 81.5815 94.32C80.9415 95.72 80.0415 96.86 78.8815 97.74C77.7215 98.62 76.4215 99.26 74.9815 99.66V99.84C76.5815 100.48 78.2615 101.74 80.0215 103.62C81.7815 105.46 83.3615 107.52 84.7615 109.8C85.6815 111.28 86.5215 112.34 87.2815 112.98C88.0415 113.62 88.6215 113.96 89.0215 114H73.9015C74.3815 113.96 74.7615 113.7 75.0415 113.22C75.3615 112.7 75.2615 111.86 74.7415 110.7C73.9015 108.78 72.8815 107.12 71.6815 105.72C70.4815 104.32 69.0815 103.26 67.4815 102.54C65.9215 101.78 64.1215 101.4 62.0815 101.4H61.4215C60.1815 101.4 59.4615 101.5 59.2615 101.7C59.0615 101.9 58.9615 102.4 58.9615 103.2V110.4C58.9615 111.68 59.1015 112.6 59.3815 113.16C59.6615 113.72 59.9415 114 60.2215 114H48.5815ZM61.4215 95.34H66.3415C68.8615 95.34 70.6815 94.9 71.8015 94.02C72.9215 93.1 73.4815 91.6 73.4815 89.52C73.4815 88.6 73.2815 87.78 72.8815 87.06C72.4815 86.34 71.8015 85.78 70.8415 85.38C69.9215 84.98 68.6215 84.78 66.9415 84.78H61.4215C60.1815 84.78 59.4615 84.84 59.2615 84.96C59.0615 85.08 58.9615 85.54 58.9615 86.34V93.72C58.9615 94.52 59.0615 95 59.2615 95.16C59.4615 95.28 60.1815 95.34 61.4215 95.34ZM88.878 114C89.078 114 89.378 113.72 89.778 113.16C90.218 112.6 90.718 111.66 91.278 110.34C91.558 109.74 91.998 108.72 92.598 107.28C93.238 105.8 93.958 104.1 94.758 102.18C95.598 100.22 96.458 98.18 97.338 96.06C98.258 93.94 99.118 91.9 99.918 89.94C100.758 87.98 101.478 86.26 102.078 84.78C102.718 83.3 103.158 82.24 103.398 81.6C103.918 80.32 104.198 79.4 104.238 78.84C104.278 78.28 104.198 78 103.998 78H117.078C116.918 78 116.858 78.28 116.898 78.84C116.938 79.36 117.218 80.28 117.738 81.6C117.978 82.24 118.398 83.3 118.998 84.78C119.598 86.22 120.298 87.92 121.098 89.88C121.898 91.8 122.738 93.82 123.618 95.94C124.498 98.06 125.338 100.1 126.138 102.06C126.938 103.98 127.658 105.68 128.298 107.16C128.938 108.64 129.398 109.7 129.678 110.34C130.278 111.66 130.858 112.6 131.418 113.16C131.978 113.72 132.398 114 132.678 114H119.058C119.378 113.96 119.638 113.66 119.838 113.1C120.078 112.5 120.078 111.58 119.838 110.34C119.798 110.06 119.758 109.84 119.718 109.68C119.678 109.48 119.598 109.2 119.478 108.84C119.318 108.24 119.138 107.82 118.938 107.58C118.738 107.3 118.398 107.14 117.918 107.1C117.478 107.06 116.738 107.04 115.698 107.04H105.378C104.298 107.04 103.498 107.08 102.978 107.16C102.458 107.2 102.098 107.34 101.898 107.58C101.698 107.82 101.538 108.22 101.418 108.78C101.378 108.98 101.318 109.24 101.238 109.56C101.198 109.88 101.158 110.14 101.118 110.34C100.838 111.62 100.758 112.54 100.878 113.1C101.038 113.66 101.238 113.96 101.478 114H88.878ZM106.938 100.44H113.958C115.118 100.44 115.758 100.34 115.878 100.14C115.998 99.94 115.938 99.5 115.698 98.82C115.178 97.54 114.658 96.24 114.138 94.92C113.618 93.56 113.118 92.24 112.638 90.96C112.198 89.68 111.798 88.5 111.438 87.42C111.118 86.3 110.838 85.36 110.598 84.6H110.478C109.918 86.08 109.338 87.64 108.738 89.28C108.138 90.92 107.578 92.44 107.058 93.84C106.538 95.24 106.118 96.4 105.798 97.32C105.478 98.2 105.318 98.64 105.318 98.64C105.038 99.28 104.938 99.74 105.018 100.02C105.098 100.3 105.738 100.44 106.938 100.44ZM135.826 114C136.106 114 136.386 113.72 136.666 113.16C136.946 112.6 137.086 111.68 137.086 110.4V81.6C137.086 80.32 136.946 79.42 136.666 78.9C136.386 78.34 136.106 78.04 135.826 78H147.586C147.306 78 147.226 78.28 147.346 78.84C147.506 79.4 148.166 80.36 149.326 81.72C149.646 82.04 150.166 82.64 150.886 83.52C151.646 84.36 152.546 85.38 153.586 86.58C154.626 87.78 155.726 89.08 156.886 90.48C158.086 91.88 159.286 93.28 160.486 94.68C161.726 96.08 162.906 97.42 164.026 98.7H164.086V81.6C164.086 80.32 163.946 79.42 163.666 78.9C163.386 78.34 163.106 78.04 162.826 78H174.586C174.306 78 174.026 78.28 173.746 78.84C173.466 79.4 173.326 80.34 173.326 81.66V110.4C173.326 111.68 173.466 112.6 173.746 113.16C174.026 113.72 174.306 114 174.586 114H164.266C164.506 114 164.526 113.72 164.326 113.16C164.166 112.6 163.546 111.64 162.466 110.28C161.906 109.56 161.166 108.64 160.246 107.52C159.326 106.36 158.286 105.08 157.126 103.68C156.006 102.28 154.826 100.82 153.586 99.3C152.346 97.78 151.106 96.3 149.866 94.86C148.666 93.38 147.546 92.02 146.506 90.78H146.326V110.4C146.326 111.68 146.466 112.6 146.746 113.16C147.026 113.72 147.306 114 147.586 114H135.826ZM197.572 114.6C192.132 114.6 187.832 113.1 184.672 110.1C181.552 107.06 179.992 102.4 179.992 96.12C179.992 92.44 180.692 89.2 182.092 86.4C183.492 83.56 185.712 81.36 188.752 79.8C191.792 78.2 195.732 77.4 200.572 77.4C204.372 77.4 207.512 77.6 209.992 78C212.512 78.4 214.232 78.8 215.152 79.2V81L216.352 87.6C215.272 86.8 213.372 86 210.652 85.2C207.932 84.4 204.612 84 200.692 84C198.012 84 195.812 84.46 194.092 85.38C192.372 86.26 191.112 87.6 190.312 89.4C189.512 91.2 189.112 93.44 189.112 96.12C189.112 99 189.472 101.32 190.192 103.08C190.912 104.8 192.072 106.04 193.672 106.8C195.272 107.56 197.392 107.94 200.032 107.94C202.032 107.94 203.652 107.74 204.892 107.34C206.132 106.9 207.052 106.32 207.652 105.6C208.252 104.84 208.552 104 208.552 103.08V102.12C208.552 101.2 208.472 100.68 208.312 100.56C208.192 100.4 207.672 100.32 206.752 100.32H204.832C203.472 100.32 202.312 100.46 201.352 100.74C200.392 101.02 199.712 101.3 199.312 101.58L199.912 95.64V93.84H218.812C218.532 93.88 218.252 94.18 217.972 94.74C217.732 95.26 217.612 96.16 217.612 97.44V110.4C217.612 111.68 217.732 112.6 217.972 113.16C218.252 113.72 218.532 114 218.812 114H208.552V113.22L208.672 111.54L208.552 111.42C208.272 111.82 207.712 112.28 206.872 112.8C206.032 113.28 204.852 113.7 203.332 114.06C201.852 114.42 199.932 114.6 197.572 114.6ZM224.83 114C225.11 114 225.39 113.72 225.67 113.16C225.95 112.6 226.09 111.68 226.09 110.4V81.6C226.09 80.32 225.95 79.42 225.67 78.9C225.39 78.34 225.11 78.04 224.83 78H259.87V79.8L261.07 86.76C260.07 86.32 258.31 85.86 255.79 85.38C253.27 84.86 250.23 84.6 246.67 84.6H237.79C236.59 84.6 235.87 84.7 235.63 84.9C235.43 85.06 235.33 85.56 235.33 86.4V90.84C235.33 91.72 235.43 92.24 235.63 92.4C235.87 92.56 236.57 92.64 237.73 92.64H246.37C248.69 92.64 250.55 92.52 251.95 92.28C253.39 92 254.33 91.72 254.77 91.44C254.61 92.2 254.43 93.08 254.23 94.08C254.03 95.08 253.87 96.04 253.75 96.96C253.63 97.88 253.57 98.64 253.57 99.24H237.73C236.57 99.24 235.87 99.32 235.63 99.48C235.43 99.6 235.33 100.12 235.33 101.04V105.48C235.33 106.4 235.43 106.94 235.63 107.1C235.83 107.26 236.53 107.34 237.73 107.34H253.93C256.25 107.34 258.11 107.08 259.51 106.56C260.95 106 261.89 105.46 262.33 104.94L261.13 112.14V114H224.83ZM281.023 114C281.303 114 281.563 113.72 281.803 113.16C282.083 112.6 282.223 111.68 282.223 110.4V81.6C282.223 80.32 282.083 79.42 281.803 78.9C281.523 78.34 281.243 78.04 280.963 78H300.643C304.043 78 306.783 78.5 308.863 79.5C310.983 80.46 312.543 81.86 313.543 83.7C314.543 85.5 315.043 87.66 315.043 90.18C315.043 92.74 314.543 94.96 313.543 96.84C312.543 98.68 310.983 100.1 308.863 101.1C306.783 102.06 304.043 102.54 300.643 102.54H291.463V110.4C291.463 111.68 291.603 112.6 291.883 113.16C292.163 113.72 292.443 114 292.723 114H281.023ZM293.923 95.94H296.923C299.283 95.94 301.103 95.74 302.383 95.34C303.703 94.94 304.623 94.32 305.143 93.48C305.663 92.64 305.923 91.54 305.923 90.18C305.923 88.86 305.643 87.8 305.083 87C304.563 86.2 303.683 85.64 302.443 85.32C301.243 84.96 299.603 84.78 297.523 84.78H293.923C292.683 84.78 291.963 84.86 291.763 85.02C291.563 85.14 291.463 85.6 291.463 86.4V94.26C291.463 95.06 291.563 95.54 291.763 95.7C291.963 95.86 292.683 95.94 293.923 95.94ZM320.162 114C320.442 114 320.722 113.72 321.002 113.16C321.282 112.6 321.422 111.68 321.422 110.4V81.6C321.422 80.32 321.282 79.42 321.002 78.9C320.722 78.34 320.442 78.04 320.162 78H331.922C331.642 78 331.362 78.28 331.082 78.84C330.802 79.4 330.662 80.34 330.662 81.66V105.48C330.662 106.36 330.762 106.9 330.962 107.1C331.202 107.26 331.922 107.34 333.122 107.34H347.582C349.902 107.34 351.762 107.08 353.162 106.56C354.602 106 355.542 105.46 355.982 104.94L354.182 112.14V114H320.162ZM356.476 114C356.676 114 356.976 113.72 357.376 113.16C357.816 112.6 358.316 111.66 358.876 110.34C359.156 109.74 359.596 108.72 360.196 107.28C360.836 105.8 361.556 104.1 362.356 102.18C363.196 100.22 364.056 98.18 364.936 96.06C365.856 93.94 366.716 91.9 367.516 89.94C368.356 87.98 369.076 86.26 369.676 84.78C370.316 83.3 370.756 82.24 370.996 81.6C371.516 80.32 371.796 79.4 371.836 78.84C371.876 78.28 371.796 78 371.596 78H384.676C384.516 78 384.456 78.28 384.496 78.84C384.536 79.36 384.816 80.28 385.336 81.6C385.576 82.24 385.996 83.3 386.596 84.78C387.196 86.22 387.896 87.92 388.696 89.88C389.496 91.8 390.336 93.82 391.216 95.94C392.096 98.06 392.936 100.1 393.736 102.06C394.536 103.98 395.256 105.68 395.896 107.16C396.536 108.64 396.996 109.7 397.276 110.34C397.876 111.66 398.456 112.6 399.016 113.16C399.576 113.72 399.996 114 400.276 114H386.656C386.976 113.96 387.236 113.66 387.436 113.1C387.676 112.5 387.676 111.58 387.436 110.34C387.396 110.06 387.356 109.84 387.316 109.68C387.276 109.48 387.196 109.2 387.076 108.84C386.916 108.24 386.736 107.82 386.536 107.58C386.336 107.3 385.996 107.14 385.516 107.1C385.076 107.06 384.336 107.04 383.296 107.04H372.976C371.896 107.04 371.096 107.08 370.576 107.16C370.056 107.2 369.696 107.34 369.496 107.58C369.296 107.82 369.136 108.22 369.016 108.78C368.976 108.98 368.916 109.24 368.836 109.56C368.796 109.88 368.756 110.14 368.716 110.34C368.436 111.62 368.356 112.54 368.476 113.1C368.636 113.66 368.836 113.96 369.076 114H356.476ZM374.536 100.44H381.556C382.716 100.44 383.356 100.34 383.476 100.14C383.596 99.94 383.536 99.5 383.296 98.82C382.776 97.54 382.256 96.24 381.736 94.92C381.216 93.56 380.716 92.24 380.236 90.96C379.796 89.68 379.396 88.5 379.036 87.42C378.716 86.3 378.436 85.36 378.196 84.6H378.076C377.516 86.08 376.936 87.64 376.336 89.28C375.736 90.92 375.176 92.44 374.656 93.84C374.136 95.24 373.716 96.4 373.396 97.32C373.076 98.2 372.916 98.64 372.916 98.64C372.636 99.28 372.536 99.74 372.616 100.02C372.696 100.3 373.336 100.44 374.536 100.44ZM408.245 114C408.565 114 408.905 113.74 409.265 113.22C409.625 112.66 409.805 111.72 409.805 110.4L409.745 98.04C408.625 96.64 407.405 95.14 406.085 93.54C404.765 91.94 403.465 90.36 402.185 88.8C400.905 87.24 399.745 85.84 398.705 84.6C397.705 83.32 396.925 82.36 396.365 81.72C395.245 80.36 394.305 79.4 393.545 78.84C392.825 78.28 392.325 78 392.045 78H406.205C405.925 78.04 405.825 78.34 405.905 78.9C405.985 79.46 406.485 80.4 407.405 81.72C407.845 82.32 408.345 83.06 408.905 83.94C409.505 84.78 410.125 85.7 410.765 86.7C411.405 87.7 412.025 88.68 412.625 89.64C413.265 90.6 413.845 91.48 414.365 92.28H414.425C415.025 91.4 415.625 90.52 416.225 89.64C416.825 88.72 417.425 87.82 418.025 86.94C418.625 86.06 419.225 85.18 419.825 84.3C420.425 83.38 421.025 82.48 421.625 81.6C422.545 80.24 423.045 79.3 423.125 78.78C423.205 78.26 423.105 78 422.825 78H436.625C436.385 78.04 435.925 78.32 435.245 78.84C434.565 79.36 433.685 80.26 432.605 81.54C432.005 82.22 431.165 83.2 430.085 84.48C429.045 85.72 427.885 87.14 426.605 88.74C425.325 90.3 424.005 91.9 422.645 93.54C421.325 95.14 420.105 96.64 418.985 98.04V110.4C418.985 111.72 419.105 112.66 419.345 113.22C419.625 113.74 419.905 114 420.185 114H408.245ZM439.635 114C439.915 114 440.195 113.72 440.475 113.16C440.755 112.6 440.895 111.68 440.895 110.4V81.6C440.895 80.32 440.755 79.42 440.475 78.9C440.195 78.34 439.915 78.04 439.635 78H474.675V79.8L475.875 86.76C474.875 86.32 473.115 85.86 470.595 85.38C468.075 84.86 465.035 84.6 461.475 84.6H452.595C451.395 84.6 450.675 84.7 450.435 84.9C450.235 85.06 450.135 85.56 450.135 86.4V90.84C450.135 91.72 450.235 92.24 450.435 92.4C450.675 92.56 451.375 92.64 452.535 92.64H461.175C463.495 92.64 465.355 92.52 466.755 92.28C468.195 92 469.135 91.72 469.575 91.44C469.415 92.2 469.235 93.08 469.035 94.08C468.835 95.08 468.675 96.04 468.555 96.96C468.435 97.88 468.375 98.64 468.375 99.24H452.535C451.375 99.24 450.675 99.32 450.435 99.48C450.235 99.6 450.135 100.12 450.135 101.04V105.48C450.135 106.4 450.235 106.94 450.435 107.1C450.635 107.26 451.335 107.34 452.535 107.34H468.735C471.055 107.34 472.915 107.08 474.315 106.56C475.755 106 476.695 105.46 477.135 104.94L475.935 112.14V114H439.635ZM481.414 114C481.694 114 481.954 113.72 482.194 113.16C482.474 112.6 482.614 111.68 482.614 110.4V81.6C482.614 80.32 482.474 79.42 482.194 78.9C481.914 78.34 481.634 78.04 481.354 78H501.034C504.554 78 507.354 78.44 509.434 79.32C511.554 80.2 513.074 81.5 513.994 83.22C514.954 84.9 515.434 87 515.434 89.52C515.434 91.32 515.094 92.92 514.414 94.32C513.774 95.72 512.874 96.86 511.714 97.74C510.554 98.62 509.254 99.26 507.814 99.66V99.84C509.414 100.48 511.094 101.74 512.854 103.62C514.614 105.46 516.194 107.52 517.594 109.8C518.514 111.28 519.354 112.34 520.114 112.98C520.874 113.62 521.454 113.96 521.854 114H506.734C507.214 113.96 507.594 113.7 507.874 113.22C508.194 112.7 508.094 111.86 507.574 110.7C506.734 108.78 505.714 107.12 504.514 105.72C503.314 104.32 501.914 103.26 500.314 102.54C498.754 101.78 496.954 101.4 494.914 101.4H494.254C493.014 101.4 492.294 101.5 492.094 101.7C491.894 101.9 491.794 102.4 491.794 103.2V110.4C491.794 111.68 491.934 112.6 492.214 113.16C492.494 113.72 492.774 114 493.054 114H481.414ZM494.254 95.34H499.174C501.694 95.34 503.514 94.9 504.634 94.02C505.754 93.1 506.314 91.6 506.314 89.52C506.314 88.6 506.114 87.78 505.714 87.06C505.314 86.34 504.634 85.78 503.674 85.38C502.754 84.98 501.454 84.78 499.774 84.78H494.254C493.014 84.78 492.294 84.84 492.094 84.96C491.894 85.08 491.794 85.54 491.794 86.34V93.72C491.794 94.52 491.894 95 492.094 95.16C492.294 95.28 493.014 95.34 494.254 95.34Z" fill="#F58E39"/>
</svg>
