<svg width="1219" height="102" viewBox="0 0 1219 102" fill="none" xmlns="http://www.w3.org/2000/svg">
<rect width="1219" height="102" rx="10" fill="#F0E5D9"/>
<rect x="24" y="24" width="159" height="54" rx="10" fill="white"/>
<path d="M42.5 63.5C41.8125 63.5 41.224 63.2552 40.7344 62.7656C40.2448 62.276 40 61.6875 40 61V58.5312C40 58.1146 40.0938 57.7292 40.2812 57.375C40.4688 57.0208 40.7188 56.7188 41.0312 56.4688C42.4688 55.3021 43.5469 54.125 44.2656 52.9375C44.9844 51.75 45.4896 50.6875 45.7812 49.75H43.75C43.3958 49.75 43.099 49.6302 42.8594 49.3906C42.6198 49.151 42.5 48.8542 42.5 48.5C42.5 48.1458 42.6198 47.849 42.8594 47.6094C43.099 47.3698 43.3958 47.25 43.75 47.25H45.3125C45.0208 46.7917 44.7917 46.3021 44.625 45.7813C44.4583 45.2604 44.375 44.7083 44.375 44.125C44.375 42.5625 44.9219 41.2344 46.0156 40.1406C47.1094 39.0469 48.4375 38.5 50 38.5C51.5625 38.5 52.8906 39.0469 53.9844 40.1406C55.0781 41.2344 55.625 42.5625 55.625 44.125C55.625 44.7083 55.5417 45.2604 55.375 45.7813C55.2083 46.3021 54.9792 46.7917 54.6875 47.25H56.25C56.6042 47.25 56.901 47.3698 57.1406 47.6094C57.3802 47.849 57.5 48.1458 57.5 48.5C57.5 48.8542 57.3802 49.151 57.1406 49.3906C56.901 49.6302 56.6042 49.75 56.25 49.75H54.2188C54.5104 50.6875 55.0156 51.75 55.7344 52.9375C56.4531 54.125 57.5312 55.3021 58.9688 56.4688C59.2812 56.7188 59.5312 57.0208 59.7188 57.375C59.9062 57.7292 60 58.1146 60 58.5312V61C60 61.6875 59.7552 62.276 59.2656 62.7656C58.776 63.2552 58.1875 63.5 57.5 63.5H42.5ZM42.5 61H57.5V58.5C55.5833 57 54.1979 55.4531 53.3438 53.8594C52.4896 52.2656 51.9167 50.8958 51.625 49.75H48.375C48.0833 50.8958 47.5104 52.2656 46.6563 53.8594C45.8021 55.4531 44.4167 57 42.5 58.5V61ZM50 47.25C50.875 47.25 51.6146 46.9479 52.2188 46.3438C52.8229 45.7396 53.125 45 53.125 44.125C53.125 43.25 52.8229 42.5104 52.2188 41.9063C51.6146 41.3021 50.875 41 50 41C49.125 41 48.3854 41.3021 47.7812 41.9063C47.1771 42.5104 46.875 43.25 46.875 44.125C46.875 45 47.1771 45.7396 47.7812 46.3438C48.3854 46.9479 49.125 47.25 50 47.25Z" fill="#EA6900"/>
<path d="M75.0441 47.94C77.2641 47.94 79.0241 48.7 80.3241 50.22C81.6241 51.74 82.2741 53.53 82.2741 55.59C82.2741 57.65 81.5941 59.47 80.2341 61.05C78.8741 62.63 76.9741 63.42 74.5341 63.42C72.1141 63.42 70.1941 62.57 68.7741 60.87C67.3741 59.15 66.6741 57 66.6741 54.42C66.6741 51.84 67.1641 49.48 68.1441 47.34C69.1241 45.18 70.5141 43.46 72.3141 42.18C74.1141 40.88 76.1141 40.23 78.3141 40.23C79.2541 40.23 79.9741 40.4 80.4741 40.74C80.9741 41.08 81.2241 41.53 81.2241 42.09C81.2241 42.65 80.9541 43.13 80.4141 43.53C79.8941 43.93 79.1441 44.13 78.1641 44.13C75.4441 44.13 73.3441 45.67 71.8641 48.75C72.9841 48.21 74.0441 47.94 75.0441 47.94ZM71.2041 55.65C71.2041 56.73 71.5041 57.67 72.1041 58.47C72.7241 59.25 73.5241 59.64 74.5041 59.64C75.5041 59.64 76.3341 59.26 76.9941 58.5C77.6741 57.72 78.0141 56.78 78.0141 55.68C78.0141 54.56 77.7041 53.62 77.0841 52.86C76.4641 52.1 75.6541 51.72 74.6541 51.72C73.6741 51.72 72.8541 52.1 72.1941 52.86C71.5341 53.62 71.2041 54.55 71.2041 55.65Z" fill="#EA6900"/>
<path d="M126.5 63.5C125.812 63.5 125.224 63.2552 124.734 62.7656C124.245 62.276 124 61.6875 124 61V58.5312C124 58.1146 124.094 57.7292 124.281 57.375C124.469 57.0208 124.719 56.7188 125.031 56.4688C126.469 55.3021 127.547 54.125 128.266 52.9375C128.984 51.75 129.49 50.6875 129.781 49.75H127.75C127.396 49.75 127.099 49.6302 126.859 49.3906C126.62 49.151 126.5 48.8542 126.5 48.5C126.5 48.1458 126.62 47.849 126.859 47.6094C127.099 47.3698 127.396 47.25 127.75 47.25H129.312C129.021 46.7917 128.792 46.3021 128.625 45.7813C128.458 45.2604 128.375 44.7083 128.375 44.125C128.375 42.5625 128.922 41.2344 130.016 40.1406C131.109 39.0469 132.438 38.5 134 38.5C135.562 38.5 136.891 39.0469 137.984 40.1406C139.078 41.2344 139.625 42.5625 139.625 44.125C139.625 44.7083 139.542 45.2604 139.375 45.7813C139.208 46.3021 138.979 46.7917 138.688 47.25H140.25C140.604 47.25 140.901 47.3698 141.141 47.6094C141.38 47.849 141.5 48.1458 141.5 48.5C141.5 48.8542 141.38 49.151 141.141 49.3906C140.901 49.6302 140.604 49.75 140.25 49.75H138.219C138.51 50.6875 139.016 51.75 139.734 52.9375C140.453 54.125 141.531 55.3021 142.969 56.4688C143.281 56.7188 143.531 57.0208 143.719 57.375C143.906 57.7292 144 58.1146 144 58.5312V61C144 61.6875 143.755 62.276 143.266 62.7656C142.776 63.2552 142.188 63.5 141.5 63.5H126.5ZM126.5 61H141.5V58.5C139.583 57 138.198 55.4531 137.344 53.8594C136.49 52.2656 135.917 50.8958 135.625 49.75H132.375C132.083 50.8958 131.51 52.2656 130.656 53.8594C129.802 55.4531 128.417 57 126.5 58.5V61ZM134 47.25C134.875 47.25 135.615 46.9479 136.219 46.3438C136.823 45.7396 137.125 45 137.125 44.125C137.125 43.25 136.823 42.5104 136.219 41.9063C135.615 41.3021 134.875 41 134 41C133.125 41 132.385 41.3021 131.781 41.9063C131.177 42.5104 130.875 43.25 130.875 44.125C130.875 45 131.177 45.7396 131.781 46.3438C132.385 46.9479 133.125 47.25 134 47.25Z" fill="#097FC5"/>
<path d="M157.964 59.34L162.854 59.16C163.594 59.16 164.184 59.34 164.624 59.7C165.084 60.06 165.314 60.55 165.314 61.17C165.314 61.77 165.084 62.26 164.624 62.64C164.184 63 163.594 63.18 162.854 63.18L157.964 63L152.774 63.18C150.954 63.18 150.044 62.43 150.044 60.93C150.044 60.39 150.304 59.69 150.824 58.83C151.364 57.97 151.894 57.23 152.414 56.61C152.954 55.97 153.694 55.11 154.634 54.03C155.594 52.95 156.264 52.18 156.644 51.72C157.044 51.26 157.544 50.64 158.144 49.86C159.264 48.4 159.824 47.27 159.824 46.47C159.824 45.65 159.574 45.01 159.074 44.55C158.594 44.09 158.074 43.86 157.514 43.86C156.954 43.86 156.504 43.97 156.164 44.19C155.844 44.41 155.564 44.68 155.324 45C155.104 45.3 154.874 45.6 154.634 45.9C154.094 46.66 153.494 47.04 152.834 47.04C152.174 47.04 151.654 46.86 151.274 46.5C150.894 46.12 150.704 45.68 150.704 45.18C150.704 44.12 151.334 43 152.594 41.82C153.874 40.64 155.514 40.05 157.514 40.05C159.514 40.05 161.104 40.65 162.284 41.85C163.464 43.05 164.054 44.53 164.054 46.29C164.054 47.65 163.434 49.17 162.194 50.85C161.354 52.01 160.084 53.58 158.384 55.56C156.804 57.48 155.824 58.73 155.444 59.31C155.964 59.33 156.804 59.34 157.964 59.34Z" fill="#097FC5"/>
<path d="M478.568 59.112C478.568 59.3253 478.419 59.688 478.12 60.2C477.843 60.6907 477.427 61.2453 476.872 61.864C476.317 62.4613 475.624 63.048 474.792 63.624C473.981 64.1787 473.043 64.6373 471.976 65C470.909 65.384 469.725 65.576 468.424 65.576C466.568 65.576 464.893 65.2347 463.4 64.552C461.928 63.8693 460.765 62.8027 459.912 61.352C459.059 59.88 458.632 57.9707 458.632 55.624C458.632 53.7467 458.92 51.9973 459.496 50.376C460.072 48.7333 460.872 47.304 461.896 46.088C462.941 44.8507 464.157 43.8907 465.544 43.208C466.931 42.5253 468.435 42.184 470.056 42.184C470.355 42.184 470.781 42.2053 471.336 42.248C471.912 42.2907 472.541 42.3973 473.224 42.568C473.907 42.7387 474.589 43.016 475.272 43.4C475.955 43.7627 476.563 44.264 477.096 44.904C477.16 44.9893 477.192 45.1067 477.192 45.256C477.192 45.5547 477.053 45.8853 476.776 46.248C476.499 46.6107 476.211 46.792 475.912 46.792C475.72 46.792 475.56 46.696 475.432 46.504C475.069 45.9493 474.611 45.5227 474.056 45.224C473.501 44.904 472.936 44.68 472.36 44.552C471.805 44.4027 471.304 44.3173 470.856 44.296C470.408 44.2533 470.099 44.232 469.928 44.232C468.733 44.232 467.592 44.5093 466.504 45.064C465.437 45.5973 464.477 46.376 463.624 47.4C462.792 48.4027 462.131 49.5973 461.64 50.984C461.171 52.3707 460.936 53.896 460.936 55.56C460.936 57.416 461.256 58.9307 461.896 60.104C462.557 61.2773 463.464 62.152 464.616 62.728C465.768 63.2827 467.101 63.56 468.616 63.56C469.597 63.56 470.632 63.3787 471.72 63.016C472.808 62.632 473.853 62.0987 474.856 61.416C475.859 60.7333 476.691 59.9547 477.352 59.08C477.608 58.76 477.864 58.6 478.12 58.6C478.419 58.6 478.568 58.7707 478.568 59.112ZM495.5 50.376C495.436 50.76 495.351 51.5707 495.244 52.808C495.159 54.0453 495.116 55.5813 495.116 57.416C495.116 57.5867 495.116 57.928 495.116 58.44C495.137 58.9307 495.18 59.5067 495.244 60.168C495.329 60.8293 495.457 61.4907 495.628 62.152C495.799 62.8133 496.033 63.3893 496.332 63.88C496.353 63.9227 496.364 63.9867 496.364 64.072C496.364 64.3067 496.215 64.5947 495.916 64.936C495.639 65.256 495.319 65.416 494.956 65.416C494.679 65.416 494.444 65.2773 494.252 65C494.06 64.7013 493.9 64.328 493.772 63.88C493.644 63.432 493.537 62.984 493.452 62.536C493.388 62.0667 493.345 61.672 493.324 61.352C492.748 62.5253 491.916 63.528 490.828 64.36C489.761 65.1707 488.567 65.576 487.244 65.576C486.007 65.576 485.036 65.288 484.332 64.712C483.649 64.136 483.159 63.3893 482.86 62.472C482.583 61.5547 482.444 60.5733 482.444 59.528V53.224C482.444 53.096 482.433 52.808 482.412 52.36C482.391 51.912 482.369 51.4427 482.348 50.952C482.348 50.44 482.348 50.0667 482.348 49.832C482.348 49.6187 482.561 49.512 482.988 49.512C483.329 49.512 483.692 49.5973 484.076 49.768C484.481 49.9173 484.684 50.1307 484.684 50.408C484.684 50.5787 484.673 50.8453 484.652 51.208C484.652 51.5493 484.641 51.912 484.62 52.296C484.62 52.6587 484.62 52.968 484.62 53.224V59.4C484.62 60.6373 484.844 61.6613 485.292 62.472C485.74 63.2613 486.391 63.656 487.244 63.656C488.119 63.656 488.983 63.304 489.836 62.6C490.711 61.896 491.447 60.9253 492.044 59.688C492.663 58.4293 493.015 56.9893 493.1 55.368C493.121 55.0267 493.132 54.5893 493.132 54.056C493.132 53.5013 493.132 52.936 493.132 52.36V49.8C493.132 49.5867 493.356 49.48 493.804 49.48C494.167 49.48 494.54 49.5547 494.924 49.704C495.308 49.8533 495.5 50.056 495.5 50.312V50.376ZM501.383 53.256C501.383 53.0427 501.372 52.712 501.351 52.264C501.33 51.816 501.308 51.3573 501.287 50.888C501.287 50.4187 501.287 50.0667 501.287 49.832C501.287 49.6187 501.5 49.512 501.927 49.512C502.268 49.512 502.631 49.5973 503.015 49.768C503.42 49.9173 503.623 50.1307 503.623 50.408C503.623 50.6213 503.602 50.856 503.559 51.112C503.538 51.368 503.527 51.6773 503.527 52.04C503.954 51.336 504.562 50.728 505.351 50.216C506.14 49.704 507.09 49.448 508.199 49.448C508.839 49.448 509.436 49.5547 509.991 49.768C510.546 49.9813 510.994 50.2373 511.335 50.536C511.698 50.8347 511.879 51.112 511.879 51.368C511.879 51.7093 511.751 52.072 511.495 52.456C511.26 52.84 511.004 53.032 510.727 53.032C510.556 53.032 510.407 52.9253 510.279 52.712C510.066 52.3067 509.724 52.008 509.255 51.816C508.807 51.624 508.423 51.528 508.103 51.528C507.207 51.528 506.375 51.8053 505.607 52.36C504.86 52.9147 504.306 53.768 503.943 54.92C503.794 55.3893 503.687 55.912 503.623 56.488C503.559 57.064 503.516 57.7573 503.495 58.568C503.495 59.3787 503.495 60.392 503.495 61.608C503.495 62.2693 503.516 62.9093 503.559 63.528C503.623 64.1467 503.655 64.6373 503.655 65C503.655 65.2133 503.442 65.32 503.015 65.32C502.674 65.32 502.3 65.2347 501.895 65.064C501.511 64.9147 501.319 64.7013 501.319 64.424C501.319 64.2533 501.319 63.976 501.319 63.592C501.34 63.1867 501.351 62.792 501.351 62.408C501.372 62.024 501.383 61.7573 501.383 61.608V53.256ZM515.133 53.256C515.133 53.0427 515.122 52.712 515.101 52.264C515.08 51.816 515.058 51.3573 515.037 50.888C515.037 50.4187 515.037 50.0667 515.037 49.832C515.037 49.6187 515.25 49.512 515.677 49.512C516.018 49.512 516.381 49.5973 516.765 49.768C517.17 49.9173 517.373 50.1307 517.373 50.408C517.373 50.6213 517.352 50.856 517.309 51.112C517.288 51.368 517.277 51.6773 517.277 52.04C517.704 51.336 518.312 50.728 519.101 50.216C519.89 49.704 520.84 49.448 521.949 49.448C522.589 49.448 523.186 49.5547 523.741 49.768C524.296 49.9813 524.744 50.2373 525.085 50.536C525.448 50.8347 525.629 51.112 525.629 51.368C525.629 51.7093 525.501 52.072 525.245 52.456C525.01 52.84 524.754 53.032 524.477 53.032C524.306 53.032 524.157 52.9253 524.029 52.712C523.816 52.3067 523.474 52.008 523.005 51.816C522.557 51.624 522.173 51.528 521.853 51.528C520.957 51.528 520.125 51.8053 519.357 52.36C518.61 52.9147 518.056 53.768 517.693 54.92C517.544 55.3893 517.437 55.912 517.373 56.488C517.309 57.064 517.266 57.7573 517.245 58.568C517.245 59.3787 517.245 60.392 517.245 61.608C517.245 62.2693 517.266 62.9093 517.309 63.528C517.373 64.1467 517.405 64.6373 517.405 65C517.405 65.2133 517.192 65.32 516.765 65.32C516.424 65.32 516.05 65.2347 515.645 65.064C515.261 64.9147 515.069 64.7013 515.069 64.424C515.069 64.2533 515.069 63.976 515.069 63.592C515.09 63.1867 515.101 62.792 515.101 62.408C515.122 62.024 515.133 61.7573 515.133 61.608V53.256ZM529.939 58.728V59.048C529.939 60.4347 530.291 61.5547 530.995 62.408C531.72 63.2613 532.616 63.688 533.683 63.688C535.048 63.688 536.296 63.4747 537.427 63.048C538.579 62.6 539.582 61.9173 540.435 61C540.584 60.8293 540.723 60.712 540.851 60.648C540.979 60.5627 541.086 60.52 541.171 60.52C541.384 60.52 541.491 60.648 541.491 60.904C541.491 61.096 541.331 61.4373 541.011 61.928C540.712 62.4187 540.243 62.952 539.603 63.528C538.963 64.0827 538.152 64.5627 537.171 64.968C536.19 65.3733 535.027 65.576 533.683 65.576C532.595 65.576 531.603 65.3093 530.707 64.776C529.832 64.2213 529.139 63.432 528.627 62.408C528.115 61.384 527.859 60.168 527.859 58.76V58.312C527.667 58.1627 527.507 57.992 527.379 57.8C527.251 57.608 527.187 57.4373 527.187 57.288C527.187 57.0107 527.39 56.872 527.795 56.872C527.816 56.872 527.859 56.872 527.923 56.872C528.008 56.8507 528.062 56.84 528.083 56.84C528.232 56.072 528.531 55.2613 528.979 54.408C529.448 53.5547 530.035 52.7547 530.739 52.008C531.443 51.24 532.243 50.6213 533.139 50.152C534.056 49.6827 535.038 49.448 536.083 49.448C537.406 49.448 538.451 49.6827 539.219 50.152C540.008 50.6 540.563 51.1867 540.883 51.912C541.224 52.616 541.395 53.352 541.395 54.12C541.395 54.8453 541.331 55.4213 541.203 55.848C541.096 56.2747 540.83 56.6267 540.403 56.904C539.976 57.16 539.283 57.4373 538.323 57.736C537.363 58.0347 536.211 58.28 534.867 58.472C533.544 58.6427 532.04 58.728 530.355 58.728H529.939ZM530.835 56.936C532.414 56.936 533.736 56.8507 534.803 56.68C535.87 56.488 536.755 56.296 537.459 56.104C538.227 55.8693 538.718 55.6133 538.931 55.336C539.166 55.0587 539.283 54.6427 539.283 54.088C539.283 52.232 538.206 51.304 536.051 51.304C535.262 51.304 534.536 51.4853 533.875 51.848C533.214 52.2107 532.627 52.68 532.115 53.256C531.624 53.832 531.208 54.4507 530.867 55.112C530.547 55.752 530.323 56.36 530.195 56.936H530.835ZM556.946 64.456C556.967 64.2853 556.978 63.9973 556.978 63.592C556.978 63.1867 556.978 62.7707 556.978 62.344C556.999 61.896 557.01 61.5547 557.01 61.32V55.624C557.01 54.3653 556.839 53.3627 556.498 52.616C556.157 51.848 555.453 51.464 554.386 51.464C553.661 51.464 552.925 51.6027 552.178 51.88C551.453 52.1573 550.791 52.616 550.194 53.256C549.597 53.896 549.138 54.7493 548.818 55.816C548.669 56.3493 548.551 56.9787 548.466 57.704C548.402 58.408 548.359 59.112 548.338 59.816C548.338 60.52 548.327 61.128 548.306 61.64V62.152C548.306 62.664 548.317 63.1653 548.338 63.656C548.359 64.1467 548.381 64.6053 548.402 65.032C548.402 65.2453 548.199 65.352 547.794 65.352C547.453 65.352 547.09 65.2667 546.706 65.096C546.322 64.9467 546.13 64.7333 546.13 64.456C546.13 64.2853 546.13 63.976 546.13 63.528C546.151 63.08 546.162 62.6427 546.162 62.216C546.183 61.768 546.194 61.4693 546.194 61.32V53.352C546.194 53.1387 546.183 52.808 546.162 52.36C546.141 51.912 546.119 51.4533 546.098 50.984C546.098 50.5147 546.098 50.1627 546.098 49.928C546.098 49.7147 546.301 49.608 546.706 49.608C547.047 49.608 547.41 49.6933 547.794 49.864C548.178 50.0133 548.37 50.2267 548.37 50.504C548.37 50.504 548.359 50.6533 548.338 50.952C548.338 51.2507 548.327 51.592 548.306 51.976C548.306 52.36 548.306 52.6907 548.306 52.968C548.989 51.8373 549.874 50.9733 550.962 50.376C552.071 49.7787 553.213 49.48 554.386 49.48C555.41 49.48 556.231 49.672 556.85 50.056C557.49 50.4187 557.97 50.8987 558.29 51.496C558.631 52.0933 558.855 52.744 558.962 53.448C559.069 54.152 559.122 54.8347 559.122 55.496V61.64C559.122 61.768 559.133 62.056 559.154 62.504C559.175 62.952 559.186 63.4213 559.186 63.912C559.207 64.4027 559.218 64.776 559.218 65.032C559.218 65.2453 559.015 65.352 558.61 65.352C558.269 65.352 557.906 65.2667 557.522 65.096C557.138 64.9467 556.946 64.744 556.946 64.488V64.456ZM565.679 51.432H565.519C565.049 51.432 564.687 51.4533 564.431 51.496C564.175 51.5173 563.887 51.5387 563.567 51.56H563.535C563.257 51.56 563.022 51.4 562.831 51.08C562.639 50.76 562.543 50.4613 562.543 50.184C562.543 49.8853 562.66 49.736 562.895 49.736H565.679V48.104C565.679 47.8907 565.668 47.56 565.647 47.112C565.647 46.664 565.636 46.2053 565.615 45.736C565.615 45.2667 565.615 44.9147 565.615 44.68C565.615 44.5733 565.679 44.4987 565.807 44.456C565.935 44.392 566.084 44.36 566.255 44.36C566.596 44.36 566.959 44.4453 567.343 44.616C567.727 44.7653 567.919 44.9787 567.919 45.256C567.919 45.4267 567.908 45.6933 567.887 46.056C567.887 46.3973 567.876 46.76 567.855 47.144C567.855 47.528 567.855 47.848 567.855 48.104V49.64L568.751 49.608C569.135 49.5867 569.583 49.5547 570.095 49.512C570.607 49.4693 570.969 49.4373 571.183 49.416H571.215C571.492 49.416 571.727 49.576 571.919 49.896C572.132 50.216 572.239 50.5147 572.239 50.792C572.239 51.112 572.111 51.272 571.855 51.272C571.641 51.272 571.236 51.272 570.639 51.272C570.041 51.272 569.529 51.2827 569.103 51.304L567.855 51.336V61.544C567.855 62.3973 567.929 62.9413 568.079 63.176C568.228 63.4107 568.537 63.528 569.007 63.528C569.369 63.528 569.817 63.4107 570.351 63.176C570.905 62.9413 571.449 62.6213 571.983 62.216C572.345 61.9387 572.633 61.8 572.847 61.8C573.06 61.8 573.167 61.9173 573.167 62.152C573.167 62.344 573.028 62.632 572.751 63.016C572.495 63.3787 572.143 63.7627 571.695 64.168C571.268 64.552 570.788 64.8827 570.255 65.16C569.743 65.4373 569.231 65.576 568.719 65.576C567.609 65.576 566.82 65.2347 566.351 64.552C565.903 63.8693 565.679 62.8453 565.679 61.48V51.432ZM587.725 53.224C587.725 52.5627 587.715 51.9333 587.693 51.336C587.672 50.7387 587.651 50.2587 587.629 49.896C587.629 49.6827 587.832 49.576 588.237 49.576C588.6 49.576 588.984 49.6613 589.389 49.832C589.795 49.9813 589.997 50.1947 589.997 50.472C589.997 50.6 589.987 50.8347 589.965 51.176C589.944 51.5173 589.923 51.88 589.901 52.264C589.901 52.6267 589.891 52.936 589.869 53.192C590.723 51.7413 591.64 50.76 592.621 50.248C593.624 49.7147 594.712 49.448 595.885 49.448C597.485 49.448 598.797 50.0133 599.821 51.144C600.845 52.2747 601.357 53.928 601.357 56.104C601.357 57.896 601.016 59.5067 600.333 60.936C599.672 62.3653 598.765 63.496 597.613 64.328C596.461 65.1387 595.16 65.544 593.709 65.544C592.963 65.544 592.216 65.3627 591.469 65C590.723 64.6373 590.179 64.232 589.837 63.784V66.792C589.837 67.4533 589.859 68.0933 589.901 68.712C589.965 69.3307 589.997 69.8213 589.997 70.184C589.997 70.3973 589.784 70.504 589.357 70.504C589.016 70.504 588.643 70.4187 588.237 70.248C587.853 70.0987 587.661 69.8853 587.661 69.608C587.661 69.352 587.672 68.9467 587.693 68.392C587.715 67.8587 587.725 67.3147 587.725 66.76V53.224ZM589.805 61.768C589.891 61.7253 589.965 61.704 590.029 61.704C590.264 61.704 590.488 61.8747 590.701 62.216C591.128 62.8133 591.587 63.208 592.077 63.4C592.568 63.592 593.08 63.688 593.613 63.688C594.189 63.688 594.797 63.528 595.437 63.208C596.077 62.8667 596.685 62.376 597.261 61.736C597.837 61.096 598.296 60.3067 598.637 59.368C599 58.4293 599.181 57.3627 599.181 56.168C599.181 55.0587 599.021 54.152 598.701 53.448C598.381 52.744 597.965 52.2213 597.453 51.88C596.963 51.5387 596.44 51.368 595.885 51.368C594.989 51.368 594.136 51.6027 593.325 52.072C592.536 52.5413 591.853 53.192 591.277 54.024C590.701 54.856 590.296 55.816 590.061 56.904C589.997 57.2453 589.944 57.7147 589.901 58.312C589.859 58.9093 589.827 59.5173 589.805 60.136C589.805 60.7547 589.805 61.2987 589.805 61.768ZM606.198 46.12C606.198 45.9067 606.187 45.576 606.166 45.128C606.144 44.68 606.123 44.2213 606.102 43.752C606.102 43.2827 606.102 42.9307 606.102 42.696C606.102 42.5893 606.166 42.5147 606.294 42.472C606.422 42.408 606.571 42.376 606.742 42.376C607.104 42.376 607.478 42.4613 607.862 42.632C608.267 42.7813 608.47 42.9947 608.47 43.272C608.47 43.4427 608.459 43.7093 608.438 44.072C608.438 44.4133 608.427 44.776 608.406 45.16C608.406 45.544 608.406 45.864 608.406 46.12V61.64C608.406 61.768 608.416 62.056 608.438 62.504C608.459 62.952 608.47 63.4213 608.47 63.912C608.491 64.4027 608.502 64.776 608.502 65.032C608.502 65.1387 608.438 65.2133 608.31 65.256C608.182 65.32 608.032 65.352 607.862 65.352C607.52 65.352 607.147 65.2667 606.742 65.096C606.336 64.9467 606.134 64.7333 606.134 64.456C606.134 64.2853 606.134 64.008 606.134 63.624C606.155 63.2187 606.166 62.824 606.166 62.44C606.187 62.056 606.198 61.7893 606.198 61.64V46.12ZM627.148 50.376C627.084 50.8453 627.02 51.4747 626.956 52.264C626.913 53.032 626.871 53.8533 626.828 54.728C626.807 55.5813 626.785 56.3813 626.764 57.128C626.743 57.8747 626.732 58.44 626.732 58.824C626.732 59.1227 626.743 59.5707 626.764 60.168C626.807 60.744 626.903 61.3627 627.052 62.024C627.223 62.6853 627.489 63.304 627.852 63.88C627.895 63.9653 627.916 64.0293 627.916 64.072C627.916 64.3067 627.767 64.5947 627.468 64.936C627.191 65.256 626.871 65.416 626.508 65.416C626.188 65.416 625.9 65.192 625.644 64.744C625.409 64.2747 625.217 63.72 625.068 63.08C624.94 62.4187 624.844 61.8 624.78 61.224C623.991 62.7173 623.031 63.816 621.9 64.52C620.791 65.224 619.639 65.576 618.444 65.576C616.887 65.576 615.639 65.0533 614.7 64.008C613.761 62.9413 613.292 61.4053 613.292 59.4C613.292 58.0347 613.516 56.7547 613.964 55.56C614.412 54.3653 615.009 53.3093 615.756 52.392C616.524 51.4747 617.377 50.76 618.316 50.248C619.255 49.7147 620.215 49.448 621.196 49.448C621.943 49.448 622.625 49.6187 623.244 49.96C623.863 50.28 624.353 50.8133 624.716 51.56V49.8C624.716 49.5867 624.94 49.48 625.388 49.48C625.751 49.48 626.135 49.5547 626.54 49.704C626.945 49.8533 627.148 50.056 627.148 50.312V50.376ZM624.684 52.84C624.492 53.032 624.311 53.128 624.14 53.128C624.055 53.128 623.98 53.0853 623.916 53C623.553 52.3813 623.127 51.944 622.636 51.688C622.167 51.432 621.687 51.304 621.196 51.304C620.535 51.304 619.863 51.5067 619.18 51.912C618.519 52.296 617.9 52.8507 617.324 53.576C616.769 54.28 616.321 55.1227 615.98 56.104C615.639 57.064 615.468 58.1093 615.468 59.24C615.468 60.8613 615.745 62.0027 616.3 62.664C616.855 63.3253 617.559 63.656 618.412 63.656C619.436 63.656 620.407 63.3253 621.324 62.664C622.241 61.9813 622.999 61.0427 623.596 59.848C624.215 58.6533 624.556 57.2667 624.62 55.688C624.641 55.3893 624.652 54.9733 624.652 54.44C624.652 53.9067 624.663 53.3733 624.684 52.84ZM633.298 70.248C632.893 70.248 632.434 70.2053 631.922 70.12C631.41 70.0347 630.909 69.7893 630.418 69.384C630.312 69.2773 630.258 69.1387 630.258 68.968C630.258 68.6693 630.365 68.328 630.578 67.944C630.792 67.5813 631.037 67.4 631.314 67.4C631.464 67.4 631.602 67.4747 631.73 67.624C632.008 67.9013 632.306 68.072 632.626 68.136C632.946 68.2 633.245 68.232 633.522 68.232C633.864 68.232 634.194 68.104 634.514 67.848C634.856 67.592 635.176 67.1333 635.474 66.472L636.882 63.528L632.21 52.936C632.061 52.616 631.848 52.1893 631.57 51.656C631.314 51.1227 631.09 50.6853 630.898 50.344C630.856 50.2587 630.834 50.1947 630.834 50.152C630.834 49.9813 630.962 49.8533 631.218 49.768C631.496 49.6827 631.794 49.64 632.114 49.64C632.413 49.64 632.68 49.672 632.914 49.736C633.17 49.8 633.32 49.9067 633.362 50.056C633.512 50.44 633.661 50.8347 633.81 51.24C633.981 51.624 634.152 52.0187 634.322 52.424L638.034 61.032L641.97 52.744C642.184 52.3173 642.386 51.8373 642.578 51.304C642.792 50.7707 642.973 50.2587 643.122 49.768C643.186 49.576 643.368 49.48 643.666 49.48C643.986 49.48 644.328 49.5973 644.69 49.832C645.053 50.0667 645.234 50.3547 645.234 50.696C645.234 50.824 645.202 50.952 645.138 51.08C644.968 51.4 644.765 51.784 644.53 52.232C644.296 52.6587 644.082 53.064 643.89 53.448L637.138 67.624C636.712 68.52 636.221 69.1813 635.666 69.608C635.133 70.0347 634.45 70.248 633.618 70.248H633.298ZM649.97 58.728V59.048C649.97 60.4347 650.322 61.5547 651.026 62.408C651.752 63.2613 652.648 63.688 653.714 63.688C655.08 63.688 656.328 63.4747 657.458 63.048C658.61 62.6 659.613 61.9173 660.466 61C660.616 60.8293 660.754 60.712 660.882 60.648C661.01 60.5627 661.117 60.52 661.202 60.52C661.416 60.52 661.522 60.648 661.522 60.904C661.522 61.096 661.362 61.4373 661.042 61.928C660.744 62.4187 660.274 62.952 659.634 63.528C658.994 64.0827 658.184 64.5627 657.202 64.968C656.221 65.3733 655.058 65.576 653.714 65.576C652.626 65.576 651.634 65.3093 650.738 64.776C649.864 64.2213 649.17 63.432 648.658 62.408C648.146 61.384 647.89 60.168 647.89 58.76V58.312C647.698 58.1627 647.538 57.992 647.41 57.8C647.282 57.608 647.218 57.4373 647.218 57.288C647.218 57.0107 647.421 56.872 647.826 56.872C647.848 56.872 647.89 56.872 647.954 56.872C648.04 56.8507 648.093 56.84 648.114 56.84C648.264 56.072 648.562 55.2613 649.01 54.408C649.48 53.5547 650.066 52.7547 650.77 52.008C651.474 51.24 652.274 50.6213 653.17 50.152C654.088 49.6827 655.069 49.448 656.114 49.448C657.437 49.448 658.482 49.6827 659.25 50.152C660.04 50.6 660.594 51.1867 660.914 51.912C661.256 52.616 661.426 53.352 661.426 54.12C661.426 54.8453 661.362 55.4213 661.234 55.848C661.128 56.2747 660.861 56.6267 660.434 56.904C660.008 57.16 659.314 57.4373 658.354 57.736C657.394 58.0347 656.242 58.28 654.898 58.472C653.576 58.6427 652.072 58.728 650.386 58.728H649.97ZM650.866 56.936C652.445 56.936 653.768 56.8507 654.834 56.68C655.901 56.488 656.786 56.296 657.49 56.104C658.258 55.8693 658.749 55.6133 658.962 55.336C659.197 55.0587 659.314 54.6427 659.314 54.088C659.314 52.232 658.237 51.304 656.082 51.304C655.293 51.304 654.568 51.4853 653.906 51.848C653.245 52.2107 652.658 52.68 652.146 53.256C651.656 53.832 651.24 54.4507 650.898 55.112C650.578 55.752 650.354 56.36 650.226 56.936H650.866ZM666.289 53.256C666.289 53.0427 666.279 52.712 666.257 52.264C666.236 51.816 666.215 51.3573 666.193 50.888C666.193 50.4187 666.193 50.0667 666.193 49.832C666.193 49.6187 666.407 49.512 666.833 49.512C667.175 49.512 667.537 49.5973 667.921 49.768C668.327 49.9173 668.529 50.1307 668.529 50.408C668.529 50.6213 668.508 50.856 668.465 51.112C668.444 51.368 668.433 51.6773 668.433 52.04C668.86 51.336 669.468 50.728 670.257 50.216C671.047 49.704 671.996 49.448 673.105 49.448C673.745 49.448 674.343 49.5547 674.897 49.768C675.452 49.9813 675.9 50.2373 676.241 50.536C676.604 50.8347 676.785 51.112 676.785 51.368C676.785 51.7093 676.657 52.072 676.401 52.456C676.167 52.84 675.911 53.032 675.633 53.032C675.463 53.032 675.313 52.9253 675.185 52.712C674.972 52.3067 674.631 52.008 674.161 51.816C673.713 51.624 673.329 51.528 673.009 51.528C672.113 51.528 671.281 51.8053 670.513 52.36C669.767 52.9147 669.212 53.768 668.849 54.92C668.7 55.3893 668.593 55.912 668.529 56.488C668.465 57.064 668.423 57.7573 668.401 58.568C668.401 59.3787 668.401 60.392 668.401 61.608C668.401 62.2693 668.423 62.9093 668.465 63.528C668.529 64.1467 668.561 64.6373 668.561 65C668.561 65.2133 668.348 65.32 667.921 65.32C667.58 65.32 667.207 65.2347 666.801 65.064C666.417 64.9147 666.225 64.7013 666.225 64.424C666.225 64.2533 666.225 63.976 666.225 63.592C666.247 63.1867 666.257 62.792 666.257 62.408C666.279 62.024 666.289 61.7573 666.289 61.608V53.256ZM684.391 51.88C684.391 52.3067 684.253 52.6587 683.975 52.936C683.719 53.2133 683.303 53.352 682.727 53.352C682.279 53.352 681.885 53.1387 681.543 52.712C681.202 52.264 681.031 51.8373 681.031 51.432C681.031 50.92 681.191 50.536 681.511 50.28C681.831 50.024 682.237 49.896 682.727 49.896C683.133 49.896 683.506 50.12 683.847 50.568C684.21 50.9947 684.391 51.432 684.391 51.88ZM684.391 63.752C684.391 64.1787 684.253 64.5307 683.975 64.808C683.719 65.0853 683.303 65.224 682.727 65.224C682.279 65.224 681.885 65.0107 681.543 64.584C681.202 64.136 681.031 63.7093 681.031 63.304C681.031 62.792 681.191 62.408 681.511 62.152C681.831 61.896 682.237 61.768 682.727 61.768C683.133 61.768 683.506 61.992 683.847 62.44C684.21 62.8667 684.391 63.304 684.391 63.752Z" fill="#A45212"/>
<rect x="707" y="31" width="41" height="40" rx="8" fill="#097FC5"/>
<path d="M718.125 67C717.266 67 716.53 66.6867 715.918 66.06C715.306 65.4333 715 64.68 715 63.8V60.64C715 60.1067 715.117 59.6133 715.352 59.16C715.586 58.7067 715.898 58.32 716.289 58C718.086 56.5067 719.434 55 720.332 53.48C721.23 51.96 721.862 50.6 722.227 49.4H719.688C719.245 49.4 718.874 49.2467 718.574 48.94C718.275 48.6333 718.125 48.2533 718.125 47.8C718.125 47.3467 718.275 46.9667 718.574 46.66C718.874 46.3533 719.245 46.2 719.688 46.2H721.641C721.276 45.6133 720.99 44.9867 720.781 44.32C720.573 43.6533 720.469 42.9467 720.469 42.2C720.469 40.2 721.152 38.5 722.52 37.1C723.887 35.7 725.547 35 727.5 35C729.453 35 731.113 35.7 732.48 37.1C733.848 38.5 734.531 40.2 734.531 42.2C734.531 42.9467 734.427 43.6533 734.219 44.32C734.01 44.9867 733.724 45.6133 733.359 46.2H735.312C735.755 46.2 736.126 46.3533 736.426 46.66C736.725 46.9667 736.875 47.3467 736.875 47.8C736.875 48.2533 736.725 48.6333 736.426 48.94C736.126 49.2467 735.755 49.4 735.312 49.4H732.773C733.138 50.6 733.77 51.96 734.668 53.48C735.566 55 736.914 56.5067 738.711 58C739.102 58.32 739.414 58.7067 739.648 59.16C739.883 59.6133 740 60.1067 740 60.64V63.8C740 64.68 739.694 65.4333 739.082 66.06C738.47 66.6867 737.734 67 736.875 67H718.125ZM718.125 63.8H736.875V60.6C734.479 58.68 732.747 56.7 731.68 54.66C730.612 52.62 729.896 50.8667 729.531 49.4H725.469C725.104 50.8667 724.388 52.62 723.32 54.66C722.253 56.7 720.521 58.68 718.125 60.6V63.8ZM727.5 46.2C728.594 46.2 729.518 45.8133 730.273 45.04C731.029 44.2667 731.406 43.32 731.406 42.2C731.406 41.08 731.029 40.1333 730.273 39.36C729.518 38.5867 728.594 38.2 727.5 38.2C726.406 38.2 725.482 38.5867 724.727 39.36C723.971 40.1333 723.594 41.08 723.594 42.2C723.594 43.32 723.971 44.2667 724.727 45.04C725.482 45.8133 726.406 46.2 727.5 46.2Z" fill="white"/>
<path d="M1022 38C1022 32.4772 1026.48 28 1032 28H1185C1190.52 28 1195 32.4772 1195 38V64C1195 69.5228 1190.52 74 1185 74H1032C1026.48 74 1022 69.5228 1022 64V38Z" fill="#FFF9F2"/>
<path d="M1192.51 29.2923C1194.69 31.209 1196.2 33.8093 1196.42 37.2604C1196.42 37.2622 1196.42 37.2641 1196.42 37.2659C1196.43 37.5081 1196.44 37.75 1196.44 38C1196.43 38.2262 1196.43 38.4561 1196.43 38.6898C1196.39 42.3811 1196.34 47.1774 1196.32 54.4095C1196.31 57.9543 1196.28 61.1751 1196.24 64C1196.19 68.0424 1194.04 70.9482 1192.22 72.4131C1191.58 72.8929 1190.96 73.4928 1189.03 74.2871C1188.06 74.6579 1186.76 75.0301 1185 75.0309C1184.51 75.0292 1183.98 75.0274 1183.41 75.0255C1182.13 75.0212 1180.63 75.0163 1178.88 75.0101C1173.09 74.9898 1164.02 74.9961 1155.66 75.0021C1150.58 75.0057 1145.77 75.0092 1142.11 75.0063C1136.76 75.0021 1131.61 74.9833 1126 74.9627C1120.86 74.9439 1115.35 74.9236 1108.97 74.912C1104.07 74.9031 1099.32 74.827 1094.48 74.7419C1093.87 74.7311 1093.25 74.7201 1092.63 74.7091C1088.37 74.6332 1084.01 74.5555 1079.29 74.511C1070.89 74.4317 1064.18 74.4644 1056.76 74.5007C1053.86 74.5149 1050.84 74.5297 1047.57 74.5385C1043.44 74.5495 1037.88 74.55 1032 74.5477C1030.44 74.5496 1028.85 74.1943 1027.42 73.5008C1026.81 73.2089 1026.24 72.8585 1025.7 72.458C1025.7 72.456 1025.7 72.454 1025.69 72.452C1022.98 70.4525 1021.42 67.122 1021.46 64C1021.46 60.6069 1021.46 57.4704 1021.45 54.8433C1021.44 47.0267 1021.41 44.0857 1021.39 41.6328C1021.38 40.7107 1021.37 39.8571 1021.36 38.8395C1021.36 38.5695 1021.36 38.2895 1021.36 38C1021.09 34.1623 1024.45 28.3738 1030.15 27.505C1030.18 27.5011 1030.2 27.4972 1030.22 27.4934C1031.2 27.3269 1032.01 27.434 1032 27.5346C1031.99 27.6409 1031.21 27.7045 1030.27 27.8665C1027.23 28.3582 1024.64 30.3057 1023.26 32.5814C1023.26 32.7469 1022.94 33.3841 1022.62 34.1691C1022.34 34.8672 1021.89 36.1471 1021.9 38C1021.93 41.2775 1021.98 46.2369 1022.05 52.6937C1022.07 52.0051 1022.08 51.4284 1022.1 50.923C1022.11 50.3298 1022.13 49.8753 1022.14 49.4846C1022.17 48.6702 1022.19 48.1283 1022.2 47.1664C1022.21 44.9885 1022.22 41.5935 1022.22 38C1022.22 37.919 1022.22 37.838 1022.22 37.7573C1022.24 36.8436 1022.49 36.1369 1022.59 36.1641C1022.69 36.1899 1022.62 36.9073 1022.6 37.7815C1022.6 37.7987 1022.6 37.8158 1022.6 37.833C1022.6 37.8885 1022.6 37.9442 1022.6 38C1022.59 41.589 1022.59 45.124 1022.57 47.4137C1022.57 48.0057 1022.57 48.5157 1022.56 48.8986C1022.56 49.2047 1022.55 49.5869 1022.55 49.7992C1022.55 49.8274 1022.54 49.8812 1022.54 49.9453C1022.54 49.9464 1022.54 49.9475 1022.54 49.9485C1022.54 49.9844 1022.53 50.1674 1022.52 50.3627C1022.51 50.4021 1022.51 50.4879 1022.5 50.5875C1022.5 50.6131 1022.5 50.6388 1022.49 50.6645C1022.48 51.0226 1022.47 51.388 1022.46 51.7835C1022.41 53.3276 1022.35 55.7733 1022.29 60.8666C1022.28 61.7889 1022.27 62.8366 1022.26 64C1021.99 67.768 1025.47 73.7715 1032 73.7871C1033.18 73.7879 1034.4 73.7884 1035.64 73.7884C1034.98 73.7807 1034.31 73.7731 1033.64 73.7659C1033.09 73.76 1032.55 73.7543 1032 73.7487C1030.89 73.7376 1029.78 73.5371 1028.74 73.1534C1028.15 72.9362 1027.58 72.6655 1027.04 72.3375C1026.18 71.8094 1025.39 71.1428 1024.73 70.3727C1024.28 69.8524 1023.89 69.2839 1023.56 68.6814C1023.56 68.6801 1023.56 68.6787 1023.56 68.6773C1023.1 67.8411 1022.77 66.9364 1022.58 65.9957C1022.51 65.6669 1022.47 65.3388 1022.44 65.0103C1022.4 64.6751 1022.39 64.3395 1022.39 64C1022.4 62.9871 1022.41 61.9553 1022.43 60.812C1022.43 60.6247 1022.44 60.4212 1022.44 60.2694C1022.45 60.1062 1022.45 59.9491 1022.45 59.8006C1022.46 59.6696 1022.46 59.5447 1022.47 59.425C1022.47 59.4089 1022.47 59.3928 1022.47 59.3768C1022.47 59.2428 1022.48 59.1147 1022.48 58.9915C1022.48 58.8686 1022.49 58.7502 1022.49 58.6335C1022.49 58.6324 1022.49 58.6314 1022.49 58.6303C1022.49 58.5084 1022.49 58.4159 1022.5 58.2868C1022.5 58.1246 1022.5 57.9852 1022.51 57.8164C1022.51 57.6531 1022.51 57.4827 1022.51 57.3107C1022.51 57.1387 1022.52 56.9635 1022.52 56.7857C1022.52 56.6079 1022.52 56.427 1022.52 56.2447C1022.52 56.0626 1022.52 55.8781 1022.53 55.6925C1022.53 55.5069 1022.53 55.3192 1022.53 55.1306C1022.53 54.6965 1022.55 54.2803 1022.59 53.9748C1022.62 53.6693 1022.67 53.4992 1022.72 53.5012C1022.77 53.5033 1022.81 53.6776 1022.85 53.986C1022.88 54.2946 1022.9 54.7124 1022.9 55.1467C1022.9 55.2649 1022.91 55.3838 1022.91 55.5031C1022.91 55.5739 1022.91 55.6454 1022.91 55.7166C1022.91 55.908 1022.91 56.1015 1022.91 56.2961C1022.91 56.4906 1022.91 56.6868 1022.91 56.8853C1022.91 57.0843 1022.91 57.286 1022.91 57.4905C1022.91 57.6946 1022.91 57.9031 1022.91 58.115C1022.91 58.3217 1022.9 58.5575 1022.9 58.7684C1022.9 58.9225 1022.9 59.1124 1022.9 59.2708C1022.89 59.4361 1022.89 59.5988 1022.89 59.7557C1022.88 59.9129 1022.88 60.0648 1022.88 60.21C1022.88 60.2255 1022.88 60.241 1022.88 60.2565C1022.87 60.3848 1022.87 60.5087 1022.87 60.6258C1022.87 60.7566 1022.86 60.8805 1022.86 60.9982C1022.86 61.1278 1022.86 61.2066 1022.86 61.3032C1022.86 62.1128 1022.85 63.0436 1022.85 64C1022.85 64.5072 1022.9 65.0204 1022.98 65.5172C1023.01 65.6882 1023.04 65.8561 1023.08 66.0226C1023.28 66.9036 1023.61 67.7525 1024.06 68.5344C1024.39 69.1025 1024.77 69.6362 1025.22 70.1233C1025.86 70.8402 1026.63 71.456 1027.47 71.9358C1027.99 72.2338 1028.53 72.4759 1029.1 72.666C1030.03 72.9773 1031.01 73.1357 1032 73.136C1032.64 73.1364 1033.28 73.137 1033.93 73.1378C1035.65 73.1401 1037.38 73.144 1039.11 73.1507C1040.83 73.1573 1042.62 73.1672 1044.35 73.1823C1045.63 73.1936 1046.93 73.2133 1048.14 73.2336C1048.78 73.2445 1049.42 73.2556 1050.04 73.2668C1050.05 73.2668 1050.05 73.2669 1050.05 73.2669C1050.6 73.2767 1051.14 73.2863 1051.68 73.2955C1052.83 73.3152 1053.97 73.3328 1055.1 73.3477C1056.23 73.3625 1057.36 73.3746 1058.49 73.3839C1059.62 73.3932 1060.77 73.3998 1061.9 73.4039C1063.04 73.408 1064.16 73.4097 1065.34 73.4096C1066.88 73.4092 1068.42 73.4059 1070 73.4019C1071.56 73.3978 1073.14 73.3927 1074.72 73.3876C1075.27 73.3858 1075.83 73.3841 1076.38 73.3823C1076.38 73.3823 1076.39 73.3823 1076.39 73.3823C1077.41 73.3789 1078.44 73.3755 1079.47 73.3722C1081.06 73.3672 1082.65 73.3624 1084.25 73.3585C1085.85 73.3546 1087.46 73.3516 1089.08 73.3504C1090.7 73.3494 1092.36 73.35 1094.03 73.3561C1095.52 73.3614 1097.02 73.3684 1098.48 73.3753C1098.87 73.3772 1099.26 73.379 1099.65 73.3808C1101.48 73.3894 1103.26 73.3962 1105.02 73.3975C1106.78 73.3989 1108.54 73.395 1110.31 73.3869C1112.08 73.3787 1113.87 73.3666 1115.68 73.3519C1117.49 73.3372 1119.28 73.3202 1121.11 73.3015C1122.92 73.283 1124.74 73.2631 1126.58 73.242C1127.6 73.2304 1128.69 73.2197 1129.72 73.2105C1130.76 73.2013 1131.8 73.1932 1132.81 73.1856C1133.23 73.1826 1133.64 73.1796 1134.05 73.1767C1134.65 73.1723 1135.24 73.1681 1135.82 73.1637C1136.8 73.1562 1137.76 73.1482 1138.69 73.1388C1139.62 73.1294 1140.52 73.1184 1141.39 73.1051C1142.3 73.0912 1143.04 73.0771 1143.93 73.0569C1146.1 73.018 1147.44 73.0061 1148.93 72.9926C1149.23 72.99 1149.53 72.9872 1149.84 72.9842C1151.63 72.9691 1153.42 72.9579 1155.18 72.9494C1156.96 72.9409 1158.72 72.9352 1160.49 72.9318C1162.25 72.9285 1164.02 72.9277 1165.79 72.9291C1167.55 72.9305 1169.31 72.934 1171.07 72.9399C1172.83 72.9457 1174.63 72.954 1176.36 72.9641C1177.35 72.9699 1178.41 72.9776 1179.4 72.9855C1180.11 72.9912 1180.81 72.9972 1181.49 73.0031C1181.77 73.0055 1182.05 73.0079 1182.33 73.0102C1183.25 73.018 1184.14 73.0252 1185 73.0308C1185.03 73.031 1185.06 73.0311 1185.09 73.031C1185.9 73.0289 1186.68 72.9191 1187.42 72.7167C1188.15 72.514 1188.85 72.2197 1189.5 71.8429C1190.17 71.4484 1190.69 71.0563 1191.28 70.4795C1191.66 70.1014 1192 69.6979 1192.3 69.2705C1192.75 68.6304 1193.11 67.938 1193.38 67.2063C1193.65 66.4748 1193.82 65.7212 1193.89 64.9527C1193.91 64.7068 1193.93 64.4439 1193.93 64.196C1193.93 64.1307 1193.93 64.0654 1193.93 64C1193.92 63.2156 1193.91 62.4387 1193.89 61.6625C1193.88 60.816 1193.87 59.9773 1193.86 59.1421C1193.84 58.3034 1193.83 57.4787 1193.81 56.6377C1193.79 55.2083 1193.78 53.8401 1193.77 52.642C1193.76 51.4295 1193.75 50.2965 1193.75 49.1937C1193.75 48.9871 1193.75 48.7806 1193.75 48.574C1193.74 47.6844 1193.74 46.8095 1193.74 45.9477C1193.73 44.8854 1193.73 43.8426 1193.72 42.7963C1193.71 41.7592 1193.71 40.7118 1193.7 39.6803C1193.69 39.1133 1193.69 38.5598 1193.68 38C1193.68 37.5908 1193.64 37.1825 1193.58 36.7633C1193.44 35.8552 1193.15 34.9559 1192.67 34.0575C1192.19 33.1682 1191.53 32.3222 1190.73 31.6205C1189.92 30.9182 1188.98 30.359 1187.97 29.9973C1187.02 29.6526 1186.01 29.4817 1185 29.4879C1184.93 29.4882 1184.87 29.4885 1184.8 29.4888C1183.55 29.4943 1182.31 29.4975 1181.07 29.499C1179.84 29.5005 1178.57 29.5003 1177.38 29.4985C1175.45 29.4956 1173.53 29.4915 1171.6 29.4869C1169.69 29.4824 1167.77 29.4773 1165.85 29.4719C1163.94 29.4665 1162.03 29.4609 1160.12 29.4551C1158.2 29.4492 1156.29 29.4432 1154.38 29.4371C1153.96 29.4358 1153.54 29.4344 1153.12 29.4331C1151.63 29.4284 1150.14 29.4236 1148.66 29.419C1148.65 29.4189 1148.64 29.4189 1148.63 29.4188C1146.73 29.4129 1144.86 29.4072 1142.97 29.4023C1142.27 29.4006 1141.61 29.3989 1140.93 29.3976C1140.25 29.3962 1139.59 29.3951 1138.92 29.3943C1138.24 29.3935 1137.58 29.393 1136.92 29.393C1136.25 29.393 1135.6 29.3934 1134.95 29.3946C1134.35 29.3957 1133.75 29.3976 1133.1 29.3996C1133.04 29.3998 1132.98 29.4 1132.93 29.4001C1132.21 29.4023 1131.4 29.4037 1130.65 29.4027C1128.66 29.3997 1126.71 29.3983 1124.73 29.3985C1122.76 29.3986 1120.78 29.4002 1118.79 29.4025C1118.01 29.4034 1117.23 29.4045 1116.45 29.4054C1115.23 29.407 1114.01 29.4085 1112.79 29.4097C1110.77 29.4116 1108.76 29.4125 1106.72 29.4113C1104.7 29.4101 1102.66 29.4067 1100.64 29.4009C1098.61 29.395 1096.57 29.3868 1094.55 29.3763C1092.3 29.3646 1090.07 29.3517 1087.83 29.3382C1085.59 29.3248 1083.34 29.3106 1081.11 29.2961C1078.87 29.2816 1076.64 29.2667 1074.4 29.2515C1072.17 29.2362 1069.93 29.2205 1067.7 29.2046C1066.36 29.195 1065.02 29.1853 1063.68 29.1755C1062.97 29.1843 1062.29 29.1929 1061.64 29.2011C1056.81 29.2616 1053.32 29.3053 1048.72 29.3353C1048.28 29.3399 1047.92 29.3464 1047.48 29.3542C1047.4 29.3557 1047.31 29.3572 1047.22 29.3588C1046.65 29.3688 1046 29.3794 1045.09 29.386C1043.27 29.3993 1040.48 29.3964 1036.88 29.3088C1035.97 29.2866 1035.39 29.1866 1035.59 29.0854C1035.73 29.0143 1036.21 28.9616 1036.8 28.944C1035.71 28.932 1034.62 28.9194 1033.54 28.9068C1033.11 28.9018 1032.7 28.8785 1032.41 28.8415C1032.13 28.8044 1031.98 28.7568 1032 28.7085C1032.03 28.6603 1032.22 28.615 1032.55 28.582C1032.87 28.5491 1033.3 28.5312 1033.73 28.532C1034.89 28.5342 1036.03 28.5363 1037.18 28.5379C1038.33 28.5394 1039.48 28.5403 1040.63 28.5408C1041.77 28.5413 1042.92 28.5412 1044.07 28.5408C1045.22 28.5404 1046.36 28.5397 1047.52 28.5386C1048.67 28.5376 1049.81 28.5361 1050.96 28.5346C1051.66 28.5336 1052.36 28.5327 1053.04 28.5316C1053.3 28.5313 1053.55 28.5308 1053.8 28.5304C1054 28.53 1054.21 28.5298 1054.42 28.5294C1056.64 28.5258 1058.89 28.5216 1061.12 28.5172C1063.35 28.5127 1065.59 28.508 1067.82 28.5031C1070.05 28.4981 1072.29 28.4929 1074.52 28.4875C1076.76 28.4822 1078.99 28.4766 1081.22 28.4709C1083.45 28.4651 1085.69 28.4591 1087.92 28.4527C1089.64 28.4478 1091.36 28.4425 1093.07 28.4368C1093.75 28.4271 1094.41 28.418 1095.07 28.4091C1096.99 28.3835 1098.91 28.3498 1100.81 28.3165C1097.44 28.3331 1094.73 28.359 1092.15 28.3837C1091.81 28.387 1091.47 28.3903 1091.12 28.3936C1087.63 28.4267 1084.26 28.4547 1079.72 28.4485C1066.82 28.4308 1059.33 28.4179 1054.67 28.3938C1050.01 28.3696 1048.01 28.3339 1046.14 28.2628C1043.49 28.1624 1038.4 28.1053 1035.83 28.1032C1034.9 28.1024 1034.15 28.0177 1034.16 27.914C1034.16 27.8103 1034.92 27.7268 1035.85 27.7276C1038.56 27.7298 1044.07 27.7879 1047.22 27.9074C1048.62 27.9607 1050.23 27.995 1054.82 28.0188C1059.41 28.0425 1066.82 28.0552 1079.75 28.073C1084.13 28.079 1087.37 28.0523 1090.83 28.0195C1091.17 28.0163 1091.51 28.0129 1091.85 28.0096C1091.85 28.0096 1091.86 28.0096 1091.86 28.0096C1095.03 27.9791 1098.49 27.9459 1103.15 27.9312C1113.89 27.8973 1128.33 27.8317 1131.76 27.7946C1132.44 27.7874 1133.09 27.7792 1133.77 27.7706C1136.41 27.7378 1139.59 27.6982 1146.76 27.6719C1148.32 27.6662 1150.16 27.6629 1152.16 27.6613C1155.17 27.6108 1158.09 27.5639 1160.63 27.5361C1162.82 27.512 1164.84 27.4679 1166.79 27.4194C1167.36 27.4055 1167.92 27.3909 1168.49 27.3764C1169.86 27.3414 1171.22 27.3064 1172.55 27.2794C1173.61 27.2578 1174.73 27.2319 1175.9 27.2045C1178.55 27.1426 1181.53 27.0731 1185 27.0289C1187.33 26.9921 1189.94 27.7545 1192.09 29.5653C1194.72 31.7618 1196.04 35.0136 1196.01 38C1196 41.5047 1195.99 44.7123 1195.98 47.6558C1196 43.815 1196.03 40.8499 1196.06 38.38C1196.06 38.2519 1196.06 38.1252 1196.06 38C1196.06 37.634 1196.05 37.2805 1196.02 36.9375C1195.68 33.5802 1194.23 31.3236 1192.28 29.5916C1189.94 27.5694 1187.24 26.8737 1185 26.8842C1178.73 26.8993 1175.43 26.9345 1171.82 27.004C1170.56 27.0282 1169.18 27.0604 1167.68 27.0951C1164.69 27.1645 1161.27 27.2439 1157.59 27.2892C1154.17 27.3315 1150.34 27.3939 1146.29 27.4599C1146.29 27.4599 1146.28 27.4599 1146.28 27.4599C1145.49 27.4728 1144.69 27.4858 1143.88 27.4989C1138.95 27.5786 1133.76 27.6586 1128.71 27.7091C1128.17 27.7145 1127.53 27.722 1126.78 27.7305C1122.5 27.7801 1114.97 27.8671 1105.78 27.8113C1103.76 27.799 1101.66 27.7731 1099.27 27.7434C1098.54 27.7343 1097.78 27.7248 1096.99 27.7153C1093.58 27.6745 1089.44 27.6312 1083.92 27.6051C1079.36 27.5836 1073.81 27.5733 1068.04 27.5624C1065.2 27.5571 1062.31 27.5516 1059.46 27.5447C1050.86 27.5238 1042.97 27.4908 1035.09 27.4577C1035.09 27.4577 1035.09 27.4577 1035.09 27.4577C1034.16 27.4538 1033.43 27.3665 1033.46 27.2629C1033.5 27.1593 1034.28 27.0784 1035.21 27.0823C1043.08 27.1154 1050.95 27.1485 1059.53 27.1693C1062.33 27.1761 1065.2 27.1816 1068.03 27.1869C1073.82 27.1978 1079.45 27.2082 1084.05 27.2299C1089.67 27.2564 1093.89 27.3006 1097.35 27.342C1098.18 27.3519 1098.96 27.3617 1099.71 27.3709C1102.07 27.4003 1104.04 27.4248 1105.96 27.4365C1114.85 27.4905 1122.09 27.4069 1126.4 27.3574C1127.16 27.3486 1127.83 27.3409 1128.4 27.3352C1133.35 27.2857 1138.46 27.2069 1143.39 27.1274C1144.19 27.1145 1144.98 27.1016 1145.77 27.0887C1145.77 27.0887 1145.77 27.0886 1145.78 27.0885C1149.83 27.0225 1153.73 26.9591 1157.21 26.9161C1160.75 26.8724 1163.84 26.8004 1166.73 26.7331C1168.27 26.697 1169.77 26.6624 1171.24 26.6341C1175.09 26.5601 1178.59 26.524 1185 26.5087C1187.32 26.4974 1190.11 27.2277 1192.51 29.2923ZM1038.48 28.9621C1040.72 29.0092 1042.55 29.0191 1043.9 29.016C1042.75 29.0053 1041.6 28.9941 1040.45 28.9825C1039.79 28.9759 1039.14 28.9691 1038.48 28.9621ZM1152.44 28.0365C1152.07 28.0426 1151.71 28.0488 1151.34 28.055C1152.35 28.0521 1153.37 28.0493 1154.38 28.0466C1155.62 28.0432 1156.86 28.04 1158.1 28.0369C1156.13 28.0356 1154.22 28.0353 1152.44 28.0365ZM1191.86 29.8638C1189.76 28.0891 1187.23 27.3707 1185 27.4068C1181.93 27.4482 1179.26 27.5104 1176.75 27.5688C1175.53 27.5973 1174.34 27.6248 1173.17 27.6487C1172.68 27.6586 1172.19 27.6695 1171.7 27.6811C1174.56 27.687 1177.18 27.6932 1179.33 27.6983C1181.51 27.7035 1183.37 27.7107 1185 27.7189C1188.28 27.7726 1190.49 29.1135 1192.03 30.578C1192.72 31.2368 1193.28 31.9595 1193.76 32.7583C1194.16 33.4097 1194.51 34.1354 1194.76 34.9034C1195.08 35.8623 1195.27 36.9449 1195.28 38C1195.28 38.1224 1195.28 38.2443 1195.28 38.3656C1195.3 39.5069 1195.31 40.6667 1195.32 41.8058C1195.33 42.9544 1195.33 44.0924 1195.34 45.2252C1195.35 46.2912 1195.35 47.3535 1195.36 48.3814C1195.36 48.4402 1195.36 48.4991 1195.36 48.558C1195.37 49.6444 1195.37 50.7013 1195.38 51.6724C1195.39 52.6609 1195.4 53.4827 1195.41 54.212C1195.43 55.1228 1195.44 56.0573 1195.46 56.9813C1195.47 57.9063 1195.49 58.8274 1195.5 59.7457C1195.52 60.666 1195.53 61.5772 1195.54 62.4909C1195.54 62.7863 1195.55 63.0953 1195.55 63.3883C1195.55 63.5233 1195.56 63.6582 1195.56 63.7928C1195.56 62.0055 1195.56 60.1498 1195.56 58.2319C1195.57 55.4611 1195.58 52.5031 1195.59 49.2402C1195.61 45.8635 1195.62 42.1602 1195.63 38C1195.66 35.1428 1194.41 32.0071 1191.86 29.8638ZM1173.82 74.5903C1174.6 74.5893 1175.74 74.5864 1177.21 74.5826C1177.55 74.5817 1177.92 74.5806 1178.3 74.5797C1178.29 74.5796 1178.28 74.5796 1178.28 74.5795C1177.32 74.5699 1176.45 74.5616 1175.5 74.5538C1173.81 74.5401 1172.17 74.5284 1170.51 74.5183C1168.85 74.5082 1167.19 74.5 1165.53 74.4934C1163.87 74.4868 1162.2 74.4821 1160.55 74.4793C1158.88 74.4765 1157.23 74.4754 1155.57 74.4767C1155.04 74.4772 1154.51 74.4778 1153.98 74.4788C1155.16 74.4882 1156.39 74.496 1157.69 74.5042C1158.73 74.5108 1159.81 74.5176 1160.95 74.5258C1161.39 74.529 1161.91 74.5338 1162.53 74.5394C1164.97 74.5616 1168.79 74.5966 1173.82 74.5903ZM1140.72 74.5822C1140.34 74.5847 1139.96 74.587 1139.58 74.5888C1138.5 74.5941 1137.45 74.5971 1136.42 74.5994C1135.69 74.6011 1134.98 74.6022 1134.27 74.6035C1133.97 74.604 1133.68 74.6046 1133.38 74.6051C1132.89 74.606 1132.4 74.6071 1131.91 74.6082C1135.32 74.6195 1138.65 74.6282 1142.13 74.6309C1142.17 74.631 1142.22 74.6309 1142.27 74.6309C1141.74 74.6143 1141.23 74.5981 1140.72 74.5822Z" fill="#F3832D"/>
<mask id="mask0_2230_3919" style="mask-type:alpha" maskUnits="userSpaceOnUse" x="1042" y="40" width="22" height="22">
<rect x="1042" y="40" width="22" height="22" fill="#D9D9D9"/>
</mask>
<g mask="url(#mask0_2230_3919)">
<path d="M1060.47 51.9167H1050.25C1049.99 51.9167 1049.77 51.8288 1049.6 51.6531C1049.42 51.4774 1049.33 51.2597 1049.33 51C1049.33 50.7403 1049.42 50.5226 1049.6 50.3469C1049.77 50.1712 1049.99 50.0833 1050.25 50.0833H1060.47L1059.69 49.3042C1059.51 49.1208 1059.42 48.9069 1059.43 48.6625C1059.44 48.4181 1059.52 48.2042 1059.69 48.0208C1059.88 47.8375 1060.09 47.742 1060.34 47.7344C1060.6 47.7267 1060.81 47.8146 1061 47.9979L1063.36 50.3583C1063.54 50.5417 1063.63 50.7556 1063.63 51C1063.63 51.2444 1063.54 51.4583 1063.36 51.6417L1061 54.0021C1060.81 54.1854 1060.6 54.2733 1060.34 54.2656C1060.09 54.258 1059.88 54.1625 1059.69 53.9792C1059.52 53.7958 1059.44 53.5819 1059.43 53.3375C1059.42 53.0931 1059.51 52.8792 1059.69 52.6958L1060.47 51.9167ZM1055.75 47.3333V44.5833H1046.58V57.4167H1055.75V54.6667C1055.75 54.4069 1055.84 54.1892 1056.01 54.0135C1056.19 53.8378 1056.41 53.75 1056.67 53.75C1056.93 53.75 1057.14 53.8378 1057.32 54.0135C1057.5 54.1892 1057.58 54.4069 1057.58 54.6667V57.4167C1057.58 57.9208 1057.4 58.3524 1057.04 58.7115C1056.69 59.0705 1056.25 59.25 1055.75 59.25H1046.58C1046.08 59.25 1045.65 59.0705 1045.29 58.7115C1044.93 58.3524 1044.75 57.9208 1044.75 57.4167V44.5833C1044.75 44.0792 1044.93 43.6476 1045.29 43.2885C1045.65 42.9295 1046.08 42.75 1046.58 42.75H1055.75C1056.25 42.75 1056.69 42.9295 1057.04 43.2885C1057.4 43.6476 1057.58 44.0792 1057.58 44.5833V47.3333C1057.58 47.5931 1057.5 47.8108 1057.32 47.9865C1057.14 48.1622 1056.93 48.25 1056.67 48.25C1056.41 48.25 1056.19 48.1622 1056.01 47.9865C1055.84 47.8108 1055.75 47.5931 1055.75 47.3333Z" fill="#F3832D"/>
<path d="M1060.47 52.3548C1060.21 52.4081 1059.95 52.4308 1059.68 52.4076C1059.62 52.4024 1059.62 52.3612 1059.6 52.3546C1059.55 52.3423 1059.47 52.3867 1059.46 52.3867C1059.4 52.3873 1059.42 52.3152 1059.41 52.3125C1059.31 52.2832 1059.34 52.3653 1059.24 52.3731C1059.12 52.3834 1058.96 52.3687 1058.8 52.3647C1058.75 52.3631 1058.77 52.3083 1058.66 52.3129C1058.58 52.3161 1058.33 52.3786 1058.21 52.3119C1058.21 52.2867 1058.23 52.2588 1058.23 52.2328C1058.07 52.3379 1058.01 52.3333 1057.77 52.3076C1057.74 52.3036 1057.7 52.3468 1057.64 52.3308C1057.57 52.3149 1057.57 52.2484 1057.44 52.2492C1057.39 52.2496 1057.36 52.2965 1057.29 52.2986C1057.09 52.3044 1056.7 52.2461 1056.53 52.2441C1056.21 52.2401 1056.03 52.3201 1055.74 52.2923C1055.71 52.2903 1055.76 52.2389 1055.72 52.2379C1055.68 52.2369 1055.64 52.305 1055.63 52.3066C1055.52 52.3241 1055.28 52.2329 1055.22 52.2439C1055.07 52.2709 1055.22 52.301 1055.01 52.3139C1054.82 52.3262 1054.55 52.2375 1054.35 52.2201C1054.13 52.2 1054.05 52.3288 1053.88 52.1943C1053.29 52.2022 1052.69 52.207 1052.09 52.2138C1052.09 52.187 1052.09 52.1602 1052.1 52.1334C1052.05 52.1519 1052 52.1705 1051.95 52.1889C1051.96 52.1689 1051.97 52.1489 1051.97 52.1292C1051.75 52.2062 1051.55 52.2459 1051.3 52.2248C1051.29 52.2244 1051.3 52.1709 1051.3 52.1695C1051.24 52.1594 1051.18 52.2006 1051.12 52.1909C1051 52.1677 1050.79 52.0511 1050.88 52.1937C1050.68 52.1734 1050.46 52.19 1050.25 52.1932C1050.13 52.1949 1050.01 52.178 1049.91 52.1391C1049.76 52.0817 1049.76 51.9793 1049.7 51.9435C1049.65 51.9045 1049.64 51.9836 1049.61 51.9723C1049.55 51.9403 1049.48 51.8848 1049.43 51.8243C1049.36 51.7522 1049.33 51.6726 1049.36 51.6362C1049.32 51.6315 1049.27 51.6225 1049.23 51.6112C1049.29 51.5883 1049.1 51.1681 1049.12 51.043C1049.12 51.0214 1049.16 51.018 1049.16 51.0024C1049.16 51.0016 1049.16 51.0008 1049.16 51C1049.16 50.8284 1049.11 50.773 1049.14 50.6056C1049.15 50.5477 1049.18 50.6551 1049.21 50.5078C1049.21 50.4962 1049.14 50.4708 1049.25 50.3123C1049.28 50.2589 1049.33 50.1979 1049.39 50.1382C1049.58 49.9159 1049.99 49.7572 1050.25 49.795C1050.26 49.7957 1050.26 49.7964 1050.27 49.7972C1050.29 49.7996 1050.23 49.8678 1050.33 49.8519C1050.36 49.8463 1050.34 49.7979 1050.43 49.7975C1050.77 49.7954 1051.13 49.8511 1051.48 49.8049C1051.46 49.8596 1051.34 49.9209 1051.53 49.8866C1051.56 49.8809 1051.53 49.8321 1051.55 49.8303C1051.65 49.8162 1051.75 49.8511 1051.86 49.8323C1051.9 49.8267 1051.91 49.7883 1051.95 49.7793C1052.01 49.7658 1052.04 49.8204 1052.11 49.7972C1052.23 49.7607 1052.25 49.7089 1052.39 49.8105C1053.2 49.8041 1054 49.7755 1054.8 49.8202C1055.04 49.7912 1055.25 49.7587 1055.49 49.7477C1055.56 49.7444 1055.58 49.8138 1055.69 49.7908C1055.72 49.7858 1055.9 49.7113 1055.93 49.8515C1055.98 49.8394 1056.01 49.839 1056.05 49.8315C1056.02 49.8109 1055.99 49.7902 1055.95 49.7694C1056.14 49.7918 1056.29 49.7424 1056.45 49.719C1056.57 49.7018 1056.48 49.7619 1056.56 49.7559C1056.63 49.75 1056.66 49.7365 1056.76 49.8085C1056.83 49.7255 1056.88 49.7837 1057.01 49.7859C1057.02 49.7861 1057.11 49.7539 1057.17 49.7603C1057.22 49.765 1057.24 49.8168 1057.32 49.8088C1057.33 49.8075 1057.5 49.7434 1057.55 49.7375C1057.63 49.7282 1057.76 49.7946 1057.78 49.7954C1058.01 49.8071 1058.1 49.7416 1058.27 49.8495C1058.3 49.7854 1058.44 49.7478 1058.55 49.7541C1058.69 49.7619 1058.97 49.893 1059.01 49.7545C1059.17 49.8162 1059.15 49.7781 1059.35 49.7769C1059.52 49.7757 1059.99 49.8287 1060.13 49.821C1060.27 49.8136 1060.2 49.7365 1060.26 49.7262C1060.35 49.7091 1060.3 49.766 1060.36 49.7652C1060.4 49.7647 1060.44 49.7638 1060.47 49.7626L1060.24 50.3101C1060.14 50.2174 1060.05 50.1359 1059.94 50.0537C1059.96 50.019 1059.98 49.9837 1060 49.9487C1059.99 49.9519 1059.97 49.9551 1059.96 49.9583C1059.93 49.932 1059.9 49.9035 1059.88 49.8786C1059.96 50.2053 1059.69 49.6735 1059.57 49.5506C1059.55 49.531 1059.53 49.5111 1059.5 49.4911C1059.37 49.3893 1059.18 49.206 1059.12 49.0273C1059.1 48.9755 1059.15 49.0007 1059.15 48.9901C1059.11 48.8693 1059.07 48.85 1059.07 48.6778C1059.07 48.669 1059.07 48.6602 1059.07 48.6515C1059.09 48.573 1059.14 48.5 1059.16 48.4276C1059.2 48.1975 1059.32 47.9805 1059.46 47.8108L1059.47 47.801C1059.67 47.5708 1060.01 47.3963 1060.33 47.3859C1060.39 47.3832 1060.44 47.3838 1060.49 47.3883C1060.61 47.3979 1060.68 47.4849 1060.77 47.5159C1060.88 47.5619 1060.98 47.5556 1061.08 47.6266C1061.13 47.6629 1061.18 47.7241 1061.21 47.7813C1061.24 47.8265 1061.26 47.8681 1061.29 47.8855C1061.34 47.9212 1061.31 47.8042 1061.37 47.8942C1061.4 47.9356 1061.31 47.9053 1061.35 47.9505C1061.49 48.0916 1061.72 48.2456 1061.83 48.432C1061.83 48.4156 1061.83 48.3979 1061.83 48.3806C1061.99 48.5409 1062.1 48.7029 1062.26 48.8678C1062.31 48.9256 1062.44 48.9986 1062.5 49.0542C1062.56 49.1099 1062.55 49.1665 1062.59 49.2119C1062.61 49.2306 1062.63 49.1953 1062.64 49.2081C1062.79 49.3689 1062.82 49.5031 1062.99 49.6579C1063.17 49.8285 1063.36 50.0009 1063.54 50.1744C1063.76 50.3686 1063.92 50.688 1063.92 51C1063.93 51.3105 1063.79 51.6454 1063.57 51.8575C1063.5 51.9411 1063.42 52.0246 1063.34 52.108C1063.32 52.1328 1063.34 52.1856 1063.31 52.2261C1063.26 52.2885 1063.23 52.2588 1063.22 52.2648C1063.16 52.3048 1063.21 52.3156 1063.15 52.3788C1063.01 52.518 1062.76 52.716 1062.62 52.857C1062.31 53.182 1062.07 53.4793 1061.77 53.8072C1061.75 53.8309 1061.72 53.7723 1061.68 53.8109C1061.48 54.0026 1061.41 54.1088 1061.27 54.2715C1061.18 54.3602 1061.07 54.4655 1060.87 54.5468C1060.72 54.6085 1060.53 54.6466 1060.33 54.6341C1060.03 54.626 1059.67 54.4658 1059.45 54.2216L1059.44 54.2108C1059.22 53.9713 1059.1 53.622 1059.11 53.3476C1059.1 53.2781 1059.11 53.2099 1059.12 53.1449C1059.12 53.1449 1059.12 53.1449 1059.12 53.1449C1059.04 52.8939 1059.23 52.5639 1059.45 52.4589C1059.47 52.4535 1059.48 52.4483 1059.49 52.4435C1059.49 52.4546 1059.48 52.4657 1059.47 52.4767C1059.29 52.73 1059.2 53.0613 1059.24 53.3433C1059.28 53.6191 1059.4 53.8838 1059.59 54.0728C1059.79 54.2668 1060.06 54.396 1060.34 54.4042C1060.61 54.4228 1060.91 54.3099 1061.11 54.1095C1061.21 54.0087 1061.31 53.9061 1061.42 53.8006C1062.08 53.129 1062.69 52.347 1063.34 51.6282C1063.51 51.4544 1063.6 51.2292 1063.6 51C1063.6 50.9297 1063.59 50.86 1063.57 50.792C1063.55 50.6838 1063.58 50.6118 1063.52 50.5294C1063.51 50.5165 1063.49 50.5786 1063.46 50.5392C1063.42 50.4877 1063.37 50.4399 1063.32 50.3953C1062.84 49.9568 1062.42 49.4107 1061.95 48.9829C1061.81 48.8553 1061.75 48.8735 1061.62 48.7661C1061.66 48.7682 1061.69 48.7624 1061.73 48.7617C1061.51 48.4856 1061.27 48.2274 1061.02 47.9748C1060.85 47.7939 1060.59 47.6884 1060.34 47.7013C1060.17 47.706 1060 47.7554 1059.85 47.8476C1059.82 47.8665 1059.78 47.8244 1059.75 47.8466C1059.7 47.8791 1059.68 47.9396 1059.66 47.9876C1059.65 48.0075 1059.64 48.0244 1059.63 48.0385C1059.58 48.1062 1059.53 48.0941 1059.49 48.1664C1059.48 48.2024 1059.52 48.2106 1059.47 48.2838C1059.47 48.2901 1059.43 48.2767 1059.41 48.3339C1059.39 48.4149 1059.38 48.5431 1059.39 48.6612C1059.4 48.7709 1059.43 48.8705 1059.45 48.9259C1059.5 49.0713 1059.53 49.211 1059.56 49.2649C1059.6 49.3084 1059.62 49.3318 1059.65 49.347C1059.7 49.3783 1059.74 49.3752 1059.81 49.441C1060.03 49.6603 1060.24 49.8821 1060.45 50.1053L1060.47 50.0523C1059.83 50.0298 1059.19 49.9949 1058.52 49.9953C1058.46 49.9953 1058.23 50.0701 1058.12 50.0671C1058.08 50.0659 1057.88 50.0461 1057.85 50.0445C1057.73 50.0382 1057.62 49.993 1057.55 49.9836C1057.42 49.965 1057.28 50.0356 1057.21 50.0426C1057.08 50.0551 1056.86 50.0459 1056.81 50.044C1056.68 50.0396 1056.72 49.9523 1056.63 49.9727C1056.6 49.9788 1056.63 50.0457 1056.54 50.0457C1056.46 50.0455 1056.43 49.9951 1056.37 49.986C1056.32 49.977 1056.22 50.0549 1056.19 50.053C1056.01 50.0421 1055.93 49.991 1055.74 49.9884C1055.58 49.9864 1054.85 50.0221 1054.78 50.0404C1054.51 50.1224 1054.97 50.0857 1054.99 50.0884C1055.13 50.1044 1055.11 50.1358 1055.25 50.0757C1055.37 50.261 1055.81 49.9725 1055.92 50.1923C1056.03 50.0459 1056.13 50.1197 1056.25 50.1492C1056.42 50.1898 1056.29 50.1045 1056.41 50.1039C1056.46 50.1038 1056.6 50.1703 1056.67 50.161C1056.74 50.1517 1056.77 50.1007 1056.87 50.0979C1057.04 50.0926 1057.18 50.1164 1057.32 50.1775C1057.35 50.1505 1057.38 50.1235 1057.4 50.0965C1057.5 50.1255 1057.6 50.1544 1057.7 50.1832C1057.69 50.1596 1057.67 50.1358 1057.65 50.1122C1057.68 50.1088 1057.71 50.1056 1057.74 50.1023C1057.84 50.1378 1057.93 50.1707 1058.03 50.2074C1058.3 50.0709 1058.22 50.189 1058.38 50.2068C1058.53 50.2245 1058.61 50.1455 1058.73 50.1451C1058.89 50.1445 1058.96 50.1346 1059.12 50.1402C1059.21 50.1435 1059.37 50.2197 1059.24 50.0989C1059.52 50.0892 1059.92 50.0555 1060.17 50.1045C1060.25 50.1188 1060.15 50.1569 1060.16 50.1616C1060.22 50.184 1060.28 50.1223 1060.34 50.1311C1060.38 50.1357 1060.42 50.1435 1060.47 50.1524L1060.64 50.1551L1060.52 50.0345C1060.46 49.9462 1060.39 49.8431 1060.36 49.7953C1060.28 49.6955 1060.08 49.6133 1060.06 49.6033C1059.96 49.5469 1059.99 49.4788 1059.96 49.4566C1059.81 49.3421 1059.75 49.3214 1059.79 49.2105C1059.79 49.1996 1059.79 49.1879 1059.8 49.1753C1059.72 49.1959 1059.51 49.0698 1059.59 48.9788C1059.51 49.0177 1059.46 48.8422 1059.44 48.7307C1059.46 48.7086 1059.49 48.6881 1059.52 48.6697C1059.51 48.6682 1059.51 48.6667 1059.51 48.6651C1059.4 48.5056 1059.51 48.1966 1059.71 48.04C1059.8 47.9744 1059.89 47.9274 1059.97 47.8933C1059.97 47.8906 1059.95 47.8219 1060 47.8171C1060.01 47.8172 1060.01 47.847 1060.04 47.8397C1060.09 47.8248 1060.23 47.8137 1060.35 47.8352C1060.44 47.8505 1060.52 47.8821 1060.53 47.8861C1060.67 47.9221 1060.71 47.893 1060.79 47.936C1060.87 47.9845 1060.88 48.0285 1060.92 48.0779C1060.93 48.0944 1060.95 48.1118 1060.97 48.1313C1061.01 48.1715 1061.09 48.1667 1061.15 48.2394C1061.19 48.2824 1061.16 48.3202 1061.19 48.3542C1061.29 48.4751 1061.39 48.5352 1061.45 48.678C1061.58 48.5958 1061.55 48.7224 1061.59 48.7794C1061.75 49.0107 1062.05 49.212 1062.21 49.3918C1062.56 49.7834 1062.86 50.1632 1063.18 50.5381C1063.29 50.6691 1063.34 50.8027 1063.34 50.953C1063.34 50.9711 1063.35 50.9861 1063.35 51C1063.37 51.0479 1063.41 51.0824 1063.39 51.1529C1063.38 51.1939 1063.32 51.2149 1063.29 51.2682C1063.27 51.3114 1063.25 51.3904 1063.2 51.4429C1063.19 51.4521 1063.17 51.4397 1063.15 51.4357C1063.14 51.4347 1063.13 51.4364 1063.12 51.4449C1062.93 51.636 1062.77 51.8508 1062.59 52.064C1062.52 52.143 1062.43 52.139 1062.53 52.2116C1062.48 52.2184 1062.43 52.2272 1062.39 52.2326C1062.34 52.3856 1062.2 52.4112 1062.08 52.5595C1062.07 52.5756 1062.03 52.7359 1061.93 52.7513C1061.95 52.7856 1061.99 52.8023 1062.01 52.8313C1061.97 52.8998 1061.84 52.9525 1061.8 52.9874C1061.76 53.0222 1061.77 53.0872 1061.76 53.0992C1061.72 53.1441 1061.68 53.0823 1061.67 53.0848C1061.42 53.2403 1061.47 53.2463 1061.42 53.4475C1061.41 53.498 1061.14 53.6518 1061.16 53.7555C1061.14 53.7325 1061.13 53.6988 1061.11 53.6716C1061.04 53.7284 1060.97 53.7856 1060.9 53.8426C1060.93 53.8531 1060.97 53.8609 1061.01 53.8728C1060.98 53.893 1060.96 53.9152 1060.93 53.9386C1060.85 54.0307 1060.78 54.1391 1060.67 54.1795C1060.59 54.2052 1060.58 54.1278 1060.54 54.1539C1060.53 54.1588 1060.56 54.2055 1060.53 54.2146C1060.46 54.2372 1060.4 54.2413 1060.35 54.2372C1060.22 54.2259 1060.13 54.1842 1060 54.1151C1059.92 54.0708 1059.79 54.0857 1059.71 53.9561C1059.71 53.9487 1059.71 53.9397 1059.7 53.9302C1059.69 53.9125 1059.68 53.761 1059.53 53.7291C1059.55 53.6856 1059.56 53.6548 1059.58 53.6242C1059.39 53.5202 1059.5 53.4901 1059.55 53.3338C1059.55 53.3137 1059.56 53.2914 1059.57 53.2664C1059.58 53.1715 1059.65 52.9155 1059.78 52.7807C1059.81 52.7448 1059.83 52.7139 1059.85 52.6913C1059.9 52.6202 1059.86 52.5731 1059.86 52.5599C1059.92 52.4814 1059.97 52.5281 1060.02 52.4582C1060.08 52.3883 1060.1 52.2567 1060.17 52.1976C1060.22 52.1523 1060.24 52.2491 1060.3 52.1565C1060.31 52.1371 1060.21 52.1306 1060.31 52.0736C1060.32 52.0646 1060.5 51.996 1060.54 51.9826C1060.5 52.0777 1060.36 52.3042 1060.3 52.3867C1060.19 52.5496 1060.05 52.7258 1059.91 52.912C1059.81 53.0494 1059.78 53.1765 1059.8 53.3258C1059.83 53.4772 1059.89 53.5878 1060 53.6938L1059.99 53.6805C1060.11 53.7794 1060.22 53.8131 1060.36 53.8093C1060.49 53.8012 1060.56 53.7636 1060.66 53.6632C1061.5 52.7747 1062.38 51.9103 1063.02 51.2989C1063.03 51.2872 1063.04 51.2757 1063.05 51.2644C1063.11 51.2004 1063.19 51.1875 1063.21 51.1308C1063.23 51.0763 1063.16 51.109 1063.17 51.0629C1063.18 51.0415 1063.19 51.0218 1063.2 51C1063.22 50.9742 1063.23 50.9479 1063.23 50.9202C1063.22 50.8177 1063.18 50.7225 1063.09 50.6232C1062.8 50.299 1062.5 49.9761 1062.19 49.6622C1062.08 49.5452 1061.95 49.4914 1061.85 49.387C1061.81 49.3464 1061.86 49.2964 1061.83 49.268C1061.51 48.961 1061.18 48.7204 1060.87 48.4055C1060.83 48.3584 1060.79 48.3049 1060.75 48.2496C1060.7 48.1793 1060.65 48.1139 1060.59 48.0831C1060.52 48.0492 1060.43 48.0638 1060.36 48.076C1060.34 48.0783 1060.33 48.0804 1060.31 48.0818C1060.26 48.087 1060.23 48.0415 1060.21 48.0416C1060.15 48.0446 1060.19 48.1006 1060.16 48.1099C1060.09 48.1376 1060.01 48.0931 1059.94 48.1544C1059.92 48.1791 1059.95 48.2126 1059.92 48.2521L1059.93 48.2419C1059.93 48.2419 1059.93 48.2419 1059.93 48.2419C1059.9 48.2946 1059.88 48.2481 1059.85 48.283C1059.85 48.285 1059.88 48.2992 1059.87 48.3183C1059.81 48.421 1059.78 48.5503 1059.79 48.6737C1059.79 48.6983 1059.79 48.7209 1059.79 48.7418C1059.8 48.8558 1059.83 48.9602 1059.92 49.0754C1060.06 49.2425 1060.19 49.4082 1060.33 49.5588C1060.4 49.6315 1060.42 49.5803 1060.44 49.6011C1060.55 49.7006 1060.56 49.7775 1060.68 49.8751L1061.18 50.3893L1060.47 50.3778C1060.47 50.3779 1060.47 50.3781 1060.47 50.3782C1060.44 50.3815 1060.33 50.4451 1060.23 50.429C1060.18 50.4203 1060.11 50.3806 1060.07 50.3713C1060.02 50.3621 1060.01 50.4205 1059.96 50.4206C1059.85 50.4208 1059.88 50.3802 1059.74 50.3875C1059.68 50.3903 1059.48 50.4457 1059.33 50.4415C1059.08 50.4347 1058.77 50.384 1058.48 50.3832C1058.38 50.3828 1058.25 50.4429 1058.09 50.4435C1057.9 50.4443 1057.55 50.4307 1057.35 50.4299C1057.25 50.4295 1057.25 50.3665 1057.23 50.3639C1057.16 50.3464 1057.19 50.4167 1057.14 50.4139C1057.07 50.4101 1057 50.3582 1056.94 50.3548C1056.9 50.3526 1056.89 50.4044 1056.88 50.4048C1056.55 50.422 1056.27 50.4171 1055.94 50.4228C1054.2 50.4526 1052.44 50.5192 1050.7 50.4891C1050.55 50.4867 1050.55 50.4214 1050.42 50.4316C1050.36 50.4362 1050.3 50.467 1050.25 50.4856C1050.21 50.5088 1050.18 50.5161 1050.12 50.4379C1050.13 50.4692 1050.13 50.4912 1050.14 50.5197C1050.03 50.5091 1049.96 50.5628 1049.89 50.6433C1049.86 50.6837 1049.84 50.7234 1049.82 50.7612C1049.79 50.8329 1049.77 50.9049 1049.76 51C1049.76 51.0157 1049.76 51.031 1049.76 51.0459C1049.77 51.1333 1049.72 51.1451 1049.81 51.1872C1049.82 51.245 1049.85 51.2995 1049.9 51.3541C1049.99 51.4593 1050.09 51.5092 1050.25 51.5199C1050.56 51.5317 1050.88 51.5479 1051.18 51.5823C1051.34 51.4651 1051.49 51.5389 1051.71 51.5563C1051.74 51.5585 1051.71 51.5157 1051.79 51.5194C1051.89 51.5238 1051.94 51.5891 1052.11 51.5855C1052.15 51.5845 1052.48 51.5121 1052.6 51.5492C1052.73 51.5863 1052.9 51.6081 1053.03 51.6436C1053.01 51.6155 1052.99 51.5887 1052.97 51.5611C1053.03 51.5563 1053.1 51.5516 1053.16 51.5468C1053.17 51.5804 1053.18 51.6141 1053.19 51.648C1053.22 51.616 1053.26 51.5843 1053.3 51.5518C1053.38 51.7248 1053.29 51.6684 1053.47 51.6246C1053.56 51.6029 1053.63 51.6331 1053.72 51.6155C1053.76 51.6091 1053.78 51.5582 1053.81 51.5516C1053.9 51.5359 1053.85 51.606 1053.91 51.6057C1053.96 51.6051 1054.04 51.528 1054.14 51.5623C1054.04 51.6996 1054.34 51.6548 1054.35 51.5482C1054.39 51.548 1054.42 51.5524 1054.46 51.5494C1054.42 51.8188 1054.61 51.6276 1054.68 51.5907C1054.75 51.5539 1054.75 51.6262 1054.77 51.6234C1054.82 51.6156 1054.78 51.5855 1054.82 51.5845C1055.05 51.5784 1055.27 51.6226 1055.5 51.6267C1055.53 51.6272 1055.5 51.5863 1055.54 51.5903C1055.58 51.5944 1055.61 51.6351 1055.67 51.6323C1055.68 51.6316 1055.69 51.5956 1055.71 51.5956C1056.21 51.5972 1056.68 51.6278 1057.19 51.6325C1057.24 51.6329 1057.27 51.569 1057.36 51.5712C1057.45 51.5734 1057.58 51.6311 1057.69 51.6355C1057.72 51.6367 1057.73 51.5835 1057.77 51.5849C1057.9 51.5898 1058.02 51.6331 1058.15 51.6401C1058.38 51.652 1058.63 51.6196 1058.86 51.651C1058.91 51.6569 1058.9 51.7012 1058.96 51.7138C1059.07 51.7353 1059.03 51.6706 1059.05 51.6619C1059.13 51.6339 1059.15 51.72 1059.22 51.6978C1059.23 51.6944 1059.22 51.6434 1059.23 51.6426C1059.38 51.6337 1059.39 51.7533 1059.55 51.6892C1059.69 51.7579 1059.45 51.7813 1059.43 51.8178C1059.37 51.9065 1059.53 52.0108 1059.62 52.0443C1059.7 52.0731 1059.7 52.0179 1059.73 52.0178C1059.9 52.0176 1060.15 52.0071 1060.28 52.0333C1060.36 52.0491 1060.22 52.0721 1060.26 52.0902C1060.3 52.1084 1060.32 52.0668 1060.36 52.1122C1060.4 52.1576 1060.48 52.2911 1060.47 52.3548ZM1051.33 49.9424C1051.12 50.1195 1050.63 50.1376 1050.25 50.1269C1050.17 50.1244 1050.09 50.1303 1050.02 50.142C1049.82 50.1718 1049.6 50.2438 1049.58 50.3266C1049.57 50.3582 1049.59 50.3876 1049.65 50.423C1049.65 50.4192 1049.66 50.4154 1049.66 50.4115C1049.83 50.2489 1050.02 50.1615 1050.25 50.1583C1050.32 50.1577 1050.38 50.1579 1050.46 50.1594C1050.49 50.1602 1050.71 50.1828 1050.79 50.1868C1050.83 50.189 1050.83 50.2292 1050.89 50.2288C1050.9 50.2286 1050.97 50.1761 1050.99 50.1775C1051.08 50.1822 1051.34 50.2627 1051.38 50.2604C1051.48 50.2536 1051.44 50.1911 1051.48 50.1798C1051.63 50.1423 1051.65 50.2361 1051.79 50.2056C1051.82 50.2002 1051.9 50.1184 1052.01 50.1291C1052.05 50.1336 1052.13 50.1758 1052.16 50.1738C1052.34 50.1629 1052.54 50.107 1052.71 50.1163C1052.85 50.1239 1052.81 50.187 1052.88 50.1955C1052.95 50.2037 1053.04 50.1306 1053.09 50.1263C1053.17 50.1197 1053.26 50.1612 1053.29 50.1606C1053.77 50.1483 1054.2 50.1002 1054.67 50.0828C1054.35 50.054 1054.03 50.0275 1053.72 49.9977C1053.54 50.063 1053.63 50.0017 1053.51 49.9814C1053.42 49.9652 1053.4 50.0759 1053.28 50.0636C1053.28 50.0636 1053.28 50.0636 1053.28 50.0636C1053.21 50.0572 1053.08 49.9806 1052.94 50.0126C1052.94 50.0138 1052.93 50.0713 1052.83 50.0733C1052.6 50.0777 1052.26 50.1072 1052 50.0949C1051.93 50.0913 1051.94 50.0309 1051.85 50.0235C1051.79 50.0181 1051.72 50.0739 1051.62 50.0614C1051.49 50.0455 1051.43 49.9495 1051.34 50.0828C1051.33 50.0352 1051.34 49.9888 1051.33 49.9424ZM1053.24 51.9416C1053.26 51.9469 1053.5 52.0957 1053.43 51.9368C1053.11 51.8678 1052.76 51.9021 1052.43 51.8634C1052.54 52.0204 1052.74 51.9585 1052.97 51.947C1052.97 51.947 1052.97 51.947 1052.97 51.947C1052.98 51.9465 1052.94 51.9876 1053 51.9801C1053.03 51.9765 1053.15 51.9136 1053.24 51.9416ZM1055.31 47.3289C1055.26 46.7283 1055.24 46.1286 1055.26 45.5109C1055.26 45.3701 1055.31 45.3834 1055.31 45.3255C1055.32 45.2191 1055.28 45.0407 1055.28 45.0156C1055.28 44.8603 1055.35 44.921 1055.35 44.9001C1055.38 44.6966 1055.32 44.722 1055.3 44.5833L1055.75 45.0336C1055.73 45.0366 1055.71 45.0388 1055.68 45.0398C1055.39 45.0501 1055.02 45.0354 1054.67 45.0314C1054.54 45.0298 1054.6 44.9749 1054.33 44.9796C1054.15 44.9828 1053.57 45.0453 1053.3 44.9785C1053.3 44.9533 1053.34 44.9255 1053.35 44.8995C1052.97 45.0045 1052.83 44.9999 1052.3 44.9743C1052.21 44.9703 1052.13 45.0134 1051.98 44.9975C1051.83 44.9816 1051.82 44.915 1051.52 44.9158C1051.41 44.9163 1051.35 44.9632 1051.19 44.9652C1050.72 44.9711 1049.83 44.9128 1049.45 44.9108C1048.69 44.9067 1048.28 44.9868 1047.61 44.959C1047.56 44.957 1047.67 44.9056 1047.58 44.9045C1047.48 44.9035 1047.38 44.9717 1047.36 44.9733C1047.17 44.9867 1046.8 44.936 1046.58 44.9168L1046.92 44.5833C1046.91 44.6499 1046.91 44.7037 1046.91 44.7363C1046.94 45.0788 1046.97 44.7413 1046.98 45.2159C1046.99 45.6679 1046.9 46.292 1046.89 46.74C1046.87 47.2592 1047 47.4266 1046.86 47.8176C1046.87 49.1907 1046.87 50.5693 1046.88 51.944C1046.85 51.9401 1046.83 51.9355 1046.8 51.9308C1046.82 52.0395 1046.84 52.1482 1046.86 52.2569C1046.84 52.2405 1046.82 52.2249 1046.8 52.2085C1046.87 52.7191 1046.91 53.1741 1046.89 53.7706C1046.89 53.7823 1046.84 53.7516 1046.84 53.7613C1046.83 53.8958 1046.87 54.0461 1046.86 54.1642C1046.83 54.4496 1046.72 54.9344 1046.86 54.7209C1046.83 55.3864 1046.88 56.1683 1046.85 56.8025C1046.84 57.0769 1046.76 57.1591 1046.75 57.2904C1046.75 57.4216 1046.82 57.3549 1046.82 57.4014C1046.82 57.4065 1046.82 57.4115 1046.82 57.4167L1046.58 57.1783C1046.86 57.1632 1047.31 57.1675 1047.36 57.2473C1047.41 57.2149 1047.47 57.182 1047.53 57.1493C1047.5 57.2394 1048.36 57.2022 1048.59 57.2044C1048.63 57.2048 1048.64 57.2443 1048.67 57.2439C1049.02 57.2388 1049.1 57.1769 1049.4 57.1564C1049.5 57.1491 1049.34 57.2187 1049.61 57.1887C1049.63 57.186 1049.62 57.1235 1049.94 57.1239C1050.46 57.1245 1051.44 57.0997 1052.05 57.1305C1052.1 57.133 1051.95 57.2011 1052.17 57.1852C1052.26 57.1796 1052.22 57.1312 1052.42 57.1308C1053.2 57.1288 1054.03 57.1844 1054.82 57.1382C1054.79 57.1929 1054.51 57.2542 1054.94 57.2199C1055 57.2142 1054.95 57.1654 1054.98 57.1636C1055.23 57.1495 1055.45 57.1844 1055.71 57.1656C1055.73 57.1646 1055.74 57.1626 1055.75 57.1599L1055.49 57.4167C1055.48 57.3655 1055.45 57.3378 1055.45 57.2568C1055.43 57.1114 1055.49 57.047 1055.46 56.8781C1055.43 56.614 1055.38 56.5732 1055.48 56.2456C1055.48 55.7187 1055.47 55.1925 1055.47 54.6667C1055.46 54.3679 1055.59 54.0275 1055.81 53.8117C1056.03 53.5855 1056.37 53.4556 1056.67 53.4624C1056.97 53.455 1057.31 53.5845 1057.52 53.8108C1057.75 54.0267 1057.87 54.368 1057.86 54.6667C1057.86 55.0265 1057.86 55.3864 1057.85 55.7464C1057.88 56.2812 1057.91 56.7748 1057.92 57.3323C1057.92 57.3647 1057.92 57.3919 1057.91 57.4167C1057.9 57.5344 1057.86 57.6011 1057.84 57.8438C1057.85 57.9094 1057.74 58.4176 1057.57 58.4037C1057.51 58.5249 1057.47 58.5943 1057.4 58.6881C1057.47 58.6335 1057.54 58.571 1057.6 58.5082C1057.49 58.6704 1057.38 58.8088 1057.27 58.9341C1057.09 59.1277 1056.89 59.3016 1056.65 59.4286C1056.34 59.569 1056.54 59.4282 1056.35 59.4963C1056.16 59.5527 1056.06 59.5846 1055.82 59.5238C1055.8 59.5352 1055.77 59.5439 1055.75 59.5503C1055.61 59.5938 1055.5 59.5493 1055.23 59.5474C1055.2 59.5472 1055.01 59.5794 1054.85 59.573C1054.73 59.5683 1054.7 59.5166 1054.52 59.5246C1054.49 59.5258 1054.11 59.59 1053.98 59.5958C1053.79 59.6051 1053.49 59.5387 1053.46 59.5379C1052.92 59.5262 1052.72 59.5917 1052.34 59.4839C1052.26 59.548 1051.94 59.5855 1051.69 59.5793C1051.36 59.5714 1050.72 59.4403 1050.63 59.5788C1050.26 59.5171 1050.3 59.5552 1049.85 59.5564C1049.45 59.5577 1048.38 59.5047 1048.05 59.5123C1047.73 59.5198 1047.89 59.5968 1047.76 59.6071C1047.54 59.6242 1047.66 59.5674 1047.51 59.5682C1047.18 59.5701 1046.89 59.5775 1046.58 59.593C1046.49 59.5969 1046.4 59.5966 1046.31 59.5908C1046.29 59.5482 1046.27 59.505 1046.25 59.4618C1046.23 59.4715 1046.2 59.4807 1046.18 59.4895C1046.08 59.4716 1045.97 59.4439 1045.89 59.4128C1046.52 59.733 1045.43 59.3964 1045.1 58.9013C1045.04 58.8346 1044.99 58.7734 1044.95 58.727C1044.7 58.4586 1044.39 57.855 1044.39 57.423C1044.39 57.4208 1044.39 57.4187 1044.39 57.4167C1044.39 57.3372 1044.43 57.3944 1044.43 57.3768C1044.42 57.1657 1044.39 57.1336 1044.39 56.8498C1044.4 56.6996 1044.45 56.5464 1044.45 56.4002C1044.46 55.3265 1044.4 54.2904 1044.4 53.2238C1044.4 53.0424 1044.46 52.8859 1044.47 52.7334C1044.47 52.5153 1044.41 52.3776 1044.41 52.1728C1044.41 51.9687 1044.48 51.6746 1044.47 51.5362C1044.46 51.3977 1044.39 51.6346 1044.41 51.3812C1044.42 51.2649 1044.47 51.4704 1044.47 51.3266C1044.47 50.8777 1044.41 50.2444 1044.47 49.7666C1044.46 49.7877 1044.44 49.8165 1044.43 49.8423C1044.44 49.3332 1044.47 48.8835 1044.47 48.358C1044.48 48.1743 1044.43 47.8428 1044.43 47.6622C1044.44 47.4816 1044.48 47.3995 1044.48 47.2548C1044.48 47.1954 1044.44 47.2186 1044.44 47.1788C1044.45 46.68 1044.52 46.4063 1044.52 45.884C1044.51 45.4531 1044.5 45.0192 1044.5 44.5833C1044.48 44.0472 1044.71 43.4764 1045.09 43.0948C1045.46 42.7003 1046.03 42.4519 1046.58 42.4564C1047.13 42.4489 1047.68 42.4415 1048.23 42.434C1048.31 42.433 1048.36 42.3812 1048.47 42.3735C1048.65 42.3617 1048.66 42.4075 1048.68 42.4091C1048.84 42.4191 1048.77 42.3768 1048.98 42.3768C1049.43 42.3768 1050.16 42.4143 1050.61 42.4111C1051.65 42.4036 1052.53 42.3633 1053.55 42.3429C1053.62 42.3413 1053.57 42.4026 1053.7 42.4034C1054.55 42.4095 1054.77 42.3566 1055.75 42.3658C1055.81 42.3663 1055.87 42.3689 1055.93 42.3746C1056.35 42.4013 1056.91 42.6119 1057.3 43.0324C1057.68 43.4055 1057.95 44.0156 1057.92 44.5833C1057.91 45.238 1057.91 45.8779 1057.9 46.3934C1057.9 46.3934 1057.9 46.3934 1057.9 46.3934C1057.98 46.673 1057.99 47.0084 1057.96 47.3333C1057.95 47.5379 1057.88 47.7521 1057.77 47.9128C1057.85 47.7218 1057.87 47.5169 1057.86 47.3333C1057.77 46.4115 1057.74 45.5011 1057.72 44.5833C1057.73 44.0733 1057.51 43.5524 1057.14 43.1923C1056.79 42.8275 1056.27 42.5977 1055.75 42.6026C1055.21 42.5981 1054.67 42.5947 1054.11 42.597C1051.67 42.6068 1049.09 42.7557 1046.58 42.7825C1046.15 42.7827 1045.74 42.9374 1045.42 43.2151C1045.38 43.2496 1045.34 43.2797 1045.31 43.3071C1045.17 43.4184 1045.07 43.4793 1044.98 43.6442C1044.97 43.6787 1045.06 43.6187 1045 43.7225C1044.87 43.9866 1044.81 44.2838 1044.81 44.5833C1044.82 45.949 1044.75 47.3568 1044.77 48.6724C1044.78 49.1072 1044.84 49.1753 1044.85 49.5577C1044.83 49.4905 1044.8 49.4465 1044.77 49.3879C1044.69 51.1333 1044.73 52.8812 1044.71 54.6493C1044.71 54.729 1044.66 54.7392 1044.66 54.8229C1044.65 54.9902 1044.71 55.1505 1044.71 55.2967C1044.72 55.4875 1044.67 55.5205 1044.68 55.6964C1044.68 55.7823 1044.72 55.7566 1044.71 55.9433C1044.71 55.959 1044.67 55.9692 1044.67 56.0934C1044.69 56.4336 1044.73 57.1288 1044.74 57.4103C1044.74 57.4124 1044.74 57.4146 1044.74 57.4167C1044.75 57.7728 1044.79 58.0693 1044.85 58.2007C1045.01 58.544 1045.07 58.4978 1045.28 58.7204C1045.28 58.7222 1045.28 58.724 1045.28 58.7258C1045.62 59.0727 1046.1 59.2732 1046.58 59.2717C1048.29 59.2919 1049.97 59.3385 1051.75 59.3381C1051.89 59.338 1052.42 59.2633 1052.68 59.2663C1052.77 59.2675 1053.23 59.2872 1053.3 59.2889C1053.58 59.2951 1053.82 59.3403 1053.98 59.3498C1054.28 59.3683 1054.61 59.2977 1054.78 59.2907C1055.06 59.2782 1055.57 59.2875 1055.69 59.2893C1055.71 59.2896 1055.73 59.2903 1055.75 59.2914C1055.98 59.2986 1055.92 59.3775 1056.12 59.3286C1056.18 59.3084 1056.1 59.2646 1056.32 59.2047C1056.49 59.1475 1056.58 59.1568 1056.7 59.1005C1056.82 59.0441 1056.96 58.8343 1057.02 58.7816C1057.03 58.7655 1057.05 58.75 1057.07 58.7346C1057.32 58.4827 1057.49 58.3418 1057.62 57.9207C1057.64 57.8268 1057.68 57.6416 1057.67 57.4167C1057.66 56.7793 1057.64 55.807 1057.63 55.7018C1057.54 55.0715 1057.58 56.1212 1057.58 56.1804C1057.56 56.5002 1057.53 56.4534 1057.59 56.7724C1057.51 56.8948 1057.52 57.1477 1057.54 57.4167C1057.57 57.7658 1057.46 58.1652 1057.28 58.2216C1057.29 58.4342 1057.16 58.5745 1057.02 58.6847C1056.96 58.7255 1056.91 58.7635 1056.85 58.8024C1056.52 58.9859 1056.81 58.8986 1056.57 59.0386C1056.47 59.0967 1056.16 59.1344 1056 59.1561C1055.9 59.1746 1055.84 59.2003 1055.75 59.2173C1055.7 59.2269 1055.64 59.2344 1055.55 59.2355C1055.16 59.2407 1054.84 59.2169 1054.51 59.1558C1054.45 59.1828 1054.39 59.2098 1054.33 59.2369C1054.1 59.2078 1053.87 59.179 1053.64 59.1501C1053.67 59.1737 1053.71 59.1975 1053.75 59.2211C1053.68 59.2245 1053.61 59.2278 1053.55 59.231C1053.32 59.1955 1053.11 59.1626 1052.88 59.1259C1052.25 59.2624 1052.44 59.1443 1052.09 59.1266C1051.74 59.1088 1051.54 59.1878 1051.27 59.1883C1050.91 59.1889 1050.74 59.1987 1050.38 59.1931C1050.17 59.1899 1049.81 59.1136 1050.11 59.2344C1049.45 59.2441 1048.54 59.2778 1047.95 59.2288C1047.78 59.2145 1048.01 59.1765 1047.98 59.1717C1047.83 59.1493 1047.71 59.211 1047.56 59.2022C1047.3 59.1875 1046.81 59.1395 1046.61 59.1281C1046.6 59.1276 1046.59 59.1272 1046.58 59.1269C1046.31 59.1315 1045.91 59.0747 1045.87 59.0527C1045.63 58.9748 1045.61 58.8677 1045.54 58.8273C1045.46 58.7686 1045.39 58.714 1045.33 58.6654C1045.16 58.5037 1045.12 58.4169 1045.15 58.2734C1045.03 58.2302 1044.76 57.776 1044.87 57.639C1044.83 57.6434 1044.79 57.5482 1044.78 57.4167C1044.77 57.2754 1044.77 57.0976 1044.76 56.9632C1044.78 56.9147 1044.81 56.8654 1044.84 56.8169C1044.67 56.2719 1044.79 55.1865 1044.81 54.4694C1044.81 54.4515 1044.74 54.4193 1044.76 54.3114C1044.76 54.3046 1044.79 54.3157 1044.8 54.2433C1044.81 54.0048 1044.89 53.0947 1044.89 52.99C1044.89 52.6045 1044.84 52.5371 1044.83 52.3025C1044.83 51.9937 1044.87 51.949 1044.87 51.6551C1044.86 51.5175 1044.8 51.3923 1044.81 51.1758C1044.82 51.0476 1044.86 51.0349 1044.87 50.9334C1044.88 50.5721 1044.85 50.3068 1044.91 49.9862C1044.76 49.9025 1044.87 49.7493 1044.88 49.5905C1044.93 48.9462 1044.87 48.1432 1044.88 47.5903C1044.91 46.5421 1044.95 45.566 1044.99 44.5833C1045 44.1587 1045.18 43.779 1045.49 43.4878C1045.59 43.3901 1045.7 43.3055 1045.82 43.2377C1046.02 43.1342 1046.05 43.0402 1046.3 42.9946C1046.38 42.9826 1046.47 43.0044 1046.58 43.0204C1046.63 43.0261 1046.68 43.03 1046.73 43.0302C1046.9 43.031 1047.15 43.0028 1047.36 43.003C1047.41 43.003 1047.42 43.055 1047.5 43.0554C1048.13 43.0584 1048.74 43.0215 1049.38 42.9961C1049.61 42.9866 1049.76 43.0555 1049.72 42.9356C1049.81 42.965 1049.9 42.9906 1049.98 43.0197C1050.31 42.9441 1050.57 43.0229 1051.01 43.0035C1051.06 43.0012 1051.39 42.9183 1051.57 42.9781C1051.59 42.9354 1051.56 42.8991 1051.56 42.8604C1051.75 42.844 1052.03 42.8934 1052.16 42.8985C1052.28 42.9035 1052.37 42.848 1052.4 42.8474C1052.55 42.846 1052.51 42.919 1052.53 42.9203C1053.19 42.9902 1053.12 42.9513 1053.52 42.8418C1053.63 42.8142 1054.31 42.8944 1054.45 42.8079C1054.45 42.8432 1054.42 42.8743 1054.41 42.9079C1054.61 42.917 1054.82 42.9263 1055.03 42.9354C1054.98 42.9015 1054.93 42.8676 1054.89 42.8335C1055.21 42.8557 1055.48 42.8157 1055.75 42.7959C1055.83 42.7894 1055.92 42.7902 1056 42.8015C1056.19 42.8327 1056.15 42.9053 1056.26 42.9177C1056.28 42.921 1056.26 42.8612 1056.32 42.8775C1056.66 42.9727 1056.84 43.1326 1057.01 43.3221C1057.1 43.4279 1057.2 43.5483 1057.29 43.7101C1057.4 43.92 1057.58 44.1149 1057.54 44.4872C1057.54 44.4967 1057.53 44.5325 1057.52 44.5833C1057.51 44.7142 1057.49 44.9447 1057.57 45.1045C1057.53 45.1757 1057.51 45.2384 1057.48 45.2916C1057.66 45.7444 1057.49 45.6193 1057.45 46.2316C1057.43 46.4279 1057.44 46.9116 1057.45 47.3333C1057.46 47.5649 1057.37 47.7528 1057.3 47.8451C1057.28 47.8739 1057.26 47.8977 1057.25 47.9184C1057.2 48.002 1057.22 48.0374 1057.2 48.0568C1057.03 48.1871 1057 48.1232 1056.82 48.1728C1056.77 48.1829 1056.72 48.1938 1056.67 48.2024C1056.51 48.2303 1056.31 48.2235 1056.18 48.1336C1056.06 48.0457 1056.17 48.0488 1056.05 47.9507C1056.04 47.9417 1056.03 47.9316 1056.01 47.9201C1055.98 47.8863 1056.01 48.0461 1055.88 47.8269C1055.84 47.7928 1055.8 47.404 1055.84 47.3333C1055.86 47.4665 1055.96 47.7305 1056.14 47.8566C1056.23 47.9226 1056.31 47.9581 1056.36 47.9758C1056.45 48.0076 1056.56 48.0181 1056.67 48.0084C1056.85 47.9928 1057 47.9215 1057.12 47.784C1057.23 47.6557 1057.27 47.5136 1057.26 47.3333C1057.22 46.4901 1057.19 45.5602 1057.17 44.5833C1057.15 44.2028 1057.01 43.8736 1056.73 43.6064C1056.45 43.3432 1056.13 43.2141 1055.75 43.2218C1052.63 43.2619 1049.43 43.2532 1047.24 43.233C1046.97 43.2306 1046.77 43.1956 1046.58 43.1721C1046.52 43.1617 1046.45 43.1572 1046.39 43.1627C1046.2 43.1876 1046.37 43.2214 1046.2 43.2549C1046.04 43.2957 1045.91 43.31 1045.77 43.4045C1045.7 43.4519 1045.63 43.5062 1045.57 43.5667C1045.28 43.8373 1045.12 44.1835 1045.12 44.5833C1045.1 45.4487 1045.09 46.3131 1045.08 47.1694C1045.08 47.5424 1045.13 47.8405 1045.13 48.1799C1045.13 48.312 1045.06 48.3161 1045.06 48.4099C1045.07 49.4209 1045.13 50.3563 1045.13 51.3619C1045.12 51.7794 1045.06 52.2305 1045.06 52.6442C1045.05 52.9851 1045.09 53.3385 1045.09 53.645C1045.1 53.8114 1045.04 53.8991 1045.04 53.9594C1045.03 54.1689 1045.09 54.0957 1045.09 54.2028C1045.09 54.4983 1045.01 54.6453 1045.02 54.9221C1045.02 55.0308 1045.07 55.0168 1045.08 55.1746C1045.09 55.3747 1045.04 55.3007 1045.04 55.4436C1045.04 55.4522 1045.07 55.4242 1045.08 55.5C1045.09 55.988 1045.11 56.5972 1045.11 57.068C1045.11 57.1844 1045.11 57.3007 1045.11 57.4167C1045.09 57.8218 1045.23 58.1937 1045.51 58.4944C1045.71 58.722 1045.97 58.8804 1046.25 58.9427C1046.44 58.9797 1046.4 58.9212 1046.46 58.9258C1046.5 58.9275 1046.54 58.9286 1046.58 58.9297C1046.83 58.9352 1046.97 58.9718 1047.28 58.9551C1047.34 58.9519 1047.58 58.8882 1047.82 58.9043C1047.94 58.913 1048.09 58.9527 1048.2 58.962C1048.3 58.9713 1048.32 58.9128 1048.45 58.9127C1048.69 58.9125 1048.62 58.9531 1048.96 58.9458C1049.09 58.943 1049.55 58.8876 1049.9 58.8918C1050.47 58.8987 1051.18 58.9493 1051.85 58.9501C1052.09 58.9505 1052.38 58.8904 1052.74 58.8898C1053.18 58.889 1053.99 58.9027 1054.44 58.9035C1054.67 58.9039 1054.68 58.9668 1054.71 58.9695C1054.89 58.987 1054.82 58.9166 1054.93 58.9194C1055.1 58.9232 1055.25 58.9751 1055.39 58.9785C1055.49 58.9807 1055.5 58.9289 1055.52 58.9285C1055.6 58.9268 1055.68 58.9252 1055.75 58.9239C1056.17 58.9161 1056.52 58.7644 1056.81 58.4733C1056.9 58.3757 1056.99 58.2684 1057.05 58.15C1057.18 57.9298 1057.24 57.6807 1057.24 57.4167C1057.23 56.5013 1057.22 55.5843 1057.21 54.6667C1057.21 54.5014 1057.16 54.3879 1057.05 54.2826C1056.94 54.1787 1056.83 54.1364 1056.67 54.1373C1056.5 54.1409 1056.4 54.1874 1056.29 54.2919C1056.19 54.3985 1056.15 54.507 1056.15 54.6667C1056.16 55.5841 1056.16 56.5011 1056.16 57.4167L1056.16 57.8341L1055.75 57.8296C1054.84 57.8311 1053.94 57.8293 1053.03 57.8225C1052.7 57.82 1052.68 57.7547 1052.39 57.765C1052.09 57.7751 1051.81 57.9162 1051.57 57.7603C1051.56 57.7918 1051.56 57.8142 1051.55 57.8428C1050.94 57.7985 1050.33 57.8444 1049.74 57.8501C1049.3 57.8543 1048.91 57.8493 1048.5 57.8458C1048.14 57.8426 1048.17 57.7878 1047.86 57.8593C1047.43 57.8471 1047.01 57.8391 1046.58 57.8323L1046.16 57.8276L1046.17 57.4167C1046.19 56.2822 1046.19 55.1455 1046.25 54.0248C1046.13 53.6635 1046.21 53.3172 1046.22 52.8175C1046.23 52.7558 1046.18 52.822 1046.19 52.6391C1046.19 52.4093 1046.26 52.2904 1046.25 51.9035C1046.25 51.8011 1046.18 51.0423 1046.22 50.7616C1046.25 50.4809 1046.27 50.0742 1046.31 49.7826C1046.28 49.824 1046.26 49.8765 1046.23 49.9226C1046.22 49.7772 1046.22 49.6309 1046.21 49.4855C1046.25 49.4644 1046.28 49.4432 1046.31 49.4229C1046.28 49.3385 1046.25 49.254 1046.22 49.1687C1046.39 48.985 1046.34 49.1734 1046.29 48.7645C1046.27 48.5596 1046.3 48.3969 1046.28 48.1866C1046.28 48.1108 1046.22 48.0623 1046.22 47.9787C1046.2 47.7739 1046.27 47.8933 1046.27 47.7667C1046.27 47.6393 1046.19 47.4563 1046.23 47.228C1046.37 47.4663 1046.32 46.7773 1046.21 46.7445C1046.21 46.6625 1046.22 46.5937 1046.22 46.5031C1046.49 46.5868 1046.29 46.1573 1046.26 45.9868C1046.22 45.8164 1046.29 45.8233 1046.29 45.7834C1046.28 45.6686 1046.25 45.7522 1046.25 45.6717C1046.25 45.3 1046.27 44.9435 1046.28 44.5833L1046.28 44.2778L1046.58 44.2811C1046.74 44.2872 1046.9 44.2921 1047.06 44.2933C1047.13 44.2939 1047.07 44.253 1047.15 44.257C1047.24 44.261 1047.33 44.3018 1047.46 44.2989C1047.49 44.2982 1047.5 44.2623 1047.56 44.2623C1048.7 44.2639 1049.79 44.2945 1050.95 44.2991C1051.06 44.2995 1051.14 44.2356 1051.35 44.2378C1051.55 44.2401 1051.86 44.2977 1052.11 44.3022C1052.18 44.3034 1052.2 44.2502 1052.29 44.2516C1052.59 44.2564 1052.85 44.2998 1053.17 44.3068C1053.7 44.3187 1054.26 44.2862 1054.8 44.3177C1054.9 44.3235 1054.89 44.3679 1055.03 44.3804C1055.29 44.402 1055.19 44.3373 1055.24 44.3286C1055.41 44.3006 1055.47 44.3866 1055.63 44.3645C1055.65 44.3611 1055.62 44.3101 1055.64 44.3093C1055.68 44.3082 1055.72 44.3089 1055.75 44.3109L1056.03 44.314L1056.02 44.5833C1056.01 44.83 1055.92 44.8824 1055.98 45.2083C1055.91 45.5365 1055.89 44.9882 1055.85 44.9319C1055.76 44.7944 1055.66 45.1579 1055.62 45.3722C1055.59 45.5567 1055.65 45.5553 1055.65 45.6288C1055.65 46.0174 1055.66 46.5961 1055.63 46.8917C1055.62 47.0708 1055.59 46.748 1055.58 46.8395C1055.56 46.9302 1055.6 46.9889 1055.55 47.0819C1055.51 47.175 1055.38 47.3648 1055.31 47.3289ZM1054.49 57.2758C1053.89 57.4935 1052.31 57.4708 1051.46 57.45C1050.76 57.4327 1050.15 57.2649 1050.3 57.5081C1051.06 57.5097 1051.67 57.4853 1052.48 57.4927C1052.56 57.4935 1053.06 57.5161 1053.23 57.5201C1053.33 57.5224 1053.33 57.5625 1053.47 57.5621C1053.5 57.5619 1053.66 57.5095 1053.71 57.5109C1053.92 57.5155 1054.51 57.5961 1054.6 57.5938C1054.83 57.5869 1054.74 57.5245 1054.84 57.5131C1055.17 57.4756 1055.21 57.5694 1055.54 57.5389C1055.58 57.536 1055.65 57.5103 1055.75 57.4893L1055.82 57.4901L1055.82 57.4167C1055.81 57.3334 1055.79 57.2317 1055.8 57.1199C1055.8 57.0198 1055.84 56.8493 1055.84 56.7726C1055.83 56.3551 1055.77 55.889 1055.78 55.5066C1055.79 55.1931 1055.85 55.2774 1055.86 55.1116C1055.87 54.9615 1055.81 54.7832 1055.8 54.6667C1055.79 54.6549 1055.79 54.644 1055.79 54.6336C1055.79 54.4529 1055.91 54.2736 1055.94 54.2347C1055.97 54.1734 1056.02 54.117 1056.07 54.066C1056.22 53.8997 1056.44 53.8126 1056.67 53.8087C1056.9 53.7996 1057.13 53.8794 1057.29 54.0403C1057.47 54.1972 1057.56 54.4273 1057.57 54.6667C1057.57 54.9176 1057.58 55.1705 1057.58 55.4282C1057.59 55.1742 1057.6 54.9203 1057.61 54.6667C1057.63 54.4195 1057.54 54.1576 1057.36 53.9725C1057.2 53.7912 1056.95 53.6785 1056.7 53.6649C1056.69 53.6665 1056.68 53.6682 1056.67 53.6699C1056.29 53.7611 1056.48 53.6702 1056.2 53.7555C1056.07 53.8123 1056.03 53.8924 1055.98 53.9775C1055.94 54.0413 1055.9 54.1096 1055.84 54.2126C1055.84 54.2124 1055.84 54.2122 1055.84 54.212C1055.79 54.2934 1055.69 54.4559 1055.68 54.6667C1055.67 54.7641 1055.67 54.8675 1055.68 54.9702C1055.68 54.9812 1055.74 55.0086 1055.74 55.2393C1055.74 55.7577 1055.77 56.5521 1055.76 57.1354C1055.76 57.2883 1055.71 57.2769 1055.69 57.4167L1055.75 57.3609C1055.73 57.359 1055.71 57.3576 1055.69 57.3568C1055.54 57.3514 1055.37 57.4072 1055.14 57.3947C1054.85 57.3788 1054.71 57.2828 1054.51 57.4161C1054.5 57.3686 1054.51 57.3221 1054.49 57.2758ZM1046.61 49.2946C1046.61 49.2539 1046.76 48.7081 1046.6 48.8699C1046.53 49.6034 1046.57 50.3965 1046.53 51.1683C1046.69 50.9048 1046.63 50.4589 1046.61 49.9178C1046.61 49.9175 1046.61 49.9173 1046.61 49.9171C1046.61 49.8915 1046.65 49.9983 1046.65 49.8531C1046.64 49.7827 1046.58 49.5128 1046.61 49.2946Z" fill="#F3832D"/>
</g>
<path d="M1079.54 57.5L1077.1 57.596C1076.71 57.596 1076.38 57.468 1076.11 57.212C1075.86 56.956 1075.73 56.6147 1075.73 56.188L1075.82 52.172C1075.16 52.076 1074.83 51.7293 1074.83 51.132C1074.83 50.844 1074.92 50.6093 1075.1 50.428C1075.29 50.2467 1075.52 50.1293 1075.81 50.076L1075.73 47.148C1075.61 46.924 1075.55 46.6627 1075.55 46.364C1075.55 45.724 1076.06 45.404 1077.07 45.404L1079.5 45.5L1082.02 45.404C1082.42 45.404 1082.74 45.5053 1082.98 45.708C1083.22 45.9 1083.34 46.1613 1083.34 46.492C1083.34 46.8227 1083.22 47.084 1082.98 47.276C1082.74 47.4573 1082.42 47.548 1082.02 47.548L1079.5 47.452C1078.93 47.452 1078.43 47.468 1078 47.5V50.156C1078.17 50.1667 1078.4 50.172 1078.69 50.172L1081.26 50.06C1081.65 50.06 1081.96 50.1613 1082.21 50.364C1082.45 50.556 1082.58 50.8173 1082.58 51.148C1082.58 51.468 1082.45 51.724 1082.21 51.916C1081.96 52.0973 1081.65 52.188 1081.26 52.188L1078.74 52.092H1078.51C1078.36 52.1027 1078.19 52.108 1078 52.108C1078 53.5907 1078.01 54.7267 1078.03 55.516C1078.32 55.5373 1078.82 55.548 1079.54 55.548L1082.05 55.452C1082.45 55.452 1082.77 55.548 1083.01 55.74C1083.25 55.9213 1083.38 56.1773 1083.38 56.508C1083.38 56.8387 1083.25 57.1053 1083.01 57.308C1082.77 57.5 1082.45 57.596 1082.05 57.596L1079.54 57.5ZM1088.29 51.212C1087.25 49.5587 1086.48 48.444 1085.98 47.868C1085.74 47.5587 1085.44 47.3773 1085.09 47.324C1084.99 47.3027 1084.92 47.2813 1084.86 47.26C1084.73 47.196 1084.67 46.9987 1084.67 46.668C1084.67 46.3373 1084.79 46.028 1085.02 45.74C1085.27 45.452 1085.57 45.308 1085.92 45.308C1086.53 45.308 1087.09 45.6867 1087.61 46.444L1089.52 49.436C1089.84 48.956 1090.17 48.412 1090.51 47.804C1090.85 47.1853 1091.11 46.732 1091.28 46.444C1091.45 46.1453 1091.65 45.8893 1091.89 45.676C1092.12 45.452 1092.37 45.34 1092.64 45.34C1092.92 45.34 1093.15 45.4467 1093.34 45.66C1093.55 45.8627 1093.65 46.1027 1093.65 46.38C1093.65 46.6467 1093.56 46.924 1093.39 47.212C1093.22 47.5 1092.86 48.0333 1092.32 48.812C1091.79 49.5907 1091.26 50.4227 1090.73 51.308C1091.95 53.164 1092.86 54.444 1093.47 55.148C1093.72 55.4573 1094.01 55.644 1094.37 55.708C1094.46 55.7187 1094.54 55.7347 1094.59 55.756C1094.72 55.82 1094.78 56.0173 1094.78 56.348C1094.78 56.6787 1094.66 56.988 1094.41 57.276C1094.18 57.564 1093.89 57.708 1093.53 57.708C1092.94 57.708 1092.38 57.3293 1091.85 56.572L1089.47 53.084C1089.15 53.564 1088.76 54.2147 1088.3 55.036C1087.84 55.8467 1087.51 56.412 1087.29 56.732C1086.89 57.34 1086.48 57.644 1086.08 57.644C1085.79 57.644 1085.55 57.5427 1085.34 57.34C1085.15 57.1267 1085.05 56.8867 1085.05 56.62C1085.05 56.3533 1085.17 56.0333 1085.39 55.66C1085.61 55.2867 1086.02 54.6733 1086.61 53.82C1087.2 52.9667 1087.76 52.0973 1088.29 51.212ZM1097.39 45.404L1099.34 45.5L1101.29 45.404C1101.69 45.404 1102 45.5 1102.24 45.692C1102.48 45.884 1102.61 46.1453 1102.61 46.476C1102.61 46.796 1102.48 47.052 1102.24 47.244C1102 47.436 1101.69 47.532 1101.29 47.532L1100.54 47.484C1100.47 49.0627 1100.43 50.4067 1100.43 51.516C1100.43 52.6147 1100.47 53.9533 1100.54 55.532C1100.93 55.4893 1101.18 55.468 1101.29 55.468C1101.69 55.468 1102 55.564 1102.24 55.756C1102.48 55.948 1102.61 56.2093 1102.61 56.54C1102.61 56.86 1102.48 57.116 1102.24 57.308C1102 57.5 1101.69 57.596 1101.29 57.596L1099.34 57.5L1097.39 57.612C1096.99 57.612 1096.66 57.516 1096.41 57.324C1096.18 57.132 1096.06 56.8707 1096.06 56.54C1096.06 56.2093 1096.18 55.9533 1096.41 55.772C1096.66 55.58 1096.99 55.484 1097.39 55.484L1098.14 55.548C1098.22 53.9693 1098.25 52.6253 1098.25 51.516C1098.25 50.4067 1098.22 49.0627 1098.14 47.484C1097.82 47.516 1097.51 47.532 1097.21 47.532C1096.93 47.532 1096.66 47.4413 1096.41 47.26C1096.18 47.068 1096.06 46.8067 1096.06 46.476C1096.06 46.1453 1096.18 45.884 1096.41 45.692C1096.66 45.5 1096.99 45.404 1097.39 45.404ZM1105.07 45.404L1108.11 45.5L1111.15 45.404C1111.56 45.404 1111.88 45.5 1112.11 45.692C1112.36 45.884 1112.48 46.1453 1112.48 46.476C1112.48 46.8067 1112.36 47.068 1112.11 47.26C1111.88 47.452 1111.56 47.548 1111.15 47.548L1109.35 47.452C1109.29 48.86 1109.27 50.236 1109.27 51.58L1109.39 55.932C1109.39 57.084 1108.99 57.66 1108.18 57.66C1107.37 57.66 1106.96 57.084 1106.96 55.932L1107.09 51.58C1107.09 50.7053 1107.05 49.3293 1106.98 47.452L1105.07 47.548C1104.67 47.548 1104.34 47.452 1104.1 47.26C1103.86 47.068 1103.75 46.8067 1103.75 46.476C1103.75 46.1453 1103.86 45.884 1104.1 45.692C1104.34 45.5 1104.67 45.404 1105.07 45.404ZM1124.34 50.7L1126.16 50.796L1128.03 50.7C1128.42 50.7 1128.73 50.8227 1128.98 51.068C1129.22 51.3133 1129.35 51.6227 1129.35 51.996C1129.35 53.7453 1128.88 55.1427 1127.94 56.188C1127.01 57.2227 1125.79 57.74 1124.29 57.74C1122.79 57.74 1121.52 57.132 1120.5 55.916C1119.47 54.7 1118.96 53.2227 1118.96 51.484C1118.96 49.7453 1119.49 48.2733 1120.55 47.068C1121.6 45.8627 1122.93 45.26 1124.55 45.26C1125.58 45.26 1126.52 45.484 1127.36 45.932C1128.2 46.38 1128.63 46.8653 1128.63 47.388C1128.63 47.6867 1128.53 47.9267 1128.34 48.108C1128.15 48.2787 1127.9 48.364 1127.6 48.364C1127.3 48.364 1127.02 48.2787 1126.75 48.108C1126.49 47.9267 1126.18 47.7453 1125.83 47.564C1125.47 47.3827 1125.05 47.292 1124.55 47.292C1123.59 47.292 1122.79 47.7027 1122.16 48.524C1121.54 49.3453 1121.23 50.3267 1121.23 51.468C1121.23 52.6093 1121.53 53.6067 1122.11 54.46C1122.71 55.3027 1123.46 55.724 1124.37 55.724C1125.05 55.724 1125.63 55.468 1126.11 54.956C1126.59 54.4333 1126.88 53.7027 1126.98 52.764C1126.86 52.7533 1126.57 52.748 1126.11 52.748L1124.34 52.828C1123.94 52.828 1123.62 52.732 1123.38 52.54C1123.13 52.3373 1123.01 52.076 1123.01 51.756C1123.01 51.4253 1123.13 51.1693 1123.38 50.988C1123.62 50.796 1123.94 50.7 1124.34 50.7ZM1139.82 45.26C1140.26 45.26 1140.6 45.4413 1140.84 45.804C1141.1 46.156 1141.23 46.604 1141.23 47.148C1141.23 47.6813 1141.08 49.18 1140.78 51.644C1140.78 52.22 1140.84 52.9827 1140.96 53.932C1141.08 54.8707 1141.25 55.4093 1141.45 55.548C1141.64 55.676 1141.78 55.756 1141.87 55.788C1141.95 55.82 1142.01 55.8467 1142.04 55.868C1142.1 55.9213 1142.12 56.028 1142.12 56.188C1142.12 56.5933 1141.98 56.9507 1141.71 57.26C1141.43 57.5693 1141.07 57.724 1140.62 57.724C1140.18 57.724 1139.82 57.5373 1139.53 57.164C1139.24 56.78 1139.05 56.2947 1138.94 55.708C1137.95 57.0627 1136.78 57.74 1135.45 57.74C1134.74 57.74 1134.1 57.5587 1133.53 57.196C1132.97 56.8227 1132.52 56.3373 1132.19 55.74C1131.52 54.524 1131.18 53.1747 1131.18 51.692C1131.18 49.9427 1131.65 48.4333 1132.59 47.164C1133.53 45.8947 1134.74 45.26 1136.24 45.26C1137.11 45.26 1137.94 45.4947 1138.73 45.964C1138.89 45.4947 1139.25 45.26 1139.82 45.26ZM1138.76 51.788L1138.68 48.268C1137.93 47.6173 1137.11 47.292 1136.24 47.292C1135.5 47.292 1134.85 47.7133 1134.28 48.556C1133.73 49.388 1133.45 50.396 1133.45 51.58C1133.45 52.764 1133.63 53.7507 1134 54.54C1134.37 55.3187 1134.88 55.708 1135.53 55.708C1136.19 55.708 1136.86 55.2707 1137.53 54.396C1138.21 53.5213 1138.62 52.652 1138.76 51.788ZM1146.73 51.228L1146.82 55.932C1146.82 57.084 1146.42 57.66 1145.62 57.66C1144.73 57.66 1144.28 56.9827 1144.28 55.628C1144.28 54.5613 1144.42 53.116 1144.69 51.292C1144.69 50.7907 1144.63 50.028 1144.52 49.004C1144.4 47.98 1144.34 47.2333 1144.34 46.764C1144.34 46.284 1144.45 45.9213 1144.66 45.676C1144.87 45.42 1145.17 45.292 1145.56 45.292C1146.34 45.292 1146.73 45.8947 1146.73 47.1C1147.61 45.9267 1148.7 45.34 1149.99 45.34C1150.76 45.34 1151.42 45.5267 1151.99 45.9C1152.57 46.2733 1153.01 46.7693 1153.32 47.388C1153.7 46.812 1154.2 46.3267 1154.82 45.932C1155.44 45.5373 1156.11 45.34 1156.82 45.34C1158.03 45.34 1158.96 45.7613 1159.62 46.604C1160.29 47.436 1160.63 48.4547 1160.63 49.66L1160.53 53.74C1160.53 54.764 1160.6 55.3347 1160.73 55.452C1160.83 55.548 1160.97 55.612 1161.14 55.644C1161.31 55.676 1161.42 55.7293 1161.48 55.804C1161.54 55.868 1161.57 55.964 1161.57 56.092C1161.57 56.54 1161.42 56.9187 1161.11 57.228C1160.81 57.5373 1160.46 57.692 1160.05 57.692C1159.38 57.692 1158.92 57.4627 1158.66 57.004C1158.41 56.5347 1158.28 55.8467 1158.28 54.94L1158.36 50.652C1158.36 49.6707 1158.21 48.8813 1157.91 48.284C1157.62 47.6867 1157.18 47.388 1156.6 47.388C1156.02 47.388 1155.43 47.7773 1154.82 48.556C1154.22 49.324 1153.8 50.2147 1153.56 51.228L1153.65 55.932C1153.65 57.084 1153.25 57.66 1152.45 57.66C1151.56 57.66 1151.11 56.9827 1151.11 55.628C1151.11 54.5613 1151.25 53.116 1151.53 51.292C1151.53 50.076 1151.38 49.1213 1151.09 48.428C1150.81 47.7347 1150.37 47.388 1149.78 47.388C1149.19 47.388 1148.6 47.7773 1147.99 48.556C1147.39 49.324 1146.97 50.2147 1146.73 51.228ZM1171.35 48.828C1171.35 48.444 1171.2 48.092 1170.89 47.772C1170.58 47.452 1170.13 47.292 1169.56 47.292C1168.8 47.292 1168.16 47.612 1167.62 48.252C1167.1 48.892 1166.73 49.66 1166.52 50.556C1167.16 50.7053 1167.87 50.78 1168.66 50.78C1169.46 50.78 1170.11 50.6093 1170.6 50.268C1171.1 49.9267 1171.35 49.4467 1171.35 48.828ZM1173.25 55.564C1173.25 55.98 1172.86 56.4493 1172.07 56.972C1171.28 57.484 1170.44 57.74 1169.54 57.74C1168.65 57.74 1167.87 57.5853 1167.22 57.276C1166.58 56.956 1166.05 56.5293 1165.64 55.996C1164.76 54.8973 1164.27 53.6013 1164.17 52.108C1163.44 51.82 1163.08 51.3773 1163.08 50.78C1163.08 50.4813 1163.17 50.2413 1163.37 50.06C1163.57 49.868 1163.81 49.772 1164.1 49.772C1164.19 49.772 1164.28 49.788 1164.39 49.82C1164.76 48.4973 1165.4 47.4093 1166.29 46.556C1167.19 45.692 1168.24 45.26 1169.43 45.26C1170.64 45.26 1171.63 45.6067 1172.42 46.3C1173.22 46.9827 1173.62 47.804 1173.62 48.764C1173.62 49.7133 1173.38 50.492 1172.9 51.1C1172 52.2093 1170.59 52.764 1168.69 52.764C1168.06 52.764 1167.33 52.6947 1166.5 52.556C1166.66 53.452 1167 54.204 1167.51 54.812C1168.02 55.42 1168.61 55.724 1169.27 55.724C1170.01 55.724 1170.79 55.4733 1171.62 54.972C1171.9 54.8013 1172.16 54.716 1172.39 54.716C1172.62 54.716 1172.83 54.796 1173 54.956C1173.17 55.116 1173.25 55.3187 1173.25 55.564Z" fill="#F3832D"/>
</svg>
