<svg width="446" height="52" viewBox="0 0 446 52" fill="none" xmlns="http://www.w3.org/2000/svg">
<g filter="url(#filter0_d_8374_1363)">
<rect x="6" y="6" width="430" height="36" rx="10" fill="white" shape-rendering="crispEdges"/>
<rect x="26" y="14" width="69" height="20" rx="4" fill="white"/>
<path d="M35 29C34.725 29 34.4896 28.9021 34.2938 28.7063C34.0979 28.5104 34 28.275 34 28V27.0125C34 26.8458 34.0375 26.6917 34.1125 26.55C34.1875 26.4083 34.2875 26.2875 34.4125 26.1875C34.9875 25.7208 35.4188 25.25 35.7063 24.775C35.9938 24.3 36.1958 23.875 36.3125 23.5H35.5C35.3583 23.5 35.2396 23.4521 35.1438 23.3563C35.0479 23.2604 35 23.1417 35 23C35 22.8583 35.0479 22.7396 35.1438 22.6437C35.2396 22.5479 35.3583 22.5 35.5 22.5H36.125C36.0083 22.3167 35.9167 22.1208 35.85 21.9125C35.7833 21.7042 35.75 21.4833 35.75 21.25C35.75 20.625 35.9688 20.0938 36.4062 19.6562C36.8438 19.2188 37.375 19 38 19C38.625 19 39.1562 19.2188 39.5938 19.6562C40.0312 20.0938 40.25 20.625 40.25 21.25C40.25 21.4833 40.2167 21.7042 40.15 21.9125C40.0833 22.1208 39.9917 22.3167 39.875 22.5H40.5C40.6417 22.5 40.7604 22.5479 40.8563 22.6437C40.9521 22.7396 41 22.8583 41 23C41 23.1417 40.9521 23.2604 40.8563 23.3563C40.7604 23.4521 40.6417 23.5 40.5 23.5H39.6875C39.8042 23.875 40.0063 24.3 40.2938 24.775C40.5813 25.25 41.0125 25.7208 41.5875 26.1875C41.7125 26.2875 41.8125 26.4083 41.8875 26.55C41.9625 26.6917 42 26.8458 42 27.0125V28C42 28.275 41.9021 28.5104 41.7063 28.7063C41.5104 28.9021 41.275 29 41 29H35ZM35 28H41V27C40.2333 26.4 39.6792 25.7812 39.3375 25.1438C38.9958 24.5063 38.7667 23.9583 38.65 23.5H37.35C37.2333 23.9583 37.0042 24.5063 36.6625 25.1438C36.3208 25.7812 35.7667 26.4 35 27V28ZM38 22.5C38.35 22.5 38.6458 22.3792 38.8875 22.1375C39.1292 21.8958 39.25 21.6 39.25 21.25C39.25 20.9 39.1292 20.6042 38.8875 20.3625C38.6458 20.1208 38.35 20 38 20C37.65 20 37.3542 20.1208 37.1125 20.3625C36.8708 20.6042 36.75 20.9 36.75 21.25C36.75 21.6 36.8708 21.8958 37.1125 22.1375C37.3542 22.3792 37.65 22.5 38 22.5Z" fill="#EA6900"/>
<path d="M49.6271 28.144C49.0591 28.144 48.5751 28.044 48.1751 27.844C47.7831 27.636 47.4591 27.352 47.2031 26.992C46.9551 26.632 46.7711 26.216 46.6511 25.744C46.5391 25.264 46.4831 24.748 46.4831 24.196C46.4831 23.556 46.5511 22.952 46.6871 22.384C46.8231 21.808 47.0271 21.3 47.2991 20.86C47.5791 20.42 47.9351 20.076 48.3671 19.828C48.7991 19.58 49.3191 19.456 49.9271 19.456C50.3671 19.456 50.7951 19.52 51.2111 19.648C51.6351 19.776 52.0151 19.96 52.3511 20.2L51.5351 21.4C51.2871 21.224 51.0191 21.096 50.7311 21.016C50.4511 20.936 50.1911 20.896 49.9511 20.896C49.3351 20.896 48.8511 21.168 48.4991 21.712C48.1471 22.256 47.9791 23.116 47.9951 24.292L47.6711 24.064C47.8551 23.624 48.1391 23.272 48.5231 23.008C48.9071 22.744 49.3631 22.612 49.8911 22.612C50.4271 22.612 50.8991 22.736 51.3071 22.984C51.7231 23.232 52.0471 23.572 52.2791 24.004C52.5191 24.428 52.6391 24.904 52.6391 25.432C52.6391 25.952 52.5151 26.42 52.2671 26.836C52.0191 27.244 51.6671 27.564 51.2111 27.796C50.7631 28.028 50.2351 28.144 49.6271 28.144ZM49.6271 26.752C49.8911 26.752 50.1271 26.692 50.3351 26.572C50.5431 26.452 50.7071 26.288 50.8271 26.08C50.9471 25.872 51.0071 25.632 51.0071 25.36C51.0071 25.088 50.9471 24.848 50.8271 24.64C50.7071 24.424 50.5431 24.256 50.3351 24.136C50.1271 24.008 49.8911 23.944 49.6271 23.944C49.3631 23.944 49.1231 24.008 48.9071 24.136C48.6991 24.256 48.5351 24.424 48.4151 24.64C48.2951 24.848 48.2351 25.088 48.2351 25.36C48.2351 25.632 48.2951 25.872 48.4151 26.08C48.5351 26.288 48.6991 26.452 48.9071 26.572C49.1231 26.692 49.3631 26.752 49.6271 26.752Z" fill="#EA6900"/>
<path d="M70 29C69.725 29 69.4896 28.9021 69.2938 28.7063C69.0979 28.5104 69 28.275 69 28V27.0125C69 26.8458 69.0375 26.6917 69.1125 26.55C69.1875 26.4083 69.2875 26.2875 69.4125 26.1875C69.9875 25.7208 70.4188 25.25 70.7063 24.775C70.9938 24.3 71.1958 23.875 71.3125 23.5H70.5C70.3583 23.5 70.2396 23.4521 70.1438 23.3563C70.0479 23.2604 70 23.1417 70 23C70 22.8583 70.0479 22.7396 70.1438 22.6437C70.2396 22.5479 70.3583 22.5 70.5 22.5H71.125C71.0083 22.3167 70.9167 22.1208 70.85 21.9125C70.7833 21.7042 70.75 21.4833 70.75 21.25C70.75 20.625 70.9688 20.0938 71.4062 19.6562C71.8438 19.2188 72.375 19 73 19C73.625 19 74.1562 19.2188 74.5938 19.6562C75.0312 20.0938 75.25 20.625 75.25 21.25C75.25 21.4833 75.2167 21.7042 75.15 21.9125C75.0833 22.1208 74.9917 22.3167 74.875 22.5H75.5C75.6417 22.5 75.7604 22.5479 75.8563 22.6437C75.9521 22.7396 76 22.8583 76 23C76 23.1417 75.9521 23.2604 75.8563 23.3563C75.7604 23.4521 75.6417 23.5 75.5 23.5H74.6875C74.8042 23.875 75.0063 24.3 75.2938 24.775C75.5813 25.25 76.0125 25.7208 76.5875 26.1875C76.7125 26.2875 76.8125 26.4083 76.8875 26.55C76.9625 26.6917 77 26.8458 77 27.0125V28C77 28.275 76.9021 28.5104 76.7063 28.7063C76.5104 28.9021 76.275 29 76 29H70ZM70 28H76V27C75.2333 26.4 74.6792 25.7812 74.3375 25.1438C73.9958 24.5063 73.7667 23.9583 73.65 23.5H72.35C72.2333 23.9583 72.0042 24.5063 71.6625 25.1438C71.3208 25.7812 70.7667 26.4 70 27V28ZM73 22.5C73.35 22.5 73.6458 22.3792 73.8875 22.1375C74.1292 21.8958 74.25 21.6 74.25 21.25C74.25 20.9 74.1292 20.6042 73.8875 20.3625C73.6458 20.1208 73.35 20 73 20C72.65 20 72.3542 20.1208 72.1125 20.3625C71.8708 20.6042 71.75 20.9 71.75 21.25C71.75 21.6 71.8708 21.8958 72.1125 22.1375C72.3542 22.3792 72.65 22.5 73 22.5Z" fill="#097FC5"/>
<path d="M81.719 28V26.99C81.719 26.7967 81.779 26.5833 81.899 26.35C82.019 26.1167 82.1857 25.8833 82.399 25.65C82.6123 25.4167 82.8623 25.2 83.149 25L84.209 24.24C84.3557 24.14 84.4923 24.0267 84.619 23.9C84.7523 23.7733 84.859 23.6367 84.939 23.49C85.0257 23.3367 85.069 23.19 85.069 23.05C85.069 22.8767 85.0257 22.72 84.939 22.58C84.859 22.44 84.739 22.33 84.579 22.25C84.419 22.17 84.2223 22.13 83.989 22.13C83.789 22.13 83.609 22.17 83.449 22.25C83.2957 22.33 83.169 22.4367 83.069 22.57C82.969 22.7033 82.899 22.8467 82.859 23L81.449 22.76C81.5157 22.4267 81.659 22.1167 81.879 21.83C82.099 21.5433 82.3857 21.3133 82.739 21.14C83.099 20.96 83.5057 20.87 83.959 20.87C84.479 20.87 84.9257 20.9633 85.299 21.15C85.6723 21.3367 85.959 21.5933 86.159 21.92C86.3657 22.24 86.469 22.6133 86.469 23.04C86.469 23.4733 86.349 23.86 86.109 24.2C85.8757 24.5333 85.5523 24.8467 85.139 25.14L84.189 25.83C83.9957 25.9633 83.829 26.11 83.689 26.27C83.549 26.43 83.4423 26.6067 83.369 26.8H86.559V28H81.719Z" fill="#097FC5"/>
<path d="M169.24 26.16C169.24 26.2267 169.193 26.34 169.1 26.5C169.013 26.6533 168.883 26.8267 168.71 27.02C168.537 27.2067 168.32 27.39 168.06 27.57C167.807 27.7433 167.513 27.8867 167.18 28C166.847 28.12 166.477 28.18 166.07 28.18C165.49 28.18 164.967 28.0733 164.5 27.86C164.04 27.6467 163.677 27.3133 163.41 26.86C163.143 26.4 163.01 25.8033 163.01 25.07C163.01 24.4833 163.1 23.9367 163.28 23.43C163.46 22.9167 163.71 22.47 164.03 22.09C164.357 21.7033 164.737 21.4033 165.17 21.19C165.603 20.9767 166.073 20.87 166.58 20.87C166.673 20.87 166.807 20.8767 166.98 20.89C167.16 20.9033 167.357 20.9367 167.57 20.99C167.783 21.0433 167.997 21.13 168.21 21.25C168.423 21.3633 168.613 21.52 168.78 21.72C168.8 21.7467 168.81 21.7833 168.81 21.83C168.81 21.9233 168.767 22.0267 168.68 22.14C168.593 22.2533 168.503 22.31 168.41 22.31C168.35 22.31 168.3 22.28 168.26 22.22C168.147 22.0467 168.003 21.9133 167.83 21.82C167.657 21.72 167.48 21.65 167.3 21.61C167.127 21.5633 166.97 21.5367 166.83 21.53C166.69 21.5167 166.593 21.51 166.54 21.51C166.167 21.51 165.81 21.5967 165.47 21.77C165.137 21.9367 164.837 22.18 164.57 22.5C164.31 22.8133 164.103 23.1867 163.95 23.62C163.803 24.0533 163.73 24.53 163.73 25.05C163.73 25.63 163.83 26.1033 164.03 26.47C164.237 26.8367 164.52 27.11 164.88 27.29C165.24 27.4633 165.657 27.55 166.13 27.55C166.437 27.55 166.76 27.4933 167.1 27.38C167.44 27.26 167.767 27.0933 168.08 26.88C168.393 26.6667 168.653 26.4233 168.86 26.15C168.94 26.05 169.02 26 169.1 26C169.193 26 169.24 26.0533 169.24 26.16ZM174.531 23.43C174.511 23.55 174.485 23.8033 174.451 24.19C174.425 24.5767 174.411 25.0567 174.411 25.63C174.411 25.6833 174.411 25.79 174.411 25.95C174.418 26.1033 174.431 26.2833 174.451 26.49C174.478 26.6967 174.518 26.9033 174.571 27.11C174.625 27.3167 174.698 27.4967 174.791 27.65C174.798 27.6633 174.801 27.6833 174.801 27.71C174.801 27.7833 174.755 27.8733 174.661 27.98C174.575 28.08 174.475 28.13 174.361 28.13C174.275 28.13 174.201 28.0867 174.141 28C174.081 27.9067 174.031 27.79 173.991 27.65C173.951 27.51 173.918 27.37 173.891 27.23C173.871 27.0833 173.858 26.96 173.851 26.86C173.671 27.2267 173.411 27.54 173.071 27.8C172.738 28.0533 172.365 28.18 171.951 28.18C171.565 28.18 171.261 28.09 171.041 27.91C170.828 27.73 170.675 27.4967 170.581 27.21C170.495 26.9233 170.451 26.6167 170.451 26.29V24.32C170.451 24.28 170.448 24.19 170.441 24.05C170.435 23.91 170.428 23.7633 170.421 23.61C170.421 23.45 170.421 23.3333 170.421 23.26C170.421 23.1933 170.488 23.16 170.621 23.16C170.728 23.16 170.841 23.1867 170.961 23.24C171.088 23.2867 171.151 23.3533 171.151 23.44C171.151 23.4933 171.148 23.5767 171.141 23.69C171.141 23.7967 171.138 23.91 171.131 24.03C171.131 24.1433 171.131 24.24 171.131 24.32V26.25C171.131 26.6367 171.201 26.9567 171.341 27.21C171.481 27.4567 171.685 27.58 171.951 27.58C172.225 27.58 172.495 27.47 172.761 27.25C173.035 27.03 173.265 26.7267 173.451 26.34C173.645 25.9467 173.755 25.4967 173.781 24.99C173.788 24.8833 173.791 24.7467 173.791 24.58C173.791 24.4067 173.791 24.23 173.791 24.05V23.25C173.791 23.1833 173.861 23.15 174.001 23.15C174.115 23.15 174.231 23.1733 174.351 23.22C174.471 23.2667 174.531 23.33 174.531 23.41V23.43ZM176.37 24.33C176.37 24.2633 176.366 24.16 176.36 24.02C176.353 23.88 176.346 23.7367 176.34 23.59C176.34 23.4433 176.34 23.3333 176.34 23.26C176.34 23.1933 176.406 23.16 176.54 23.16C176.646 23.16 176.76 23.1867 176.88 23.24C177.006 23.2867 177.07 23.3533 177.07 23.44C177.07 23.5067 177.063 23.58 177.05 23.66C177.043 23.74 177.04 23.8367 177.04 23.95C177.173 23.73 177.363 23.54 177.61 23.38C177.856 23.22 178.153 23.14 178.5 23.14C178.7 23.14 178.886 23.1733 179.06 23.24C179.233 23.3067 179.373 23.3867 179.48 23.48C179.593 23.5733 179.65 23.66 179.65 23.74C179.65 23.8467 179.61 23.96 179.53 24.08C179.456 24.2 179.376 24.26 179.29 24.26C179.236 24.26 179.19 24.2267 179.15 24.16C179.083 24.0333 178.976 23.94 178.83 23.88C178.69 23.82 178.57 23.79 178.47 23.79C178.19 23.79 177.93 23.8767 177.69 24.05C177.456 24.2233 177.283 24.49 177.17 24.85C177.123 24.9967 177.09 25.16 177.07 25.34C177.05 25.52 177.036 25.7367 177.03 25.99C177.03 26.2433 177.03 26.56 177.03 26.94C177.03 27.1467 177.036 27.3467 177.05 27.54C177.07 27.7333 177.08 27.8867 177.08 28C177.08 28.0667 177.013 28.1 176.88 28.1C176.773 28.1 176.656 28.0733 176.53 28.02C176.41 27.9733 176.35 27.9067 176.35 27.82C176.35 27.7667 176.35 27.68 176.35 27.56C176.356 27.4333 176.36 27.31 176.36 27.19C176.366 27.07 176.37 26.9867 176.37 26.94V24.33ZM180.667 24.33C180.667 24.2633 180.663 24.16 180.657 24.02C180.65 23.88 180.643 23.7367 180.637 23.59C180.637 23.4433 180.637 23.3333 180.637 23.26C180.637 23.1933 180.703 23.16 180.837 23.16C180.943 23.16 181.057 23.1867 181.177 23.24C181.303 23.2867 181.367 23.3533 181.367 23.44C181.367 23.5067 181.36 23.58 181.347 23.66C181.34 23.74 181.337 23.8367 181.337 23.95C181.47 23.73 181.66 23.54 181.907 23.38C182.153 23.22 182.45 23.14 182.797 23.14C182.997 23.14 183.183 23.1733 183.357 23.24C183.53 23.3067 183.67 23.3867 183.777 23.48C183.89 23.5733 183.947 23.66 183.947 23.74C183.947 23.8467 183.907 23.96 183.827 24.08C183.753 24.2 183.673 24.26 183.587 24.26C183.533 24.26 183.487 24.2267 183.447 24.16C183.38 24.0333 183.273 23.94 183.127 23.88C182.987 23.82 182.867 23.79 182.767 23.79C182.487 23.79 182.227 23.8767 181.987 24.05C181.753 24.2233 181.58 24.49 181.467 24.85C181.42 24.9967 181.387 25.16 181.367 25.34C181.347 25.52 181.333 25.7367 181.327 25.99C181.327 26.2433 181.327 26.56 181.327 26.94C181.327 27.1467 181.333 27.3467 181.347 27.54C181.367 27.7333 181.377 27.8867 181.377 28C181.377 28.0667 181.31 28.1 181.177 28.1C181.07 28.1 180.953 28.0733 180.827 28.02C180.707 27.9733 180.647 27.9067 180.647 27.82C180.647 27.7667 180.647 27.68 180.647 27.56C180.653 27.4333 180.657 27.31 180.657 27.19C180.663 27.07 180.667 26.9867 180.667 26.94V24.33ZM185.293 26.04V26.14C185.293 26.5733 185.403 26.9233 185.623 27.19C185.85 27.4567 186.13 27.59 186.463 27.59C186.89 27.59 187.28 27.5233 187.633 27.39C187.993 27.25 188.307 27.0367 188.573 26.75C188.62 26.6967 188.663 26.66 188.703 26.64C188.743 26.6133 188.777 26.6 188.803 26.6C188.87 26.6 188.903 26.64 188.903 26.72C188.903 26.78 188.853 26.8867 188.753 27.04C188.66 27.1933 188.513 27.36 188.313 27.54C188.113 27.7133 187.86 27.8633 187.553 27.99C187.247 28.1167 186.883 28.18 186.463 28.18C186.123 28.18 185.813 28.0967 185.533 27.93C185.26 27.7567 185.043 27.51 184.883 27.19C184.723 26.87 184.643 26.49 184.643 26.05V25.91C184.583 25.8633 184.533 25.81 184.493 25.75C184.453 25.69 184.433 25.6367 184.433 25.59C184.433 25.5033 184.497 25.46 184.623 25.46C184.63 25.46 184.643 25.46 184.663 25.46C184.69 25.4533 184.707 25.45 184.713 25.45C184.76 25.21 184.853 24.9567 184.993 24.69C185.14 24.4233 185.323 24.1733 185.543 23.94C185.763 23.7 186.013 23.5067 186.293 23.36C186.58 23.2133 186.887 23.14 187.213 23.14C187.627 23.14 187.953 23.2133 188.193 23.36C188.44 23.5 188.613 23.6833 188.713 23.91C188.82 24.13 188.873 24.36 188.873 24.6C188.873 24.8267 188.853 25.0067 188.813 25.14C188.78 25.2733 188.697 25.3833 188.563 25.47C188.43 25.55 188.213 25.6367 187.913 25.73C187.613 25.8233 187.253 25.9 186.833 25.96C186.42 26.0133 185.95 26.04 185.423 26.04H185.293ZM185.573 25.48C186.067 25.48 186.48 25.4533 186.813 25.4C187.147 25.34 187.423 25.28 187.643 25.22C187.883 25.1467 188.037 25.0667 188.103 24.98C188.177 24.8933 188.213 24.7633 188.213 24.59C188.213 24.01 187.877 23.72 187.203 23.72C186.957 23.72 186.73 23.7767 186.523 23.89C186.317 24.0033 186.133 24.15 185.973 24.33C185.82 24.51 185.69 24.7033 185.583 24.91C185.483 25.11 185.413 25.3 185.373 25.48H185.573ZM193.733 27.83C193.74 27.7767 193.743 27.6867 193.743 27.56C193.743 27.4333 193.743 27.3033 193.743 27.17C193.75 27.03 193.753 26.9233 193.753 26.85V25.07C193.753 24.6767 193.7 24.3633 193.593 24.13C193.486 23.89 193.266 23.77 192.933 23.77C192.706 23.77 192.476 23.8133 192.243 23.9C192.016 23.9867 191.81 24.13 191.623 24.33C191.436 24.53 191.293 24.7967 191.193 25.13C191.146 25.2967 191.11 25.4933 191.083 25.72C191.063 25.94 191.05 26.16 191.043 26.38C191.043 26.6 191.04 26.79 191.033 26.95V27.11C191.033 27.27 191.036 27.4267 191.043 27.58C191.05 27.7333 191.056 27.8767 191.063 28.01C191.063 28.0767 191 28.11 190.873 28.11C190.766 28.11 190.653 28.0833 190.533 28.03C190.413 27.9833 190.353 27.9167 190.353 27.83C190.353 27.7767 190.353 27.68 190.353 27.54C190.36 27.4 190.363 27.2633 190.363 27.13C190.37 26.99 190.373 26.8967 190.373 26.85V24.36C190.373 24.2933 190.37 24.19 190.363 24.05C190.356 23.91 190.35 23.7667 190.343 23.62C190.343 23.4733 190.343 23.3633 190.343 23.29C190.343 23.2233 190.406 23.19 190.533 23.19C190.64 23.19 190.753 23.2167 190.873 23.27C190.993 23.3167 191.053 23.3833 191.053 23.47C191.053 23.47 191.05 23.5167 191.043 23.61C191.043 23.7033 191.04 23.81 191.033 23.93C191.033 24.05 191.033 24.1533 191.033 24.24C191.246 23.8867 191.523 23.6167 191.863 23.43C192.21 23.2433 192.566 23.15 192.933 23.15C193.253 23.15 193.51 23.21 193.703 23.33C193.903 23.4433 194.053 23.5933 194.153 23.78C194.26 23.9667 194.33 24.17 194.363 24.39C194.396 24.61 194.413 24.8233 194.413 25.03V26.95C194.413 26.99 194.416 27.08 194.423 27.22C194.43 27.36 194.433 27.5067 194.433 27.66C194.44 27.8133 194.443 27.93 194.443 28.01C194.443 28.0767 194.38 28.11 194.253 28.11C194.146 28.11 194.033 28.0833 193.913 28.03C193.793 27.9833 193.733 27.92 193.733 27.84V27.83ZM196.462 23.76H196.412C196.265 23.76 196.152 23.7667 196.072 23.78C195.992 23.7867 195.902 23.7933 195.802 23.8H195.792C195.705 23.8 195.632 23.75 195.572 23.65C195.512 23.55 195.482 23.4567 195.482 23.37C195.482 23.2767 195.519 23.23 195.592 23.23H196.462V22.72C196.462 22.6533 196.459 22.55 196.452 22.41C196.452 22.27 196.449 22.1267 196.442 21.98C196.442 21.8333 196.442 21.7233 196.442 21.65C196.442 21.6167 196.462 21.5933 196.502 21.58C196.542 21.56 196.589 21.55 196.642 21.55C196.749 21.55 196.862 21.5767 196.982 21.63C197.102 21.6767 197.162 21.7433 197.162 21.83C197.162 21.8833 197.159 21.9667 197.152 22.08C197.152 22.1867 197.149 22.3 197.142 22.42C197.142 22.54 197.142 22.64 197.142 22.72V23.2L197.422 23.19C197.542 23.1833 197.682 23.1733 197.842 23.16C198.002 23.1467 198.115 23.1367 198.182 23.13H198.192C198.279 23.13 198.352 23.18 198.412 23.28C198.479 23.38 198.512 23.4733 198.512 23.56C198.512 23.66 198.472 23.71 198.392 23.71C198.325 23.71 198.199 23.71 198.012 23.71C197.825 23.71 197.665 23.7133 197.532 23.72L197.142 23.73V26.92C197.142 27.1867 197.165 27.3567 197.212 27.43C197.259 27.5033 197.355 27.54 197.502 27.54C197.615 27.54 197.755 27.5033 197.922 27.43C198.095 27.3567 198.265 27.2567 198.432 27.13C198.545 27.0433 198.635 27 198.702 27C198.769 27 198.802 27.0367 198.802 27.11C198.802 27.17 198.759 27.26 198.672 27.38C198.592 27.4933 198.482 27.6133 198.342 27.74C198.209 27.86 198.059 27.9633 197.892 28.05C197.732 28.1367 197.572 28.18 197.412 28.18C197.065 28.18 196.819 28.0733 196.672 27.86C196.532 27.6467 196.462 27.3267 196.462 26.9V23.76ZM203.352 24.32C203.352 24.1133 203.348 23.9167 203.342 23.73C203.335 23.5433 203.328 23.3933 203.322 23.28C203.322 23.2133 203.385 23.18 203.512 23.18C203.625 23.18 203.745 23.2067 203.872 23.26C203.998 23.3067 204.062 23.3733 204.062 23.46C204.062 23.5 204.058 23.5733 204.052 23.68C204.045 23.7867 204.038 23.9 204.032 24.02C204.032 24.1333 204.028 24.23 204.022 24.31C204.288 23.8567 204.575 23.55 204.882 23.39C205.195 23.2233 205.535 23.14 205.902 23.14C206.402 23.14 206.812 23.3167 207.132 23.67C207.452 24.0233 207.612 24.54 207.612 25.22C207.612 25.78 207.505 26.2833 207.292 26.73C207.085 27.1767 206.802 27.53 206.442 27.79C206.082 28.0433 205.675 28.17 205.222 28.17C204.988 28.17 204.755 28.1133 204.522 28C204.288 27.8867 204.118 27.76 204.012 27.62V28.56C204.012 28.7667 204.018 28.9667 204.032 29.16C204.052 29.3533 204.062 29.5067 204.062 29.62C204.062 29.6867 203.995 29.72 203.862 29.72C203.755 29.72 203.638 29.6933 203.512 29.64C203.392 29.5933 203.332 29.5267 203.332 29.44C203.332 29.36 203.335 29.2333 203.342 29.06C203.348 28.8933 203.352 28.7233 203.352 28.55V24.32ZM204.002 26.99C204.028 26.9767 204.052 26.97 204.072 26.97C204.145 26.97 204.215 27.0233 204.282 27.13C204.415 27.3167 204.558 27.44 204.712 27.5C204.865 27.56 205.025 27.59 205.192 27.59C205.372 27.59 205.562 27.54 205.762 27.44C205.962 27.3333 206.152 27.18 206.332 26.98C206.512 26.78 206.655 26.5333 206.762 26.24C206.875 25.9467 206.932 25.6133 206.932 25.24C206.932 24.8933 206.882 24.61 206.782 24.39C206.682 24.17 206.552 24.0067 206.392 23.9C206.238 23.7933 206.075 23.74 205.902 23.74C205.622 23.74 205.355 23.8133 205.102 23.96C204.855 24.1067 204.642 24.31 204.462 24.57C204.282 24.83 204.155 25.13 204.082 25.47C204.062 25.5767 204.045 25.7233 204.032 25.91C204.018 26.0967 204.008 26.2867 204.002 26.48C204.002 26.6733 204.002 26.8433 204.002 26.99ZM209.124 22.1C209.124 22.0333 209.121 21.93 209.114 21.79C209.108 21.65 209.101 21.5067 209.094 21.36C209.094 21.2133 209.094 21.1033 209.094 21.03C209.094 20.9967 209.114 20.9733 209.154 20.96C209.194 20.94 209.241 20.93 209.294 20.93C209.408 20.93 209.524 20.9567 209.644 21.01C209.771 21.0567 209.834 21.1233 209.834 21.21C209.834 21.2633 209.831 21.3467 209.824 21.46C209.824 21.5667 209.821 21.68 209.814 21.8C209.814 21.92 209.814 22.02 209.814 22.1V26.95C209.814 26.99 209.818 27.08 209.824 27.22C209.831 27.36 209.834 27.5067 209.834 27.66C209.841 27.8133 209.844 27.93 209.844 28.01C209.844 28.0433 209.824 28.0667 209.784 28.08C209.744 28.1 209.698 28.11 209.644 28.11C209.538 28.11 209.421 28.0833 209.294 28.03C209.168 27.9833 209.104 27.9167 209.104 27.83C209.104 27.7767 209.104 27.69 209.104 27.57C209.111 27.4433 209.114 27.32 209.114 27.2C209.121 27.08 209.124 26.9967 209.124 26.95V22.1ZM215.671 23.43C215.651 23.5767 215.631 23.7733 215.611 24.02C215.598 24.26 215.585 24.5167 215.571 24.79C215.565 25.0567 215.558 25.3067 215.551 25.54C215.545 25.7733 215.541 25.95 215.541 26.07C215.541 26.1633 215.545 26.3033 215.551 26.49C215.565 26.67 215.595 26.8633 215.641 27.07C215.695 27.2767 215.778 27.47 215.891 27.65C215.905 27.6767 215.911 27.6967 215.911 27.71C215.911 27.7833 215.865 27.8733 215.771 27.98C215.685 28.08 215.585 28.13 215.471 28.13C215.371 28.13 215.281 28.06 215.201 27.92C215.128 27.7733 215.068 27.6 215.021 27.4C214.981 27.1933 214.951 27 214.931 26.82C214.685 27.2867 214.385 27.63 214.031 27.85C213.685 28.07 213.325 28.18 212.951 28.18C212.465 28.18 212.075 28.0167 211.781 27.69C211.488 27.3567 211.341 26.8767 211.341 26.25C211.341 25.8233 211.411 25.4233 211.551 25.05C211.691 24.6767 211.878 24.3467 212.111 24.06C212.351 23.7733 212.618 23.55 212.911 23.39C213.205 23.2233 213.505 23.14 213.811 23.14C214.045 23.14 214.258 23.1933 214.451 23.3C214.645 23.4 214.798 23.5667 214.911 23.8V23.25C214.911 23.1833 214.981 23.15 215.121 23.15C215.235 23.15 215.355 23.1733 215.481 23.22C215.608 23.2667 215.671 23.33 215.671 23.41V23.43ZM214.901 24.2C214.841 24.26 214.785 24.29 214.731 24.29C214.705 24.29 214.681 24.2767 214.661 24.25C214.548 24.0567 214.415 23.92 214.261 23.84C214.115 23.76 213.965 23.72 213.811 23.72C213.605 23.72 213.395 23.7833 213.181 23.91C212.975 24.03 212.781 24.2033 212.601 24.43C212.428 24.65 212.288 24.9133 212.181 25.22C212.075 25.52 212.021 25.8467 212.021 26.2C212.021 26.7067 212.108 27.0633 212.281 27.27C212.455 27.4767 212.675 27.58 212.941 27.58C213.261 27.58 213.565 27.4767 213.851 27.27C214.138 27.0567 214.375 26.7633 214.561 26.39C214.755 26.0167 214.861 25.5833 214.881 25.09C214.888 24.9967 214.891 24.8667 214.891 24.7C214.891 24.5333 214.895 24.3667 214.901 24.2ZM217.593 29.64C217.467 29.64 217.323 29.6267 217.163 29.6C217.003 29.5733 216.847 29.4967 216.693 29.37C216.66 29.3367 216.643 29.2933 216.643 29.24C216.643 29.1467 216.677 29.04 216.743 28.92C216.81 28.8067 216.887 28.75 216.973 28.75C217.02 28.75 217.063 28.7733 217.103 28.82C217.19 28.9067 217.283 28.96 217.383 28.98C217.483 29 217.577 29.01 217.663 29.01C217.77 29.01 217.873 28.97 217.973 28.89C218.08 28.81 218.18 28.6667 218.273 28.46L218.713 27.54L217.253 24.23C217.207 24.13 217.14 23.9967 217.053 23.83C216.973 23.6633 216.903 23.5267 216.843 23.42C216.83 23.3933 216.823 23.3733 216.823 23.36C216.823 23.3067 216.863 23.2667 216.943 23.24C217.03 23.2133 217.123 23.2 217.223 23.2C217.317 23.2 217.4 23.21 217.473 23.23C217.553 23.25 217.6 23.2833 217.613 23.33C217.66 23.45 217.707 23.5733 217.753 23.7C217.807 23.82 217.86 23.9433 217.913 24.07L219.073 26.76L220.303 24.17C220.37 24.0367 220.433 23.8867 220.493 23.72C220.56 23.5533 220.617 23.3933 220.663 23.24C220.683 23.18 220.74 23.15 220.833 23.15C220.933 23.15 221.04 23.1867 221.153 23.26C221.267 23.3333 221.323 23.4233 221.323 23.53C221.323 23.57 221.313 23.61 221.293 23.65C221.24 23.75 221.177 23.87 221.103 24.01C221.03 24.1433 220.963 24.27 220.903 24.39L218.793 28.82C218.66 29.1 218.507 29.3067 218.333 29.44C218.167 29.5733 217.953 29.64 217.693 29.64H217.593ZM222.803 26.04V26.14C222.803 26.5733 222.913 26.9233 223.133 27.19C223.36 27.4567 223.64 27.59 223.973 27.59C224.4 27.59 224.79 27.5233 225.143 27.39C225.503 27.25 225.817 27.0367 226.083 26.75C226.13 26.6967 226.173 26.66 226.213 26.64C226.253 26.6133 226.287 26.6 226.313 26.6C226.38 26.6 226.413 26.64 226.413 26.72C226.413 26.78 226.363 26.8867 226.263 27.04C226.17 27.1933 226.023 27.36 225.823 27.54C225.623 27.7133 225.37 27.8633 225.063 27.99C224.757 28.1167 224.393 28.18 223.973 28.18C223.633 28.18 223.323 28.0967 223.043 27.93C222.77 27.7567 222.553 27.51 222.393 27.19C222.233 26.87 222.153 26.49 222.153 26.05V25.91C222.093 25.8633 222.043 25.81 222.003 25.75C221.963 25.69 221.943 25.6367 221.943 25.59C221.943 25.5033 222.007 25.46 222.133 25.46C222.14 25.46 222.153 25.46 222.173 25.46C222.2 25.4533 222.217 25.45 222.223 25.45C222.27 25.21 222.363 24.9567 222.503 24.69C222.65 24.4233 222.833 24.1733 223.053 23.94C223.273 23.7 223.523 23.5067 223.803 23.36C224.09 23.2133 224.397 23.14 224.723 23.14C225.137 23.14 225.463 23.2133 225.703 23.36C225.95 23.5 226.123 23.6833 226.223 23.91C226.33 24.13 226.383 24.36 226.383 24.6C226.383 24.8267 226.363 25.0067 226.323 25.14C226.29 25.2733 226.207 25.3833 226.073 25.47C225.94 25.55 225.723 25.6367 225.423 25.73C225.123 25.8233 224.763 25.9 224.343 25.96C223.93 26.0133 223.46 26.04 222.933 26.04H222.803ZM223.083 25.48C223.577 25.48 223.99 25.4533 224.323 25.4C224.657 25.34 224.933 25.28 225.153 25.22C225.393 25.1467 225.547 25.0667 225.613 24.98C225.687 24.8933 225.723 24.7633 225.723 24.59C225.723 24.01 225.387 23.72 224.713 23.72C224.467 23.72 224.24 23.7767 224.033 23.89C223.827 24.0033 223.643 24.15 223.483 24.33C223.33 24.51 223.2 24.7033 223.093 24.91C222.993 25.11 222.923 25.3 222.883 25.48H223.083ZM227.903 24.33C227.903 24.2633 227.9 24.16 227.893 24.02C227.886 23.88 227.88 23.7367 227.873 23.59C227.873 23.4433 227.873 23.3333 227.873 23.26C227.873 23.1933 227.94 23.16 228.073 23.16C228.18 23.16 228.293 23.1867 228.413 23.24C228.54 23.2867 228.603 23.3533 228.603 23.44C228.603 23.5067 228.596 23.58 228.583 23.66C228.576 23.74 228.573 23.8367 228.573 23.95C228.706 23.73 228.896 23.54 229.143 23.38C229.39 23.22 229.686 23.14 230.033 23.14C230.233 23.14 230.42 23.1733 230.593 23.24C230.766 23.3067 230.906 23.3867 231.013 23.48C231.126 23.5733 231.183 23.66 231.183 23.74C231.183 23.8467 231.143 23.96 231.063 24.08C230.99 24.2 230.91 24.26 230.823 24.26C230.77 24.26 230.723 24.2267 230.683 24.16C230.616 24.0333 230.51 23.94 230.363 23.88C230.223 23.82 230.103 23.79 230.003 23.79C229.723 23.79 229.463 23.8767 229.223 24.05C228.99 24.2233 228.816 24.49 228.703 24.85C228.656 24.9967 228.623 25.16 228.603 25.34C228.583 25.52 228.57 25.7367 228.563 25.99C228.563 26.2433 228.563 26.56 228.563 26.94C228.563 27.1467 228.57 27.3467 228.583 27.54C228.603 27.7333 228.613 27.8867 228.613 28C228.613 28.0667 228.546 28.1 228.413 28.1C228.306 28.1 228.19 28.0733 228.063 28.02C227.943 27.9733 227.883 27.9067 227.883 27.82C227.883 27.7667 227.883 27.68 227.883 27.56C227.89 27.4333 227.893 27.31 227.893 27.19C227.9 27.07 227.903 26.9867 227.903 26.94V24.33ZM233.56 23.9C233.56 24.0333 233.516 24.1433 233.43 24.23C233.35 24.3167 233.22 24.36 233.04 24.36C232.9 24.36 232.776 24.2933 232.67 24.16C232.563 24.02 232.51 23.8867 232.51 23.76C232.51 23.6 232.56 23.48 232.66 23.4C232.76 23.32 232.886 23.28 233.04 23.28C233.166 23.28 233.283 23.35 233.39 23.49C233.503 23.6233 233.56 23.76 233.56 23.9ZM233.56 27.61C233.56 27.7433 233.516 27.8533 233.43 27.94C233.35 28.0267 233.22 28.07 233.04 28.07C232.9 28.07 232.776 28.0033 232.67 27.87C232.563 27.73 232.51 27.5967 232.51 27.47C232.51 27.31 232.56 27.19 232.66 27.11C232.76 27.03 232.886 26.99 233.04 26.99C233.166 26.99 233.283 27.06 233.39 27.2C233.503 27.3333 233.56 27.47 233.56 27.61Z" fill="#1E7594"/>
<rect x="239.5" y="16" width="16" height="16" rx="4" fill="#097FC5"/>
<path d="M244.125 30C243.816 30 243.551 29.8825 243.33 29.6475C243.11 29.4125 243 29.13 243 28.8V27.615C243 27.415 243.042 27.23 243.127 27.06C243.211 26.89 243.323 26.745 243.464 26.625C244.111 26.065 244.596 25.5 244.92 24.93C245.243 24.36 245.47 23.85 245.602 23.4H244.688C244.528 23.4 244.395 23.3425 244.287 23.2275C244.179 23.1125 244.125 22.97 244.125 22.8C244.125 22.63 244.179 22.4875 244.287 22.3725C244.395 22.2575 244.528 22.2 244.688 22.2H245.391C245.259 21.98 245.156 21.745 245.081 21.495C245.006 21.245 244.969 20.98 244.969 20.7C244.969 19.95 245.215 19.3125 245.707 18.7875C246.199 18.2625 246.797 18 247.5 18C248.203 18 248.801 18.2625 249.293 18.7875C249.785 19.3125 250.031 19.95 250.031 20.7C250.031 20.98 249.994 21.245 249.919 21.495C249.844 21.745 249.741 21.98 249.609 22.2H250.312C250.472 22.2 250.605 22.2575 250.713 22.3725C250.821 22.4875 250.875 22.63 250.875 22.8C250.875 22.97 250.821 23.1125 250.713 23.2275C250.605 23.3425 250.472 23.4 250.312 23.4H249.398C249.53 23.85 249.757 24.36 250.08 24.93C250.404 25.5 250.889 26.065 251.536 26.625C251.677 26.745 251.789 26.89 251.873 27.06C251.958 27.23 252 27.415 252 27.615V28.8C252 29.13 251.89 29.4125 251.67 29.6475C251.449 29.8825 251.184 30 250.875 30H244.125ZM244.125 28.8H250.875V27.6C250.012 26.88 249.389 26.1375 249.005 25.3725C248.62 24.6075 248.363 23.95 248.231 23.4H246.769C246.638 23.95 246.38 24.6075 245.995 25.3725C245.611 26.1375 244.987 26.88 244.125 27.6V28.8ZM247.5 22.2C247.894 22.2 248.227 22.055 248.498 21.765C248.77 21.475 248.906 21.12 248.906 20.7C248.906 20.28 248.77 19.925 248.498 19.635C248.227 19.345 247.894 19.2 247.5 19.2C247.106 19.2 246.773 19.345 246.502 19.635C246.23 19.925 246.094 20.28 246.094 20.7C246.094 21.12 246.23 21.475 246.502 21.765C246.773 22.055 247.106 22.2 247.5 22.2Z" fill="white"/>
<path d="M323 20.5C323 17.1863 325.686 14.5 329 14.5H410C413.314 14.5 416 17.1863 416 20.5V27.5C416 30.8137 413.314 33.5 410 33.5H329C325.686 33.5 323 30.8137 323 27.5V20.5Z" fill="#FFF9F2"/>
<path d="M410.359 13.5091C411.856 13.5963 413.282 14.1023 414.61 15.2826C414.611 15.2832 414.611 15.2838 414.612 15.2845C414.8 15.4547 414.984 15.6403 415.162 15.8425C416.056 16.8614 416.907 18.4064 416.902 20.5C416.893 21.5483 416.885 22.7299 416.879 24.0782C416.873 25.2982 416.863 26.4426 416.849 27.5C416.811 30.3701 415.067 32.2605 413.797 33.0485C413.446 33.2583 413.096 33.522 412.081 33.867C411.571 34.028 410.9 34.1881 410 34.1872C409.75 34.1861 409.482 34.185 409.192 34.1837C408.54 34.1808 407.782 34.1775 406.893 34.1734C403.953 34.1599 399.345 34.1641 395.099 34.1681C392.522 34.1705 390.078 34.1728 388.221 34.1709C385.506 34.1681 382.886 34.1555 380.038 34.1418C377.43 34.1293 374.63 34.1157 371.39 34.108C368.905 34.1021 366.49 34.0513 364.036 33.9946C363.723 33.9874 363.41 33.9801 363.096 33.9727C360.93 33.9221 358.716 33.8703 356.322 33.8407C352.055 33.7878 348.65 33.8096 344.879 33.8338C343.405 33.8433 341.874 33.8531 340.214 33.859C337.588 33.8682 333.814 33.8664 330.025 33.8637C329.702 33.8635 329.378 33.8633 329.056 33.8631C329.054 33.8631 329.053 33.8631 329.051 33.8631C329.034 33.8631 329.017 33.8631 329 33.8631C325.155 33.9492 322.498 30.232 322.637 27.6114C322.637 27.5741 322.636 27.537 322.636 27.5C322.628 23.6091 322.608 22.131 322.591 20.8964C322.589 20.7624 322.587 20.6311 322.586 20.5C322.582 20.1505 322.603 19.8008 322.666 19.4107C322.867 17.452 324.908 14.5274 328.055 14.1326C328.066 14.1309 328.078 14.1292 328.089 14.1276C328.593 14.0559 329.004 14.1219 329 14.1897C328.996 14.26 328.598 14.3072 328.116 14.3767C326.568 14.5879 325.189 15.4271 324.311 16.4613C324.31 16.5542 324.108 16.8554 323.876 17.2183C323.587 17.6834 322.94 18.7615 322.949 20.5C322.969 22.0585 322.998 24.0757 323.033 26.5132C323.043 26.1635 323.054 25.8707 323.064 25.614C323.076 25.3128 323.086 25.082 323.094 24.8836C323.112 24.47 323.124 24.1949 323.133 23.7064C323.14 22.8996 323.143 21.7639 323.145 20.5C323.146 20.0031 323.21 19.4873 323.346 18.9816C323.465 18.5343 323.672 18.2165 323.733 18.2468C323.796 18.2775 323.698 18.6283 323.586 19.0538C323.584 19.0621 323.581 19.0705 323.579 19.0788C323.456 19.547 323.396 20.0299 323.396 20.5C323.394 21.7913 323.39 22.981 323.383 23.832C323.38 24.1326 323.377 24.3916 323.374 24.586C323.372 24.7415 323.368 24.9355 323.364 25.0434C323.364 25.0577 323.363 25.085 323.361 25.1176C323.361 25.1181 323.361 25.1186 323.361 25.1192C323.36 25.1374 323.355 25.2304 323.345 25.3295C323.343 25.3495 323.339 25.3931 323.331 25.4436C323.331 25.4567 323.33 25.4697 323.33 25.4828C323.322 25.6646 323.314 25.8502 323.306 26.051C323.292 26.4098 323.276 26.8645 323.259 27.5C323.246 28.2131 323.323 29.2256 323.983 30.4206C324.646 31.6545 326.373 33.339 329 33.3515C330.558 33.3564 332.288 33.3588 334.156 33.359C333.817 33.3538 333.477 33.3488 333.138 33.3439C332.283 33.3318 331.425 33.3208 330.567 33.3102C330.238 33.3062 329.913 33.3023 329.583 33.2984C329.389 33.2961 329.194 33.2938 329 33.2916C328.672 33.2877 328.346 33.2565 328.025 33.198C327.683 33.1359 327.347 33.0427 327.022 32.92C327.022 32.9197 327.021 32.9195 327.02 32.9192C326.57 32.7486 326.141 32.5211 325.744 32.2413C325.606 32.1433 325.473 32.0405 325.346 31.9331C324.842 31.5042 324.409 31.004 324.048 30.3522C324.005 30.2725 323.961 30.1844 323.929 30.1181C323.896 30.0469 323.865 29.9773 323.837 29.9114C323.813 29.8532 323.791 29.7971 323.77 29.7431C323.767 29.7359 323.765 29.7286 323.762 29.7214C323.739 29.661 323.719 29.603 323.7 29.5469C323.68 29.4909 323.663 29.4366 323.646 29.3833C323.646 29.3828 323.646 29.3823 323.646 29.3818C323.628 29.326 323.616 29.2834 323.599 29.2238C323.577 29.1488 323.56 29.0847 323.54 29.0062C323.521 28.93 323.502 28.8509 323.485 28.7703C323.468 28.6897 323.452 28.6073 323.437 28.5236C323.423 28.4398 323.41 28.3537 323.4 28.2676C323.389 28.1814 323.38 28.0926 323.373 28.0048C323.365 27.9167 323.36 27.826 323.357 27.7364C323.355 27.6558 323.356 27.576 323.36 27.5C323.366 27.3741 323.377 27.2584 323.392 27.1637C323.415 27.0086 323.446 26.9222 323.478 26.9232C323.511 26.9243 323.542 27.0128 323.565 27.1694C323.579 27.2631 323.589 27.3767 323.596 27.5C323.6 27.5753 323.604 27.654 323.608 27.7334C323.61 27.787 323.614 27.8419 323.618 27.8962C323.621 27.9285 323.623 27.961 323.626 27.9933C323.635 28.0798 323.645 28.1686 323.658 28.2561C323.671 28.3434 323.686 28.4327 323.703 28.5212C323.72 28.6098 323.74 28.7006 323.762 28.7909C323.783 28.881 323.808 28.9736 323.836 29.066C323.862 29.1563 323.895 29.2592 323.927 29.3498C323.95 29.4164 323.979 29.498 324.006 29.5654C324.033 29.6357 324.061 29.7048 324.09 29.7707C324.118 29.8367 324.147 29.9002 324.175 29.9604C324.178 29.9668 324.181 29.9732 324.184 29.9796C324.21 30.0327 324.235 30.0834 324.26 30.1311C324.288 30.1844 324.315 30.2344 324.341 30.2813C324.371 30.333 324.39 30.3641 324.413 30.402C324.72 30.9016 325.209 31.4548 325.769 31.8639C325.838 31.9156 325.909 31.9655 325.98 32.013C326.358 32.2657 326.767 32.47 327.194 32.6198C327.504 32.7287 327.825 32.8092 328.151 32.8599C328.431 32.9034 328.715 32.9251 329 32.9247C329.224 32.9245 329.448 32.9243 329.672 32.9241C330.006 32.9239 330.334 32.9237 330.667 32.9236C331.537 32.9234 332.41 32.9237 333.285 32.9252C334.158 32.9267 335.036 32.9293 335.915 32.9338C336.791 32.9382 337.701 32.9448 338.579 32.9549C339.225 32.9624 339.887 32.9755 340.5 32.9891C340.829 32.9964 341.152 33.0038 341.469 33.0112C341.47 33.0112 341.471 33.0112 341.472 33.0113C341.751 33.0178 342.027 33.0242 342.3 33.0303C342.886 33.0435 343.461 33.0552 344.037 33.0651C344.612 33.075 345.184 33.0831 345.76 33.0893C346.333 33.0954 346.914 33.0999 347.49 33.1026C348.069 33.1054 348.638 33.1065 349.235 33.1064C350.02 33.1061 350.8 33.1039 351.601 33.1013C352.395 33.0986 353.196 33.0952 354 33.0917C354.28 33.0905 354.562 33.0894 354.843 33.0882C354.845 33.0882 354.846 33.0882 354.847 33.0882C355.368 33.0859 355.89 33.0837 356.413 33.0815C357.22 33.0781 358.029 33.0749 358.841 33.0723C359.653 33.0697 360.47 33.0677 361.292 33.067C362.113 33.0663 362.957 33.0667 363.804 33.0707C364.56 33.0742 365.322 33.0789 366.067 33.0836C366.264 33.0848 366.461 33.086 366.657 33.0872C367.591 33.0929 368.495 33.0975 369.388 33.0983C370.281 33.0993 371.174 33.0967 372.074 33.0912C372.972 33.0858 373.881 33.0777 374.798 33.0679C375.718 33.0581 376.627 33.0468 377.554 33.0344C378.474 33.022 379.398 33.0087 380.334 32.9947C380.854 32.9869 381.407 32.9798 381.93 32.9737C382.458 32.9676 382.983 32.9621 383.5 32.9571C383.71 32.955 383.92 32.9531 384.127 32.9511C384.43 32.9482 384.73 32.9454 385.026 32.9424C385.524 32.9374 386.011 32.9321 386.483 32.9258C386.955 32.9196 387.414 32.9123 387.857 32.9034C388.315 32.8941 388.693 32.8847 389.145 32.8713C390.245 32.8453 390.927 32.8374 391.685 32.8284C391.834 32.8267 391.987 32.8248 392.146 32.8228C393.054 32.8128 393.962 32.8053 394.858 32.7996C395.762 32.7939 396.653 32.7901 397.554 32.7879C398.448 32.7857 399.347 32.7852 400.243 32.7861C401.137 32.787 402.03 32.7894 402.926 32.7933C403.82 32.7972 404.734 32.8027 405.61 32.8094C406.117 32.8132 406.655 32.8184 407.155 32.8237C407.516 32.8275 407.871 32.8315 408.22 32.8354C408.362 32.837 408.504 32.8386 408.644 32.8401C409.109 32.8453 409.562 32.8501 410 32.8539C410.015 32.854 410.03 32.8541 410.045 32.8541C410.451 32.8546 410.843 32.809 411.217 32.7233C411.591 32.6374 411.948 32.5116 412.287 32.3488C412.637 32.1782 412.915 32.0076 413.241 31.7533C413.452 31.5866 413.647 31.4076 413.826 31.2164C414.096 30.9301 414.331 30.617 414.53 30.2802C414.729 29.9438 414.888 29.591 415.007 29.2239C415.045 29.1058 415.08 28.9801 415.11 28.8591C415.201 28.4861 415.25 28.1082 415.258 27.7299C415.26 27.6535 415.26 27.5769 415.258 27.5C415.251 27.1586 415.245 26.8195 415.237 26.4814C415.228 26.0555 415.219 25.6368 415.209 25.2097C415.192 24.4839 415.184 23.7891 415.178 23.1807C415.173 22.565 415.17 21.9896 415.167 21.4296C415.167 21.3247 415.166 21.2198 415.165 21.115C415.164 20.9084 415.163 20.7035 415.162 20.5C415.161 20.2905 415.148 20.0851 415.122 19.8821C415.064 19.4219 414.945 18.9794 414.769 18.5594C414.595 18.1431 414.362 17.7467 414.086 17.3939C413.806 17.0381 413.495 16.732 413.123 16.4536C412.755 16.1795 412.344 15.9495 411.869 15.7728C411.397 15.5976 410.877 15.488 410.345 15.4627C410.23 15.4571 410.116 15.4554 410 15.4574C409.502 15.4649 409 15.4714 408.501 15.4768C407.863 15.4836 407.223 15.4889 406.592 15.4925C405.958 15.4962 405.328 15.4983 404.7 15.4993C404.075 15.5003 403.428 15.5002 402.823 15.499C401.843 15.497 400.868 15.4943 399.891 15.4913C398.919 15.4883 397.944 15.4849 396.971 15.4813C396 15.4777 395.028 15.474 394.058 15.47C393.087 15.4661 392.116 15.4621 391.147 15.4581C390.932 15.4572 390.718 15.4563 390.504 15.4554C389.749 15.4522 388.994 15.4491 388.242 15.446C388.237 15.446 388.232 15.4459 388.227 15.4459C387.259 15.442 386.309 15.4381 385.35 15.4349C384.998 15.4337 384.659 15.4326 384.315 15.4317C383.971 15.4308 383.633 15.4301 383.292 15.4295C382.951 15.429 382.612 15.4287 382.277 15.4287C381.94 15.4287 381.61 15.429 381.278 15.4298C380.973 15.4305 380.671 15.4317 380.34 15.4331C380.31 15.4332 380.28 15.4333 380.25 15.4334C379.888 15.4349 379.477 15.4358 379.095 15.4351C378.082 15.4332 377.095 15.4322 376.091 15.4323C375.086 15.4324 374.083 15.4335 373.071 15.435C372.676 15.4356 372.28 15.4363 371.883 15.437C371.265 15.438 370.646 15.439 370.024 15.4398C369.001 15.4411 367.977 15.4417 366.945 15.4409C365.918 15.4401 364.883 15.4378 363.854 15.4339C362.825 15.43 361.787 15.4245 360.763 15.4176C359.622 15.4098 358.488 15.4011 357.348 15.3922C356.211 15.3832 355.073 15.3737 353.939 15.3641C352.802 15.3544 351.667 15.3445 350.533 15.3343C349.397 15.3241 348.262 15.3137 347.127 15.3031C346.447 15.2967 345.768 15.2902 345.088 15.2836C344.728 15.2895 344.383 15.2953 344.052 15.3007C341.601 15.3411 339.829 15.3702 337.491 15.3902C337.267 15.3932 337.085 15.3976 336.863 15.4028C336.821 15.4038 336.776 15.4048 336.73 15.4058C336.441 15.4126 336.108 15.4196 335.645 15.424C334.722 15.4329 333.307 15.431 331.479 15.3725C331.017 15.3577 330.723 15.2911 330.823 15.2236C330.893 15.1762 331.138 15.141 331.437 15.1293C330.884 15.1213 330.333 15.1129 329.782 15.1046C329.563 15.1012 329.357 15.0857 329.21 15.061C329.064 15.0363 328.989 15.0045 329.001 14.9724C329.014 14.9402 329.114 14.91 329.279 14.888C329.443 14.866 329.66 14.8542 329.88 14.8547C330.465 14.8561 331.049 14.8576 331.632 14.8586C332.216 14.8596 332.797 14.8602 333.38 14.8605C333.963 14.8608 334.545 14.8608 335.129 14.8605C335.711 14.8602 336.294 14.8598 336.879 14.8591C337.467 14.8584 338.043 14.8574 338.63 14.8564C338.981 14.8558 339.336 14.8551 339.685 14.8544C339.816 14.8542 339.942 14.8538 340.069 14.8536C340.173 14.8534 340.278 14.8532 340.385 14.853C341.514 14.8505 342.655 14.8478 343.785 14.8448C344.921 14.8418 346.055 14.8387 347.189 14.8354C348.324 14.8321 349.458 14.8286 350.593 14.825C351.727 14.8214 352.86 14.8178 353.996 14.8139C355.127 14.81 356.263 14.8061 357.396 14.8018C358.272 14.7985 359.141 14.795 360.012 14.7912C360.354 14.7847 360.694 14.7786 361.028 14.7728C362.003 14.7557 362.978 14.7332 363.939 14.711C362.229 14.722 360.855 14.7393 359.546 14.7558C359.371 14.758 359.197 14.7602 359.023 14.7624C357.25 14.7845 355.537 14.8032 353.233 14.799C346.679 14.7872 342.88 14.7786 340.512 14.7625C338.145 14.7464 337.128 14.7226 336.178 14.6752C334.837 14.6083 332.248 14.5702 330.947 14.5688C330.475 14.5683 330.093 14.5118 330.095 14.4427C330.098 14.3736 330.483 14.3179 330.955 14.3184C332.329 14.3199 335.131 14.3586 336.727 14.4383C337.438 14.4738 338.256 14.4967 340.587 14.5125C342.918 14.5283 346.683 14.5368 353.249 14.5486C355.47 14.5526 357.119 14.5348 358.873 14.513C359.045 14.5108 359.218 14.5086 359.393 14.5064C359.394 14.5064 359.395 14.5064 359.396 14.5064C361.008 14.4861 362.763 14.4639 365.129 14.4542C370.583 14.4316 377.919 14.3878 379.661 14.3631C380.002 14.3582 380.333 14.3528 380.681 14.3471C382.019 14.3252 383.634 14.2988 387.273 14.2813C388.069 14.2775 389.001 14.2752 390.019 14.2742C391.545 14.2405 393.027 14.2093 394.316 14.1907C395.429 14.1747 396.454 14.1452 397.448 14.113C397.734 14.1037 398.023 14.0939 398.31 14.0843C399.004 14.0609 399.697 14.0376 400.373 14.0196C400.912 14.0052 401.477 13.9879 402.073 13.9696C404.194 13.9047 406.725 13.8271 410 13.8225C410.09 13.8224 410.179 13.8241 410.269 13.8276C414.341 13.9881 416.777 17.6394 416.651 20.5C416.651 20.5497 416.651 20.5993 416.65 20.6487C416.651 20.5988 416.651 20.5493 416.652 20.5C416.656 18.3999 415.771 16.869 414.858 15.8806C414.678 15.687 414.495 15.5118 414.309 15.3527C412.985 14.2437 411.696 13.8451 410.358 13.7596C410.238 13.7534 410.119 13.7504 410 13.7505C404.501 13.7542 402.385 13.7758 400.002 13.836C399.363 13.8521 398.658 13.8736 397.898 13.8968C396.38 13.943 394.643 13.9959 392.777 14.0262C391.039 14.0543 389.095 14.0959 387.036 14.1399C387.035 14.1399 387.034 14.1399 387.033 14.1399C386.631 14.1485 386.224 14.1572 385.813 14.1659C383.309 14.219 380.675 14.2724 378.111 14.3061C377.837 14.3097 377.508 14.3146 377.131 14.3204C374.954 14.3534 371.133 14.4114 366.466 14.3742C365.441 14.366 364.376 14.3487 363.16 14.3289C362.79 14.3229 362.405 14.3165 362.004 14.3102C360.271 14.283 358.166 14.2541 355.363 14.2367C353.05 14.2224 350.231 14.2155 347.304 14.2083C345.862 14.2047 344.393 14.2011 342.946 14.1965C338.575 14.1826 334.569 14.1605 330.571 14.1385C330.57 14.1385 330.569 14.1385 330.568 14.1385C330.096 14.1359 329.726 14.0777 329.742 14.0086C329.759 13.9395 330.156 13.8856 330.628 13.8882C334.629 13.9103 338.622 13.9324 342.979 13.9462C344.404 13.9507 345.861 13.9544 347.297 13.9579C350.239 13.9652 353.097 13.9721 355.432 13.9866C358.283 14.0043 360.426 14.0337 362.183 14.0613C362.606 14.068 363.003 14.0745 363.381 14.0806C364.583 14.1002 365.582 14.1166 366.555 14.1243C371.073 14.1603 374.75 14.1046 376.935 14.0716C377.323 14.0657 377.664 14.0606 377.954 14.0568C380.467 14.0238 383.061 13.9713 385.563 13.9182C385.969 13.9096 386.372 13.9011 386.773 13.8925C386.774 13.8924 386.775 13.8924 386.776 13.8924C388.835 13.8484 390.814 13.8061 392.584 13.7774C394.381 13.7482 395.948 13.7003 397.414 13.6554C398.201 13.6314 398.958 13.6083 399.706 13.5894C402.236 13.5255 404.471 13.504 410 13.5002C410.119 13.5001 410.238 13.5031 410.359 13.5091ZM332.292 15.1414C333.429 15.1728 334.355 15.1794 335.045 15.1773C334.459 15.1702 333.875 15.1627 333.29 15.155C332.957 15.1506 332.625 15.1461 332.292 15.1414ZM390.158 14.5243C389.974 14.5284 389.788 14.5325 389.602 14.5367C390.116 14.5347 390.63 14.5329 391.144 14.5311C391.774 14.5288 392.404 14.5267 393.034 14.5246C392.032 14.5238 391.062 14.5235 390.158 14.5243ZM410.268 14.0782C410.179 14.0745 410.089 14.0728 410 14.0729C406.925 14.0775 404.603 14.1484 402.503 14.2126C401.883 14.2315 401.28 14.2499 400.685 14.2658C400.438 14.2724 400.191 14.2797 399.942 14.2874C401.391 14.2913 402.723 14.2954 403.813 14.2989C406.71 14.308 408.495 14.3259 410 14.3429C410.192 14.345 410.377 14.3558 410.559 14.3743C411.039 14.4233 411.495 14.5246 411.942 14.678C412.315 14.7934 412.692 14.9509 413.053 15.149C413.559 15.4247 414.063 15.8039 414.479 16.2302C414.898 16.6566 415.26 17.1539 415.538 17.6848C415.818 18.22 416.015 18.793 416.127 19.3792C416.197 19.7507 416.233 20.128 416.235 20.5C416.237 20.6739 416.238 20.8464 416.239 21.0171C416.239 21.047 416.239 21.0769 416.24 21.1068C416.243 21.6585 416.247 22.1952 416.252 22.6883C416.257 23.1903 416.264 23.6076 416.273 23.978C416.284 24.4405 416.295 24.915 416.306 25.3842C416.316 25.8539 416.326 26.3216 416.335 26.788C416.339 27.0263 416.344 27.2633 416.348 27.5C416.352 27.7414 416.343 27.9813 416.32 28.2212C416.304 28.3798 416.282 28.5447 416.255 28.7002C416.242 28.7716 416.228 28.8435 416.214 28.9145C416.317 28.4592 416.372 27.9836 416.373 27.5C416.374 27.0151 416.374 26.5214 416.375 26.0192C416.378 24.6122 416.387 23.1102 416.396 21.4533C416.397 21.1411 416.399 20.8235 416.401 20.5C416.514 17.7744 414.241 14.2573 410.268 14.0782ZM404.325 33.8935C404.719 33.8929 405.297 33.8909 406.042 33.8884C406.219 33.8878 406.404 33.8871 406.599 33.8864C406.595 33.8864 406.59 33.8864 406.585 33.8863C406.103 33.8799 405.657 33.8744 405.176 33.8692C404.318 33.8601 403.485 33.8523 402.644 33.8455C401.799 33.8388 400.957 33.8333 400.113 33.8289C399.269 33.8246 398.422 33.8214 397.582 33.8195C396.734 33.8177 395.899 33.8169 395.055 33.8178C394.786 33.8181 394.517 33.8186 394.247 33.8192C394.849 33.8255 395.474 33.8307 396.134 33.8361C396.661 33.8405 397.21 33.8451 397.788 33.8505C398.01 33.8526 398.277 33.8558 398.59 33.8596C399.828 33.8744 401.77 33.8977 404.325 33.8935ZM387.517 33.8881C387.321 33.8898 387.126 33.8913 386.934 33.8925C386.386 33.8961 385.852 33.8981 385.329 33.8996C384.961 33.9007 384.598 33.9015 384.24 33.9023C384.089 33.9027 383.938 33.903 383.788 33.9034C383.538 33.904 383.289 33.9047 383.042 33.9055C384.773 33.913 386.466 33.9188 388.229 33.9206C388.253 33.9206 388.276 33.9206 388.299 33.9206C388.032 33.9096 387.772 33.8987 387.517 33.8881Z" fill="#F3832D"/>
<mask id="mask0_8374_1363" style="mask-type:alpha" maskUnits="userSpaceOnUse" x="329" y="18" width="12" height="12">
<rect x="329" y="18" width="12" height="12" fill="#D9D9D9"/>
</mask>
<g mask="url(#mask0_8374_1363)">
<path d="M339.22 25.1333H333.374C333.226 25.1333 333.101 25.0822 333.001 24.98C332.9 24.8778 332.85 24.7511 332.85 24.6C332.85 24.4489 332.9 24.3222 333.001 24.22C333.101 24.1178 333.226 24.0667 333.374 24.0667H339.22L338.774 23.6133C338.669 23.5067 338.619 23.3822 338.623 23.24C338.628 23.0978 338.678 22.9733 338.774 22.8667C338.879 22.76 339.004 22.7044 339.148 22.7C339.292 22.6955 339.416 22.7467 339.521 22.8533L340.871 24.2267C340.976 24.3333 341.029 24.4578 341.029 24.6C341.029 24.7422 340.976 24.8667 340.871 24.9733L339.521 26.3467C339.416 26.4533 339.292 26.5044 339.148 26.5C339.004 26.4955 338.879 26.44 338.774 26.3333C338.678 26.2267 338.628 26.1022 338.623 25.96C338.619 25.8178 338.669 25.6933 338.774 25.5867L339.22 25.1333ZM336.52 22.4667V20.8667H331.277V28.3333H336.52V26.7333C336.52 26.5822 336.57 26.4555 336.671 26.3533C336.771 26.2511 336.896 26.2 337.044 26.2C337.193 26.2 337.317 26.2511 337.418 26.3533C337.518 26.4555 337.568 26.5822 337.568 26.7333V28.3333C337.568 28.6267 337.466 28.8778 337.26 29.0867C337.055 29.2955 336.808 29.4 336.52 29.4H331.277C330.989 29.4 330.742 29.2955 330.537 29.0867C330.331 28.8778 330.229 28.6267 330.229 28.3333V20.8667C330.229 20.5733 330.331 20.3222 330.537 20.1133C330.742 19.9044 330.989 19.8 331.277 19.8H336.52C336.808 19.8 337.055 19.9044 337.26 20.1133C337.466 20.3222 337.568 20.5733 337.568 20.8667V22.4667C337.568 22.6178 337.518 22.7444 337.418 22.8467C337.317 22.9489 337.193 23 337.044 23C336.896 23 336.771 22.9489 336.671 22.8467C336.57 22.7444 336.52 22.6178 336.52 22.4667Z" fill="#F3832D"/>
<path d="M339.219 25.5715C339.069 25.6247 338.919 25.6475 338.765 25.6243C338.729 25.619 338.733 25.5779 338.718 25.5712C338.692 25.5589 338.647 25.6033 338.641 25.6033C338.602 25.6039 338.617 25.5319 338.612 25.5291C338.554 25.4999 338.571 25.5819 338.515 25.5898C338.443 25.6001 338.35 25.5854 338.262 25.5814C338.232 25.5798 338.245 25.5249 338.179 25.5295C338.132 25.5328 337.988 25.5953 337.922 25.5285C337.922 25.5033 337.93 25.4755 337.934 25.4495C337.839 25.5545 337.805 25.5499 337.67 25.5243C337.649 25.5203 337.629 25.5634 337.591 25.5475C337.554 25.5315 337.552 25.465 337.477 25.4658C337.45 25.4663 337.434 25.5132 337.393 25.5152C337.276 25.5211 337.054 25.4628 336.959 25.4608C336.77 25.4567 336.668 25.5368 336.5 25.509C336.487 25.507 336.516 25.4555 336.492 25.4545C336.468 25.4535 336.443 25.5216 336.438 25.5233C336.374 25.5408 336.241 25.4495 336.205 25.4606C336.12 25.4876 336.204 25.5176 336.086 25.5305C335.973 25.5428 335.817 25.4541 335.705 25.4368C335.575 25.4166 335.534 25.5455 335.436 25.411C335.093 25.4188 334.749 25.4236 334.405 25.4305C334.406 25.4037 334.407 25.3769 334.409 25.35C334.381 25.3686 334.354 25.3872 334.327 25.4055C334.331 25.3856 334.335 25.3656 334.339 25.3458C334.212 25.4228 334.098 25.4626 333.949 25.4414C333.946 25.441 333.954 25.3876 333.951 25.3862C333.918 25.3761 333.88 25.4172 333.851 25.4075C333.78 25.3843 333.659 25.2678 333.712 25.4103C333.605 25.3915 333.487 25.4045 333.374 25.409C333.284 25.4119 333.188 25.3968 333.107 25.3582C333.009 25.3092 333.028 25.2164 332.994 25.1901C332.961 25.1615 332.937 25.233 332.922 25.2255C332.89 25.2087 332.854 25.1824 332.826 25.1516C332.773 25.0947 332.747 25.0184 332.787 24.9821C332.749 24.9836 332.71 24.9815 332.671 24.9771C332.743 24.9489 332.62 24.6802 332.638 24.6C332.638 24.5995 332.638 24.5989 332.638 24.5984C332.638 24.5847 332.678 24.5836 332.678 24.5738C332.679 24.4643 332.623 24.4233 332.641 24.3088C332.649 24.2696 332.688 24.3503 332.702 24.2497C332.705 24.2418 332.64 24.214 332.712 24.1088C332.734 24.0793 332.76 24.0464 332.791 24.0136C332.908 23.8681 333.196 23.7444 333.374 23.7753C333.384 23.7769 333.394 23.7786 333.404 23.7805C333.417 23.783 333.379 23.8511 333.436 23.8352C333.456 23.8296 333.447 23.7812 333.497 23.7808C333.691 23.7788 333.899 23.8344 334.097 23.7882C334.09 23.8429 334.019 23.9042 334.125 23.8699C334.142 23.8642 334.13 23.8154 334.137 23.8136C334.199 23.7995 334.253 23.8344 334.319 23.8156C334.339 23.81 334.344 23.7717 334.369 23.7626C334.405 23.7491 334.421 23.8037 334.463 23.7805C334.529 23.744 334.539 23.6922 334.621 23.7938C335.085 23.7874 335.546 23.7588 336.008 23.8035C336.142 23.7745 336.265 23.7421 336.404 23.731C336.445 23.7277 336.453 23.7971 336.519 23.7741C336.533 23.7691 336.638 23.6946 336.653 23.8348C336.682 23.8227 336.7 23.8223 336.725 23.8148C336.706 23.7943 336.687 23.7735 336.669 23.7527C336.774 23.7751 336.86 23.7257 336.954 23.7023C337.022 23.6852 336.974 23.7453 337.016 23.7392C337.058 23.7334 337.077 23.7198 337.13 23.7918C337.171 23.7088 337.199 23.767 337.275 23.7692C337.283 23.7694 337.331 23.7372 337.37 23.7437C337.399 23.7483 337.407 23.8001 337.453 23.7921C337.46 23.7909 337.556 23.7267 337.586 23.7208C337.634 23.7116 337.709 23.778 337.718 23.7788C337.852 23.7905 337.903 23.7249 337.998 23.8328C338.017 23.7687 338.096 23.7311 338.16 23.7374C338.24 23.7452 338.402 23.8763 338.424 23.7378C338.518 23.7995 338.507 23.7614 338.618 23.7602C338.719 23.759 338.986 23.812 339.067 23.8043C339.149 23.7969 339.109 23.7198 339.142 23.7096C339.195 23.6925 339.166 23.7493 339.202 23.7485C339.208 23.7484 339.214 23.7482 339.22 23.748L338.993 24.29C338.923 24.2242 338.856 24.1715 338.775 24.122C338.799 24.0902 338.824 24.0581 338.849 24.0262C338.836 24.0319 338.823 24.0376 338.81 24.0433C338.795 24.028 338.778 24.0117 338.765 23.997C338.756 24.2373 338.663 23.8744 338.598 23.8019C338.595 23.7993 338.593 23.7967 338.59 23.7942C338.508 23.7237 338.327 23.5801 338.284 23.4257C338.273 23.3892 338.32 23.4073 338.318 23.3999C338.296 23.3278 338.271 23.3078 338.268 23.2291C338.268 23.2171 338.269 23.2037 338.27 23.1883C338.277 23.1287 338.34 23.0783 338.355 23.0257C338.394 22.8899 338.463 22.7628 338.545 22.6605L338.555 22.6508C338.683 22.4951 338.913 22.3637 339.137 22.3534C339.191 22.3497 339.247 22.3512 339.305 22.36C339.385 22.3723 339.429 22.4567 339.483 22.4825C339.559 22.5206 339.636 22.5073 339.701 22.56C339.721 22.5765 339.738 22.6008 339.752 22.6268C339.767 22.6683 339.776 22.7178 339.798 22.7299C339.829 22.7478 339.832 22.6618 339.864 22.7189C339.879 22.7452 339.81 22.7412 339.834 22.7678C339.909 22.8508 340.061 22.9232 340.105 23.0475C340.111 23.034 340.115 23.02 340.12 23.0061C340.205 23.1006 340.26 23.2042 340.349 23.3012C340.38 23.3352 340.467 23.3655 340.498 23.3978C340.53 23.4301 340.513 23.4759 340.537 23.5025C340.547 23.5135 340.571 23.4815 340.578 23.4892C340.658 23.5853 340.655 23.6837 340.752 23.7711C340.853 23.8616 340.954 23.9532 341.056 24.0454C341.198 24.1712 341.308 24.3912 341.31 24.6C341.324 24.8074 341.227 25.0427 341.088 25.1866C341.041 25.2406 340.993 25.2946 340.946 25.3484C340.933 25.3631 340.96 25.4087 340.946 25.4344C340.924 25.474 340.889 25.4435 340.884 25.4465C340.85 25.4668 340.891 25.4853 340.855 25.522C340.776 25.6026 340.621 25.7064 340.545 25.789C340.368 25.9795 340.244 26.1635 340.08 26.3593C340.068 26.3736 340.033 26.3217 340.01 26.3439C339.899 26.4507 339.868 26.5196 339.792 26.6131C339.735 26.6776 339.651 26.7572 339.501 26.816C339.399 26.856 339.266 26.879 339.136 26.8691C338.931 26.8621 338.672 26.7419 338.529 26.5741L338.519 26.5632C338.375 26.3986 338.296 26.1539 338.3 25.9699C338.3 25.9192 338.304 25.8689 338.312 25.8211C338.312 25.8211 338.312 25.8212 338.312 25.8212C338.224 25.6443 338.369 25.404 338.534 25.3505C338.544 25.3485 338.554 25.3469 338.564 25.3455C338.56 25.3538 338.557 25.362 338.554 25.3702C338.448 25.5549 338.403 25.7851 338.44 25.9656C338.47 26.1408 338.555 26.3081 338.671 26.4258C338.794 26.5471 338.968 26.6324 339.143 26.6389C339.313 26.6531 339.508 26.5792 339.63 26.4533C339.687 26.3976 339.744 26.3406 339.8 26.2815C340.177 25.8857 340.493 25.3919 340.857 24.959C340.945 24.8552 340.992 24.7291 340.992 24.6C340.992 24.5676 340.99 24.5354 340.985 24.5037C340.975 24.4434 341.025 24.3928 340.984 24.3445C340.978 24.3373 340.946 24.382 340.928 24.3602C340.898 24.3256 340.866 24.2943 340.833 24.2647C340.557 24.0215 340.349 23.6891 340.08 23.4551C339.998 23.3836 339.947 23.4103 339.869 23.3523C339.9 23.3459 339.927 23.3345 339.956 23.3264C339.835 23.1458 339.693 22.9851 339.545 22.83C339.446 22.7227 339.294 22.6591 339.147 22.667C339.057 22.6696 338.967 22.6923 338.886 22.7353C338.868 22.7452 338.837 22.7004 338.815 22.7124C338.771 22.7372 338.776 22.8123 338.751 22.8401C338.751 22.8408 338.75 22.8415 338.749 22.8422C338.718 22.8793 338.679 22.8617 338.654 22.9038C338.642 22.9252 338.68 22.94 338.651 22.9802C338.649 22.9836 338.608 22.9663 338.599 23.0014C338.583 23.0604 338.576 23.1598 338.59 23.239C338.597 23.2878 338.611 23.3296 338.62 23.3555C338.649 23.4394 338.632 23.5345 338.651 23.5709C338.683 23.6288 338.718 23.6295 338.751 23.6365C338.77 23.64 338.789 23.6463 338.809 23.6669C338.945 23.8045 339.071 23.9466 339.196 24.0903L339.22 24.0329C338.866 24.0104 338.513 23.9782 338.145 23.9786C338.109 23.9786 337.978 24.0534 337.912 24.0504C337.89 24.0492 337.774 24.0294 337.757 24.0278C337.687 24.0215 337.626 23.9764 337.588 23.9669C337.513 23.9483 337.429 24.0189 337.388 24.026C337.317 24.0385 337.189 24.0292 337.159 24.0274C337.087 24.0229 337.111 23.9357 337.058 23.956C337.043 23.9621 337.059 24.029 337.005 24.029C336.959 24.0288 336.941 23.9784 336.91 23.9693C336.879 23.9603 336.822 24.0382 336.803 24.0363C336.701 24.0254 336.657 23.9743 336.546 23.9717C336.455 23.9697 336.032 24.0054 335.997 24.0238C335.84 24.1058 336.102 24.069 336.117 24.0717C336.196 24.0877 336.185 24.1191 336.264 24.059C336.336 24.2444 336.584 23.9558 336.648 24.1756C336.714 24.0292 336.769 24.103 336.838 24.1325C336.934 24.1732 336.861 24.0879 336.931 24.0872C336.959 24.0871 337.038 24.1536 337.08 24.1443C337.121 24.135 337.139 24.084 337.194 24.0812C337.293 24.076 337.373 24.0998 337.456 24.1609C337.471 24.1338 337.485 24.1068 337.5 24.0798C337.558 24.1088 337.616 24.1377 337.673 24.1665C337.664 24.1429 337.655 24.1191 337.645 24.0955C337.662 24.0921 337.679 24.0889 337.696 24.0857C337.752 24.1211 337.805 24.154 337.862 24.1907C338.018 24.0542 337.973 24.1723 338.06 24.1901C338.147 24.2078 338.197 24.1288 338.264 24.1284C338.354 24.1278 338.395 24.1179 338.486 24.1236C338.539 24.1268 338.629 24.203 338.555 24.0822C338.72 24.0726 338.945 24.0389 339.092 24.0879C339.136 24.1022 339.078 24.1402 339.085 24.1449C339.122 24.1673 339.153 24.1056 339.191 24.1145C339.2 24.1164 339.209 24.119 339.22 24.122L339.35 24.1258L339.259 24.0278C339.226 23.9667 339.184 23.8706 339.161 23.8329C339.122 23.7704 338.986 23.746 338.974 23.7419C338.906 23.7187 338.941 23.6599 338.923 23.6484C338.866 23.6118 338.829 23.596 338.821 23.5674C338.816 23.5464 338.828 23.5169 338.868 23.4684C338.81 23.5001 338.657 23.4385 338.749 23.3781C338.66 23.409 338.648 23.3063 338.631 23.2423C338.632 23.2416 338.634 23.241 338.635 23.2404C338.661 23.2299 338.686 23.2206 338.712 23.213C338.607 23.127 338.674 22.9583 338.79 22.881C338.851 22.8401 338.917 22.8181 338.969 22.8023C338.973 22.8013 338.952 22.7344 338.983 22.7395C338.985 22.7401 338.993 22.7699 339.01 22.7685C339.036 22.7659 339.097 22.7717 339.15 22.7903C339.214 22.8107 339.257 22.8466 339.266 22.8497C339.328 22.873 339.363 22.8378 339.408 22.8625C339.437 22.8808 339.444 22.9031 339.45 22.9238C339.457 22.945 339.465 22.966 339.492 22.9886C339.518 23.011 339.584 22.9905 339.616 23.0351C339.634 23.0615 339.602 23.0974 339.617 23.1182C339.671 23.1923 339.739 23.2183 339.75 23.3192C339.874 23.2271 339.82 23.3333 339.84 23.3696C339.919 23.5173 340.106 23.6151 340.193 23.7233C340.376 23.9519 340.527 24.1808 340.692 24.4024C340.738 24.4762 340.742 24.5271 340.738 24.5917C340.738 24.5946 340.739 24.5973 340.739 24.6C340.747 24.6256 340.81 24.644 340.797 24.6798C340.789 24.6976 340.732 24.6931 340.721 24.7122C340.712 24.7277 340.716 24.7706 340.692 24.7949C340.692 24.7953 340.691 24.7955 340.69 24.7956C340.678 24.8001 340.644 24.7696 340.63 24.7832C340.518 24.893 340.437 25.0283 340.344 25.1592C340.309 25.2077 340.234 25.1853 340.327 25.2623C340.29 25.2577 340.257 25.2553 340.221 25.2499C340.218 25.3606 340.116 25.3525 340.053 25.444C340.046 25.4541 340.048 25.5711 339.972 25.5625C340 25.5949 340.031 25.6151 340.058 25.6432C340.037 25.6877 339.952 25.7038 339.927 25.7225C339.901 25.7413 339.926 25.7951 339.92 25.8022C339.896 25.8286 339.85 25.7715 339.847 25.7726C339.68 25.8423 339.72 25.8571 339.728 26.0056C339.73 26.0429 339.553 26.1086 339.59 26.1939C339.564 26.1703 339.548 26.1417 339.526 26.1162C339.484 26.1465 339.441 26.1768 339.398 26.2072C339.43 26.2232 339.464 26.2376 339.495 26.2544C339.48 26.2627 339.468 26.2726 339.457 26.2835C339.408 26.3331 339.384 26.4168 339.317 26.439C339.273 26.452 339.261 26.3765 339.242 26.3974C339.238 26.4014 339.256 26.4497 339.241 26.4563C339.208 26.4709 339.176 26.4745 339.149 26.4722C339.075 26.465 339.026 26.4262 338.953 26.3824C338.914 26.3574 338.828 26.3883 338.794 26.3137C338.792 26.3062 338.79 26.2967 338.789 26.286C338.784 26.2723 338.81 26.1742 338.685 26.1772C338.712 26.1463 338.725 26.1264 338.75 26.1056C338.581 26.0692 338.685 26.0329 338.738 25.9565C338.747 25.9446 338.754 25.9316 338.761 25.9171C338.776 25.8709 338.799 25.7502 338.86 25.671C338.877 25.6482 338.891 25.6283 338.9 25.6137C338.928 25.5692 338.878 25.522 338.883 25.5136C338.91 25.4636 338.957 25.5099 338.985 25.4662C339.013 25.4225 339.004 25.3245 339.045 25.2923C339.077 25.2676 339.114 25.3476 339.134 25.2856C339.138 25.2726 339.064 25.2485 339.127 25.2235C339.137 25.2195 339.26 25.2017 339.286 25.1987C339.281 25.2665 339.216 25.4144 339.188 25.4673C339.135 25.5727 339.068 25.6846 338.993 25.8013C338.962 25.8735 338.98 25.9035 338.999 25.9485C339.021 26.0055 339.045 26.019 339.089 26.0499L339.076 26.0365C339.125 26.0633 339.128 26.0484 339.162 26.043C339.19 26.0297 339.155 26.0369 339.179 26.0104C339.655 25.4832 340.159 24.9819 340.526 24.6339C340.528 24.632 340.53 24.6303 340.532 24.6288C340.547 24.6174 340.611 24.6488 340.622 24.6364C340.631 24.6268 340.565 24.6189 340.572 24.6144C340.576 24.6116 340.595 24.6083 340.61 24.6C340.619 24.5947 340.627 24.5889 340.628 24.5836C340.633 24.5554 340.637 24.5342 340.605 24.4879C340.447 24.3014 340.287 24.1162 340.124 23.9381C340.061 23.8694 339.971 23.8538 339.912 23.7933C339.888 23.7698 339.937 23.7207 339.92 23.7044C339.739 23.5282 339.528 23.4081 339.358 23.2234C339.325 23.1876 339.299 23.1423 339.274 23.0962C339.268 23.066 339.26 23.0378 339.244 23.0264C339.218 23.0085 339.186 23.0414 339.158 23.0446C339.158 23.0447 339.157 23.0447 339.156 23.0448C339.14 23.046 339.124 22.9956 339.116 22.9928C339.089 22.9843 339.113 23.045 339.104 23.0474C339.084 23.0537 339.034 22.9911 339.006 23.0185C338.996 23.0294 339.028 23.0666 339.019 23.0845C339.015 23.093 339.009 23.0936 339.003 23.0914L339.012 23.0813C339.001 23.078 338.986 23.0659 338.977 23.075C338.976 23.0757 339.006 23.0953 339.001 23.1033C338.974 23.1533 338.984 23.201 338.984 23.2511C338.984 23.2545 338.984 23.2577 338.984 23.2607C338.984 23.3002 338.968 23.3258 339 23.3912C339.064 23.4823 339.127 23.572 339.197 23.6514C339.235 23.6945 339.257 23.6514 339.271 23.6628C339.34 23.7178 339.323 23.7787 339.401 23.8301C339.406 23.8339 339.426 23.8358 339.449 23.8411L339.977 24.4103L339.22 24.3884C339.194 24.405 339.16 24.4215 339.126 24.4123C339.095 24.4036 339.059 24.3639 339.032 24.3546C339.005 24.3454 339.001 24.4039 338.968 24.4039C338.909 24.4041 338.926 24.3636 338.842 24.3708C338.808 24.3736 338.695 24.4291 338.607 24.4248C338.464 24.418 338.287 24.3674 338.118 24.3666C338.061 24.3661 337.986 24.4263 337.897 24.4269C337.787 24.4277 337.585 24.414 337.473 24.4132C337.416 24.4128 337.411 24.3498 337.405 24.3472C337.361 24.3297 337.378 24.4 337.349 24.3973C337.309 24.3934 337.271 24.3415 337.234 24.3381C337.211 24.3359 337.207 24.3878 337.202 24.3882C337.014 24.4053 336.848 24.4005 336.661 24.4061C335.66 24.4359 334.649 24.5025 333.65 24.4725C333.566 24.47 333.563 24.4047 333.489 24.415C333.45 24.4204 333.411 24.4635 333.374 24.4783C333.362 24.4911 333.357 24.4829 333.337 24.413C333.341 24.4442 333.344 24.4663 333.348 24.4947C333.319 24.4684 333.312 24.4864 333.301 24.5153C333.296 24.5278 333.296 24.537 333.295 24.5428C333.292 24.5554 333.284 24.564 333.28 24.6C333.28 24.6026 333.279 24.6051 333.279 24.6076C333.277 24.6333 333.225 24.6475 333.298 24.6415C333.293 24.6539 333.289 24.6647 333.301 24.6849C333.323 24.7166 333.318 24.7256 333.374 24.7382C333.545 24.75 333.716 24.7662 333.886 24.7989C333.976 24.6818 334.062 24.7556 334.187 24.7729C334.203 24.7751 334.186 24.7324 334.232 24.736C334.289 24.7405 334.319 24.8058 334.415 24.8022C334.441 24.8012 334.631 24.7288 334.701 24.7659C334.771 24.803 334.872 24.8247 334.945 24.8602C334.935 24.8322 334.922 24.8054 334.91 24.7778C334.947 24.7729 334.983 24.7683 335.019 24.7634C335.025 24.7971 335.03 24.8308 335.035 24.8647C335.056 24.8326 335.077 24.8009 335.098 24.7685C335.144 24.9415 335.097 24.8851 335.199 24.8413C335.251 24.8195 335.291 24.8497 335.344 24.8322C335.363 24.8258 335.375 24.7748 335.396 24.7683C335.447 24.7526 335.417 24.8227 335.449 24.8223C335.48 24.8217 335.526 24.7447 335.583 24.779C335.524 24.9163 335.696 24.8715 335.704 24.7648C335.724 24.7646 335.742 24.7691 335.764 24.766C335.743 25.0355 335.851 24.8443 335.893 24.8074C335.936 24.7705 335.934 24.8429 335.944 24.8401C335.973 24.8322 335.952 24.8021 335.972 24.8011C336.105 24.7951 336.23 24.8393 336.362 24.8433C336.381 24.8439 336.364 24.803 336.386 24.807C336.408 24.811 336.429 24.8517 336.462 24.8489C336.471 24.8482 336.473 24.8123 336.487 24.8122C336.773 24.8139 337.044 24.8445 337.335 24.8491C337.362 24.8495 337.382 24.7856 337.433 24.7878C337.484 24.79 337.562 24.8477 337.625 24.8522C337.642 24.8534 337.646 24.8002 337.669 24.8016C337.744 24.8064 337.81 24.8497 337.888 24.8568C338.021 24.8687 338.161 24.8362 338.295 24.8677C338.321 24.8735 338.317 24.9179 338.354 24.9304C338.418 24.952 338.394 24.8873 338.406 24.8786C338.449 24.8506 338.462 24.9366 338.503 24.9145C338.509 24.9111 338.5 24.86 338.506 24.8592C338.592 24.8504 338.597 24.9699 338.689 24.9058C338.771 24.9746 338.634 24.998 338.62 25.0345C338.586 25.1232 338.676 25.2274 338.73 25.2609C338.776 25.2898 338.776 25.2345 338.794 25.2345C338.891 25.2343 339.036 25.2238 339.109 25.25C339.154 25.2657 339.074 25.2887 339.096 25.3069C339.119 25.325 339.134 25.2835 339.157 25.3289C339.18 25.3742 339.228 25.5078 339.219 25.5715ZM334.013 23.9257C333.888 24.1079 333.592 24.1218 333.374 24.1093C333.334 24.1068 333.297 24.1074 333.265 24.1107C333.11 24.1141 332.869 24.1394 333.07 24.2795C333.157 24.196 333.25 24.1463 333.374 24.142C333.418 24.141 333.463 24.1409 333.511 24.1427C333.532 24.1435 333.657 24.1661 333.7 24.1701C333.724 24.1724 333.725 24.2125 333.758 24.2121C333.766 24.2119 333.806 24.1594 333.82 24.1609C333.871 24.1655 334.02 24.2461 334.041 24.2437C334.098 24.2369 334.076 24.1745 334.101 24.1631C334.185 24.1256 334.194 24.2194 334.277 24.1889C334.292 24.1835 334.341 24.1018 334.403 24.1125C334.428 24.1169 334.47 24.1591 334.489 24.1571C334.594 24.1462 334.71 24.0903 334.806 24.0996C334.884 24.1073 334.863 24.1703 334.904 24.1788C334.946 24.187 334.996 24.1139 335.024 24.1096C335.069 24.103 335.124 24.1446 335.138 24.144C335.415 24.1316 335.662 24.0835 335.929 24.0661C335.747 24.0373 335.566 24.0108 335.386 23.981C335.284 24.0463 335.334 23.9851 335.267 23.9647C335.214 23.9486 335.201 24.0592 335.131 24.047C335.131 24.047 335.131 24.047 335.131 24.047C335.095 24.0405 335.017 23.9639 334.94 23.9959C334.937 23.9972 334.93 24.0546 334.872 24.0566C334.743 24.061 334.545 24.0905 334.399 24.0782C334.356 24.0746 334.365 24.0143 334.314 24.0068C334.277 24.0014 334.235 24.0572 334.177 24.0447C334.104 24.0288 334.07 23.9328 334.02 24.0661C334.016 24.0185 334.018 23.9721 334.013 23.9257ZM335.067 25.1583C335.077 25.1635 335.214 25.3123 335.173 25.1534C334.99 25.0845 334.792 25.1187 334.599 25.08C334.665 25.2371 334.776 25.1752 334.911 25.1637C334.911 25.1637 334.912 25.1637 334.912 25.1637C334.918 25.1632 334.891 25.2042 334.928 25.1968C334.945 25.1931 335.013 25.1302 335.067 25.1583ZM336.082 22.4641C336.028 22.1176 336.006 21.7717 336.029 21.4153C336.034 21.3341 336.075 21.3418 336.082 21.3084C336.094 21.247 336.05 21.1441 336.05 21.1296C336.049 21.04 336.121 21.0751 336.124 21.063C336.151 20.9394 336.084 20.9622 336.067 20.8667L336.52 21.3199C336.511 21.3214 336.502 21.3225 336.492 21.3231C336.325 21.3334 336.11 21.3187 335.908 21.3147C335.837 21.3131 335.869 21.2583 335.716 21.2629C335.608 21.2661 335.276 21.3286 335.123 21.2618C335.122 21.2366 335.141 21.2088 335.149 21.1828C334.93 21.2879 334.852 21.2832 334.541 21.2576C334.492 21.2536 334.445 21.2968 334.358 21.2808C334.272 21.2649 334.268 21.1984 334.094 21.1992C334.032 21.1996 333.995 21.2465 333.9 21.2485C333.631 21.2544 333.118 21.1961 332.897 21.1941C332.462 21.1901 332.225 21.2701 331.838 21.2423C331.808 21.2403 331.874 21.1889 331.819 21.1879C331.764 21.1869 331.707 21.255 331.693 21.2566C331.59 21.269 331.405 21.227 331.277 21.2052L331.616 20.8667C331.607 20.9196 331.601 20.9629 331.604 20.9866C331.631 21.1842 331.661 20.9895 331.674 21.2633C331.687 21.5241 331.598 21.8841 331.581 22.1425C331.56 22.442 331.689 22.5386 331.555 22.7642C331.563 23.5563 331.567 24.3516 331.574 25.1446C331.547 25.1423 331.521 25.1397 331.494 25.137C331.512 25.1997 331.531 25.2624 331.549 25.3251C331.529 25.3157 331.509 25.3067 331.49 25.2972C331.567 25.5917 331.606 25.8542 331.585 26.1983C331.585 26.2051 331.531 26.1874 331.53 26.1929C331.52 26.2705 331.561 26.3572 331.551 26.4254C331.528 26.59 331.412 26.8697 331.554 26.7466C331.525 27.1304 331.573 27.5815 331.545 27.9473C331.533 28.1056 331.449 28.1531 331.444 28.2288C331.439 28.3045 331.512 28.266 331.515 28.2929C331.516 28.3057 331.517 28.3193 331.518 28.3333L331.277 28.0924C331.439 28.0807 331.666 28.0892 331.692 28.164C331.724 28.1315 331.759 28.0987 331.792 28.066C331.772 28.1561 332.271 28.1189 332.402 28.1211C332.426 28.1215 332.43 28.161 332.448 28.1605C332.649 28.1555 332.698 28.0936 332.87 28.073C332.931 28.0658 332.837 28.1354 332.992 28.1053C333.006 28.1027 332.998 28.0401 333.184 28.0406C333.48 28.0412 334.046 28.0164 334.398 28.0472C334.427 28.0496 334.339 28.1178 334.471 28.1019C334.519 28.0962 334.496 28.0479 334.612 28.0474C335.061 28.0454 335.54 28.1011 335.999 28.0549C335.982 28.1095 335.819 28.1708 336.064 28.1366C336.103 28.1309 336.074 28.0821 336.092 28.0803C336.234 28.0662 336.358 28.101 336.512 28.0823C336.515 28.082 336.517 28.0815 336.52 28.0809L336.267 28.3333C336.259 28.2941 336.224 28.2809 336.216 28.2274C336.202 28.1435 336.257 28.1064 336.234 28.009C336.197 27.8566 336.145 27.8331 336.247 27.6441C336.245 27.3402 336.242 27.0366 336.238 26.7333C336.232 26.5373 336.316 26.3001 336.467 26.1532C336.607 26.0003 336.845 25.9068 337.044 25.9124C337.243 25.9062 337.481 25.9992 337.622 26.1523C337.773 26.2993 337.858 26.5374 337.85 26.7333C337.846 26.9409 337.84 27.1486 337.831 27.3562C337.86 27.6648 337.893 27.9495 337.904 28.2711C337.905 28.2958 337.901 28.3153 337.895 28.3333C337.876 28.3983 337.845 28.4431 337.839 28.5852C337.848 28.6242 337.811 28.9645 337.657 28.9344C337.629 29.0132 337.6 29.0577 337.564 29.1191C337.613 29.0884 337.662 29.0518 337.707 29.0144C337.632 29.1257 337.56 29.221 337.486 29.3085C337.384 29.429 337.269 29.5447 337.119 29.632C336.924 29.7341 337.046 29.6196 336.924 29.6685C336.803 29.7096 336.737 29.7364 336.581 29.6735C336.56 29.6893 336.54 29.7001 336.52 29.707C336.447 29.7387 336.378 29.6992 336.233 29.6974C336.215 29.6972 336.105 29.7294 336.013 29.723C335.948 29.7183 335.928 29.6665 335.824 29.6746C335.806 29.6758 335.585 29.7399 335.515 29.7458C335.405 29.7551 335.231 29.6887 335.21 29.6879C334.902 29.6762 334.783 29.7417 334.564 29.6339C334.52 29.698 334.338 29.7355 334.19 29.7293C334.004 29.7214 333.63 29.5903 333.579 29.7288C333.364 29.6671 333.387 29.7052 333.131 29.7064C332.899 29.7076 332.282 29.6547 332.094 29.6623C331.905 29.6698 331.997 29.7468 331.922 29.7571C331.8 29.7742 331.866 29.7173 331.782 29.7181C331.603 29.72 331.442 29.7266 331.277 29.7403C331.207 29.7448 331.135 29.7454 331.06 29.7403C331.049 29.6984 331.039 29.656 331.031 29.6139C331.015 29.6243 330.998 29.6344 330.98 29.6441C330.92 29.6302 330.852 29.6101 330.798 29.5876C331.167 29.8498 330.538 29.5987 330.341 29.2784C330.296 29.2199 330.259 29.1655 330.231 29.1274C330.092 28.9603 329.886 28.6065 329.876 28.3333C329.875 28.3236 329.874 28.314 329.873 28.3047C329.869 28.2542 329.912 28.2889 329.911 28.2786C329.898 28.1568 329.869 28.1383 329.873 27.9745C329.875 27.8879 329.929 27.7995 329.93 27.7152C329.938 27.0958 329.883 26.4981 329.877 25.8828C329.876 25.7782 329.942 25.6879 329.944 25.5999C329.946 25.4741 329.892 25.3947 329.891 25.2765C329.89 25.1588 329.955 24.9891 329.945 24.9092C329.935 24.8294 329.873 24.966 329.89 24.8199C329.898 24.7527 329.944 24.8713 329.946 24.7884C329.95 24.5294 329.892 24.164 329.948 23.8884C329.934 23.9006 329.922 23.9172 329.909 23.9321C329.914 23.6384 329.947 23.379 329.952 23.0759C329.954 22.9698 329.913 22.7787 329.913 22.6745C329.914 22.5703 329.958 22.5229 329.959 22.4395C329.96 22.4052 329.92 22.4186 329.921 22.3956C329.931 22.1078 330.002 21.9499 329.994 21.6486C329.987 21.3896 329.98 21.1288 329.974 20.8667C329.96 20.5332 330.1 20.1637 330.34 19.9206C330.565 19.6714 330.932 19.5039 331.277 19.5056C331.584 19.4984 331.89 19.4913 332.195 19.484C332.24 19.483 332.271 19.4312 332.336 19.4235C332.438 19.4117 332.443 19.4574 332.456 19.4591C332.545 19.4691 332.509 19.4268 332.627 19.4268C332.888 19.4268 333.31 19.4643 333.57 19.4611C334.17 19.4536 334.674 19.4133 335.263 19.3929C335.305 19.3913 335.276 19.4526 335.35 19.4534C335.839 19.4595 335.964 19.4075 336.52 19.4156C336.563 19.4161 336.609 19.4185 336.657 19.4238C336.921 19.4456 337.279 19.5934 337.519 19.859C337.76 20.1008 337.926 20.5059 337.909 20.8667C337.9 21.249 337.892 21.6235 337.888 21.9245C337.888 21.9245 337.888 21.9245 337.888 21.9245C337.965 22.0858 337.977 22.2792 337.95 22.4667C337.938 22.6048 337.884 22.753 337.797 22.8607C337.847 22.726 337.857 22.5864 337.842 22.4667C337.757 21.9303 337.721 21.4007 337.709 20.8667C337.708 20.5587 337.578 20.2384 337.358 20.0178C337.152 19.7968 336.835 19.6503 336.52 19.6524C336.214 19.648 335.904 19.6448 335.587 19.647C334.189 19.6567 332.713 19.8036 331.277 19.8318C331.022 19.8341 330.778 19.9337 330.594 20.1047C330.582 20.1158 330.57 20.1258 330.559 20.1352C330.467 20.2127 330.386 20.2356 330.336 20.3477C330.328 20.3683 330.398 20.3421 330.372 20.4034C330.311 20.5497 330.284 20.7073 330.286 20.8667C330.299 21.6644 330.226 22.4881 330.252 23.2572C330.26 23.508 330.316 23.5473 330.33 23.7679C330.304 23.7291 330.276 23.7038 330.25 23.67C330.168 24.6768 330.205 25.6852 330.193 26.7051C330.192 26.7511 330.138 26.757 330.136 26.8053C330.132 26.9018 330.191 26.9943 330.194 27.0786C330.196 27.1887 330.153 27.2077 330.156 27.3092C330.157 27.3588 330.199 27.3439 330.192 27.4517C330.191 27.4607 330.148 27.4666 330.153 27.5382C330.169 27.7345 330.205 28.1355 330.216 28.2979C330.217 28.3099 330.217 28.3217 330.218 28.3333C330.221 28.5232 330.215 28.6899 330.242 28.7664C330.328 28.9783 330.389 28.9359 330.505 29.0722C330.513 29.0801 330.52 29.0878 330.527 29.0955C330.721 29.299 330.997 29.4209 331.277 29.4224C332.252 29.4428 333.212 29.4885 334.225 29.488C334.307 29.488 334.611 29.4133 334.763 29.4163C334.814 29.4175 335.08 29.4372 335.12 29.4388C335.282 29.4451 335.422 29.4903 335.511 29.4998C335.685 29.5183 335.878 29.4477 335.972 29.4407C336.138 29.4282 336.432 29.4375 336.501 29.4393C336.508 29.4394 336.514 29.4397 336.52 29.4401C336.67 29.4453 336.631 29.5279 336.755 29.488C336.791 29.4728 336.74 29.421 336.864 29.3834C336.966 29.3479 337.028 29.3706 337.101 29.338C337.177 29.3046 337.235 29.1539 337.266 29.1237C337.272 29.1186 337.277 29.1137 337.283 29.1087C337.442 28.9553 337.555 28.8804 337.63 28.6195C337.644 28.5652 337.662 28.4601 337.659 28.3333C337.649 27.9661 337.625 27.3919 337.611 27.3305C337.529 26.9669 337.566 27.5725 337.563 27.6066C337.547 27.7911 337.516 27.7641 337.576 27.9481C337.494 28.0208 337.505 28.1731 337.523 28.3333C337.553 28.5264 337.506 28.7593 337.36 28.767C337.412 28.9147 337.326 28.9997 337.23 29.0571C337.202 29.0746 337.172 29.0906 337.141 29.1077C336.953 29.2006 337.132 29.1779 336.998 29.2615C336.942 29.2968 336.756 29.2942 336.672 29.3112C336.614 29.3261 336.578 29.3543 336.52 29.3713C336.492 29.3789 336.461 29.3846 336.421 29.3854C336.192 29.3907 336.008 29.3669 335.816 29.3058C335.781 29.3328 335.748 29.3598 335.713 29.3868C335.58 29.3578 335.447 29.3289 335.315 29.3001C335.336 29.3237 335.357 29.3475 335.378 29.3711C335.339 29.3745 335.301 29.3778 335.262 29.381C335.133 29.3455 335.01 29.3126 334.877 29.2759C334.517 29.4124 334.621 29.2943 334.421 29.2765C334.221 29.2588 334.105 29.3378 333.95 29.3383C333.742 29.3389 333.646 29.3487 333.436 29.3431C333.314 29.3399 333.107 29.2636 333.277 29.3844C332.897 29.3941 332.376 29.4278 332.036 29.3788C331.935 29.3645 332.069 29.3264 332.052 29.3217C331.967 29.2993 331.895 29.361 331.807 29.3522C331.667 29.3381 331.401 29.2935 331.277 29.2798C331.272 29.2792 331.267 29.2786 331.263 29.278C331.119 29.2697 330.876 29.2645 330.848 29.2511C330.705 29.2133 330.715 29.1284 330.679 29.1064C330.642 29.0824 330.612 29.0596 330.586 29.0384C330.462 28.9349 330.435 28.8786 330.505 28.7703C330.417 28.7634 330.233 28.5079 330.339 28.428C330.301 28.4309 330.277 28.3923 330.266 28.3333C330.25 28.2482 330.249 28.128 330.236 28.04C330.262 28.012 330.289 27.9836 330.316 27.9556C330.151 27.6412 330.271 27.0151 330.29 26.6014C330.291 26.591 330.222 26.5725 330.237 26.5102C330.239 26.5063 330.27 26.5127 330.274 26.4709C330.286 26.3333 330.364 25.8083 330.364 25.7479C330.367 25.5255 330.316 25.4867 330.311 25.3513C330.304 25.1732 330.351 25.1474 330.344 24.9779C330.341 24.8985 330.28 24.8263 330.289 24.7014C330.294 24.6274 330.342 24.6201 330.346 24.5615C330.359 24.3531 330.329 24.2 330.392 24.0151C330.239 23.9668 330.352 23.8784 330.363 23.7869C330.41 23.4152 330.346 22.9519 330.359 22.633C330.387 22.017 330.433 21.4442 330.469 20.8667C330.486 20.6418 330.577 20.461 330.738 20.3118C330.785 20.2685 330.833 20.2313 330.884 20.2007C330.98 20.1478 330.976 20.0645 331.105 20.0384C331.153 20.0306 331.208 20.0633 331.277 20.0761C331.294 20.0785 331.312 20.08 331.332 20.0802C331.43 20.081 331.57 20.0528 331.692 20.0529C331.725 20.0529 331.727 20.105 331.775 20.1054C332.138 20.1084 332.492 20.0715 332.858 20.0461C332.994 20.0366 333.078 20.1055 333.055 19.9856C333.107 20.015 333.157 20.0406 333.206 20.0697C333.393 19.9941 333.545 20.0729 333.798 20.0535C333.825 20.0512 334.016 19.9682 334.124 20.0281C334.132 19.9854 334.115 19.9491 334.118 19.9104C334.225 19.894 334.389 19.9434 334.461 19.9485C334.534 19.9535 334.582 19.898 334.604 19.8974C334.686 19.896 334.667 19.969 334.673 19.9702C335.058 20.0402 335.017 20.0013 335.25 19.8918C335.308 19.8642 335.703 19.9444 335.783 19.8579C335.786 19.8932 335.764 19.9243 335.758 19.9579C335.877 19.967 335.996 19.9763 336.115 19.9854C336.09 19.9515 336.06 19.9176 336.037 19.8835C336.215 19.9051 336.371 19.868 336.52 19.8477C336.572 19.8402 336.624 19.8386 336.675 19.8468C336.784 19.8671 336.751 19.9393 336.813 19.9402C336.825 19.9409 336.821 19.886 336.858 19.8943C337.044 19.9418 337.141 20.0377 337.228 20.1453C337.28 20.2125 337.33 20.2876 337.381 20.3869C337.439 20.5041 337.576 20.6096 337.526 20.8251C337.524 20.8296 337.519 20.8448 337.513 20.8667C337.493 20.9387 337.467 21.0829 337.556 21.1809C337.519 21.222 337.5 21.2582 337.469 21.2889C337.642 21.5501 337.472 21.4779 337.432 21.8311C337.419 21.9443 337.426 22.2234 337.437 22.4667C337.446 22.5881 337.405 22.6838 337.372 22.735C337.361 22.7517 337.354 22.7663 337.35 22.7797C337.331 22.831 337.354 22.866 337.343 22.8776C337.25 22.9587 337.221 22.8959 337.127 22.9278C337.102 22.9346 337.074 22.9438 337.044 22.9524C336.958 22.9795 336.838 22.9916 336.76 22.9358C336.692 22.8825 336.776 22.8612 336.707 22.811C336.7 22.8059 336.693 22.8003 336.684 22.7939C336.663 22.7762 336.655 22.8876 336.593 22.7526C336.57 22.7284 336.584 22.5016 336.613 22.4667C336.639 22.5418 336.707 22.6674 336.802 22.7177C336.846 22.745 336.883 22.7553 336.907 22.7601C336.95 22.7688 336.993 22.7679 337.044 22.7584C337.129 22.7414 337.172 22.7067 337.214 22.6461C337.252 22.5862 337.255 22.5436 337.245 22.4667C337.206 21.9763 337.174 21.4352 337.149 20.8667C337.136 20.6824 337.072 20.5532 336.939 20.4288C336.808 20.3098 336.688 20.2677 336.52 20.2721C334.725 20.3118 332.884 20.3031 331.624 20.283C331.485 20.2809 331.375 20.2522 331.277 20.2293C331.239 20.2155 331.203 20.2067 331.169 20.2095C331.082 20.2201 331.166 20.2685 331.096 20.282C331.03 20.298 330.96 20.2827 330.894 20.3281C330.868 20.3462 330.843 20.3668 330.818 20.39C330.678 20.5203 330.605 20.6677 330.596 20.8667C330.58 21.3764 330.567 21.8857 330.559 22.3902C330.556 22.6054 330.609 22.7773 330.609 22.9731C330.609 23.0493 330.54 23.0517 330.541 23.1058C330.546 23.689 330.613 24.2286 330.604 24.8087C330.601 25.0496 330.543 25.3098 330.538 25.5484C330.533 25.7451 330.573 25.949 330.573 26.1258C330.574 26.2218 330.522 26.2724 330.517 26.3071C330.504 26.428 330.568 26.3858 330.568 26.4476C330.568 26.6181 330.49 26.7029 330.496 26.8625C330.499 26.9252 330.548 26.9172 330.556 27.0082C330.565 27.1236 330.52 27.0809 330.518 27.1634C330.518 27.1683 330.553 27.1522 330.555 27.1959C330.564 27.4774 330.592 27.8289 330.589 28.1004C330.589 28.1782 330.587 28.2559 330.584 28.3333C330.574 28.5354 330.62 28.7099 330.754 28.8732C330.847 28.9872 330.958 29.0671 331.088 29.1035C331.182 29.1268 331.164 29.074 331.193 29.076C331.224 29.077 331.252 29.0789 331.277 29.0814C331.4 29.0905 331.48 29.1205 331.645 29.1051C331.68 29.1019 331.822 29.0382 331.957 29.0543C332.03 29.063 332.113 29.1027 332.176 29.112C332.238 29.1213 332.248 29.0628 332.323 29.0627C332.459 29.0625 332.419 29.1031 332.614 29.0958C332.693 29.093 332.955 29.0376 333.157 29.0418C333.487 29.0487 333.896 29.0993 334.286 29.1001C334.419 29.1005 334.591 29.0404 334.798 29.0398C335.051 29.039 335.517 29.0526 335.776 29.0535C335.909 29.0539 335.919 29.1168 335.934 29.1194C336.036 29.137 335.995 29.0666 336.063 29.0694C336.156 29.0732 336.243 29.1251 336.328 29.1285C336.382 29.1307 336.391 29.0789 336.403 29.0785C336.442 29.0769 336.481 29.0755 336.52 29.0743C336.727 29.0641 336.878 28.9959 337.02 28.8506C337.071 28.7982 337.113 28.7419 337.145 28.6807C337.199 28.5766 337.224 28.4621 337.221 28.3333C337.213 27.8008 337.204 27.2672 337.195 26.7333C337.19 26.6677 337.18 26.6542 337.146 26.6201C337.109 26.5896 337.102 26.5881 337.044 26.5873C336.986 26.5925 336.983 26.5982 336.951 26.6293C336.923 26.6645 336.92 26.6732 336.919 26.7333C336.926 27.2671 336.931 27.8006 336.933 28.3333L336.925 28.754L336.52 28.7463C336.001 28.7477 335.483 28.7458 334.966 28.7391C334.772 28.7367 334.765 28.6713 334.595 28.6816C334.425 28.6917 334.26 28.8329 334.121 28.677C334.116 28.7084 334.116 28.7309 334.112 28.7595C333.761 28.7151 333.409 28.7611 333.065 28.7667C332.811 28.7709 332.585 28.7659 332.35 28.7625C332.142 28.7593 332.16 28.7044 331.98 28.776C331.746 28.7643 331.512 28.7564 331.277 28.7498L330.853 28.7417L330.861 28.3333C330.879 27.6683 330.888 27.0019 330.943 26.345C330.826 26.1365 330.899 25.9368 330.917 25.6485C330.919 25.6129 330.876 25.6511 330.88 25.5456C330.884 25.413 330.95 25.3444 330.946 25.1212C330.945 25.0621 330.872 24.6244 330.91 24.4625C330.947 24.3005 330.968 24.066 331.004 23.8977C330.976 23.9216 330.949 23.9519 330.921 23.9785C330.917 23.8946 330.912 23.8102 330.907 23.7263C330.941 23.7142 330.975 23.702 331.008 23.6902C330.976 23.6415 330.945 23.5928 330.912 23.5436C331.085 23.4376 331.029 23.5463 330.985 23.3104C330.963 23.1922 330.993 23.0984 330.976 22.977C330.969 22.9333 330.919 22.9053 330.912 22.8571C330.896 22.739 330.966 22.8078 330.966 22.7348C330.965 22.6613 330.888 22.5557 330.923 22.424C331.06 22.5615 331.015 22.1641 330.909 22.1451C330.908 22.0978 330.913 22.0581 330.91 22.0059C331.179 22.0541 330.988 21.8064 330.951 21.708C330.914 21.6097 330.987 21.6137 330.984 21.5907C330.976 21.5244 330.946 21.5727 330.945 21.5263C330.94 21.3009 330.963 21.0852 330.977 20.8667L330.983 20.5609L331.277 20.5665C331.357 20.5716 331.437 20.5756 331.518 20.5766C331.562 20.5772 331.523 20.5363 331.574 20.5403C331.625 20.5444 331.674 20.5851 331.749 20.5823C331.77 20.5815 331.776 20.5456 331.807 20.5456C332.467 20.5472 333.094 20.5778 333.767 20.5824C333.828 20.5828 333.876 20.519 333.994 20.5212C334.111 20.5234 334.29 20.581 334.436 20.5855C334.475 20.5867 334.485 20.5335 334.537 20.5349C334.712 20.5397 334.863 20.5831 335.044 20.5901C335.351 20.602 335.673 20.5696 335.985 20.601C336.044 20.6068 336.034 20.6512 336.12 20.6637C336.267 20.6853 336.211 20.6206 336.241 20.6119C336.339 20.5839 336.369 20.6699 336.463 20.6478C336.478 20.6444 336.457 20.5934 336.47 20.5926C336.488 20.5918 336.505 20.592 336.52 20.5931L336.798 20.5984L336.793 20.8667C336.783 21.0208 336.689 21.0469 336.747 21.2407C336.679 21.4301 336.655 21.1138 336.619 21.0813C336.53 21.002 336.426 21.2117 336.392 21.3353C336.363 21.4417 336.419 21.441 336.419 21.4833C336.419 21.7075 336.429 22.0414 336.403 22.2119C336.387 22.3152 336.364 22.129 336.346 22.1818C336.328 22.2341 336.37 22.268 336.324 22.3216C336.279 22.3753 336.145 22.4848 336.082 22.4641ZM335.804 28.1924C335.46 28.4102 334.549 28.3874 334.059 28.3667C333.653 28.3493 333.303 28.1815 333.387 28.4247C333.826 28.4263 334.181 28.4019 334.645 28.4094C334.694 28.4102 334.981 28.4328 335.082 28.4368C335.138 28.439 335.14 28.4792 335.216 28.4788C335.233 28.4786 335.326 28.4261 335.359 28.4275C335.475 28.4322 335.82 28.5127 335.868 28.5104C336.002 28.5036 335.95 28.4411 336.008 28.4298C336.202 28.3923 336.223 28.4861 336.415 28.4556C336.432 28.4529 336.469 28.4309 336.52 28.4111L336.596 28.4125L336.598 28.3333C336.578 28.2829 336.56 28.2192 336.566 28.1484C336.57 28.0907 336.612 27.9923 336.61 27.9481C336.599 27.7073 336.543 27.4384 336.553 27.2178C336.56 27.0369 336.623 27.0856 336.632 26.9899C336.639 26.9034 336.58 26.8005 336.566 26.7333C336.564 26.7267 336.563 26.7205 336.563 26.7147C336.556 26.6117 336.642 26.5193 336.655 26.4994C336.674 26.4655 336.697 26.4341 336.723 26.4053C336.806 26.3138 336.92 26.2639 337.044 26.2587C337.171 26.251 337.296 26.2917 337.391 26.3799C337.489 26.4668 337.547 26.5957 337.552 26.7333C337.559 26.8781 337.565 27.024 337.569 27.1727C337.579 27.0262 337.589 26.8797 337.598 26.7333C337.61 26.5878 337.563 26.428 337.459 26.3125C337.366 26.201 337.217 26.1264 337.067 26.1147C337.059 26.1164 337.051 26.1182 337.044 26.1199C336.817 26.1978 336.93 26.1184 336.752 26.1665C336.672 26.1994 336.653 26.2591 336.633 26.3168C336.618 26.3616 336.601 26.4064 336.562 26.4671C336.563 26.4669 336.563 26.4668 336.563 26.4667C336.532 26.5133 336.459 26.6059 336.447 26.7333C336.44 26.7895 336.438 26.8491 336.449 26.9084C336.45 26.9147 336.508 26.9305 336.51 27.0636C336.514 27.3626 336.544 27.8209 336.531 28.1574C336.528 28.2503 336.474 28.2381 336.462 28.3333L336.52 28.2754C336.514 28.2746 336.507 28.2739 336.5 28.2735C336.415 28.2681 336.316 28.3238 336.183 28.3114C336.015 28.2954 335.935 28.1995 335.82 28.3328C335.811 28.2852 335.815 28.2388 335.804 28.1924ZM331.302 23.6162C331.307 23.5927 331.456 23.2779 331.297 23.3712C331.228 23.7944 331.262 24.2519 331.224 24.6971C331.381 24.5451 331.319 24.2879 331.307 23.9757C331.307 23.9756 331.307 23.9754 331.307 23.9753C331.307 23.9606 331.348 24.0222 331.341 23.9384C331.337 23.8978 331.274 23.7421 331.302 23.6162Z" fill="#F3832D"/>
</g>
<path d="M350.46 27.5L348.94 27.56C348.693 27.56 348.487 27.48 348.32 27.32C348.16 27.16 348.08 26.9467 348.08 26.68L348.14 24.17C347.727 24.11 347.52 23.8933 347.52 23.52C347.52 23.34 347.577 23.1933 347.69 23.08C347.803 22.9667 347.95 22.8933 348.13 22.86L348.08 21.03C348.007 20.89 347.97 20.7267 347.97 20.54C347.97 20.14 348.287 19.94 348.92 19.94L350.44 20L352.01 19.94C352.263 19.94 352.463 20.0033 352.61 20.13C352.763 20.25 352.84 20.4133 352.84 20.62C352.84 20.8267 352.763 20.99 352.61 21.11C352.463 21.2233 352.263 21.28 352.01 21.28L350.44 21.22C350.08 21.22 349.767 21.23 349.5 21.25V22.91C349.607 22.9167 349.75 22.92 349.93 22.92L351.54 22.85C351.78 22.85 351.977 22.9133 352.13 23.04C352.283 23.16 352.36 23.3233 352.36 23.53C352.36 23.73 352.283 23.89 352.13 24.01C351.977 24.1233 351.78 24.18 351.54 24.18L349.96 24.12H349.82C349.727 24.1267 349.62 24.13 349.5 24.13C349.5 25.0567 349.507 25.7667 349.52 26.26C349.7 26.2733 350.013 26.28 350.46 26.28L352.03 26.22C352.283 26.22 352.483 26.28 352.63 26.4C352.783 26.5133 352.86 26.6733 352.86 26.88C352.86 27.0867 352.783 27.2533 352.63 27.38C352.483 27.5 352.283 27.56 352.03 27.56L350.46 27.5ZM355.929 23.57C355.282 22.5367 354.802 21.84 354.489 21.48C354.336 21.2867 354.149 21.1733 353.929 21.14C353.869 21.1267 353.822 21.1133 353.789 21.1C353.709 21.06 353.669 20.9367 353.669 20.73C353.669 20.5233 353.742 20.33 353.889 20.15C354.042 19.97 354.229 19.88 354.449 19.88C354.829 19.88 355.182 20.1167 355.509 20.59L356.699 22.46C356.899 22.16 357.106 21.82 357.319 21.44C357.532 21.0533 357.692 20.77 357.799 20.59C357.906 20.4033 358.032 20.2433 358.179 20.11C358.326 19.97 358.482 19.9 358.649 19.9C358.822 19.9 358.969 19.9667 359.089 20.1C359.216 20.2267 359.279 20.3767 359.279 20.55C359.279 20.7167 359.226 20.89 359.119 21.07C359.012 21.25 358.789 21.5833 358.449 22.07C358.116 22.5567 357.786 23.0767 357.459 23.63C358.219 24.79 358.789 25.59 359.169 26.03C359.322 26.2233 359.509 26.34 359.729 26.38C359.789 26.3867 359.836 26.3967 359.869 26.41C359.949 26.45 359.989 26.5733 359.989 26.78C359.989 26.9867 359.912 27.18 359.759 27.36C359.612 27.54 359.429 27.63 359.209 27.63C358.836 27.63 358.486 27.3933 358.159 26.92L356.669 24.74C356.469 25.04 356.226 25.4467 355.939 25.96C355.652 26.4667 355.442 26.82 355.309 27.02C355.056 27.4 354.802 27.59 354.549 27.59C354.369 27.59 354.216 27.5267 354.089 27.4C353.969 27.2667 353.909 27.1167 353.909 26.95C353.909 26.7833 353.979 26.5833 354.119 26.35C354.259 26.1167 354.512 25.7333 354.879 25.2C355.252 24.6667 355.602 24.1233 355.929 23.57ZM361.619 19.94L362.839 20L364.059 19.94C364.306 19.94 364.502 20 364.649 20.12C364.802 20.24 364.879 20.4033 364.879 20.61C364.879 20.81 364.802 20.97 364.649 21.09C364.502 21.21 364.306 21.27 364.059 21.27L363.589 21.24C363.542 22.2267 363.519 23.0667 363.519 23.76C363.519 24.4467 363.542 25.2833 363.589 26.27C363.829 26.2433 363.986 26.23 364.059 26.23C364.306 26.23 364.502 26.29 364.649 26.41C364.802 26.53 364.879 26.6933 364.879 26.9C364.879 27.1 364.802 27.26 364.649 27.38C364.502 27.5 364.306 27.56 364.059 27.56L362.839 27.5L361.619 27.57C361.366 27.57 361.162 27.51 361.009 27.39C360.862 27.27 360.789 27.1067 360.789 26.9C360.789 26.6933 360.862 26.5333 361.009 26.42C361.162 26.3 361.366 26.24 361.619 26.24L362.089 26.28C362.136 25.2933 362.159 24.4533 362.159 23.76C362.159 23.0667 362.136 22.2267 362.089 21.24C361.889 21.26 361.696 21.27 361.509 21.27C361.329 21.27 361.162 21.2133 361.009 21.1C360.862 20.98 360.789 20.8167 360.789 20.61C360.789 20.4033 360.862 20.24 361.009 20.12C361.162 20 361.366 19.94 361.619 19.94ZM366.421 19.94L368.321 20L370.221 19.94C370.475 19.94 370.675 20 370.821 20.12C370.975 20.24 371.051 20.4033 371.051 20.61C371.051 20.8167 370.975 20.98 370.821 21.1C370.675 21.22 370.475 21.28 370.221 21.28L369.091 21.22C369.058 22.1 369.041 22.96 369.041 23.8L369.121 26.52C369.121 27.24 368.868 27.6 368.361 27.6C367.855 27.6 367.601 27.24 367.601 26.52L367.681 23.8C367.681 23.2533 367.658 22.3933 367.611 21.22L366.421 21.28C366.168 21.28 365.965 21.22 365.811 21.1C365.665 20.98 365.591 20.8167 365.591 20.61C365.591 20.4033 365.665 20.24 365.811 20.12C365.965 20 366.168 19.94 366.421 19.94ZM378.461 23.25L379.601 23.31L380.771 23.25C381.011 23.25 381.208 23.3267 381.361 23.48C381.514 23.6333 381.591 23.8267 381.591 24.06C381.591 25.1533 381.298 26.0267 380.711 26.68C380.131 27.3267 379.371 27.65 378.431 27.65C377.491 27.65 376.701 27.27 376.061 26.51C375.421 25.75 375.101 24.8267 375.101 23.74C375.101 22.6533 375.431 21.7333 376.091 20.98C376.751 20.2267 377.584 19.85 378.591 19.85C379.238 19.85 379.824 19.99 380.351 20.27C380.878 20.55 381.141 20.8533 381.141 21.18C381.141 21.3667 381.081 21.5167 380.961 21.63C380.841 21.7367 380.688 21.79 380.501 21.79C380.314 21.79 380.138 21.7367 379.971 21.63C379.804 21.5167 379.611 21.4033 379.391 21.29C379.171 21.1767 378.904 21.12 378.591 21.12C377.991 21.12 377.494 21.3767 377.101 21.89C376.714 22.4033 376.521 23.0167 376.521 23.73C376.521 24.4433 376.704 25.0667 377.071 25.6C377.444 26.1267 377.914 26.39 378.481 26.39C378.908 26.39 379.271 26.23 379.571 25.91C379.871 25.5833 380.051 25.1267 380.111 24.54C380.038 24.5333 379.858 24.53 379.571 24.53L378.461 24.58C378.214 24.58 378.014 24.52 377.861 24.4C377.708 24.2733 377.631 24.11 377.631 23.91C377.631 23.7033 377.708 23.5433 377.861 23.43C378.014 23.31 378.214 23.25 378.461 23.25ZM388.137 19.85C388.411 19.85 388.624 19.9633 388.777 20.19C388.937 20.41 389.017 20.69 389.017 21.03C389.017 21.3633 388.924 22.3 388.737 23.84C388.737 24.2 388.774 24.6767 388.847 25.27C388.927 25.8567 389.031 26.1933 389.157 26.28C389.277 26.36 389.364 26.41 389.417 26.43C389.471 26.45 389.507 26.4667 389.527 26.48C389.561 26.5133 389.577 26.58 389.577 26.68C389.577 26.9333 389.491 27.1567 389.317 27.35C389.144 27.5433 388.917 27.64 388.637 27.64C388.364 27.64 388.137 27.5233 387.957 27.29C387.777 27.05 387.654 26.7467 387.587 26.38C386.967 27.2267 386.241 27.65 385.407 27.65C384.961 27.65 384.561 27.5367 384.207 27.31C383.854 27.0767 383.574 26.7733 383.367 26.4C382.947 25.64 382.737 24.7967 382.737 23.87C382.737 22.7767 383.031 21.8333 383.617 21.04C384.204 20.2467 384.964 19.85 385.897 19.85C386.444 19.85 386.964 19.9967 387.457 20.29C387.557 19.9967 387.784 19.85 388.137 19.85ZM387.477 23.93L387.427 21.73C386.954 21.3233 386.444 21.12 385.897 21.12C385.437 21.12 385.031 21.3833 384.677 21.91C384.331 22.43 384.157 23.06 384.157 23.8C384.157 24.54 384.271 25.1567 384.497 25.65C384.731 26.1367 385.051 26.38 385.457 26.38C385.871 26.38 386.287 26.1067 386.707 25.56C387.134 25.0133 387.391 24.47 387.477 23.93ZM392.453 23.58L392.513 26.52C392.513 27.24 392.263 27.6 391.763 27.6C391.203 27.6 390.923 27.1767 390.923 26.33C390.923 25.6633 391.01 24.76 391.183 23.62C391.183 23.3067 391.147 22.83 391.073 22.19C391 21.55 390.963 21.0833 390.963 20.79C390.963 20.49 391.03 20.2633 391.163 20.11C391.297 19.95 391.483 19.87 391.723 19.87C392.21 19.87 392.453 20.2467 392.453 21C393.007 20.2667 393.687 19.9 394.493 19.9C394.973 19.9 395.39 20.0167 395.743 20.25C396.103 20.4833 396.38 20.7933 396.573 21.18C396.813 20.82 397.127 20.5167 397.513 20.27C397.9 20.0233 398.317 19.9 398.763 19.9C399.517 19.9 400.1 20.1633 400.513 20.69C400.933 21.21 401.143 21.8467 401.143 22.6L401.083 25.15C401.083 25.79 401.123 26.1467 401.203 26.22C401.27 26.28 401.357 26.32 401.463 26.34C401.57 26.36 401.64 26.3933 401.673 26.44C401.713 26.48 401.733 26.54 401.733 26.62C401.733 26.9 401.637 27.1367 401.443 27.33C401.257 27.5233 401.037 27.62 400.783 27.62C400.363 27.62 400.073 27.4767 399.913 27.19C399.753 26.8967 399.673 26.4667 399.673 25.9L399.723 23.22C399.723 22.6067 399.63 22.1133 399.443 21.74C399.263 21.3667 398.99 21.18 398.623 21.18C398.263 21.18 397.893 21.4233 397.513 21.91C397.14 22.39 396.877 22.9467 396.723 23.58L396.783 26.52C396.783 27.24 396.533 27.6 396.033 27.6C395.473 27.6 395.193 27.1767 395.193 26.33C395.193 25.6633 395.28 24.76 395.453 23.62C395.453 22.86 395.363 22.2633 395.183 21.83C395.003 21.3967 394.73 21.18 394.363 21.18C393.997 21.18 393.623 21.4233 393.243 21.91C392.87 22.39 392.607 22.9467 392.453 23.58ZM407.844 22.08C407.844 21.84 407.747 21.62 407.554 21.42C407.361 21.22 407.084 21.12 406.724 21.12C406.251 21.12 405.847 21.32 405.514 21.72C405.187 22.12 404.957 22.6 404.824 23.16C405.224 23.2533 405.671 23.3 406.164 23.3C406.664 23.3 407.067 23.1933 407.374 22.98C407.687 22.7667 407.844 22.4667 407.844 22.08ZM409.034 26.29C409.034 26.55 408.787 26.8433 408.294 27.17C407.801 27.49 407.274 27.65 406.714 27.65C406.154 27.65 405.671 27.5533 405.264 27.36C404.864 27.16 404.534 26.8933 404.274 26.56C403.727 25.8733 403.421 25.0633 403.354 24.13C402.901 23.95 402.674 23.6733 402.674 23.3C402.674 23.1133 402.734 22.9633 402.854 22.85C402.981 22.73 403.134 22.67 403.314 22.67C403.367 22.67 403.427 22.68 403.494 22.7C403.727 21.8733 404.124 21.1933 404.684 20.66C405.244 20.12 405.897 19.85 406.644 19.85C407.397 19.85 408.021 20.0667 408.514 20.5C409.014 20.9267 409.264 21.44 409.264 22.04C409.264 22.6333 409.114 23.12 408.814 23.5C408.247 24.1933 407.371 24.54 406.184 24.54C405.791 24.54 405.334 24.4967 404.814 24.41C404.914 24.97 405.124 25.44 405.444 25.82C405.764 26.2 406.131 26.39 406.544 26.39C407.004 26.39 407.494 26.2333 408.014 25.92C408.187 25.8133 408.347 25.76 408.494 25.76C408.641 25.76 408.767 25.81 408.874 25.91C408.981 26.01 409.034 26.1367 409.034 26.29Z" fill="#F3832D"/>
</g>
<defs>
<filter id="filter0_d_8374_1363" x="0" y="0" width="446" height="52" filterUnits="userSpaceOnUse" color-interpolation-filters="sRGB">
<feFlood flood-opacity="0" result="BackgroundImageFix"/>
<feColorMatrix in="SourceAlpha" type="matrix" values="0 0 0 0 0 0 0 0 0 0 0 0 0 0 0 0 0 0 127 0" result="hardAlpha"/>
<feOffset dx="2" dy="2"/>
<feGaussianBlur stdDeviation="4"/>
<feComposite in2="hardAlpha" operator="out"/>
<feColorMatrix type="matrix" values="0 0 0 0 0 0 0 0 0 0 0 0 0 0 0 0 0 0 0.2 0"/>
<feBlend mode="normal" in2="BackgroundImageFix" result="effect1_dropShadow_8374_1363"/>
<feBlend mode="normal" in="SourceGraphic" in2="effect1_dropShadow_8374_1363" result="shape"/>
</filter>
</defs>
</svg>
