<svg width="30" height="10" viewBox="0 0 30 10" fill="none" xmlns="http://www.w3.org/2000/svg">
<path d="M1.02564 9C0.74359 9 0.502137 8.90208 0.301282 8.70625C0.100427 8.51042 0 8.275 0 8V2C0 1.725 0.100427 1.48958 0.301282 1.29375C0.502137 1.09792 0.74359 1 1.02564 1H6.66667C6.82906 1 6.98291 1.03542 7.12821 1.10625C7.2735 1.17708 7.39316 1.275 7.48718 1.4L9.79487 4.4C9.93162 4.575 10 4.775 10 5C10 5.225 9.93162 5.425 9.79487 5.6L7.48718 8.6C7.39316 8.725 7.2735 8.82292 7.12821 8.89375C6.98291 8.96458 6.82906 9 6.66667 9H1.02564Z" fill="#2BB1FF"/>
<path d="M12.4 8C12.4373 8 12.4747 7.96267 12.512 7.888C12.5493 7.81333 12.568 7.69067 12.568 7.52V3.68C12.568 3.50933 12.5493 3.38933 12.512 3.32C12.4747 3.24533 12.4373 3.20533 12.4 3.2H15.392C15.808 3.2 16.1333 3.248 16.368 3.344C16.6027 3.44 16.768 3.57867 16.864 3.76C16.96 3.936 17.008 4.144 17.008 4.384C17.008 4.576 16.9733 4.73867 16.904 4.872C16.84 5 16.7573 5.10133 16.656 5.176C16.5547 5.25067 16.4533 5.30667 16.352 5.344V5.36C16.6987 5.44 16.96 5.584 17.136 5.792C17.312 5.99467 17.4 6.26667 17.4 6.608C17.4 6.83733 17.3547 7.05867 17.264 7.272C17.1733 7.48533 17.0053 7.66133 16.76 7.8C16.52 7.93333 16.1707 8 15.712 8H12.4ZM14.12 7.112H15.32C15.624 7.112 15.84 7.06933 15.968 6.984C16.1013 6.89333 16.168 6.74933 16.168 6.552C16.168 6.36533 16.096 6.22133 15.952 6.12C15.808 6.01333 15.5707 5.96 15.24 5.96H14.128C13.968 5.96 13.872 5.97067 13.84 5.992C13.8133 6.01333 13.8 6.08533 13.8 6.208V6.872C13.8 6.98933 13.8133 7.05867 13.84 7.08C13.872 7.10133 13.9653 7.112 14.12 7.112ZM14.128 5.144H15.072C15.328 5.144 15.5093 5.10133 15.616 5.016C15.728 4.92533 15.784 4.792 15.784 4.616C15.784 4.44 15.7307 4.30933 15.624 4.224C15.5227 4.13867 15.3413 4.096 15.08 4.096H14.12C13.96 4.096 13.8667 4.10667 13.84 4.128C13.8133 4.144 13.8 4.21333 13.8 4.336V4.904C13.8 5.02133 13.8133 5.09067 13.84 5.112C13.872 5.13333 13.968 5.144 14.128 5.144ZM18.0406 8C18.078 8 18.1153 7.96267 18.1526 7.888C18.19 7.81333 18.2086 7.69067 18.2086 7.52V2.96C18.2086 2.78933 18.19 2.66667 18.1526 2.592C18.1206 2.51733 18.086 2.48 18.0486 2.48C18.4006 2.48 18.686 2.464 18.9046 2.432C19.1286 2.39467 19.2753 2.35733 19.3446 2.32V7.52C19.3446 7.69067 19.3606 7.81333 19.3926 7.888C19.43 7.96267 19.4673 8 19.5046 8H18.0406ZM21.8743 8.08C21.5649 8.08 21.3009 8.02667 21.0822 7.92C20.8636 7.808 20.6983 7.61867 20.5863 7.352C20.4743 7.08 20.4183 6.704 20.4183 6.224V4.736C20.4183 4.56533 20.3996 4.44267 20.3623 4.368C20.3303 4.29333 20.2956 4.256 20.2583 4.256H21.7303C21.6929 4.256 21.6529 4.29333 21.6103 4.368C21.5729 4.44267 21.5543 4.56533 21.5543 4.736V6.336C21.5543 6.672 21.6156 6.912 21.7383 7.056C21.8663 7.2 22.0129 7.272 22.1783 7.272C22.4129 7.272 22.5943 7.21867 22.7223 7.112C22.8503 7 22.9409 6.856 22.9943 6.68C23.0476 6.49867 23.0743 6.30933 23.0743 6.112V4.736C23.0743 4.56533 23.0556 4.44533 23.0183 4.376C22.9863 4.30133 22.9516 4.26133 22.9143 4.256H24.2103V7.52C24.2103 7.69067 24.2263 7.81333 24.2583 7.888C24.2956 7.96267 24.3329 8 24.3703 8H23.0743V7.688L23.0903 7.528L23.0743 7.512C23.0209 7.592 22.9543 7.66667 22.8743 7.736C22.7943 7.80533 22.7036 7.86667 22.6023 7.92C22.5009 7.968 22.3889 8.00533 22.2663 8.032C22.1436 8.064 22.0129 8.08 21.8743 8.08ZM27.0879 8.08C26.6665 8.08 26.3145 8.03733 26.0319 7.952C25.7545 7.86133 25.5332 7.73333 25.3679 7.568C25.2025 7.39733 25.0852 7.192 25.0159 6.952C24.9465 6.712 24.9119 6.44 24.9119 6.136C24.9119 5.53333 25.0799 5.056 25.4159 4.704C25.7519 4.352 26.2665 4.176 26.9599 4.176C27.3652 4.176 27.6932 4.232 27.9439 4.344C28.1999 4.456 28.3945 4.60533 28.5279 4.792C28.6612 4.97867 28.7519 5.18667 28.7999 5.416C28.8532 5.64 28.8799 5.86667 28.8799 6.096V6.472C28.8799 6.456 28.8052 6.44 28.6559 6.424C28.5119 6.40267 28.2665 6.392 27.9199 6.392H26.0639C26.0639 6.68533 26.1519 6.90667 26.3279 7.056C26.5092 7.2 26.8025 7.272 27.2079 7.272C27.5492 7.272 27.8532 7.232 28.1199 7.152C28.3919 7.06667 28.5892 6.98667 28.7119 6.912V7.152L28.7919 7.76C28.6905 7.82933 28.4959 7.90133 28.2079 7.976C27.9199 8.04533 27.5465 8.08 27.0879 8.08ZM26.3599 5.704H27.7439C27.7439 5.58667 27.7172 5.472 27.6639 5.36C27.6159 5.248 27.5359 5.15733 27.4239 5.088C27.3119 5.01333 27.1572 4.976 26.9599 4.976C26.7625 4.976 26.6025 5.00533 26.4799 5.064C26.3625 5.12267 26.2745 5.19467 26.2159 5.28C26.1625 5.36533 26.1359 5.45333 26.1359 5.544C26.1359 5.59733 26.1519 5.63733 26.1839 5.664C26.2159 5.69067 26.2745 5.704 26.3599 5.704Z" fill="#2BB1FF"/>
</svg>
