<svg width="1219" height="102" viewBox="0 0 1219 102" fill="none" xmlns="http://www.w3.org/2000/svg">
<rect width="1219" height="102" rx="10" fill="#F0F3F4"/>
<rect x="24" y="24" width="156" height="54" rx="10" fill="white"/>
<path d="M42.5 63.5C41.8125 63.5 41.224 63.2552 40.7344 62.7656C40.2448 62.276 40 61.6875 40 61V58.5312C40 58.1146 40.0938 57.7292 40.2812 57.375C40.4688 57.0208 40.7188 56.7188 41.0312 56.4688C42.4688 55.3021 43.5469 54.125 44.2656 52.9375C44.9844 51.75 45.4896 50.6875 45.7812 49.75H43.75C43.3958 49.75 43.099 49.6302 42.8594 49.3906C42.6198 49.151 42.5 48.8542 42.5 48.5C42.5 48.1458 42.6198 47.849 42.8594 47.6094C43.099 47.3698 43.3958 47.25 43.75 47.25H45.3125C45.0208 46.7917 44.7917 46.3021 44.625 45.7813C44.4583 45.2604 44.375 44.7083 44.375 44.125C44.375 42.5625 44.9219 41.2344 46.0156 40.1406C47.1094 39.0469 48.4375 38.5 50 38.5C51.5625 38.5 52.8906 39.0469 53.9844 40.1406C55.0781 41.2344 55.625 42.5625 55.625 44.125C55.625 44.7083 55.5417 45.2604 55.375 45.7813C55.2083 46.3021 54.9792 46.7917 54.6875 47.25H56.25C56.6042 47.25 56.901 47.3698 57.1406 47.6094C57.3802 47.849 57.5 48.1458 57.5 48.5C57.5 48.8542 57.3802 49.151 57.1406 49.3906C56.901 49.6302 56.6042 49.75 56.25 49.75H54.2188C54.5104 50.6875 55.0156 51.75 55.7344 52.9375C56.4531 54.125 57.5312 55.3021 58.9688 56.4688C59.2812 56.7188 59.5312 57.0208 59.7188 57.375C59.9062 57.7292 60 58.1146 60 58.5312V61C60 61.6875 59.7552 62.276 59.2656 62.7656C58.776 63.2552 58.1875 63.5 57.5 63.5H42.5ZM42.5 61H57.5V58.5C55.5833 57 54.1979 55.4531 53.3438 53.8594C52.4896 52.2656 51.9167 50.8958 51.625 49.75H48.375C48.0833 50.8958 47.5104 52.2656 46.6563 53.8594C45.8021 55.4531 44.4167 57 42.5 58.5V61ZM50 47.25C50.875 47.25 51.6146 46.9479 52.2188 46.3438C52.8229 45.7396 53.125 45 53.125 44.125C53.125 43.25 52.8229 42.5104 52.2188 41.9063C51.6146 41.3021 50.875 41 50 41C49.125 41 48.3854 41.3021 47.7812 41.9063C47.1771 42.5104 46.875 43.25 46.875 44.125C46.875 45 47.1771 45.7396 47.7812 46.3438C48.3854 46.9479 49.125 47.25 50 47.25Z" fill="#EA6900"/>
<path d="M73.5677 62.36C72.1477 62.36 70.9377 62.11 69.9377 61.61C68.9577 61.09 68.1477 60.38 67.5077 59.48C66.8877 58.58 66.4277 57.54 66.1277 56.36C65.8477 55.16 65.7077 53.87 65.7077 52.49C65.7077 50.89 65.8777 49.38 66.2177 47.96C66.5577 46.52 67.0677 45.25 67.7477 44.15C68.4477 43.05 69.3377 42.19 70.4177 41.57C71.4977 40.95 72.7977 40.64 74.3177 40.64C75.4177 40.64 76.4877 40.8 77.5277 41.12C78.5877 41.44 79.5377 41.9 80.3777 42.5L78.3377 45.5C77.7177 45.06 77.0477 44.74 76.3277 44.54C75.6277 44.34 74.9777 44.24 74.3777 44.24C72.8377 44.24 71.6277 44.92 70.7477 46.28C69.8677 47.64 69.4477 49.79 69.4877 52.73L68.6777 52.16C69.1377 51.06 69.8477 50.18 70.8077 49.52C71.7677 48.86 72.9077 48.53 74.2277 48.53C75.5677 48.53 76.7477 48.84 77.7677 49.46C78.8077 50.08 79.6177 50.93 80.1977 52.01C80.7977 53.07 81.0977 54.26 81.0977 55.58C81.0977 56.88 80.7877 58.05 80.1677 59.09C79.5477 60.11 78.6677 60.91 77.5277 61.49C76.4077 62.07 75.0877 62.36 73.5677 62.36ZM73.5677 58.88C74.2277 58.88 74.8177 58.73 75.3377 58.43C75.8577 58.13 76.2677 57.72 76.5677 57.2C76.8677 56.68 77.0177 56.08 77.0177 55.4C77.0177 54.72 76.8677 54.12 76.5677 53.6C76.2677 53.06 75.8577 52.64 75.3377 52.34C74.8177 52.02 74.2277 51.86 73.5677 51.86C72.9077 51.86 72.3077 52.02 71.7677 52.34C71.2477 52.64 70.8377 53.06 70.5377 53.6C70.2377 54.12 70.0877 54.72 70.0877 55.4C70.0877 56.08 70.2377 56.68 70.5377 57.2C70.8377 57.72 71.2477 58.13 71.7677 58.43C72.3077 58.73 72.9077 58.88 73.5677 58.88Z" fill="#EA6900"/>
<path d="M124.5 63.5C123.812 63.5 123.224 63.2552 122.734 62.7656C122.245 62.276 122 61.6875 122 61V58.5312C122 58.1146 122.094 57.7292 122.281 57.375C122.469 57.0208 122.719 56.7188 123.031 56.4688C124.469 55.3021 125.547 54.125 126.266 52.9375C126.984 51.75 127.49 50.6875 127.781 49.75H125.75C125.396 49.75 125.099 49.6302 124.859 49.3906C124.62 49.151 124.5 48.8542 124.5 48.5C124.5 48.1458 124.62 47.849 124.859 47.6094C125.099 47.3698 125.396 47.25 125.75 47.25H127.312C127.021 46.7917 126.792 46.3021 126.625 45.7813C126.458 45.2604 126.375 44.7083 126.375 44.125C126.375 42.5625 126.922 41.2344 128.016 40.1406C129.109 39.0469 130.438 38.5 132 38.5C133.562 38.5 134.891 39.0469 135.984 40.1406C137.078 41.2344 137.625 42.5625 137.625 44.125C137.625 44.7083 137.542 45.2604 137.375 45.7813C137.208 46.3021 136.979 46.7917 136.688 47.25H138.25C138.604 47.25 138.901 47.3698 139.141 47.6094C139.38 47.849 139.5 48.1458 139.5 48.5C139.5 48.8542 139.38 49.151 139.141 49.3906C138.901 49.6302 138.604 49.75 138.25 49.75H136.219C136.51 50.6875 137.016 51.75 137.734 52.9375C138.453 54.125 139.531 55.3021 140.969 56.4688C141.281 56.7188 141.531 57.0208 141.719 57.375C141.906 57.7292 142 58.1146 142 58.5312V61C142 61.6875 141.755 62.276 141.266 62.7656C140.776 63.2552 140.188 63.5 139.5 63.5H124.5ZM124.5 61H139.5V58.5C137.583 57 136.198 55.4531 135.344 53.8594C134.49 52.2656 133.917 50.8958 133.625 49.75H130.375C130.083 50.8958 129.51 52.2656 128.656 53.8594C127.802 55.4531 126.417 57 124.5 58.5V61ZM132 47.25C132.875 47.25 133.615 46.9479 134.219 46.3438C134.823 45.7396 135.125 45 135.125 44.125C135.125 43.25 134.823 42.5104 134.219 41.9063C133.615 41.3021 132.875 41 132 41C131.125 41 130.385 41.3021 129.781 41.9063C129.177 42.5104 128.875 43.25 128.875 44.125C128.875 45 129.177 45.7396 129.781 46.3438C130.385 46.9479 131.125 47.25 132 47.25Z" fill="#097FC5"/>
<path d="M148.157 62V58.97C148.157 58.39 148.337 57.75 148.697 57.05C149.057 56.35 149.557 55.65 150.197 54.95C150.837 54.25 151.587 53.6 152.447 53L155.627 50.72C156.067 50.42 156.477 50.08 156.857 49.7C157.257 49.32 157.577 48.91 157.817 48.47C158.077 48.01 158.207 47.57 158.207 47.15C158.207 46.63 158.077 46.16 157.817 45.74C157.577 45.32 157.217 44.99 156.737 44.75C156.257 44.51 155.667 44.39 154.967 44.39C154.367 44.39 153.827 44.51 153.347 44.75C152.887 44.99 152.507 45.31 152.207 45.71C151.907 46.11 151.697 46.54 151.577 47L147.347 46.28C147.547 45.28 147.977 44.35 148.637 43.49C149.297 42.63 150.157 41.94 151.217 41.42C152.297 40.88 153.517 40.61 154.877 40.61C156.437 40.61 157.777 40.89 158.897 41.45C160.017 42.01 160.877 42.78 161.477 43.76C162.097 44.72 162.407 45.84 162.407 47.12C162.407 48.42 162.047 49.58 161.327 50.6C160.627 51.6 159.657 52.54 158.417 53.42L155.567 55.49C154.987 55.89 154.487 56.33 154.067 56.81C153.647 57.29 153.327 57.82 153.107 58.4H162.677V62H148.157Z" fill="#097FC5"/>
<path d="M472.32 62.384C470.144 62.384 468.213 61.8933 466.528 60.912C464.843 59.9093 463.52 58.544 462.56 56.816C461.6 55.0667 461.12 53.0613 461.12 50.8C461.12 48.5387 461.6 46.544 462.56 44.816C463.52 43.0667 464.832 41.7013 466.496 40.72C468.181 39.7173 470.112 39.216 472.288 39.216C473.824 39.216 475.253 39.4933 476.576 40.048C477.899 40.5813 479.051 41.3387 480.032 42.32C481.035 43.28 481.803 44.3893 482.336 45.648L478.272 47.152C477.909 46.3627 477.429 45.68 476.832 45.104C476.235 44.5067 475.552 44.048 474.784 43.728C474.016 43.3867 473.184 43.216 472.288 43.216C470.987 43.216 469.824 43.5467 468.8 44.208C467.797 44.848 467.008 45.7333 466.432 46.864C465.877 47.9947 465.6 49.3067 465.6 50.8C465.6 52.2933 465.888 53.616 466.464 54.768C467.04 55.8987 467.84 56.7947 468.864 57.456C469.888 58.096 471.061 58.416 472.384 58.416C473.301 58.416 474.133 58.2453 474.88 57.904C475.648 57.5413 476.32 57.0507 476.896 56.432C477.493 55.8133 477.973 55.0987 478.336 54.288L482.4 55.76C481.867 57.0613 481.099 58.2133 480.096 59.216C479.115 60.2187 477.963 60.9973 476.64 61.552C475.317 62.1067 473.877 62.384 472.32 62.384ZM495.572 62L495.316 59.056V46H499.54V62H495.572ZM484.724 54.192V46H488.948V54.192H484.724ZM488.948 54.192C488.948 55.2587 489.065 56.1013 489.3 56.72C489.556 57.3173 489.908 57.7547 490.356 58.032C490.825 58.288 491.348 58.416 491.924 58.416C493.033 58.4373 493.876 58.1067 494.452 57.424C495.028 56.72 495.316 55.7067 495.316 54.384H496.756C496.756 56.0907 496.5 57.5413 495.988 58.736C495.476 59.9093 494.772 60.816 493.876 61.456C492.98 62.0747 491.924 62.384 490.708 62.384C489.428 62.384 488.34 62.128 487.444 61.616C486.548 61.104 485.865 60.3147 485.396 59.248C484.948 58.16 484.724 56.7627 484.724 55.056V54.192H488.948ZM506.175 53.584C506.175 51.856 506.506 50.4267 507.167 49.296C507.85 48.1653 508.714 47.3227 509.759 46.768C510.826 46.2133 511.935 45.936 513.087 45.936V50.032C512.106 50.032 511.178 50.1493 510.303 50.384C509.45 50.6187 508.756 51.0027 508.223 51.536C507.69 52.0693 507.423 52.752 507.423 53.584H506.175ZM503.199 62V46H507.423V62H503.199ZM518.3 53.584C518.3 51.856 518.631 50.4267 519.292 49.296C519.975 48.1653 520.839 47.3227 521.884 46.768C522.951 46.2133 524.06 45.936 525.212 45.936V50.032C524.231 50.032 523.303 50.1493 522.428 50.384C521.575 50.6187 520.881 51.0027 520.348 51.536C519.815 52.0693 519.548 52.752 519.548 53.584H518.3ZM515.324 62V46H519.548V62H515.324ZM534.681 62.384C533.102 62.384 531.705 62.032 530.489 61.328C529.273 60.6027 528.313 59.6107 527.609 58.352C526.926 57.0933 526.585 55.6427 526.585 54C526.585 52.3573 526.937 50.9067 527.641 49.648C528.366 48.3893 529.348 47.408 530.585 46.704C531.844 45.9787 533.284 45.616 534.905 45.616C536.313 45.616 537.604 45.9893 538.777 46.736C539.972 47.4613 540.921 48.5387 541.625 49.968C542.35 51.376 542.713 53.0933 542.713 55.12H530.585L530.969 54.736C530.969 55.5253 531.161 56.2187 531.545 56.816C531.95 57.392 532.462 57.84 533.081 58.16C533.721 58.4587 534.404 58.608 535.129 58.608C536.004 58.608 536.718 58.4267 537.273 58.064C537.828 57.68 538.254 57.1893 538.553 56.592L542.329 58.064C541.881 58.96 541.294 59.7387 540.569 60.4C539.865 61.04 539.022 61.5307 538.041 61.872C537.06 62.2133 535.94 62.384 534.681 62.384ZM531.193 52.368L530.809 51.984H538.521L538.169 52.368C538.169 51.6 537.988 50.992 537.625 50.544C537.262 50.0747 536.814 49.7333 536.281 49.52C535.769 49.3067 535.268 49.2 534.777 49.2C534.286 49.2 533.764 49.3067 533.209 49.52C532.654 49.7333 532.174 50.0747 531.769 50.544C531.385 50.992 531.193 51.6 531.193 52.368ZM545.168 62V46H549.136L549.392 48.944V62H545.168ZM555.76 62V53.808H559.984V62H555.76ZM555.76 53.808C555.76 52.72 555.632 51.8773 555.376 51.28C555.141 50.6827 554.8 50.256 554.352 50C553.904 49.7227 553.381 49.584 552.784 49.584C551.696 49.5627 550.853 49.8933 550.256 50.576C549.68 51.2587 549.392 52.272 549.392 53.616H547.984C547.984 51.9093 548.229 50.4693 548.72 49.296C549.232 48.1013 549.936 47.1947 550.832 46.576C551.749 45.936 552.816 45.616 554.032 45.616C555.29 45.616 556.368 45.872 557.264 46.384C558.16 46.896 558.842 47.696 559.312 48.784C559.781 49.8507 560.005 51.2373 559.984 52.944V53.808H555.76ZM569.947 62.384C568.177 62.384 566.833 61.9467 565.915 61.072C565.019 60.1973 564.571 58.9493 564.571 57.328V41.008H568.795V56.4C568.795 57.0827 568.945 57.6053 569.243 57.968C569.542 58.3093 569.979 58.48 570.555 58.48C570.769 58.48 571.003 58.4373 571.259 58.352C571.515 58.2453 571.782 58.096 572.059 57.904L573.531 61.072C573.019 61.456 572.443 61.7653 571.803 62C571.185 62.256 570.566 62.384 569.947 62.384ZM561.979 49.584V46H572.795V49.584H561.979ZM584.015 68.4V46H587.983L588.239 48.944V68.4H584.015ZM593.071 62.384C591.727 62.384 590.586 62.0427 589.647 61.36C588.73 60.6773 588.026 59.7067 587.535 58.448C587.045 57.1893 586.799 55.7067 586.799 54C586.799 52.272 587.045 50.7893 587.535 49.552C588.026 48.2933 588.73 47.3227 589.647 46.64C590.586 45.9573 591.727 45.616 593.071 45.616C594.543 45.616 595.813 45.9573 596.879 46.64C597.967 47.3227 598.81 48.2933 599.407 49.552C600.005 50.7893 600.303 52.272 600.303 54C600.303 55.7067 600.005 57.1893 599.407 58.448C598.81 59.7067 597.967 60.6773 596.879 61.36C595.813 62.0427 594.543 62.384 593.071 62.384ZM591.983 58.512C592.751 58.512 593.423 58.32 593.999 57.936C594.597 57.552 595.066 57.0187 595.407 56.336C595.749 55.6533 595.919 54.8747 595.919 54C595.919 53.1253 595.749 52.3467 595.407 51.664C595.087 50.9813 594.629 50.4587 594.031 50.096C593.455 49.712 592.783 49.52 592.015 49.52C591.29 49.52 590.639 49.712 590.063 50.096C589.487 50.48 589.039 51.0133 588.719 51.696C588.399 52.3573 588.239 53.1253 588.239 54C588.239 54.8747 588.399 55.6533 588.719 56.336C589.039 57.0187 589.477 57.552 590.031 57.936C590.607 58.32 591.258 58.512 591.983 58.512ZM603.074 62V39.6H607.298V62H603.074ZM620.613 62L620.485 58.768V53.904C620.485 52.944 620.378 52.1227 620.165 51.44C619.973 50.7573 619.653 50.2347 619.205 49.872C618.778 49.488 618.192 49.296 617.445 49.296C616.762 49.296 616.144 49.4453 615.589 49.744C615.034 50.0427 614.565 50.5013 614.181 51.12L610.469 49.84C610.768 49.1573 611.205 48.496 611.781 47.856C612.357 47.1947 613.104 46.6613 614.021 46.256C614.96 45.8293 616.101 45.616 617.445 45.616C619.066 45.616 620.41 45.9253 621.477 46.544C622.565 47.1627 623.365 48.0373 623.877 49.168C624.41 50.2773 624.666 51.6 624.645 53.136L624.549 62H620.613ZM616.133 62.384C614.213 62.384 612.72 61.9573 611.653 61.104C610.608 60.2507 610.085 59.0453 610.085 57.488C610.085 55.7813 610.65 54.5013 611.781 53.648C612.933 52.7733 614.544 52.336 616.613 52.336H620.677V55.472H618.085C616.698 55.472 615.738 55.6427 615.205 55.984C614.672 56.304 614.405 56.7627 614.405 57.36C614.405 57.8293 614.618 58.2027 615.045 58.48C615.472 58.736 616.069 58.864 616.837 58.864C617.541 58.864 618.16 58.704 618.693 58.384C619.248 58.0427 619.685 57.616 620.005 57.104C620.325 56.5707 620.485 56.0267 620.485 55.472H621.509C621.509 57.648 621.093 59.344 620.261 60.56C619.45 61.776 618.074 62.384 616.133 62.384ZM630.774 68.784C630.198 68.784 629.558 68.6667 628.854 68.432C628.171 68.2187 627.563 67.9627 627.03 67.664L628.598 64.24C628.961 64.432 629.291 64.5813 629.59 64.688C629.91 64.816 630.187 64.88 630.422 64.88C630.87 64.88 631.265 64.752 631.606 64.496C631.947 64.2613 632.225 63.9093 632.438 63.44L634.326 58.992L639.414 46H644.054L636.79 63.376C636.342 64.4427 635.873 65.3813 635.382 66.192C634.891 67.024 634.283 67.664 633.558 68.112C632.854 68.56 631.926 68.784 630.774 68.784ZM633.206 62L625.878 46H630.518L635.862 58.992L637.238 62H633.206ZM652.744 62.384C651.165 62.384 649.768 62.032 648.552 61.328C647.336 60.6027 646.376 59.6107 645.672 58.352C644.989 57.0933 644.648 55.6427 644.648 54C644.648 52.3573 645 50.9067 645.704 49.648C646.429 48.3893 647.41 47.408 648.648 46.704C649.906 45.9787 651.346 45.616 652.968 45.616C654.376 45.616 655.666 45.9893 656.84 46.736C658.034 47.4613 658.984 48.5387 659.688 49.968C660.413 51.376 660.776 53.0933 660.776 55.12H648.648L649.032 54.736C649.032 55.5253 649.224 56.2187 649.608 56.816C650.013 57.392 650.525 57.84 651.144 58.16C651.784 58.4587 652.466 58.608 653.192 58.608C654.066 58.608 654.781 58.4267 655.336 58.064C655.89 57.68 656.317 57.1893 656.616 56.592L660.392 58.064C659.944 58.96 659.357 59.7387 658.632 60.4C657.928 61.04 657.085 61.5307 656.104 61.872C655.122 62.2133 654.002 62.384 652.744 62.384ZM649.256 52.368L648.872 51.984H656.584L656.232 52.368C656.232 51.6 656.05 50.992 655.688 50.544C655.325 50.0747 654.877 49.7333 654.344 49.52C653.832 49.3067 653.33 49.2 652.84 49.2C652.349 49.2 651.826 49.3067 651.272 49.52C650.717 49.7333 650.237 50.0747 649.832 50.544C649.448 50.992 649.256 51.6 649.256 52.368ZM666.206 53.584C666.206 51.856 666.537 50.4267 667.198 49.296C667.881 48.1653 668.745 47.3227 669.79 46.768C670.857 46.2133 671.966 45.936 673.118 45.936V50.032C672.137 50.032 671.209 50.1493 670.334 50.384C669.481 50.6187 668.788 51.0027 668.254 51.536C667.721 52.0693 667.454 52.752 667.454 53.584H666.206ZM663.23 62V46H667.454V62H663.23ZM678.331 51.12C677.627 51.12 677.019 50.864 676.507 50.352C676.017 49.84 675.771 49.232 675.771 48.528C675.771 47.8453 676.017 47.248 676.507 46.736C677.019 46.224 677.627 45.968 678.331 45.968C679.035 45.968 679.633 46.224 680.123 46.736C680.635 47.248 680.891 47.8453 680.891 48.528C680.891 49.232 680.635 49.84 680.123 50.352C679.633 50.864 679.035 51.12 678.331 51.12ZM678.363 62.032C677.659 62.032 677.051 61.7867 676.539 61.296C676.049 60.784 675.803 60.176 675.803 59.472C675.803 58.768 676.049 58.1707 676.539 57.68C677.051 57.168 677.659 56.912 678.363 56.912C679.067 56.912 679.665 57.168 680.155 57.68C680.667 58.1707 680.923 58.768 680.923 59.472C680.923 60.176 680.667 60.784 680.155 61.296C679.665 61.7867 679.067 62.032 678.363 62.032Z" fill="#1E7594"/>
<rect x="702" y="31" width="41" height="40" rx="8" fill="#097FC5"/>
<path d="M713.125 67C712.266 67 711.53 66.6867 710.918 66.06C710.306 65.4333 710 64.68 710 63.8V60.64C710 60.1067 710.117 59.6133 710.352 59.16C710.586 58.7067 710.898 58.32 711.289 58C713.086 56.5067 714.434 55 715.332 53.48C716.23 51.96 716.862 50.6 717.227 49.4H714.688C714.245 49.4 713.874 49.2467 713.574 48.94C713.275 48.6333 713.125 48.2533 713.125 47.8C713.125 47.3467 713.275 46.9667 713.574 46.66C713.874 46.3533 714.245 46.2 714.688 46.2H716.641C716.276 45.6133 715.99 44.9867 715.781 44.32C715.573 43.6533 715.469 42.9467 715.469 42.2C715.469 40.2 716.152 38.5 717.52 37.1C718.887 35.7 720.547 35 722.5 35C724.453 35 726.113 35.7 727.48 37.1C728.848 38.5 729.531 40.2 729.531 42.2C729.531 42.9467 729.427 43.6533 729.219 44.32C729.01 44.9867 728.724 45.6133 728.359 46.2H730.312C730.755 46.2 731.126 46.3533 731.426 46.66C731.725 46.9667 731.875 47.3467 731.875 47.8C731.875 48.2533 731.725 48.6333 731.426 48.94C731.126 49.2467 730.755 49.4 730.312 49.4H727.773C728.138 50.6 728.77 51.96 729.668 53.48C730.566 55 731.914 56.5067 733.711 58C734.102 58.32 734.414 58.7067 734.648 59.16C734.883 59.6133 735 60.1067 735 60.64V63.8C735 64.68 734.694 65.4333 734.082 66.06C733.47 66.6867 732.734 67 731.875 67H713.125ZM713.125 63.8H731.875V60.6C729.479 58.68 727.747 56.7 726.68 54.66C725.612 52.62 724.896 50.8667 724.531 49.4H720.469C720.104 50.8667 719.388 52.62 718.32 54.66C717.253 56.7 715.521 58.68 713.125 60.6V63.8ZM722.5 46.2C723.594 46.2 724.518 45.8133 725.273 45.04C726.029 44.2667 726.406 43.32 726.406 42.2C726.406 41.08 726.029 40.1333 725.273 39.36C724.518 38.5867 723.594 38.2 722.5 38.2C721.406 38.2 720.482 38.5867 719.727 39.36C718.971 40.1333 718.594 41.08 718.594 42.2C718.594 43.32 718.971 44.2667 719.727 45.04C720.482 45.8133 721.406 46.2 722.5 46.2Z" fill="white"/>
<rect x="1023" y="24" width="172" height="54" rx="10" fill="#BFE5F2"/>
<mask id="mask0_2207_7909" style="mask-type:alpha" maskUnits="userSpaceOnUse" x="1043" y="36" width="30" height="30">
<rect x="1043" y="36" width="30" height="30" fill="#D9D9D9"/>
</mask>
<g mask="url(#mask0_2207_7909)">
<path d="M1068.19 52.25H1054.25C1053.9 52.25 1053.6 52.1302 1053.36 51.8906C1053.12 51.651 1053 51.3542 1053 51C1053 50.6458 1053.12 50.349 1053.36 50.1094C1053.6 49.8698 1053.9 49.75 1054.25 49.75H1068.19L1067.13 48.6875C1066.88 48.4375 1066.76 48.1458 1066.77 47.8125C1066.78 47.4792 1066.9 47.1875 1067.13 46.9375C1067.38 46.6875 1067.67 46.5573 1068.02 46.5469C1068.36 46.5365 1068.66 46.6562 1068.91 46.9062L1072.13 50.125C1072.38 50.375 1072.5 50.6667 1072.5 51C1072.5 51.3333 1072.38 51.625 1072.13 51.875L1068.91 55.0938C1068.66 55.3438 1068.36 55.4635 1068.02 55.4531C1067.67 55.4427 1067.38 55.3125 1067.13 55.0625C1066.9 54.8125 1066.78 54.5208 1066.77 54.1875C1066.76 53.8542 1066.88 53.5625 1067.13 53.3125L1068.19 52.25ZM1061.75 46V42.25H1049.25V59.75H1061.75V56C1061.75 55.6458 1061.87 55.349 1062.11 55.1094C1062.35 54.8698 1062.65 54.75 1063 54.75C1063.35 54.75 1063.65 54.8698 1063.89 55.1094C1064.13 55.349 1064.25 55.6458 1064.25 56V59.75C1064.25 60.4375 1064.01 61.026 1063.52 61.5156C1063.03 62.0052 1062.44 62.25 1061.75 62.25H1049.25C1048.56 62.25 1047.97 62.0052 1047.48 61.5156C1046.99 61.026 1046.75 60.4375 1046.75 59.75V42.25C1046.75 41.5625 1046.99 40.974 1047.48 40.4844C1047.97 39.9948 1048.56 39.75 1049.25 39.75H1061.75C1062.44 39.75 1063.03 39.9948 1063.52 40.4844C1064.01 40.974 1064.25 41.5625 1064.25 42.25V46C1064.25 46.3542 1064.13 46.651 1063.89 46.8906C1063.65 47.1302 1063.35 47.25 1063 47.25C1062.65 47.25 1062.35 47.1302 1062.11 46.8906C1061.87 46.651 1061.75 46.3542 1061.75 46Z" fill="#1E7594"/>
</g>
<path d="M1084.52 58V44H1093.38V46.5H1087.26V49.68H1092.54V52.12H1087.26V55.5H1093.46V58H1084.52ZM1094.98 58L1099.08 52.28L1101.94 48H1105.06L1101.08 53.58L1098.14 58H1094.98ZM1102.16 58L1099.26 53.58L1095.24 48H1098.36L1101.22 52.28L1105.3 58H1102.16ZM1106.8 58V48H1109.44V58H1106.8ZM1108.12 46.38C1107.72 46.38 1107.37 46.2333 1107.06 45.94C1106.75 45.6333 1106.6 45.2733 1106.6 44.86C1106.6 44.4467 1106.75 44.0933 1107.06 43.8C1107.37 43.4933 1107.72 43.34 1108.12 43.34C1108.53 43.34 1108.89 43.4933 1109.18 43.8C1109.49 44.0933 1109.64 44.4467 1109.64 44.86C1109.64 45.2733 1109.49 45.6333 1109.18 45.94C1108.89 46.2333 1108.53 46.38 1108.12 46.38ZM1115.99 58.24C1114.89 58.24 1114.05 57.9667 1113.47 57.42C1112.91 56.8733 1112.63 56.0933 1112.63 55.08V44.88H1115.27V54.5C1115.27 54.9267 1115.37 55.2533 1115.55 55.48C1115.74 55.6933 1116.01 55.8 1116.37 55.8C1116.51 55.8 1116.65 55.7733 1116.81 55.72C1116.97 55.6533 1117.14 55.56 1117.31 55.44L1118.23 57.42C1117.91 57.66 1117.55 57.8533 1117.15 58C1116.77 58.16 1116.38 58.24 1115.99 58.24ZM1111.01 50.24V48H1117.77V50.24H1111.01ZM1129.19 62.26C1128.43 62.26 1127.75 62.2067 1127.17 62.1C1126.58 61.9933 1126.09 61.8533 1125.69 61.68C1125.29 61.5067 1124.96 61.3333 1124.71 61.16L1125.75 59.04C1125.93 59.1467 1126.18 59.2667 1126.49 59.4C1126.79 59.5467 1127.16 59.6667 1127.59 59.76C1128.01 59.8667 1128.51 59.92 1129.07 59.92C1129.6 59.92 1130.07 59.8133 1130.47 59.6C1130.88 59.4 1131.2 59.08 1131.43 58.64C1131.67 58.2133 1131.79 57.6667 1131.79 57V48H1134.43V56.92C1134.43 58.04 1134.21 59 1133.79 59.8C1133.36 60.6133 1132.75 61.2267 1131.97 61.64C1131.19 62.0533 1130.27 62.26 1129.19 62.26ZM1128.67 57.72C1127.75 57.72 1126.95 57.52 1126.27 57.12C1125.6 56.72 1125.08 56.16 1124.71 55.44C1124.33 54.72 1124.15 53.8667 1124.15 52.88C1124.15 51.84 1124.33 50.94 1124.71 50.18C1125.08 49.4067 1125.6 48.8133 1126.27 48.4C1126.95 47.9733 1127.75 47.76 1128.67 47.76C1129.47 47.76 1130.16 47.9733 1130.75 48.4C1131.33 48.8133 1131.79 49.4067 1132.11 50.18C1132.43 50.9533 1132.59 51.8733 1132.59 52.94C1132.59 53.9 1132.43 54.74 1132.11 55.46C1131.79 56.18 1131.33 56.74 1130.75 57.14C1130.16 57.5267 1129.47 57.72 1128.67 57.72ZM1129.43 55.5C1129.88 55.5 1130.27 55.3867 1130.61 55.16C1130.95 54.92 1131.22 54.6 1131.41 54.2C1131.59 53.7867 1131.69 53.32 1131.69 52.8C1131.69 52.2667 1131.59 51.8 1131.39 51.4C1131.2 51 1130.93 50.6867 1130.59 50.46C1130.25 50.2333 1129.86 50.12 1129.41 50.12C1128.94 50.12 1128.53 50.2333 1128.17 50.46C1127.81 50.6867 1127.53 51 1127.33 51.4C1127.13 51.8 1127.02 52.2667 1127.01 52.8C1127.02 53.32 1127.13 53.7867 1127.33 54.2C1127.53 54.6 1127.81 54.92 1128.17 55.16C1128.54 55.3867 1128.96 55.5 1129.43 55.5ZM1142.74 58L1142.66 55.98V52.94C1142.66 52.34 1142.59 51.8267 1142.46 51.4C1142.34 50.9733 1142.14 50.6467 1141.86 50.42C1141.59 50.18 1141.23 50.06 1140.76 50.06C1140.33 50.06 1139.95 50.1533 1139.6 50.34C1139.25 50.5267 1138.96 50.8133 1138.72 51.2L1136.4 50.4C1136.59 49.9733 1136.86 49.56 1137.22 49.16C1137.58 48.7467 1138.05 48.4133 1138.62 48.16C1139.21 47.8933 1139.92 47.76 1140.76 47.76C1141.77 47.76 1142.61 47.9533 1143.28 48.34C1143.96 48.7267 1144.46 49.2733 1144.78 49.98C1145.11 50.6733 1145.27 51.5 1145.26 52.46L1145.2 58H1142.74ZM1139.94 58.24C1138.74 58.24 1137.81 57.9733 1137.14 57.44C1136.49 56.9067 1136.16 56.1533 1136.16 55.18C1136.16 54.1133 1136.51 53.3133 1137.22 52.78C1137.94 52.2333 1138.95 51.96 1140.24 51.96H1142.78V53.92H1141.16C1140.29 53.92 1139.69 54.0267 1139.36 54.24C1139.03 54.44 1138.86 54.7267 1138.86 55.1C1138.86 55.3933 1138.99 55.6267 1139.26 55.8C1139.53 55.96 1139.9 56.04 1140.38 56.04C1140.82 56.04 1141.21 55.94 1141.54 55.74C1141.89 55.5267 1142.16 55.26 1142.36 54.94C1142.56 54.6067 1142.66 54.2667 1142.66 53.92H1143.3C1143.3 55.28 1143.04 56.34 1142.52 57.1C1142.01 57.86 1141.15 58.24 1139.94 58.24ZM1147.36 58V48H1149.84L1149.96 49.3C1150.27 48.7933 1150.66 48.4133 1151.14 48.16C1151.62 47.8933 1152.16 47.76 1152.74 47.76C1153.56 47.76 1154.24 47.9333 1154.78 48.28C1155.34 48.6267 1155.75 49.16 1156 49.88C1156.3 49.2 1156.71 48.68 1157.24 48.32C1157.78 47.9467 1158.4 47.76 1159.1 47.76C1160.28 47.76 1161.17 48.1333 1161.78 48.88C1162.4 49.6133 1162.7 50.7467 1162.7 52.28V58H1160.06V52.88C1160.06 52.2 1159.99 51.6733 1159.84 51.3C1159.7 50.9267 1159.5 50.66 1159.24 50.5C1158.99 50.3267 1158.69 50.24 1158.34 50.24C1157.7 50.2267 1157.21 50.4333 1156.86 50.86C1156.52 51.2867 1156.34 51.92 1156.34 52.76V58H1153.7V52.88C1153.7 52.2 1153.63 51.6733 1153.48 51.3C1153.35 50.9267 1153.15 50.66 1152.88 50.5C1152.63 50.3267 1152.33 50.24 1151.98 50.24C1151.34 50.2267 1150.85 50.4333 1150.5 50.86C1150.17 51.2867 1150 51.92 1150 52.76V58H1147.36ZM1169.32 58.24C1168.34 58.24 1167.46 58.02 1166.7 57.58C1165.94 57.1267 1165.34 56.5067 1164.9 55.72C1164.48 54.9333 1164.26 54.0267 1164.26 53C1164.26 51.9733 1164.48 51.0667 1164.92 50.28C1165.38 49.4933 1165.99 48.88 1166.76 48.44C1167.55 47.9867 1168.45 47.76 1169.46 47.76C1170.34 47.76 1171.15 47.9933 1171.88 48.46C1172.63 48.9133 1173.22 49.5867 1173.66 50.48C1174.12 51.36 1174.34 52.4333 1174.34 53.7H1166.76L1167 53.46C1167 53.9533 1167.12 54.3867 1167.36 54.76C1167.62 55.12 1167.94 55.4 1168.32 55.6C1168.72 55.7867 1169.15 55.88 1169.6 55.88C1170.15 55.88 1170.6 55.7667 1170.94 55.54C1171.29 55.3 1171.56 54.9933 1171.74 54.62L1174.1 55.54C1173.82 56.1 1173.46 56.5867 1173 57C1172.56 57.4 1172.04 57.7067 1171.42 57.92C1170.81 58.1333 1170.11 58.24 1169.32 58.24ZM1167.14 51.98L1166.9 51.74H1171.72L1171.5 51.98C1171.5 51.5 1171.39 51.12 1171.16 50.84C1170.94 50.5467 1170.66 50.3333 1170.32 50.2C1170 50.0667 1169.69 50 1169.38 50C1169.08 50 1168.75 50.0667 1168.4 50.2C1168.06 50.3333 1167.76 50.5467 1167.5 50.84C1167.26 51.12 1167.14 51.5 1167.14 51.98Z" fill="#1E7594"/>
</svg>
